<svg width="120" height="118" viewBox="0 0 120 118" fill="none" xmlns="http://www.w3.org/2000/svg">
<path d="M60.1 0.399902C64.8 0.399902 69 0.79989 73 1.69989L75.2 2.09985C75.9 2.29985 76.8 2.49987 77.4 2.79987C102 9.89987 120 32.2999 120 58.9999C120 60.5999 119.8 62.0999 119.8 63.6999C119.4 68.0999 118.5 72.3999 117.1 76.3999C107.1 71.4999 96 69.0999 84.2 69.0999C72.4 69.0999 61.3 71.4999 50.9 76.1999V50.1999C63.3 46.5999 74.7 45.4999 84 45.4999C86 45.4999 87.8 45.6999 89.8 45.6999C85.6 36.1999 74.9 27.0999 60.1 27.0999C42.1 27.0999 27.5 41.4999 27.5 59.0999C27.5 76.8999 42.6 90.7999 60.1 90.7999C69.2 90.7999 77 87.6999 83.4 81.2999C88.1 86.3999 96.1 95.0999 102 101.5C91.6 111.3 76.9 117.5 60 117.5C26.3 117.5 0.300049 90.8999 0.300049 59.0999C0.300049 26.2999 27 0.399902 60.1 0.399902Z" fill="#FFFFFD"/>
</svg>
