<svg width="120" height="159" viewBox="0 0 120 159" fill="none" xmlns="http://www.w3.org/2000/svg">
<path d="M27.4999 0.299805V99.7998C27.4999 120.2 41.4999 134.2 60.0999 134.2C78.9999 134.2 92.6998 116.9 92.6998 99.7998C92.6998 82.8998 79.5999 65.3998 60.0999 65.3998C55.3999 65.3998 50.9999 66.2998 46.9999 67.7998C45.1999 63.5998 38.9999 48.2998 37.8999 45.3998C44.7999 42.6998 52.0999 41.3998 60.0999 41.3998C94.4999 41.3998 120 68.2998 120 99.7998C120 132.7 92.6999 158.4 60.0999 158.4C26.9999 158.4 0.399902 132.4 0.399902 99.7998V0.299805H27.4999V0.299805Z" fill="#FFFFFD"/>
</svg>
