<svg width="110" height="25" viewBox="0 0 110 25" fill="none" xmlns="http://www.w3.org/2000/svg">
<path d="M110 0H0V25H110V0Z" fill="#251B40"/>
<path d="M89.7133 11.1348V16.9429C89.7133 18.1338 90.6338 18.951 91.8566 18.951C93.0992 18.951 93.9999 17.9411 93.9999 16.9429C93.9999 15.9564 93.1386 14.9349 91.8566 14.9349C91.5476 14.9349 91.2583 14.9874 90.9953 15.075C90.877 14.8298 90.4694 13.9367 90.3971 13.7674C90.8507 13.6098 91.3306 13.5339 91.8566 13.5339C94.1182 13.5339 95.7947 15.1042 95.7947 16.9429C95.7947 18.8634 93.9999 20.3636 91.8566 20.3636C89.6805 20.3636 87.9316 18.8459 87.9316 16.9429V11.1348H89.7133V11.1348Z" fill="#FFFFFD"/>
<path d="M83.2011 13.5339C83.5101 13.5339 83.7862 13.5573 84.0492 13.6098L84.1938 13.6332C84.2398 13.6448 84.299 13.6565 84.3385 13.674C85.9558 14.0885 87.1392 15.3961 87.1392 16.9546C87.1392 17.048 87.126 17.1356 87.126 17.229C87.0997 17.4858 87.0406 17.7368 86.9485 17.9703C86.2911 17.6843 85.5613 17.5442 84.7855 17.5442C84.0097 17.5442 83.28 17.6843 82.5962 17.9587V16.4409C83.4115 16.2308 84.161 16.1666 84.7724 16.1666C84.9039 16.1666 85.0222 16.1783 85.1537 16.1783C84.8776 15.6237 84.1741 15.0925 83.2011 15.0925C82.0177 15.0925 81.0578 15.9331 81.0578 16.9605C81.0578 17.9995 82.0505 18.8109 83.2011 18.8109C83.7994 18.8109 84.3122 18.6299 84.7329 18.2564C85.0419 18.5541 85.5679 19.0619 85.9558 19.4355C85.272 20.0076 84.3056 20.3695 83.1945 20.3695C80.9789 20.3695 79.2695 18.8167 79.2695 16.9605C79.2695 15.0458 81.0249 13.5339 83.2011 13.5339Z" fill="#FFFFFD"/>
<path d="M63.5176 11.2922H65.2269V16.6276C65.2269 17.8067 66.3052 18.8399 67.7187 18.8399C69.1059 18.8399 70.2104 17.8593 70.2104 16.6276V11.2922H71.9198V16.6276C71.9198 17.8067 72.9848 18.8399 74.3984 18.8399C75.7856 18.8399 76.8901 17.8593 76.8901 16.6276V11.2922H78.5995V16.6276C78.5995 18.7232 76.6928 20.3635 74.3984 20.3635C73.0374 20.3635 71.8343 19.8031 71.0651 18.8925C70.2827 19.8089 69.0796 20.3635 67.7187 20.3635C65.3913 20.3635 63.5176 18.6998 63.5176 16.6276V11.2922Z" fill="#FFFFFD"/>
<path d="M58.455 13.5339C58.764 13.5339 59.0401 13.5573 59.3031 13.6098L59.4477 13.6332C59.4937 13.6448 59.5529 13.6565 59.5924 13.674C61.2097 14.0885 62.3931 15.3961 62.3931 16.9546C62.3931 17.048 62.3799 17.1356 62.3799 17.229C62.3537 17.4858 62.2945 17.7368 62.2024 17.9703C61.545 17.6843 60.8152 17.5442 60.0394 17.5442C59.2636 17.5442 58.5339 17.6843 57.8501 17.9587V16.4409C58.6654 16.2308 59.4149 16.1666 60.0263 16.1666C60.1578 16.1666 60.2761 16.1783 60.4076 16.1783C60.1315 15.6237 59.428 15.0925 58.455 15.0925C57.2716 15.0925 56.3117 15.9331 56.3117 16.9605C56.3117 17.9995 57.3044 18.8109 58.455 18.8109C59.0533 18.8109 59.5661 18.6299 59.9868 18.2564C60.2958 18.5541 60.8218 19.0619 61.2097 19.4355C60.5259 20.0076 59.5595 20.3695 58.4484 20.3695C56.2328 20.3695 54.5234 18.8167 54.5234 16.9605C54.5234 15.0458 56.2788 13.5339 58.455 13.5339Z" fill="#FFFFFD"/>
<path d="M51.8496 20.3635V11.2922H53.6444V20.3635H51.8496Z" fill="#FFFFFD"/>
<path d="M47.5508 12.571H49.3325V14.655H50.3844V16.2077H49.3325V17.5445C49.3325 18.2333 49.9768 18.7995 50.746 18.7995H51.1865V20.3522H50.746C48.9774 20.3522 47.5508 19.0564 47.5508 17.5036V12.571Z" fill="#FFFFFD"/>
<path d="M43.248 12.571H45.0297V14.655H46.0817V16.2077H45.0297V17.5445C45.0297 18.2333 45.674 18.7995 46.4432 18.7995H46.8837V20.3522H46.4432C44.6747 20.3522 43.248 19.0564 43.248 17.5036V12.571Z" fill="#FFFFFD"/>
<path d="M42.2016 13.8838V20.3633H40.4199V13.8838H42.2016Z" fill="#FFFFFD"/>
<path fill-rule="evenodd" clip-rule="evenodd" d="M42.3902 11.7188L41.1636 12.7776L40.2012 11.8987L41.4278 10.8398L42.3902 11.7188Z" fill="#F09926"/>
<path d="M33.834 11.304H35.6157V16.3941C35.6157 17.8068 37.0621 18.7758 38.8569 18.7758H39.7181V20.3577H38.7386C36.0233 20.3577 33.834 18.624 33.834 16.47V11.304Z" fill="#FFFFFD"/>
<path fill-rule="evenodd" clip-rule="evenodd" d="M24.6484 6.14741C19.2194 2.85593 13.896 4.83786 12.1723 5.96486L12.6435 6.52005L12.172 5.96503C9.7147 7.57048 8.10086 9.67115 8.14611 12.7283L8.15636 13.4205L9.7341 13.4027L9.72385 12.7106C9.68662 10.1953 10.9637 8.48052 13.1147 7.07525L13.115 7.07507C14.5078 6.16437 19.0696 4.44751 23.7519 7.28652L23.7526 7.28695L23.7533 7.28738C25.4164 8.29108 26.4184 9.90358 26.9435 11.8814L26.9438 11.8825C27.2246 12.9326 27.2948 14.7582 26.7419 16.2848C26.4682 17.0405 26.0582 17.6775 25.4978 18.1196C24.9531 18.5495 24.223 18.8306 23.2086 18.8255C22.3157 18.8209 21.7278 18.3901 21.3259 17.8836C21.1246 17.6299 20.984 17.372 20.8938 17.1754C20.8492 17.0781 20.8181 16.9985 20.7989 16.9456C20.7893 16.9192 20.7828 16.8996 20.779 16.8881L20.7755 16.877L20.7753 16.8763L20.6254 16.3608L19.1748 16.3535L18.9946 16.8269L18.9943 16.8277L18.9943 16.8279L18.9898 16.839C18.9851 16.8503 18.977 16.8694 18.9654 16.895C18.9423 16.9463 18.9055 17.0233 18.8545 17.117C18.7513 17.3064 18.5951 17.5544 18.3828 17.7965C17.952 18.2877 17.37 18.6735 16.5809 18.6536L16.5804 18.6536L16.5799 18.6536C15.3944 18.6249 14.5292 18.0858 13.9996 17.1289L13.9992 17.1281L13.9987 17.1272C13.8233 16.8124 13.6933 16.4923 13.6016 16.1707C15.4746 15.3457 16.4429 14.0219 16.9356 12.9009C17.196 12.3085 17.3268 11.7673 17.393 11.3729C17.4261 11.1751 17.4434 11.0124 17.4523 10.8962C17.4568 10.838 17.4592 10.7914 17.4606 10.7577C17.4612 10.7408 17.4616 10.7272 17.4618 10.717L17.462 10.7041L17.4621 10.6997L17.4621 10.6979L17.4621 10.6972C17.4621 10.6969 17.4621 10.6965 16.6732 10.6937L17.4621 10.6965L17.4644 10.1949L14.038 9.19635L13.7032 9.63069L14.3567 10.0186C13.7032 9.63069 13.703 9.63091 13.7028 9.63114L13.7024 9.63167L13.7014 9.63302L13.6985 9.63679L13.6896 9.64862C13.6822 9.65839 13.6721 9.67192 13.6596 9.68907C13.6344 9.72338 13.5993 9.77222 13.5563 9.83454C13.4702 9.95911 13.3518 10.138 13.2173 10.3627C12.949 10.8109 12.6125 11.4476 12.3399 12.2036C12.0218 13.0859 11.7803 14.1618 11.8601 15.3007C10.2741 15.7505 9.0494 15.5766 8.20502 15.2903C7.70806 15.1217 7.32849 14.909 7.07643 14.7412C6.95076 14.6575 6.85813 14.5859 6.79989 14.538C6.77082 14.5141 6.75048 14.4963 6.73904 14.4861L6.72906 14.477L6.72863 14.4766L6.72851 14.4765L6.72814 14.4761L6.20315 13.9658L5.03192 14.8933L5.56058 15.4072L6.1462 14.9434C5.56058 15.4072 5.56091 15.4075 5.56124 15.4078L5.56195 15.4085L5.56356 15.41L5.56749 15.4138L5.57819 15.4239C5.58659 15.4317 5.5975 15.4418 5.61093 15.4538C5.63778 15.4779 5.67471 15.5101 5.72161 15.5486C5.8153 15.6255 5.94934 15.7285 6.12266 15.8439C6.4686 16.0742 6.97627 16.3577 7.63638 16.5815C8.75612 16.9612 10.276 17.1551 12.1224 16.6785C12.2349 17.0306 12.3855 17.3837 12.5807 17.7343C13.338 19.1021 14.6985 19.9929 16.5363 20.0374L16.5357 20.0374L16.5583 19.3455L16.5367 20.0374L16.5363 20.0374C18.0345 20.075 19.0442 19.3125 19.6333 18.6409C19.7037 18.5606 19.7693 18.4804 19.8302 18.4014C19.8913 18.4912 19.9581 18.5827 20.031 18.6745C20.6057 19.3987 21.614 20.2018 23.1997 20.2098C24.5915 20.2169 25.7051 19.8181 26.553 19.1491C27.3852 18.4924 27.917 17.6117 28.2457 16.7042C28.8976 14.9042 28.8154 12.821 28.4799 11.5665C27.9009 9.38629 26.7435 7.41223 24.6484 6.14741ZM12.5807 17.7343L12.5802 17.7334L13.2899 17.4312L12.5811 17.7351L12.5807 17.7343ZM6.1462 14.9434C6.73181 14.4796 6.7315 14.4793 6.73121 14.4791L6.73181 14.4796L6.1462 14.9434ZM12.1224 16.6785C11.9741 16.2148 11.8918 15.7528 11.8601 15.3007L11.9518 16.0079L12.1224 16.6785ZM14.7096 10.8508C14.6793 10.8992 14.6474 10.9512 14.6143 11.0066C14.3779 11.4014 14.0822 11.9616 13.8443 12.6213C13.6184 13.2478 13.4514 13.9442 13.426 14.6647C14.5187 14.0371 15.1232 13.1768 15.4634 12.4026C15.6712 11.9298 15.7772 11.4946 15.8308 11.1775L14.7096 10.8508ZM11.5397 11.5126L12.7595 10.4546L11.7888 9.59313L10.569 10.6511L11.5397 11.5126Z" fill="#F09926"/>
<path d="M38.571 3.14491C39.215 3.14491 39.719 3.31058 40.083 3.64191C40.447 3.97325 40.629 4.43058 40.629 5.01391C40.629 5.57858 40.461 6.02191 40.125 6.34391C39.789 6.66125 39.327 6.81991 38.739 6.81991C38.4823 6.81991 38.235 6.78725 37.997 6.72191C37.759 6.65658 37.5093 6.55158 37.248 6.40691V8.08691H36.562V5.11191C36.562 4.48658 36.737 4.00358 37.087 3.66291C37.437 3.31758 37.9316 3.14491 38.571 3.14491ZM38.62 6.25291C39.026 6.25291 39.3456 6.14558 39.579 5.93091C39.8123 5.71158 39.929 5.41058 39.929 5.02791C39.929 4.63591 39.81 4.33025 39.572 4.11091C39.334 3.88691 39.0073 3.77491 38.592 3.77491C38.1673 3.77491 37.836 3.89158 37.598 4.12491C37.3646 4.35358 37.248 4.68025 37.248 5.10491V5.76291C37.4393 5.92158 37.6516 6.04291 37.885 6.12691C38.1183 6.21091 38.3633 6.25291 38.62 6.25291ZM44.9905 4.37691V8.08691H44.3465V7.49891C44.1972 7.70425 44.0082 7.86058 43.7795 7.96791C43.5508 8.07525 43.2988 8.12891 43.0235 8.12891C42.6642 8.12891 42.3422 8.04958 42.0575 7.89091C41.7728 7.73225 41.5488 7.51058 41.3855 7.22591C41.2268 6.93658 41.1475 6.60525 41.1475 6.23191C41.1475 5.85858 41.2268 5.52958 41.3855 5.24491C41.5488 4.96025 41.7728 4.73858 42.0575 4.57991C42.3422 4.42125 42.6642 4.34191 43.0235 4.34191C43.2895 4.34191 43.5345 4.39325 43.7585 4.49591C43.9825 4.59391 44.1692 4.74091 44.3185 4.93691V4.37691H44.9905ZM43.0795 7.54091C43.3128 7.54091 43.5252 7.48725 43.7165 7.37991C43.9078 7.26791 44.0572 7.11391 44.1645 6.91791C44.2718 6.71725 44.3255 6.48858 44.3255 6.23191C44.3255 5.97525 44.2718 5.74891 44.1645 5.55291C44.0572 5.35225 43.9078 5.19825 43.7165 5.09091C43.5252 4.98358 43.3128 4.92991 43.0795 4.92991C42.8415 4.92991 42.6268 4.98358 42.4355 5.09091C42.2488 5.19825 42.0995 5.35225 41.9875 5.55291C41.8802 5.74891 41.8265 5.97525 41.8265 6.23191C41.8265 6.48858 41.8802 6.71725 41.9875 6.91791C42.0995 7.11391 42.2488 7.26791 42.4355 7.37991C42.6268 7.48725 42.8415 7.54091 43.0795 7.54091ZM48.2235 6.15491C48.4708 6.22025 48.6621 6.32525 48.7975 6.46991C48.9328 6.61458 49.0005 6.79425 49.0005 7.00891C49.0005 7.22825 48.9258 7.42425 48.7765 7.59691C48.6271 7.76491 48.4195 7.89791 48.1535 7.99591C47.8921 8.08925 47.5981 8.13591 47.2715 8.13591C46.9961 8.13591 46.7255 8.10091 46.4595 8.03091C46.1981 7.95625 45.9648 7.85125 45.7595 7.71591L45.9625 7.20491C46.1398 7.31691 46.3428 7.40558 46.5715 7.47091C46.8001 7.53158 47.0311 7.56191 47.2645 7.56191C47.5818 7.56191 47.8338 7.50825 48.0205 7.40091C48.2118 7.28891 48.3075 7.13958 48.3075 6.95291C48.3075 6.78025 48.2305 6.64725 48.0765 6.55391C47.9271 6.46058 47.7148 6.41391 47.4395 6.41391H46.7605V5.93091H47.3905C47.6425 5.93091 47.8408 5.88658 47.9855 5.79791C48.1301 5.70925 48.2025 5.58791 48.2025 5.43391C48.2025 5.26591 48.1161 5.13525 47.9435 5.04191C47.7755 4.94858 47.5468 4.90191 47.2575 4.90191C46.8888 4.90191 46.4991 4.99758 46.0885 5.18891L45.9065 4.67091C46.3591 4.44225 46.8328 4.32791 47.3275 4.32791C47.6261 4.32791 47.8945 4.36991 48.1325 4.45391C48.3705 4.53791 48.5571 4.65691 48.6925 4.81091C48.8278 4.96491 48.8955 5.13991 48.8955 5.33591C48.8955 5.51791 48.8348 5.68125 48.7135 5.82591C48.5921 5.97058 48.4288 6.08025 48.2235 6.15491ZM51.7861 4.34191C52.1594 4.34191 52.4884 4.42125 52.7731 4.57991C53.0624 4.73858 53.2841 4.96258 53.4381 5.25191C53.5968 5.53658 53.6761 5.86558 53.6761 6.23891C53.6761 6.60758 53.5991 6.93658 53.4451 7.22591C53.2911 7.51058 53.0764 7.73225 52.8011 7.89091C52.5258 8.04958 52.2108 8.12891 51.8561 8.12891C51.5761 8.12891 51.3241 8.07991 51.1001 7.98191C50.8761 7.87925 50.6894 7.73225 50.5401 7.54091V9.44491H49.8611V6.24591C49.8611 5.87258 49.9404 5.54125 50.0991 5.25191C50.2624 4.96258 50.4888 4.73858 50.7781 4.57991C51.0721 4.42125 51.4081 4.34191 51.7861 4.34191ZM51.7651 7.54091C52.0031 7.54091 52.2178 7.48725 52.4091 7.37991C52.6004 7.26791 52.7474 7.11391 52.8501 6.91791C52.9574 6.71725 53.0111 6.49091 53.0111 6.23891C53.0111 5.98691 52.9574 5.76291 52.8501 5.56691C52.7474 5.36625 52.6004 5.20991 52.4091 5.09791C52.2224 4.98591 52.0078 4.92991 51.7651 4.92991C51.3964 4.92991 51.0978 5.05125 50.8691 5.29391C50.6404 5.53191 50.5261 5.84458 50.5261 6.23191C50.5261 6.48858 50.5774 6.71725 50.6801 6.91791C50.7874 7.11391 50.9344 7.26791 51.1211 7.37991C51.3078 7.48725 51.5224 7.54091 51.7651 7.54091ZM58.1429 4.37691V8.08691H57.4989V7.49891C57.3495 7.70425 57.1605 7.86058 56.9319 7.96791C56.7032 8.07525 56.4512 8.12891 56.1759 8.12891C55.8165 8.12891 55.4945 8.04958 55.2099 7.89091C54.9252 7.73225 54.7012 7.51058 54.5379 7.22591C54.3792 6.93658 54.2999 6.60525 54.2999 6.23191C54.2999 5.85858 54.3792 5.52958 54.5379 5.24491C54.7012 4.96025 54.9252 4.73858 55.2099 4.57991C55.4945 4.42125 55.8165 4.34191 56.1759 4.34191C56.4419 4.34191 56.6869 4.39325 56.9109 4.49591C57.1349 4.59391 57.3215 4.74091 57.4709 4.93691V4.37691H58.1429ZM56.2319 7.54091C56.4652 7.54091 56.6775 7.48725 56.8689 7.37991C57.0602 7.26791 57.2095 7.11391 57.3169 6.91791C57.4242 6.71725 57.4779 6.48858 57.4779 6.23191C57.4779 5.97525 57.4242 5.74891 57.3169 5.55291C57.2095 5.35225 57.0602 5.19825 56.8689 5.09091C56.6775 4.98358 56.4652 4.92991 56.2319 4.92991C55.9939 4.92991 55.7792 4.98358 55.5879 5.09091C55.4012 5.19825 55.2519 5.35225 55.1399 5.55291C55.0325 5.74891 54.9789 5.97525 54.9789 6.23191C54.9789 6.48858 55.0325 6.71725 55.1399 6.91791C55.2519 7.11391 55.4012 7.26791 55.5879 7.37991C55.7792 7.48725 55.9939 7.54091 56.2319 7.54091ZM61.3183 4.50291C61.6637 4.50291 61.9717 4.57991 62.2423 4.73391C62.513 4.88791 62.723 5.10258 62.8723 5.37791C63.0263 5.64858 63.1033 5.95891 63.1033 6.30891C63.1033 6.66825 63.0217 6.98791 62.8583 7.26791C62.6997 7.54325 62.4733 7.75791 62.1793 7.91191C61.89 8.06591 61.5587 8.14291 61.1853 8.14291C60.5553 8.14291 60.0677 7.92825 59.7223 7.49891C59.3817 7.06491 59.2113 6.45591 59.2113 5.67191C59.2113 4.91125 59.3677 4.31625 59.6803 3.88691C59.993 3.45291 60.4713 3.16591 61.1153 3.02591L62.8093 2.64791L62.9073 3.26391L61.3463 3.59991C60.861 3.70725 60.4993 3.88925 60.2613 4.14591C60.0233 4.40258 59.888 4.77125 59.8553 5.25191C60.014 5.01391 60.2193 4.82958 60.4713 4.69891C60.7233 4.56825 61.0057 4.50291 61.3183 4.50291ZM61.1993 7.58291C61.4373 7.58291 61.6473 7.52925 61.8293 7.42191C62.016 7.31458 62.1607 7.16758 62.2633 6.98091C62.366 6.78958 62.4173 6.57258 62.4173 6.32991C62.4173 5.96125 62.3053 5.66491 62.0813 5.44091C61.8573 5.21691 61.5633 5.10491 61.1993 5.10491C60.8353 5.10491 60.539 5.21691 60.3103 5.44091C60.0863 5.66491 59.9743 5.96125 59.9743 6.32991C59.9743 6.57258 60.0257 6.78958 60.1283 6.98091C60.2357 7.16758 60.3827 7.31458 60.5693 7.42191C60.756 7.52925 60.966 7.58291 61.1993 7.58291ZM65.6521 8.12891C65.2834 8.12891 64.9521 8.04725 64.6581 7.88391C64.3641 7.72058 64.1331 7.49658 63.9651 7.21191C63.8018 6.92258 63.7201 6.59591 63.7201 6.23191C63.7201 5.86791 63.8018 5.54358 63.9651 5.25891C64.1331 4.96958 64.3641 4.74558 64.6581 4.58691C64.9521 4.42358 65.2834 4.34191 65.6521 4.34191C66.0208 4.34191 66.3498 4.42358 66.6391 4.58691C66.9331 4.74558 67.1618 4.96958 67.3251 5.25891C67.4931 5.54358 67.5771 5.86791 67.5771 6.23191C67.5771 6.59591 67.4931 6.92258 67.3251 7.21191C67.1618 7.49658 66.9331 7.72058 66.6391 7.88391C66.3498 8.04725 66.0208 8.12891 65.6521 8.12891ZM65.6521 7.54091C65.8901 7.54091 66.1024 7.48725 66.2891 7.37991C66.4804 7.26791 66.6298 7.11391 66.7371 6.91791C66.8444 6.71725 66.8981 6.48858 66.8981 6.23191C66.8981 5.97525 66.8444 5.74891 66.7371 5.55291C66.6298 5.35225 66.4804 5.19825 66.2891 5.09091C66.1024 4.98358 65.8901 4.92991 65.6521 4.92991C65.4141 4.92991 65.1994 4.98358 65.0081 5.09091C64.8214 5.19825 64.6721 5.35225 64.5601 5.55291C64.4528 5.74891 64.3991 5.97525 64.3991 6.23191C64.3991 6.48858 64.4528 6.71725 64.5601 6.91791C64.6721 7.11391 64.8214 7.26791 65.0081 7.37991C65.1994 7.48725 65.4141 7.54091 65.6521 7.54091ZM73.1885 4.34191C73.6552 4.34191 74.0238 4.47725 74.2945 4.74791C74.5698 5.01858 74.7075 5.41991 74.7075 5.95191V8.08691H74.0355V6.02891C74.0355 5.66958 73.9515 5.39891 73.7835 5.21691C73.6202 5.03491 73.3845 4.94391 73.0765 4.94391C72.7358 4.94391 72.4652 5.05125 72.2645 5.26591C72.0638 5.47591 71.9635 5.77925 71.9635 6.17591V8.08691H71.2915V6.02891C71.2915 5.66958 71.2075 5.39891 71.0395 5.21691C70.8762 5.03491 70.6405 4.94391 70.3325 4.94391C69.9918 4.94391 69.7212 5.05125 69.5205 5.26591C69.3198 5.47591 69.2195 5.77925 69.2195 6.17591V8.08691H68.5475V4.37691H69.1915V4.92991C69.3268 4.73858 69.5042 4.59391 69.7235 4.49591C69.9428 4.39325 70.1925 4.34191 70.4725 4.34191C70.7618 4.34191 71.0185 4.40025 71.2425 4.51691C71.4665 4.63358 71.6392 4.80391 71.7605 5.02791C71.9005 4.81325 72.0942 4.64525 72.3415 4.52391C72.5935 4.40258 72.8758 4.34191 73.1885 4.34191ZM79.389 4.37691V8.08691H78.745V7.49891C78.5956 7.70425 78.4066 7.86058 78.178 7.96791C77.9493 8.07525 77.6973 8.12891 77.422 8.12891C77.0626 8.12891 76.7406 8.04958 76.456 7.89091C76.1713 7.73225 75.9473 7.51058 75.784 7.22591C75.6253 6.93658 75.546 6.60525 75.546 6.23191C75.546 5.85858 75.6253 5.52958 75.784 5.24491C75.9473 4.96025 76.1713 4.73858 76.456 4.57991C76.7406 4.42125 77.0626 4.34191 77.422 4.34191C77.688 4.34191 77.933 4.39325 78.157 4.49591C78.381 4.59391 78.5676 4.74091 78.717 4.93691V4.37691H79.389ZM77.478 7.54091C77.7113 7.54091 77.9236 7.48725 78.115 7.37991C78.3063 7.26791 78.4556 7.11391 78.563 6.91791C78.6703 6.71725 78.724 6.48858 78.724 6.23191C78.724 5.97525 78.6703 5.74891 78.563 5.55291C78.4556 5.35225 78.3063 5.19825 78.115 5.09091C77.9236 4.98358 77.7113 4.92991 77.478 4.92991C77.24 4.92991 77.0253 4.98358 76.834 5.09091C76.6473 5.19825 76.498 5.35225 76.386 5.55291C76.2786 5.74891 76.225 5.97525 76.225 6.23191C76.225 6.48858 76.2786 6.71725 76.386 6.91791C76.498 7.11391 76.6473 7.26791 76.834 7.37991C77.0253 7.48725 77.24 7.54091 77.478 7.54091ZM80.6744 4.37691H81.3464V5.95191H83.4604V4.37691H84.1324V8.08691H83.4604V6.53291H81.3464V8.08691H80.6744V4.37691ZM87.0281 8.12891C86.6594 8.12891 86.3281 8.04725 86.0341 7.88391C85.7401 7.72058 85.5091 7.49658 85.3411 7.21191C85.1778 6.92258 85.0961 6.59591 85.0961 6.23191C85.0961 5.86791 85.1778 5.54358 85.3411 5.25891C85.5091 4.96958 85.7401 4.74558 86.0341 4.58691C86.3281 4.42358 86.6594 4.34191 87.0281 4.34191C87.3968 4.34191 87.7258 4.42358 88.0151 4.58691C88.3091 4.74558 88.5378 4.96958 88.7011 5.25891C88.8691 5.54358 88.9531 5.86791 88.9531 6.23191C88.9531 6.59591 88.8691 6.92258 88.7011 7.21191C88.5378 7.49658 88.3091 7.72058 88.0151 7.88391C87.7258 8.04725 87.3968 8.12891 87.0281 8.12891ZM87.0281 7.54091C87.2661 7.54091 87.4784 7.48725 87.6651 7.37991C87.8564 7.26791 88.0058 7.11391 88.1131 6.91791C88.2204 6.71725 88.2741 6.48858 88.2741 6.23191C88.2741 5.97525 88.2204 5.74891 88.1131 5.55291C88.0058 5.35225 87.8564 5.19825 87.6651 5.09091C87.4784 4.98358 87.2661 4.92991 87.0281 4.92991C86.7901 4.92991 86.5754 4.98358 86.3841 5.09091C86.1974 5.19825 86.0481 5.35225 85.9361 5.55291C85.8288 5.74891 85.7751 5.97525 85.7751 6.23191C85.7751 6.48858 85.8288 6.71725 85.9361 6.91791C86.0481 7.11391 86.1974 7.26791 86.3841 7.37991C86.5754 7.48725 86.7901 7.54091 87.0281 7.54091Z" fill="white"/>
</svg>
