<svg width="50" height="50" viewBox="0 0 50 50" fill="none" xmlns="http://www.w3.org/2000/svg">
<path d="M25 50C38.8071 50 50 38.8071 50 25C50 11.1929 38.8071 0 25 0C11.1929 0 0 11.1929 0 25C0 38.8071 11.1929 50 25 50Z" fill="#251B40"/>
<path d="M32.5743 19.8949C31.0451 17.6423 28.6594 16.2962 25.6769 15.9768C20.9035 15.4651 15.2379 18.2514 15.2379 25.456L16.5568 25.4696C16.5568 18.5138 22.0866 16.9735 25.4431 17.356C34.5399 18.3936 33.4094 29.2183 31.2055 30.5657C27.6749 32.7248 26.7736 28.5579 26.7736 28.5579H25.4814C25.4814 28.5579 24.9899 31.3605 22.4951 30.9332C20.8626 30.654 20.3964 28.9164 20.2697 28.3034C23.9061 26.3625 23.7607 22.0534 23.7607 22.0534L20.6048 21.093C20.6048 21.093 18.5438 24.4066 18.6762 27.5164C15.5113 28.441 13.3282 26.2157 13.3197 26.2073L12.3516 27.1053C12.3899 27.1462 15.0081 30.0742 18.9431 28.819C19.0938 29.4216 19.8035 31.8813 22.2568 32.3014C24.3847 32.6657 25.623 31.4248 26.0353 30.7813C26.5886 31.7001 27.6483 32.4774 29.1964 32.5482C29.2399 32.5501 29.2834 32.5488 29.3275 32.5514C31.4249 32.6475 33.8451 30.8125 34.2327 26.8073C34.4736 24.3209 33.8691 21.8021 32.5743 19.8949ZM21.2756 22.7138L22.3353 23.0294C22.2639 23.5209 22.0568 25.5488 20.1087 26.8053C20.197 25.0177 20.8769 23.5105 21.2756 22.7138Z" fill="#EC9A29"/>
<path d="M18.6085 21.4711L17.4893 22.5706L18.3484 23.4452L19.4676 22.3457L18.6085 21.4711Z" fill="#EC9A29"/>
<path d="M6.99806 33C6.9604 32.9377 6.95066 32.8695 6.96884 32.7974C6.98702 32.7247 7.02728 32.6701 7.08962 32.6325L10.5442 30.5552C10.6065 30.5175 10.674 30.5078 10.7468 30.526C10.8188 30.5442 10.874 30.5844 10.9117 30.6468C10.9494 30.7091 10.9585 30.776 10.9396 30.8467C10.9208 30.9175 10.8799 30.9714 10.8169 31.0091L7.52468 32.989L8.66689 34.8883C8.70001 34.9442 8.7091 35.0026 8.69417 35.0636C8.67923 35.1247 8.64352 35.1721 8.58767 35.2058C8.53572 35.237 8.47858 35.2455 8.41754 35.2299C8.3565 35.2149 8.3091 35.1792 8.27533 35.1234L6.99806 33Z" fill="white"/>
<path d="M9.19812 36.3915C9.15396 36.333 9.13643 36.2687 9.14617 36.1973C9.15591 36.1259 9.18967 36.0687 9.24812 36.0246L12.4656 33.5765C12.5241 33.5324 12.5884 33.5148 12.6598 33.5246C12.7306 33.5343 12.7884 33.5681 12.8325 33.6265C12.8767 33.685 12.8942 33.7493 12.8845 33.8207C12.8747 33.8921 12.841 33.9493 12.7825 33.9934L9.565 36.4415C9.50656 36.4856 9.44227 36.5032 9.37084 36.4934C9.30006 36.4837 9.24227 36.4499 9.19812 36.3915Z" fill="white"/>
<path d="M13.3023 34.9644C13.2562 34.9247 13.2303 34.8741 13.2238 34.8124C13.2179 34.7507 13.2354 34.6955 13.2783 34.6462C13.3179 34.6001 13.3692 34.5747 13.4322 34.5695C13.4952 34.565 13.5497 34.5825 13.5958 34.6221L14.7919 35.6501L15.988 36.678C16.0374 36.7202 16.064 36.7728 16.0692 36.8358C16.0738 36.8988 16.0562 36.9533 16.0166 36.9994C15.9744 37.0488 15.9225 37.0747 15.8608 37.078C15.7991 37.0812 15.7439 37.0618 15.6945 37.0195L14.7017 36.1663L12.1893 39.089C12.1419 39.1442 12.0816 39.1741 12.0082 39.178C11.9348 39.1819 11.8705 39.1605 11.8153 39.1124C11.7601 39.065 11.7296 39.0053 11.7244 38.9338C11.7192 38.8624 11.74 38.7988 11.7874 38.7436L14.2997 35.8208L13.3023 34.9644Z" fill="white"/>
<path d="M16.5506 37.6143C16.4935 37.5935 16.4512 37.5552 16.424 37.5C16.3967 37.4448 16.3941 37.3864 16.4162 37.3254C16.437 37.2682 16.4759 37.226 16.5331 37.1994C16.5902 37.1728 16.6474 37.1695 16.7045 37.1903L18.1863 37.7293L19.6681 38.2682C19.7292 38.2903 19.7727 38.3299 19.7999 38.387C19.8266 38.4442 19.8298 38.5013 19.809 38.5585C19.787 38.6195 19.7474 38.6624 19.6909 38.687C19.6344 38.7117 19.5753 38.713 19.5142 38.6909L18.2837 38.2435L16.9668 41.8656C16.9422 41.9344 16.8961 41.9831 16.8292 42.013C16.7623 42.0429 16.6941 42.0448 16.6259 42.0202C16.5571 41.9955 16.5077 41.95 16.4772 41.8851C16.4467 41.8202 16.4441 41.7533 16.4694 41.6844L17.7863 38.0624L16.5506 37.6143Z" fill="white"/>
<path d="M20.3038 42.8319C20.2317 42.8215 20.1733 42.7865 20.1285 42.7261C20.0837 42.6664 20.0668 42.6001 20.0772 42.528L20.6609 38.5397C20.6713 38.4677 20.7064 38.4092 20.7668 38.3644C20.8265 38.3203 20.8928 38.3027 20.9648 38.3138C21.0369 38.3241 21.0947 38.3592 21.1369 38.419C21.1798 38.4787 21.1954 38.5443 21.185 38.617L20.6285 42.4183L22.8213 42.7397C22.8856 42.7488 22.9363 42.7793 22.9746 42.83C23.0122 42.8806 23.0265 42.9378 23.0168 43.0021C23.0077 43.0625 22.9785 43.1112 22.9278 43.1488C22.8772 43.1865 22.8194 43.2008 22.7558 43.191L20.3038 42.8319Z" fill="white"/>
<path d="M24.521 43.2695C24.4483 43.2786 24.3827 43.2604 24.3236 43.2149C24.2645 43.1695 24.2301 43.1104 24.221 43.0377L23.9996 41.3227L23.9412 40.8701L23.7054 39.0403C23.6964 38.9675 23.7139 38.9019 23.76 38.8429C23.8054 38.7838 23.8645 38.7493 23.9373 38.7403L26.3951 38.4234C26.4593 38.4149 26.5165 38.4305 26.5665 38.4688C26.6165 38.5071 26.6457 38.5591 26.6541 38.6234C26.6619 38.6838 26.6464 38.739 26.608 38.789C26.5697 38.839 26.5178 38.8682 26.4535 38.8766L24.2554 39.1597L24.4671 40.8026L26.3996 40.5532C26.4639 40.5448 26.521 40.5604 26.571 40.5987C26.621 40.637 26.6503 40.687 26.6574 40.7474C26.6658 40.8117 26.6502 40.8688 26.6119 40.9188C26.5736 40.9688 26.5217 40.9981 26.4574 41.0065L24.5249 41.2558L24.7217 42.7838L26.9197 42.5006C26.984 42.4922 27.0412 42.5078 27.0912 42.5461C27.1412 42.5851 27.1704 42.6364 27.1788 42.7007C27.1866 42.761 27.171 42.8162 27.1327 42.8662C27.0938 42.9162 27.0425 42.9455 26.9782 42.9539L24.521 43.2695Z" fill="white"/>
<path d="M30.0842 38.7455C30.0186 38.6851 29.99 38.6131 29.9972 38.5273C30.0043 38.4423 30.0459 38.376 30.1225 38.3293C30.1712 38.2994 30.2244 38.2877 30.2822 38.2923C30.34 38.2975 30.3907 38.3202 30.4342 38.3598L33.0498 40.7715L32.1134 37.4189C32.092 37.3371 32.0959 37.2598 32.1251 37.1871C32.1543 37.1144 32.2037 37.0572 32.2731 37.0144C32.3426 36.9721 32.4166 36.954 32.4965 36.9598C32.5764 36.9657 32.6459 36.9981 32.7056 37.0566L35.2679 39.4157L34.3095 35.991C34.2972 35.9319 34.3011 35.876 34.3212 35.8234C34.3413 35.7708 34.377 35.7286 34.429 35.6968C34.5017 35.6527 34.5783 35.6455 34.6595 35.6773C34.7407 35.7085 34.7926 35.7669 34.8166 35.8527L35.9205 39.8306C35.9433 39.9072 35.9407 39.9825 35.9127 40.0566C35.8842 40.1312 35.8355 40.189 35.7666 40.2319C35.6972 40.2741 35.6225 40.2916 35.5413 40.2838C35.4608 40.276 35.3913 40.2449 35.3335 40.1897L32.7712 37.8312L33.7076 41.1838C33.7303 41.2605 33.727 41.3364 33.6972 41.4118C33.6673 41.4871 33.6173 41.5462 33.5485 41.5884C33.479 41.6306 33.4043 41.6481 33.3231 41.6403C33.242 41.6325 33.1731 41.6014 33.1153 41.5462L30.0842 38.7455Z" fill="white"/>
<path d="M38.719 37.8741C38.6716 37.9293 38.6105 37.9605 38.5358 37.9657C38.4612 37.9715 38.3962 37.9501 38.341 37.9027L37.0287 36.7767L36.682 36.4793L35.282 35.278C35.2268 35.2306 35.1962 35.1696 35.1904 35.0949C35.1845 35.0209 35.206 34.9553 35.2534 34.9001L36.867 33.0196C36.9092 32.9702 36.9618 32.9436 37.0248 32.9384C37.0878 32.9339 37.1436 32.9521 37.193 32.9949C37.2391 33.0345 37.2644 33.0858 37.2696 33.1488C37.2742 33.2118 37.2553 33.2676 37.2131 33.317L35.7696 34.9988L37.0261 36.0774L38.2949 34.5988C38.3371 34.5495 38.3897 34.5228 38.4527 34.5176C38.5157 34.5131 38.5703 34.53 38.6164 34.5702C38.6657 34.6125 38.693 34.665 38.6975 34.728C38.7021 34.791 38.6833 34.8469 38.641 34.8962L37.3722 36.3748L38.541 37.378L39.9846 35.6962C40.0268 35.6469 40.0794 35.6202 40.1423 35.615C40.2053 35.6105 40.2612 35.6287 40.3105 35.6715C40.3566 35.7112 40.382 35.7625 40.3871 35.8254C40.3917 35.8884 40.3729 35.9449 40.3307 35.9936L38.719 37.8741Z" fill="white"/>
<path d="M41.703 34.3489C41.666 34.4119 41.6114 34.4528 41.5393 34.4716C41.4673 34.4904 41.3997 34.4813 41.3367 34.4443L37.8588 32.4073C37.7958 32.3703 37.7549 32.3158 37.7361 32.2437C37.7173 32.1716 37.7263 32.1041 37.7634 32.0411L38.6218 30.5755C38.7036 30.4352 38.8069 30.3197 38.9315 30.2274C39.0556 30.1359 39.1919 30.0703 39.3387 30.032C39.4861 29.9937 39.6361 29.9839 39.7893 30.0034C39.9426 30.0229 40.0893 30.0735 40.2296 30.1554C40.3874 30.2476 40.5134 30.3638 40.6075 30.5041C40.7017 30.6443 40.7647 30.7963 40.7958 30.9599C40.9984 30.8385 41.2199 30.7768 41.4588 30.7729C41.6984 30.7697 41.9263 30.832 42.1439 30.9586C42.3017 31.0508 42.4328 31.1677 42.538 31.3093C42.6432 31.4508 42.7179 31.6047 42.7614 31.7716C42.8049 31.9385 42.8153 32.1093 42.7932 32.2839C42.7705 32.4586 42.7134 32.6248 42.6212 32.7826L41.703 34.3489ZM39.9614 30.6125C39.8776 30.5632 39.788 30.5333 39.6932 30.5222C39.5984 30.5112 39.5069 30.5177 39.4179 30.5411C39.3289 30.5645 39.2458 30.6041 39.1686 30.6599C39.0913 30.7158 39.027 30.7872 38.9757 30.8748L38.2893 32.0463L39.5341 32.7755L40.2205 31.6041C40.2718 31.5164 40.303 31.4255 40.3134 31.3307C40.3244 31.2359 40.3179 31.1443 40.2945 31.0554C40.2712 30.9664 40.2315 30.8833 40.1757 30.806C40.1212 30.7281 40.0491 30.6638 39.9614 30.6125ZM39.9283 33.006L41.4413 33.8924L42.1861 32.6209C42.2478 32.5158 42.2854 32.4054 42.2997 32.2885C42.314 32.1722 42.3069 32.0599 42.2783 31.9515C42.2497 31.843 42.2023 31.7424 42.1348 31.6482C42.0673 31.5547 41.9809 31.4768 41.8757 31.4158C41.7705 31.3541 41.6601 31.3164 41.5432 31.3021C41.427 31.2878 41.3147 31.295 41.2062 31.3235C41.0978 31.3521 40.9971 31.4015 40.9043 31.4716C40.8114 31.5417 40.7341 31.6294 40.6724 31.7346L39.9283 33.006Z" fill="white"/>
<path d="M6.62109 19.7229C6.67564 19.4592 6.7659 19.1209 6.92629 18.7073C7.12304 18.1995 7.38473 17.8735 7.68927 17.7196C7.96265 17.5742 8.30226 17.5566 8.65616 17.6937C9.0159 17.8333 9.25811 18.0489 9.38733 18.33C9.57109 18.7138 9.54772 19.2131 9.35291 19.7151C9.29317 19.8683 9.23278 20.0079 9.15746 20.1144L10.751 20.732L10.5523 21.2456L6.62109 19.7229ZM8.73863 19.9528C8.81135 19.8521 8.87824 19.7151 8.94447 19.5437C9.18473 18.9242 9.03018 18.4294 8.48083 18.217C7.95551 18.0138 7.55746 18.2872 7.33798 18.8541C7.25096 19.0781 7.20226 19.2566 7.19187 19.3541L8.73863 19.9528Z" fill="white"/>
<path d="M10.8748 17.228L11.6748 18.3929L11.33 18.8462L8.8125 15.1098L9.2151 14.5806L13.4917 16.0046L13.1352 16.4728L11.7911 16.0234L10.8748 17.228ZM11.3794 15.8539L10.1495 15.4429C9.87029 15.35 9.63068 15.2468 9.39562 15.1481L9.38783 15.1585C9.55081 15.3624 9.7151 15.5747 9.87224 15.7974L10.6015 16.8773L11.3794 15.8539Z" fill="white"/>
<path d="M11.4385 12.4138C11.5229 12.0768 11.7067 11.7255 12.0456 11.4112C12.5891 10.908 13.2274 10.8431 13.6748 11.3255C14.032 11.7112 14.0242 12.2612 13.7346 12.6853L13.743 12.6944C14.2268 12.332 14.8144 12.3229 15.2313 12.7736C15.8333 13.4236 15.5125 14.2041 14.9417 14.7333C14.6586 14.9957 14.3054 15.2106 13.9352 15.2859L13.7495 14.871C14.0067 14.8138 14.3716 14.6482 14.6268 14.4119C15.0911 13.9814 15.1145 13.4944 14.7963 13.1508C14.3619 12.682 13.7865 12.9645 13.3872 13.3346L13.2015 13.5067L12.9177 13.2002L13.1034 13.0281C13.5164 12.645 13.6002 12.0931 13.3034 11.7729C13.0112 11.4573 12.6248 11.4872 12.2859 11.8015C12.0489 12.021 11.893 12.3463 11.8248 12.608L11.4385 12.4138Z" fill="white"/>
<path d="M14.6543 9.48985C14.8627 9.31907 15.1459 9.11322 15.5303 8.89309C16.0023 8.62231 16.4114 8.534 16.7446 8.60608C17.0485 8.66517 17.3238 8.86517 17.5121 9.19439C17.7043 9.52946 17.7562 9.84959 17.6796 10.1489C17.5816 10.5626 17.2478 10.9359 16.7816 11.2035C16.6387 11.2853 16.5036 11.3554 16.3783 11.3911L17.2283 12.8736L16.7504 13.1476L14.6543 9.48985ZM16.1549 11.0009C16.2751 10.9684 16.4134 10.9041 16.5725 10.8126C17.1491 10.4821 17.34 10.0009 17.0472 9.48985C16.7673 9.00089 16.2855 8.96322 15.7588 9.26517C15.5504 9.38465 15.4004 9.49244 15.3303 9.56192L16.1549 11.0009Z" fill="white"/>
<path d="M19.3736 10.4735L19.3606 11.8865L18.8184 12.0598L18.8989 7.55465L19.532 7.35205L22.219 10.9715L21.6586 11.1508L20.8158 10.0118L19.3736 10.4735ZM20.5749 9.63712L19.8028 8.59491C19.6275 8.35854 19.4898 8.13647 19.3547 7.92088L19.3424 7.92478C19.3593 8.18517 19.3723 8.45335 19.3729 8.72608L19.3515 10.0287L20.5749 9.63712Z" fill="white"/>
<path d="M25.4036 6.72803L25.4049 7.19037L23.5627 7.19491L23.5653 8.34037C23.6984 8.32089 23.951 8.3079 24.0906 8.30725C24.4958 8.30595 24.8945 8.39361 25.1926 8.58907C25.5159 8.79686 25.738 9.13192 25.7393 9.63192C25.7406 10.0306 25.6081 10.3352 25.3874 10.5572C25.04 10.9001 24.4646 11.0345 23.8822 11.0358C23.4958 11.0365 23.2049 11.0124 23.0211 10.9871L23.0107 6.73322L25.4036 6.72803ZM23.5718 10.5748C23.6984 10.6001 23.8439 10.606 24.0341 10.6053C24.3757 10.6047 24.7237 10.4962 24.9322 10.2741C25.0776 10.1222 25.1653 9.91309 25.1646 9.64686C25.164 9.31764 25.0237 9.09621 24.8146 8.95141C24.5926 8.80011 24.3075 8.73777 24.0036 8.73842C23.877 8.73842 23.7062 8.75205 23.5666 8.76504L23.5718 10.5748Z" fill="white"/>
<path d="M30.4615 9.31058C30.1875 10.7534 29.1654 11.3521 28.096 11.1489C26.9888 10.9385 26.3745 9.9333 26.6154 8.66447C26.868 7.33395 27.8602 6.62032 28.9797 6.83265C30.1239 7.04954 30.6979 8.06707 30.4615 9.31058ZM27.1966 8.76187C27.0265 9.65733 27.3596 10.5515 28.2115 10.7132C29.07 10.8762 29.7044 10.1781 29.8856 9.22681C30.044 8.39369 29.7739 7.44045 28.8719 7.26902C27.9758 7.09954 27.3713 7.84109 27.1966 8.76187Z" fill="white"/>
<path d="M32.6593 8.81703L31.5489 8.14626L31.7911 7.74561L34.4943 9.37807L34.2521 9.77872L33.1359 9.1047L31.1729 12.3553L30.6963 12.0677L32.6593 8.81703Z" fill="white"/>
<path d="M34.2269 12.3415L33.0321 13.0967L32.5918 12.735L36.421 10.3604L36.9347 10.7824L35.3496 15.0026L34.895 14.6285L35.395 13.3026L34.2269 12.3415ZM35.5808 12.898L36.0379 11.6844C36.1418 11.4091 36.2535 11.1733 36.3613 10.9422L36.3515 10.9344C36.1418 11.0896 35.923 11.2461 35.695 11.3941L34.5886 12.0818L35.5808 12.898Z" fill="white"/>
<path d="M39.588 13.35L38.1822 14.4494L39.453 16.0747L40.8588 14.9754L41.2017 15.4143L37.8413 18.0422L37.4984 17.6033L39.0737 16.3715L37.803 14.7461L36.2276 15.9779L35.8887 15.5442L39.2491 12.9163L39.588 13.35Z" fill="white"/>
<path d="M42.2437 21.115C40.9891 21.878 39.8599 21.5208 39.2943 20.5903C38.7086 19.628 39.0437 18.4981 40.1469 17.8267C41.3041 17.1228 42.4989 17.3812 43.0911 18.3546C43.6956 19.3501 43.3248 20.4572 42.2437 21.115ZM40.4631 18.3234C39.6846 18.7975 39.2437 19.6436 39.6943 20.3845C40.1482 21.1306 41.0917 21.1345 41.919 20.6312C42.6437 20.1903 43.1703 19.3514 42.693 18.5669C42.2196 17.7884 41.2638 17.8364 40.4631 18.3234Z" fill="white"/>
<path d="M7.80509 26.6058C8.27131 26.6058 8.64925 26.2279 8.64925 25.7616C8.64925 25.2954 8.27131 24.9175 7.80509 24.9175C7.33888 24.9175 6.96094 25.2954 6.96094 25.7616C6.96094 26.2279 7.33888 26.6058 7.80509 26.6058Z" fill="#EC9A29"/>
<path d="M41.9594 26.6058C42.4256 26.6058 42.8035 26.2279 42.8035 25.7616C42.8035 25.2954 42.4256 24.9175 41.9594 24.9175C41.4932 24.9175 41.1152 25.2954 41.1152 25.7616C41.1152 26.2279 41.4932 26.6058 41.9594 26.6058Z" fill="#EC9A29"/>
</svg>
