<svg width="168" height="42" viewBox="0 0 168 42" fill="none" xmlns="http://www.w3.org/2000/svg">
<g filter="url(#filter0_d_298_375)">
<path d="M152.971 16.9907V27.2044C152.971 29.2984 154.59 30.7355 156.74 30.7355C158.925 30.7355 160.509 28.9597 160.509 27.2044C160.509 25.4696 158.994 23.6732 156.74 23.6732C156.197 23.6732 155.688 23.7656 155.225 23.9196C155.017 23.4885 154.301 21.9179 154.173 21.6202C154.971 21.3431 155.815 21.2096 156.74 21.2096C160.717 21.2096 163.665 23.9709 163.665 27.2044C163.665 30.5816 160.509 33.2197 156.74 33.2197C152.913 33.2197 149.838 30.5508 149.838 27.2044V16.9907H152.971Z" fill="#FFFFFD"/>
<path d="M141.521 21.2097C142.064 21.2097 142.55 21.2508 143.012 21.3432L143.267 21.3842C143.348 21.4047 143.452 21.4253 143.521 21.4561C146.365 22.1849 148.446 24.4842 148.446 27.225C148.446 27.3892 148.423 27.5432 148.423 27.7075C148.377 28.1591 148.273 28.6005 148.111 29.0111C146.955 28.5081 145.672 28.2618 144.307 28.2618C142.943 28.2618 141.66 28.5081 140.457 28.9906V26.3217C141.891 25.9521 143.209 25.8392 144.284 25.8392C144.515 25.8392 144.723 25.8598 144.955 25.8598C144.469 24.8846 143.232 23.9505 141.521 23.9505C139.44 23.9505 137.752 25.4286 137.752 27.2353C137.752 29.0624 139.498 30.4893 141.521 30.4893C142.573 30.4893 143.475 30.171 144.215 29.5141C144.758 30.0376 145.683 30.9307 146.365 31.5876C145.163 32.5936 143.463 33.23 141.509 33.23C137.613 33.23 134.607 30.4995 134.607 27.2353C134.607 23.8683 137.694 21.2097 141.521 21.2097Z" fill="#FFFFFD"/>
<path d="M106.906 17.2681H109.912V26.6503C109.912 28.7238 111.808 30.5407 114.294 30.5407C116.733 30.5407 118.676 28.8162 118.676 26.6503V17.2681H121.682V26.6503C121.682 28.7238 123.554 30.5407 126.04 30.5407C128.479 30.5407 130.422 28.8162 130.422 26.6503V17.2681H133.428V26.6503C133.428 30.3354 130.075 33.2199 126.04 33.2199C123.647 33.2199 121.531 32.2344 120.179 30.6331C118.803 32.2447 116.687 33.2199 114.294 33.2199C110.201 33.2199 106.906 30.2943 106.906 26.6503V17.2681Z" fill="#FFFFFD"/>
<path d="M98.0054 21.2097C98.5488 21.2097 99.0344 21.2508 99.4968 21.3432L99.7511 21.3842C99.8321 21.4047 99.9361 21.4253 100.005 21.4561C102.85 22.1849 104.931 24.4842 104.931 27.225C104.931 27.3892 104.907 27.5432 104.907 27.7075C104.861 28.1591 104.757 28.6005 104.595 29.0111C103.439 28.5081 102.156 28.2618 100.792 28.2618C99.4274 28.2618 98.1441 28.5081 96.9418 28.9906V26.3217C98.3754 25.9521 99.6933 25.8392 100.769 25.8392C101 25.8392 101.208 25.8598 101.439 25.8598C100.954 24.8846 99.7165 23.9505 98.0054 23.9505C95.9244 23.9505 94.2364 25.4286 94.2364 27.2353C94.2364 29.0624 95.9822 30.4893 98.0054 30.4893C99.0575 30.4893 99.9593 30.171 100.699 29.5141C101.243 30.0376 102.167 30.9307 102.85 31.5876C101.647 32.5936 99.9477 33.23 97.9938 33.23C94.0977 33.23 91.0918 30.4995 91.0918 27.2353C91.0918 23.8683 94.1786 21.2097 98.0054 21.2097Z" fill="#FFFFFD"/>
<path d="M86.3887 33.2199V17.2681H89.5449V33.2199H86.3887Z" fill="#FFFFFD"/>
<path d="M78.8281 19.5166H81.9612V23.1812H83.811V25.9117H81.9612V28.2624C81.9612 29.4736 83.0942 30.4693 84.4469 30.4693H85.2215V33.1998H84.4469C81.3369 33.1998 78.8281 30.921 78.8281 28.1905V19.5166Z" fill="#FFFFFD"/>
<path d="M71.2637 19.5166H74.3968V23.1812H76.2466V25.9117H74.3968V28.2624C74.3968 29.4736 75.5298 30.4693 76.8824 30.4693H77.657V33.1998H76.8824C73.7725 33.1998 71.2637 30.921 71.2637 28.1905V19.5166Z" fill="#FFFFFD"/>
<path d="M69.4241 21.8252V33.2193H66.291V21.8252H69.4241Z" fill="#FFFFFD"/>
<path fill-rule="evenodd" clip-rule="evenodd" d="M69.7537 18.018L67.5967 19.8799L65.9043 18.3343L68.0613 16.4724L69.7537 18.018Z" fill="#F09926"/>
<path d="M54.707 17.2886H57.8401V26.2396C57.8401 28.7238 60.3836 30.4278 63.5398 30.4278H65.0543V33.2096H63.3317C58.5569 33.2096 54.707 30.1609 54.707 26.3731V17.2886Z" fill="#FFFFFD"/>
<path fill-rule="evenodd" clip-rule="evenodd" d="M38.555 8.22126C29.0081 2.4332 19.647 5.91843 16.6157 7.90025L17.4444 8.87655L16.6153 7.90055C12.2941 10.7237 9.4562 14.4178 9.53578 19.7938L9.5538 21.0109L12.3283 20.9796L12.3102 19.7625C12.2448 15.3394 14.4906 12.324 18.2731 9.85286L18.2736 9.85256C20.7227 8.25109 28.7447 5.23199 36.9785 10.2244L36.9798 10.2251L36.981 10.2259C39.9056 11.9909 41.6676 14.8265 42.5909 18.3045L42.5914 18.3064C43.0853 20.1531 43.2087 23.3633 42.2364 26.0478C41.7551 27.3768 41.0342 28.4969 40.0487 29.2744C39.0908 30.0302 37.807 30.5247 36.0231 30.5156C34.453 30.5076 33.4191 29.75 32.7124 28.8594C32.3584 28.4133 32.1111 27.9597 31.9526 27.614C31.8741 27.4429 31.8195 27.3029 31.7857 27.2098C31.7689 27.1634 31.7573 27.1291 31.7508 27.1088L31.7446 27.0892L31.7442 27.0879L31.4806 26.1816L28.9297 26.1686L28.6129 27.0012L28.6124 27.0025L28.6122 27.0028L28.6043 27.0223C28.596 27.0423 28.5818 27.0758 28.5615 27.1209C28.5208 27.2112 28.4562 27.3465 28.3664 27.5113C28.185 27.8444 27.9104 28.2804 27.5369 28.7062C26.7794 29.5699 25.756 30.2484 24.3684 30.2134L24.3675 30.2134L24.3666 30.2133C22.2819 30.163 20.7604 29.2149 19.8292 27.5322L19.8284 27.5307L19.8276 27.5293C19.5191 26.9757 19.2905 26.4128 19.1293 25.8472C22.4229 24.3965 24.1257 22.0686 24.9921 20.0972C25.45 19.0555 25.68 18.1039 25.7964 17.4104C25.8547 17.0625 25.885 16.7763 25.9008 16.572C25.9086 16.4697 25.9129 16.3877 25.9152 16.3285C25.9164 16.2988 25.917 16.2748 25.9174 16.2568L25.9178 16.2343L25.9179 16.2264L25.9179 16.2234L25.9179 16.2221C25.9179 16.2215 25.9179 16.2209 24.5306 16.2158L25.9179 16.2209L25.922 15.3388L19.8967 13.5828L19.3079 14.3466L20.4535 15.0266C19.3079 14.3466 19.3076 14.347 19.3073 14.3474L19.3065 14.3483L19.3047 14.3507L19.2997 14.3573L19.2839 14.3781C19.271 14.3953 19.2533 14.4191 19.2312 14.4493C19.187 14.5096 19.1253 14.5955 19.0495 14.7051C18.8981 14.9241 18.69 15.2387 18.4535 15.6338C17.9817 16.4219 17.3899 17.5417 16.9106 18.8711C16.3512 20.4225 15.9265 22.3145 16.0669 24.3174C13.2778 25.1084 11.1242 24.8024 9.63938 24.2989C8.76547 24.0026 8.09799 23.6285 7.65475 23.3334C7.43375 23.1862 7.27086 23.0603 7.16845 22.9762C7.11733 22.9342 7.08156 22.9028 7.06144 22.8848L7.0439 22.8688L7.04314 22.8681L7.04293 22.8679L6.11908 21.9699L4.05948 23.6009L4.98913 24.5045L6.01893 23.689C4.98913 24.5045 4.9897 24.5051 4.99028 24.5056L4.99154 24.5068L4.99437 24.5096L5.00128 24.5162L5.0201 24.534C5.03486 24.5477 5.05406 24.5654 5.07767 24.5866C5.12488 24.629 5.18983 24.6855 5.27229 24.7532C5.43705 24.8885 5.67276 25.0695 5.97755 25.2725C6.58587 25.6775 7.47862 26.176 8.63942 26.5696C10.6085 27.2373 13.2813 27.5783 16.528 26.7402C16.7259 27.3593 16.9907 27.9803 17.334 28.5967C18.6657 31.0021 21.0582 32.5685 24.2899 32.6468L24.2907 32.6468L24.3287 31.4301L24.2889 32.6468L24.2899 32.6468C26.9244 32.713 28.7001 31.3721 29.736 30.191C29.8599 30.0498 29.9752 29.9088 30.0822 29.7699C30.1897 29.9278 30.3071 30.0887 30.4353 30.2502C31.4459 31.5237 33.2191 32.9358 36.0075 32.95C38.4549 32.9624 40.4132 32.2611 41.9042 31.0846C43.3678 29.9299 44.3028 28.3812 44.8808 26.7853C46.0273 23.6201 45.8828 19.9568 45.2928 17.7506C44.2746 13.9168 42.2393 10.4454 38.555 8.22126ZM17.334 28.5967L17.3332 28.5952L18.5812 28.0637L17.3348 28.5981L17.334 28.5967ZM6.01893 23.689C7.04873 22.8735 7.04819 22.873 7.04767 22.8725L7.04873 22.8735L6.01893 23.689ZM16.528 26.7402C16.2674 25.9247 16.1226 25.1123 16.0669 24.3174L16.2281 25.5609L16.528 26.7402ZM23.0494 17.0667L23.0512 17.0556C23.0979 16.7775 23.121 16.5551 23.1324 16.4073C23.1381 16.3335 23.1408 16.2786 23.1421 16.245L23.1426 16.2334L23.1432 16.2109L23.1433 16.2097C23.1433 16.2102 23.1433 16.2108 24.5306 16.2158L24.0934 17.371L23.0494 17.0667ZM23.0494 17.0667C22.9551 17.6242 22.7687 18.3896 22.4032 19.2211C21.8049 20.5824 20.7419 22.0953 18.8205 23.1989C18.8651 21.932 19.1588 20.7074 19.5561 19.6056C19.9743 18.4455 20.4943 17.4604 20.91 16.7661C20.9683 16.6687 21.0244 16.5773 21.0777 16.4921L23.0494 17.0667ZM15.5035 17.656L17.6484 15.7954L15.9414 14.2806L13.7964 16.1411L15.5035 17.656Z" fill="#F09926"/>
<path d="M60.408 14.112C59.428 14.112 58.5413 13.8973 57.748 13.468C56.964 13.0293 56.348 12.432 55.9 11.676C55.452 10.9107 55.228 10.052 55.228 9.1C55.228 8.148 55.452 7.294 55.9 6.538C56.348 5.77267 56.9687 5.17533 57.762 4.746C58.5553 4.30733 59.442 4.088 60.422 4.088C61.1873 4.088 61.8873 4.21867 62.522 4.48C63.1567 4.732 63.698 5.11 64.146 5.614L63.236 6.496C62.4987 5.72133 61.5793 5.334 60.478 5.334C59.75 5.334 59.092 5.49733 58.504 5.824C57.916 6.15067 57.454 6.60333 57.118 7.182C56.7913 7.75133 56.628 8.39067 56.628 9.1C56.628 9.80933 56.7913 10.4533 57.118 11.032C57.454 11.6013 57.916 12.0493 58.504 12.376C59.092 12.7027 59.75 12.866 60.478 12.866C61.57 12.866 62.4893 12.474 63.236 11.69L64.146 12.572C63.698 13.076 63.152 13.4587 62.508 13.72C61.8733 13.9813 61.1733 14.112 60.408 14.112ZM68.7144 14.084C67.977 14.084 67.3144 13.9207 66.7264 13.594C66.1384 13.2673 65.6764 12.8193 65.3404 12.25C65.0137 11.6713 64.8504 11.018 64.8504 10.29C64.8504 9.562 65.0137 8.91333 65.3404 8.344C65.6764 7.76533 66.1384 7.31733 66.7264 7C67.3144 6.67333 67.977 6.51 68.7144 6.51C69.4517 6.51 70.1097 6.67333 70.6884 7C71.2764 7.31733 71.7337 7.76533 72.0604 8.344C72.3964 8.91333 72.5644 9.562 72.5644 10.29C72.5644 11.018 72.3964 11.6713 72.0604 12.25C71.7337 12.8193 71.2764 13.2673 70.6884 13.594C70.1097 13.9207 69.4517 14.084 68.7144 14.084ZM68.7144 12.908C69.1904 12.908 69.615 12.8007 69.9884 12.586C70.371 12.362 70.6697 12.054 70.8844 11.662C71.099 11.2607 71.2064 10.8033 71.2064 10.29C71.2064 9.77667 71.099 9.324 70.8844 8.932C70.6697 8.53067 70.371 8.22267 69.9884 8.008C69.615 7.79333 69.1904 7.686 68.7144 7.686C68.2384 7.686 67.809 7.79333 67.4264 8.008C67.053 8.22267 66.7544 8.53067 66.5304 8.932C66.3157 9.324 66.2084 9.77667 66.2084 10.29C66.2084 10.8033 66.3157 11.2607 66.5304 11.662C66.7544 12.054 67.053 12.362 67.4264 12.586C67.809 12.8007 68.2384 12.908 68.7144 12.908ZM78.4411 10.136C78.9358 10.2667 79.3184 10.4767 79.5891 10.766C79.8598 11.0553 79.9951 11.4147 79.9951 11.844C79.9951 12.2827 79.8458 12.6747 79.5471 13.02C79.2484 13.356 78.8331 13.622 78.3011 13.818C77.7784 14.0047 77.1904 14.098 76.5371 14.098C75.9864 14.098 75.4451 14.028 74.9131 13.888C74.3904 13.7387 73.9238 13.5287 73.5131 13.258L73.9191 12.236C74.2738 12.46 74.6798 12.6373 75.1371 12.768C75.5944 12.8893 76.0564 12.95 76.5231 12.95C77.1578 12.95 77.6618 12.8427 78.0351 12.628C78.4178 12.404 78.6091 12.1053 78.6091 11.732C78.6091 11.3867 78.4551 11.1207 78.1471 10.934C77.8484 10.7473 77.4238 10.654 76.8731 10.654H75.5151V9.688H76.7751C77.2791 9.688 77.6758 9.59933 77.9651 9.422C78.2544 9.24467 78.3991 9.002 78.3991 8.694C78.3991 8.358 78.2264 8.09667 77.8811 7.91C77.5451 7.72333 77.0878 7.63 76.5091 7.63C75.7718 7.63 74.9924 7.82133 74.1711 8.204L73.8071 7.168C74.7124 6.71067 75.6598 6.482 76.6491 6.482C77.2464 6.482 77.7831 6.566 78.2591 6.734C78.7351 6.902 79.1084 7.14 79.3791 7.448C79.6498 7.756 79.7851 8.106 79.7851 8.498C79.7851 8.862 79.6638 9.18867 79.4211 9.478C79.1784 9.76733 78.8518 9.98667 78.4411 10.136ZM89.0943 6.58V12.992C89.0943 14.2893 88.7723 15.246 88.1283 15.862C87.4843 16.4873 86.523 16.8 85.2443 16.8C84.5443 16.8 83.877 16.702 83.2423 16.506C82.6077 16.3193 82.0943 16.0487 81.7023 15.694L82.3463 14.658C82.6917 14.9567 83.1163 15.19 83.6203 15.358C84.1337 15.5353 84.661 15.624 85.2023 15.624C86.0703 15.624 86.7097 15.4187 87.1203 15.008C87.5403 14.5973 87.7503 13.972 87.7503 13.132V12.544C87.433 12.9267 87.041 13.216 86.5743 13.412C86.117 13.5987 85.6177 13.692 85.0763 13.692C84.367 13.692 83.723 13.5427 83.1443 13.244C82.575 12.936 82.127 12.5113 81.8003 11.97C81.4737 11.4193 81.3103 10.794 81.3103 10.094C81.3103 9.394 81.4737 8.77333 81.8003 8.232C82.127 7.68133 82.575 7.25667 83.1443 6.958C83.723 6.65933 84.367 6.51 85.0763 6.51C85.6363 6.51 86.1543 6.61267 86.6303 6.818C87.1157 7.02333 87.5123 7.32667 87.8203 7.728V6.58H89.0943ZM85.2303 12.516C85.7157 12.516 86.1497 12.4133 86.5323 12.208C86.9243 12.0027 87.2277 11.718 87.4423 11.354C87.6663 10.9807 87.7783 10.5607 87.7783 10.094C87.7783 9.37533 87.5403 8.79667 87.0643 8.358C86.5883 7.91 85.977 7.686 85.2303 7.686C84.4743 7.686 83.8583 7.91 83.3823 8.358C82.9063 8.79667 82.6683 9.37533 82.6683 10.094C82.6683 10.5607 82.7757 10.9807 82.9903 11.354C83.2143 11.718 83.5177 12.0027 83.9003 12.208C84.2923 12.4133 84.7357 12.516 85.2303 12.516ZM98.69 6.58V14H97.402V12.824C97.1033 13.2347 96.7253 13.5473 96.268 13.762C95.8107 13.9767 95.3067 14.084 94.756 14.084C94.0373 14.084 93.3933 13.9253 92.824 13.608C92.2547 13.2907 91.8067 12.8473 91.48 12.278C91.1627 11.6993 91.004 11.0367 91.004 10.29C91.004 9.54333 91.1627 8.88533 91.48 8.316C91.8067 7.74667 92.2547 7.30333 92.824 6.986C93.3933 6.66867 94.0373 6.51 94.756 6.51C95.288 6.51 95.778 6.61267 96.226 6.818C96.674 7.014 97.0473 7.308 97.346 7.7V6.58H98.69ZM94.868 12.908C95.3347 12.908 95.7593 12.8007 96.142 12.586C96.5247 12.362 96.8233 12.054 97.038 11.662C97.2527 11.2607 97.36 10.8033 97.36 10.29C97.36 9.77667 97.2527 9.324 97.038 8.932C96.8233 8.53067 96.5247 8.22267 96.142 8.008C95.7593 7.79333 95.3347 7.686 94.868 7.686C94.392 7.686 93.9627 7.79333 93.58 8.008C93.2067 8.22267 92.908 8.53067 92.684 8.932C92.4693 9.324 92.362 9.77667 92.362 10.29C92.362 10.8033 92.4693 11.2607 92.684 11.662C92.908 12.054 93.2067 12.362 93.58 12.586C93.9627 12.8007 94.392 12.908 94.868 12.908ZM101.261 6.58H102.605V9.73H106.833V6.58H108.177V14H106.833V10.892H102.605V14H101.261V6.58ZM113.968 14.084C113.231 14.084 112.568 13.9207 111.98 13.594C111.392 13.2673 110.93 12.8193 110.594 12.25C110.268 11.6713 110.104 11.018 110.104 10.29C110.104 9.562 110.268 8.91333 110.594 8.344C110.93 7.76533 111.392 7.31733 111.98 7C112.568 6.67333 113.231 6.51 113.968 6.51C114.706 6.51 115.364 6.67333 115.942 7C116.53 7.31733 116.988 7.76533 117.314 8.344C117.65 8.91333 117.818 9.562 117.818 10.29C117.818 11.018 117.65 11.6713 117.314 12.25C116.988 12.8193 116.53 13.2673 115.942 13.594C115.364 13.9207 114.706 14.084 113.968 14.084ZM113.968 12.908C114.444 12.908 114.869 12.8007 115.242 12.586C115.625 12.362 115.924 12.054 116.138 11.662C116.353 11.2607 116.46 10.8033 116.46 10.29C116.46 9.77667 116.353 9.324 116.138 8.932C115.924 8.53067 115.625 8.22267 115.242 8.008C114.869 7.79333 114.444 7.686 113.968 7.686C113.492 7.686 113.063 7.79333 112.68 8.008C112.307 8.22267 112.008 8.53067 111.784 8.932C111.57 9.324 111.462 9.77667 111.462 10.29C111.462 10.8033 111.57 11.2607 111.784 11.662C112.008 12.054 112.307 12.362 112.68 12.586C113.063 12.8007 113.492 12.908 113.968 12.908ZM128.573 10.15C129.534 10.3927 130.015 10.9947 130.015 11.956C130.015 12.6093 129.767 13.1133 129.273 13.468C128.787 13.8227 128.059 14 127.089 14H123.519V6.58H126.963C127.84 6.58 128.526 6.748 129.021 7.084C129.515 7.41067 129.763 7.87733 129.763 8.484C129.763 8.876 129.655 9.21667 129.441 9.506C129.235 9.786 128.946 10.0007 128.573 10.15ZM124.835 9.772H126.851C127.364 9.772 127.751 9.67867 128.013 9.492C128.283 9.30533 128.419 9.03467 128.419 8.68C128.419 7.97067 127.896 7.616 126.851 7.616H124.835V9.772ZM126.991 12.964C127.551 12.964 127.971 12.8753 128.251 12.698C128.531 12.5207 128.671 12.2453 128.671 11.872C128.671 11.4893 128.54 11.2047 128.279 11.018C128.027 10.8313 127.625 10.738 127.075 10.738H124.835V12.964H126.991Z" fill="white"/>
</g>
<defs>
<filter id="filter0_d_298_375" x="0.0585938" y="4.08789" width="167.607" height="37.1421" filterUnits="userSpaceOnUse" color-interpolation-filters="sRGB">
<feFlood flood-opacity="0" result="BackgroundImageFix"/>
<feColorMatrix in="SourceAlpha" type="matrix" values="0 0 0 0 0 0 0 0 0 0 0 0 0 0 0 0 0 0 127 0" result="hardAlpha"/>
<feOffset dy="4"/>
<feGaussianBlur stdDeviation="2"/>
<feComposite in2="hardAlpha" operator="out"/>
<feColorMatrix type="matrix" values="0 0 0 0 0 0 0 0 0 0 0 0 0 0 0 0 0 0 0.25 0"/>
<feBlend mode="normal" in2="BackgroundImageFix" result="effect1_dropShadow_298_375"/>
<feBlend mode="normal" in="SourceGraphic" in2="effect1_dropShadow_298_375" result="shape"/>
</filter>
</defs>
</svg>
