<svg width="243" height="57" viewBox="0 0 243 57" fill="none" xmlns="http://www.w3.org/2000/svg">
<g filter="url(#filter0_d_298_375)">
<path d="M223.203 25.0542V40.1149C223.203 43.2027 225.59 45.3218 228.761 45.3218C231.983 45.3218 234.318 42.7032 234.318 40.1149C234.318 37.5568 232.085 34.908 228.761 34.908C227.959 34.908 227.209 35.0442 226.527 35.2712C226.22 34.6355 225.163 32.3197 224.976 31.8807C226.152 31.472 227.397 31.2752 228.761 31.2752C234.625 31.2752 238.972 35.3469 238.972 40.1149C238.972 45.0947 234.318 48.9848 228.761 48.9848C223.118 48.9848 218.583 45.0493 218.583 40.1149V25.0542H223.203V25.0542Z" fill="#FFFFFD"/>
<path d="M206.317 31.2754C207.118 31.2754 207.834 31.3359 208.516 31.4722L208.891 31.5327C209.01 31.563 209.164 31.5932 209.266 31.6387C213.46 32.7133 216.528 36.1039 216.528 40.1453C216.528 40.3875 216.494 40.6145 216.494 40.8567C216.426 41.5227 216.273 42.1736 216.034 42.779C214.329 42.0373 212.437 41.6741 210.425 41.6741C208.413 41.6741 206.521 42.0373 204.748 42.7488V38.8133C206.862 38.2684 208.806 38.1019 210.391 38.1019C210.732 38.1019 211.039 38.1322 211.38 38.1322C210.664 36.6942 208.84 35.3168 206.317 35.3168C203.248 35.3168 200.759 37.4964 200.759 40.1604C200.759 42.8547 203.333 44.9587 206.317 44.9587C207.868 44.9587 209.198 44.4894 210.289 43.5207C211.09 44.2927 212.454 45.6095 213.46 46.5783C211.687 48.0616 209.181 49.0001 206.3 49.0001C200.554 49.0001 196.122 44.9738 196.122 40.1604C196.122 35.1957 200.674 31.2754 206.317 31.2754Z" fill="#FFFFFD"/>
<path d="M155.274 25.4626H159.707V39.2973C159.707 42.3548 162.503 45.034 166.168 45.034C169.765 45.034 172.629 42.4911 172.629 39.2973V25.4626H177.061V39.2973C177.061 42.3548 179.823 45.034 183.488 45.034C187.086 45.034 189.95 42.4911 189.95 39.2973V25.4626H194.382V39.2973C194.382 44.7312 189.438 48.9846 183.488 48.9846C179.96 48.9846 176.84 47.5315 174.845 45.1702C172.817 47.5466 169.697 48.9846 166.168 48.9846C160.133 48.9846 155.274 44.6707 155.274 39.2973V25.4626Z" fill="#FFFFFD"/>
<path d="M142.15 31.2754C142.951 31.2754 143.667 31.3359 144.349 31.4722L144.724 31.5327C144.843 31.563 144.997 31.5932 145.099 31.6387C149.293 32.7133 152.361 36.1039 152.361 40.1453C152.361 40.3875 152.327 40.6145 152.327 40.8567C152.259 41.5227 152.106 42.1736 151.867 42.779C150.162 42.0373 148.27 41.6741 146.258 41.6741C144.246 41.6741 142.354 42.0373 140.581 42.7488V38.8133C142.695 38.2684 144.639 38.1019 146.224 38.1019C146.565 38.1019 146.872 38.1322 147.213 38.1322C146.497 36.6942 144.673 35.3168 142.15 35.3168C139.081 35.3168 136.592 37.4964 136.592 40.1604C136.592 42.8547 139.166 44.9587 142.15 44.9587C143.701 44.9587 145.031 44.4894 146.122 43.5207C146.923 44.2927 148.287 45.6095 149.293 46.5783C147.52 48.0616 145.014 49.0001 142.133 49.0001C136.387 49.0001 131.955 44.9738 131.955 40.1604C131.955 35.1957 136.507 31.2754 142.15 31.2754Z" fill="#FFFFFD"/>
<path d="M125.021 48.9846V25.4626H129.676V48.9846H125.021Z" fill="#FFFFFD"/>
<path d="M113.875 28.7786H118.495V34.1822H121.223V38.2085H118.495V41.6747C118.495 43.4608 120.166 44.9291 122.16 44.9291H123.302V48.9553H122.16C117.574 48.9553 113.875 45.5951 113.875 41.5688V28.7786Z" fill="#FFFFFD"/>
<path d="M102.718 28.7786H107.338V34.1822H110.065V38.2085H107.338V41.6747C107.338 43.4608 109.008 44.9291 111.003 44.9291H112.145V48.9553H111.003C106.417 48.9553 102.718 45.5951 102.718 41.5688V28.7786Z" fill="#FFFFFD"/>
<path d="M100.007 32.1826V48.984H95.3867V32.1826H100.007Z" fill="#FFFFFD"/>
<path fill-rule="evenodd" clip-rule="evenodd" d="M100.494 26.5686L97.3129 29.3141L94.8174 27.0351L97.998 24.2896L100.494 26.5686Z" fill="#F09926"/>
<path d="M78.3066 25.4929H82.9266V38.6918C82.9266 42.3548 86.6771 44.8675 91.3311 44.8675H93.5644V48.9694H91.0243C83.9835 48.9694 78.3066 44.4739 78.3066 38.8886V25.4929Z" fill="#FFFFFD"/>
<path fill-rule="evenodd" clip-rule="evenodd" d="M54.4866 12.1224C40.4091 3.58758 26.6056 8.72676 22.1358 11.6491L23.3578 13.0887L22.1352 11.6495C15.7634 15.8125 11.5787 21.2596 11.696 29.1869L11.7226 30.9816L15.8137 30.9355L15.7871 29.1408C15.6906 22.6186 19.0021 18.1722 24.5797 14.5283L24.5804 14.5279C28.1919 12.1664 40.0208 7.71457 52.162 15.0762L52.1639 15.0773L52.1657 15.0784C56.4782 17.681 59.0763 21.8622 60.4379 26.9908L60.4386 26.9936C61.1668 29.7166 61.3488 34.4504 59.9152 38.4087C59.2054 40.3684 58.1423 42.0201 56.6892 43.1666C55.2767 44.2811 53.3837 45.0102 50.7532 44.9968C48.438 44.9851 46.9135 43.8679 45.8713 42.5546C45.3493 41.8968 44.9848 41.228 44.7509 40.7182C44.6352 40.4659 44.5547 40.2595 44.5049 40.1223C44.48 40.0538 44.4631 40.0032 44.4534 39.9732C44.4485 39.9583 44.4455 39.9485 44.4442 39.9444L44.4436 39.9425L44.055 38.606L40.2936 38.587L39.8264 39.8146L39.8256 39.8165L39.8254 39.817L39.8137 39.8458C39.8015 39.8753 39.7806 39.9247 39.7507 39.9911C39.6906 40.1242 39.5953 40.3237 39.4629 40.5668C39.1954 41.058 38.7905 41.7009 38.2398 42.3287C37.1227 43.6024 35.6137 44.6028 33.5676 44.5512L33.5663 44.5511L33.565 44.5511C30.491 44.4769 28.2473 43.0789 26.8743 40.5976L26.8731 40.5955L26.8719 40.5933C26.4171 39.777 26.0799 38.9469 25.8422 38.113C30.6988 35.9738 33.2097 32.5412 34.4874 29.6342C35.1625 28.0983 35.5017 26.6949 35.6732 25.6723C35.7593 25.1594 35.8039 24.7373 35.8272 24.4361C35.8388 24.2853 35.8451 24.1644 35.8485 24.077C35.8502 24.0333 35.8512 23.9979 35.8517 23.9713L35.8523 23.9381L35.8524 23.9265L35.8525 23.922L35.8525 23.9201C35.8525 23.9192 35.8525 23.9184 33.8068 23.9109L35.8525 23.9184L35.8585 22.6177L26.9738 20.0284L26.1055 21.1546L27.7931 22.1562C26.1055 21.1546 26.1051 21.1552 26.1047 21.1558L26.1036 21.1572L26.1009 21.1607L26.0934 21.1705L26.0702 21.2011C26.0512 21.2265 26.025 21.2615 25.9925 21.306C25.9273 21.395 25.8363 21.5216 25.7246 21.6832C25.5014 22.0062 25.1945 22.4701 24.8458 23.0527C24.1501 24.2148 23.2773 25.866 22.5706 27.8263C21.7457 30.114 21.1195 32.9038 21.3265 35.8572C17.2139 37.0235 14.0382 36.5724 11.8488 35.83C10.5601 35.393 9.57589 34.8413 8.92231 34.4061C8.59644 34.1892 8.35623 34.0035 8.20523 33.8794C8.12985 33.8175 8.07711 33.7713 8.04744 33.7447C8.03411 33.7327 8.02547 33.7248 8.02158 33.7211L8.02045 33.7201L8.02014 33.7198L8.01934 33.719L6.65787 32.3956L3.62086 34.8006L4.99168 36.1331L6.51019 34.9306C4.99168 36.1331 4.99252 36.1339 4.99339 36.1347L4.99524 36.1365L4.99942 36.1406L5.0096 36.1503L5.03735 36.1765C5.05911 36.1968 5.08742 36.2229 5.12224 36.2541C5.19185 36.3166 5.28763 36.3999 5.40923 36.4998C5.65217 36.6994 5.99975 36.9663 6.44917 37.2655C7.34618 37.8628 8.66259 38.5979 10.3743 39.1783C13.2778 40.1628 17.2189 40.6656 22.0065 39.4297C22.2983 40.3427 22.6887 41.2583 23.1949 42.1673C25.1585 45.7139 28.6859 48.0235 33.4504 48.1394L33.509 46.3453L33.453 48.1394C37.3372 48.2366 39.9551 46.2595 41.4825 44.5181C41.6651 44.3099 41.8352 44.102 41.993 43.8973C42.1515 44.13 42.3247 44.3673 42.5136 44.6054C44.0039 46.4834 46.6185 48.5656 50.7301 48.5865C54.3391 48.6048 57.2266 47.5707 59.4253 45.8359C61.5834 44.1332 62.9622 41.8495 63.8145 39.4963C65.5049 34.829 65.2919 29.4272 64.4219 26.1741C62.9205 20.5209 59.9194 15.4021 54.4866 12.1224ZM23.1949 42.1673L23.1937 42.1651L25.034 41.3813L23.1961 42.1694L23.1949 42.1673ZM6.51019 34.9306C8.02869 33.728 8.0279 33.7273 8.02714 33.7265L8.02869 33.728L6.51019 34.9306ZM22.0065 39.4297C21.6221 38.2272 21.4087 37.0293 21.3265 35.8572L21.5643 37.6907L22.0065 39.4297ZM25.3869 34.2078C28.2202 32.5806 29.7876 30.3497 30.6699 28.3423C31.2088 27.1162 31.4836 25.9877 31.6226 25.1656L28.7153 24.3183C28.6367 24.4439 28.554 24.5787 28.468 24.7223C27.8551 25.7462 27.0883 27.1987 26.4715 28.9093C25.8858 30.5339 25.4527 32.3397 25.3869 34.2078ZM20.4957 26.0345L23.6586 23.291L21.1414 21.0572L17.9786 23.8007L20.4957 26.0345Z" fill="#F09926"/>
<path d="M83.908 14.112C82.928 14.112 82.0413 13.8973 81.248 13.468C80.464 13.0293 79.848 12.432 79.4 11.676C78.952 10.9107 78.728 10.052 78.728 9.1C78.728 8.148 78.952 7.294 79.4 6.538C79.848 5.77267 80.4687 5.17533 81.262 4.746C82.0553 4.30733 82.942 4.088 83.922 4.088C84.6873 4.088 85.3873 4.21867 86.022 4.48C86.6567 4.732 87.198 5.11 87.646 5.614L86.736 6.496C85.9987 5.72133 85.0793 5.334 83.978 5.334C83.25 5.334 82.592 5.49733 82.004 5.824C81.416 6.15067 80.954 6.60333 80.618 7.182C80.2913 7.75133 80.128 8.39067 80.128 9.1C80.128 9.80933 80.2913 10.4533 80.618 11.032C80.954 11.6013 81.416 12.0493 82.004 12.376C82.592 12.7027 83.25 12.866 83.978 12.866C85.07 12.866 85.9893 12.474 86.736 11.69L87.646 12.572C87.198 13.076 86.652 13.4587 86.008 13.72C85.3733 13.9813 84.6733 14.112 83.908 14.112ZM92.2144 14.084C91.477 14.084 90.8144 13.9207 90.2264 13.594C89.6384 13.2673 89.1764 12.8193 88.8404 12.25C88.5137 11.6713 88.3504 11.018 88.3504 10.29C88.3504 9.562 88.5137 8.91333 88.8404 8.344C89.1764 7.76533 89.6384 7.31733 90.2264 7C90.8144 6.67333 91.477 6.51 92.2144 6.51C92.9517 6.51 93.6097 6.67333 94.1884 7C94.7764 7.31733 95.2337 7.76533 95.5604 8.344C95.8964 8.91333 96.0644 9.562 96.0644 10.29C96.0644 11.018 95.8964 11.6713 95.5604 12.25C95.2337 12.8193 94.7764 13.2673 94.1884 13.594C93.6097 13.9207 92.9517 14.084 92.2144 14.084ZM92.2144 12.908C92.6904 12.908 93.115 12.8007 93.4884 12.586C93.871 12.362 94.1697 12.054 94.3844 11.662C94.599 11.2607 94.7064 10.8033 94.7064 10.29C94.7064 9.77667 94.599 9.324 94.3844 8.932C94.1697 8.53067 93.871 8.22267 93.4884 8.008C93.115 7.79333 92.6904 7.686 92.2144 7.686C91.7384 7.686 91.309 7.79333 90.9264 8.008C90.553 8.22267 90.2544 8.53067 90.0304 8.932C89.8157 9.324 89.7084 9.77667 89.7084 10.29C89.7084 10.8033 89.8157 11.2607 90.0304 11.662C90.2544 12.054 90.553 12.362 90.9264 12.586C91.309 12.8007 91.7384 12.908 92.2144 12.908ZM101.941 10.136C102.436 10.2667 102.818 10.4767 103.089 10.766C103.36 11.0553 103.495 11.4147 103.495 11.844C103.495 12.2827 103.346 12.6747 103.047 13.02C102.748 13.356 102.333 13.622 101.801 13.818C101.278 14.0047 100.69 14.098 100.037 14.098C99.4864 14.098 98.9451 14.028 98.4131 13.888C97.8904 13.7387 97.4238 13.5287 97.0131 13.258L97.4191 12.236C97.7738 12.46 98.1798 12.6373 98.6371 12.768C99.0944 12.8893 99.5564 12.95 100.023 12.95C100.658 12.95 101.162 12.8427 101.535 12.628C101.918 12.404 102.109 12.1053 102.109 11.732C102.109 11.3867 101.955 11.1207 101.647 10.934C101.348 10.7473 100.924 10.654 100.373 10.654H99.0151V9.688H100.275C100.779 9.688 101.176 9.59933 101.465 9.422C101.754 9.24467 101.899 9.002 101.899 8.694C101.899 8.358 101.726 8.09667 101.381 7.91C101.045 7.72333 100.588 7.63 100.009 7.63C99.2718 7.63 98.4924 7.82133 97.6711 8.204L97.3071 7.168C98.2124 6.71067 99.1598 6.482 100.149 6.482C100.746 6.482 101.283 6.566 101.759 6.734C102.235 6.902 102.608 7.14 102.879 7.448C103.15 7.756 103.285 8.106 103.285 8.498C103.285 8.862 103.164 9.18867 102.921 9.478C102.678 9.76733 102.352 9.98667 101.941 10.136ZM112.594 6.58V12.992C112.594 14.2893 112.272 15.246 111.628 15.862C110.984 16.4873 110.023 16.8 108.744 16.8C108.044 16.8 107.377 16.702 106.742 16.506C106.108 16.3193 105.594 16.0487 105.202 15.694L105.846 14.658C106.192 14.9567 106.616 15.19 107.12 15.358C107.634 15.5353 108.161 15.624 108.702 15.624C109.57 15.624 110.21 15.4187 110.62 15.008C111.04 14.5973 111.25 13.972 111.25 13.132V12.544C110.933 12.9267 110.541 13.216 110.074 13.412C109.617 13.5987 109.118 13.692 108.576 13.692C107.867 13.692 107.223 13.5427 106.644 13.244C106.075 12.936 105.627 12.5113 105.3 11.97C104.974 11.4193 104.81 10.794 104.81 10.094C104.81 9.394 104.974 8.77333 105.3 8.232C105.627 7.68133 106.075 7.25667 106.644 6.958C107.223 6.65933 107.867 6.51 108.576 6.51C109.136 6.51 109.654 6.61267 110.13 6.818C110.616 7.02333 111.012 7.32667 111.32 7.728V6.58H112.594ZM108.73 12.516C109.216 12.516 109.65 12.4133 110.032 12.208C110.424 12.0027 110.728 11.718 110.942 11.354C111.166 10.9807 111.278 10.5607 111.278 10.094C111.278 9.37533 111.04 8.79667 110.564 8.358C110.088 7.91 109.477 7.686 108.73 7.686C107.974 7.686 107.358 7.91 106.882 8.358C106.406 8.79667 106.168 9.37533 106.168 10.094C106.168 10.5607 106.276 10.9807 106.49 11.354C106.714 11.718 107.018 12.0027 107.4 12.208C107.792 12.4133 108.236 12.516 108.73 12.516ZM122.19 6.58V14H120.902V12.824C120.603 13.2347 120.225 13.5473 119.768 13.762C119.311 13.9767 118.807 14.084 118.256 14.084C117.537 14.084 116.893 13.9253 116.324 13.608C115.755 13.2907 115.307 12.8473 114.98 12.278C114.663 11.6993 114.504 11.0367 114.504 10.29C114.504 9.54333 114.663 8.88533 114.98 8.316C115.307 7.74667 115.755 7.30333 116.324 6.986C116.893 6.66867 117.537 6.51 118.256 6.51C118.788 6.51 119.278 6.61267 119.726 6.818C120.174 7.014 120.547 7.308 120.846 7.7V6.58H122.19ZM118.368 12.908C118.835 12.908 119.259 12.8007 119.642 12.586C120.025 12.362 120.323 12.054 120.538 11.662C120.753 11.2607 120.86 10.8033 120.86 10.29C120.86 9.77667 120.753 9.324 120.538 8.932C120.323 8.53067 120.025 8.22267 119.642 8.008C119.259 7.79333 118.835 7.686 118.368 7.686C117.892 7.686 117.463 7.79333 117.08 8.008C116.707 8.22267 116.408 8.53067 116.184 8.932C115.969 9.324 115.862 9.77667 115.862 10.29C115.862 10.8033 115.969 11.2607 116.184 11.662C116.408 12.054 116.707 12.362 117.08 12.586C117.463 12.8007 117.892 12.908 118.368 12.908ZM124.761 6.58H126.105V9.73H130.333V6.58H131.677V14H130.333V10.892H126.105V14H124.761V6.58ZM137.468 14.084C136.731 14.084 136.068 13.9207 135.48 13.594C134.892 13.2673 134.43 12.8193 134.094 12.25C133.768 11.6713 133.604 11.018 133.604 10.29C133.604 9.562 133.768 8.91333 134.094 8.344C134.43 7.76533 134.892 7.31733 135.48 7C136.068 6.67333 136.731 6.51 137.468 6.51C138.206 6.51 138.864 6.67333 139.442 7C140.03 7.31733 140.488 7.76533 140.814 8.344C141.15 8.91333 141.318 9.562 141.318 10.29C141.318 11.018 141.15 11.6713 140.814 12.25C140.488 12.8193 140.03 13.2673 139.442 13.594C138.864 13.9207 138.206 14.084 137.468 14.084ZM137.468 12.908C137.944 12.908 138.369 12.8007 138.742 12.586C139.125 12.362 139.424 12.054 139.638 11.662C139.853 11.2607 139.96 10.8033 139.96 10.29C139.96 9.77667 139.853 9.324 139.638 8.932C139.424 8.53067 139.125 8.22267 138.742 8.008C138.369 7.79333 137.944 7.686 137.468 7.686C136.992 7.686 136.563 7.79333 136.18 8.008C135.807 8.22267 135.508 8.53067 135.284 8.932C135.07 9.324 134.962 9.77667 134.962 10.29C134.962 10.8033 135.07 11.2607 135.284 11.662C135.508 12.054 135.807 12.362 136.18 12.586C136.563 12.8007 136.992 12.908 137.468 12.908ZM152.073 10.15C153.034 10.3927 153.515 10.9947 153.515 11.956C153.515 12.6093 153.267 13.1133 152.773 13.468C152.287 13.8227 151.559 14 150.589 14H147.019V6.58H150.463C151.34 6.58 152.026 6.748 152.521 7.084C153.015 7.41067 153.263 7.87733 153.263 8.484C153.263 8.876 153.155 9.21667 152.941 9.506C152.735 9.786 152.446 10.0007 152.073 10.15ZM148.335 9.772H150.351C150.864 9.772 151.251 9.67867 151.513 9.492C151.783 9.30533 151.919 9.03467 151.919 8.68C151.919 7.97067 151.396 7.616 150.351 7.616H148.335V9.772ZM150.491 12.964C151.051 12.964 151.471 12.8753 151.751 12.698C152.031 12.5207 152.171 12.2453 152.171 11.872C152.171 11.4893 152.04 11.2047 151.779 11.018C151.527 10.8313 151.125 10.738 150.575 10.738H148.335V12.964H150.491Z" fill="white"/>
</g>
<defs>
<filter id="filter0_d_298_375" x="-0.378906" y="4.08789" width="243.351" height="52.9121" filterUnits="userSpaceOnUse" color-interpolation-filters="sRGB">
<feFlood flood-opacity="0" result="BackgroundImageFix"/>
<feColorMatrix in="SourceAlpha" type="matrix" values="0 0 0 0 0 0 0 0 0 0 0 0 0 0 0 0 0 0 127 0" result="hardAlpha"/>
<feOffset dy="4"/>
<feGaussianBlur stdDeviation="2"/>
<feComposite in2="hardAlpha" operator="out"/>
<feColorMatrix type="matrix" values="0 0 0 0 0 0 0 0 0 0 0 0 0 0 0 0 0 0 0.25 0"/>
<feBlend mode="normal" in2="BackgroundImageFix" result="effect1_dropShadow_298_375"/>
<feBlend mode="normal" in="SourceGraphic" in2="effect1_dropShadow_298_375" result="shape"/>
</filter>
</defs>
</svg>
