<svg width="250" height="188" viewBox="0 0 250 188" fill="none" xmlns="http://www.w3.org/2000/svg">
<path d="M226.565 0H23.435C10.4923 0 0 10.4918 0 23.435V164.045C0 176.988 10.4923 187.48 23.435 187.48H226.565C239.508 187.48 250 176.988 250 164.045V23.435C250 10.4918 239.508 0 226.565 0ZM242.188 160.572L168.294 86.6782L242.188 39.591V160.572V160.572ZM23.435 7.81166H226.565C235.18 7.81166 242.188 14.8199 242.188 23.435V30.3342L134.639 98.8698C128.818 102.578 121.384 102.463 115.697 98.5952L7.81166 25.2688V23.435C7.81166 14.8199 14.8207 7.81166 23.435 7.81166ZM7.81166 34.7041L82.7477 85.6357L7.81166 160.572V34.7041ZM226.565 179.668H23.435C17.0005 179.668 11.4679 175.754 9.07676 170.185L89.224 90.0376L111.311 105.049C115.552 107.933 120.457 109.378 125.37 109.378C130.039 109.378 134.715 108.074 138.831 105.453L161.65 90.9121L240.923 170.185C238.532 175.754 233 179.668 226.565 179.668Z" fill="#488A99"/>
</svg>
