<svg width="1920" height="45" viewBox="0 0 1920 45" fill="none" xmlns="http://www.w3.org/2000/svg">
<path d="M0 45L35.6 43.3281C71.0667 41.7188 142.667 38.2812 213.333 33.3281C284.4 28.2812 356 21.7188 426.667 20C497.733 18.2812 569.333 21.7188 640 22.5C711.067 23.2812 782.667 21.7188 853.333 19.1719C924.4 16.7188 996 13.2812 1066.67 13.3281C1137.73 13.2812 1209.33 16.7188 1280 19.1719C1351.07 21.7188 1422.67 23.2812 1493.33 21.6719C1564.4 20 1636 15 1706.67 13.3281C1777.73 11.7188 1849.33 13.2812 1884 14.1719L1920 15V0H1884.4C1848.93 0 1777.33 0 1706.67 0C1635.6 0 1564 0 1493.33 0C1422.27 0 1350.67 0 1280 0C1208.93 0 1137.33 0 1066.67 0C995.6 0 924 0 853.333 0C782.267 0 710.667 0 640 0C568.933 0 497.333 0 426.667 0C355.6 0 284 0 213.333 0C142.267 0 70.6667 0 36 0H0V45Z" fill="#EDF0F5"/>
</svg>
