<svg width="440" height="340" viewBox="0 0 440 340" fill="none" xmlns="http://www.w3.org/2000/svg">
<path fill-rule="evenodd" clip-rule="evenodd" d="M440 0H0V340H440V0ZM97.636 82.8105C114.307 62.3871 132 41.7944 156.522 28.4586C202.977 3.1882 313.653 40.5962 347.56 61.5747C372.908 77.2663 395.385 97.2836 408.224 121.776C431.526 166.217 418.821 221.273 382.663 258.81C346.506 296.346 289.949 316.98 233.376 319.735C213.763 320.696 192.978 319.383 176.552 310.122C166.213 304.296 158.541 295.873 150.85 287.432C144.075 279.994 137.286 272.542 128.648 266.838C115.59 258.215 98.8591 253.841 82.4116 249.54C58.9847 243.414 36.133 237.439 25.2896 219.554C10.4915 195.15 29.5536 166.264 47.9313 143.736C59.5562 129.486 71.1812 115.237 82.8061 100.988C87.7494 94.9289 92.6927 88.8697 97.636 82.8105Z" fill="black"/>
</svg>
