<svg width="150" height="85" viewBox="0 0 150 85" fill="none" xmlns="http://www.w3.org/2000/svg">
<path d="M14.8779 75.6078C14.8811 71.5211 14.8779 67.4352 14.8842 63.3484C14.8842 62.9594 14.8951 62.5594 14.9811 62.1828C15.2131 61.168 16.1373 60.5031 17.3467 60.4813C18.6459 60.4578 19.9459 60.4688 21.2451 60.4695C23.8912 60.4695 26.5373 60.4656 29.1834 60.4781C30.5154 60.4844 31.4279 61.1023 31.6936 62.1758C31.7787 62.5203 31.7928 62.8891 31.7936 63.2469C31.7998 67.6461 31.7982 72.0461 31.7975 76.4453C31.7975 77.1781 31.6162 77.357 30.8764 77.3586C29.6553 77.3609 28.4342 77.3609 27.2123 77.3586C26.5451 77.357 26.3451 77.1594 26.3451 76.4875C26.3428 73.0117 26.3467 65.9664 26.3467 65.9195C26.3514 64.6766 26.1779 64.5 24.9498 64.5C23.8068 64.5 22.6639 64.5 21.5209 64.5C20.5936 64.5008 20.3357 64.7344 20.3334 65.6563C20.324 69.1633 20.3279 72.6703 20.3271 76.1773C20.3271 76.3648 20.3318 76.5539 20.3193 76.7406C20.2928 77.1328 20.0646 77.3508 19.6834 77.3539C18.3061 77.3648 16.9279 77.3617 15.5498 77.357C15.2357 77.3563 15.0631 77.207 14.9553 76.993C14.8646 76.8141 14.8787 75.7805 14.8795 75.6078H14.8779Z" fill="white"/>
<path d="M34.1033 81.4626C33.9299 81.4618 33.7565 81.4219 33.6088 81.3313C33.3494 81.1727 33.2533 80.9258 33.2549 80.5415C33.2697 76.0641 33.2612 71.586 33.2643 67.1086C33.2651 65.4501 34.0307 64.6204 35.6776 64.593C37.8533 64.5579 40.0299 64.5751 42.2057 64.586C43.0947 64.5907 43.9487 64.7868 44.7252 65.2352C45.8947 65.911 46.4947 66.993 46.733 68.2696C47.108 70.2797 47.0494 72.2907 46.5096 74.2696C46.0502 75.9532 44.9182 76.9641 43.2088 77.1922C42.0213 77.3508 38.5744 77.3594 37.9807 77.3594C37.9807 77.6079 37.9807 77.8196 37.9807 78.0313C37.9807 78.8766 37.983 79.5493 37.9807 80.3946C37.9783 81.1094 37.6557 81.4571 36.951 81.4618C36.2947 81.4657 34.6799 81.4641 34.1049 81.4618L34.1033 81.4626ZM38.0049 73.3868C38.0088 73.6915 38.2565 73.9227 38.5604 73.9329C39.0986 73.9508 39.8237 73.9438 40.3377 73.9329C41.394 73.911 41.9283 73.3422 42.033 72.304C42.1276 71.3641 42.1072 70.3969 42.0026 69.4579C41.8971 68.5196 41.2362 68.0235 40.283 67.9868C39.7987 67.968 39.3135 67.9766 38.8283 67.9797C38.1674 67.9836 37.9854 68.1547 37.9822 68.811C37.9768 70.0337 37.9908 72.3313 38.0049 73.3868V73.3868Z" fill="white"/>
<path d="M62.391 68.5648C61.9214 66.2289 60.7433 65.0265 58.4253 64.6508C56.205 64.2906 53.9636 64.2906 51.7433 64.7062C49.8675 65.0578 48.6722 66.1875 48.1956 68.0344C47.698 69.964 47.6949 71.9086 48.1808 73.8414C48.6503 75.7062 49.83 76.8812 51.737 77.2062C52.8886 77.4023 57.0238 77.457 57.9089 77.3609C60.4128 77.089 61.8339 75.893 62.3464 73.6008C62.7199 71.932 62.7285 70.2414 62.391 68.5656V68.5648ZM57.8824 71.9742C57.8824 73.1906 56.8964 74.1765 55.68 74.1765H54.7753C53.5589 74.1765 52.573 73.1906 52.573 71.9742V69.8203C52.573 68.6039 53.5589 67.618 54.7753 67.618H55.6331C56.8753 67.618 57.8831 68.625 57.8831 69.8679V71.975L57.8824 71.9742Z" fill="white"/>
<path d="M67.7932 77.2991C65.3057 77.0952 63.9283 75.7288 63.6283 73.2554C63.4338 71.6491 63.4361 70.0366 63.7111 68.4343C64.0955 66.1921 65.6221 64.728 67.8932 64.6343C70.2541 64.5366 72.6213 64.5811 74.9861 64.5765C75.4525 64.5757 75.6549 64.8046 75.6658 65.2905C75.6791 65.8694 75.6775 66.4499 75.6674 67.0288C75.658 67.578 75.4439 67.7843 74.8846 67.7866C73.6002 67.7921 72.3158 67.785 71.0322 67.7905C69.3252 67.7983 68.5158 68.5101 68.3838 70.2218C68.3252 70.9788 68.3471 71.7601 68.465 72.5093C68.6322 73.5702 69.2721 74.0827 70.3517 74.1077C71.8072 74.1413 73.2642 74.1311 74.7205 74.1343C75.8697 74.1374 75.9291 74.1936 75.9291 75.3616C75.9291 75.7686 75.933 76.1757 75.9275 76.5835C75.9205 77.1444 75.7213 77.3538 75.165 77.3569C73.9908 77.364 69.0666 77.4038 67.7916 77.2991H67.7932Z" fill="white"/>
<path d="M77.1287 71.636C77.1287 70.1017 77.1209 68.5665 77.1318 67.0321C77.1427 65.4743 77.9279 64.6188 79.4842 64.6001C82.4904 64.5634 85.4974 64.5626 88.5037 64.6001C90.0873 64.6196 90.8677 65.4712 90.8724 67.0626C90.8818 70.2103 90.8779 73.3579 90.8763 76.5056C90.8763 77.1759 90.6849 77.3587 90.0006 77.3603C89.0295 77.3634 88.0584 77.3626 87.0881 77.3603C86.3466 77.3587 86.1693 77.1821 86.1685 76.4532C86.1677 73.9165 86.1685 71.3798 86.1685 68.8423C86.1685 67.9884 85.9748 67.7946 85.117 67.7899C84.3341 67.786 83.5506 67.7829 82.7677 67.7915C82.0677 67.7985 81.8388 68.0282 81.8381 68.729C81.8342 71.2813 81.8373 73.8345 81.8365 76.3868C81.8365 77.2095 81.6826 77.3595 80.842 77.3603C79.8865 77.3603 78.9318 77.3634 77.9763 77.3587C77.3287 77.3556 77.1318 77.1618 77.131 76.522C77.1279 74.8931 77.1302 73.2649 77.131 71.636H77.1287Z" fill="white"/>
<path d="M103.731 72.2821C104.904 72.2774 105.595 71.7563 105.706 70.5907C105.797 69.636 105.776 68.6446 105.625 67.6985C105.302 65.6727 104.456 64.8211 102.45 64.5844C100.114 64.3094 97.756 64.2876 95.4247 64.6547C93.2638 64.9954 92.3083 65.9219 92.1669 68.0743C92.0349 70.0813 92.0638 72.1172 92.2435 74.1204C92.4271 76.175 93.5857 77.2141 95.6583 77.2829C98.6615 77.3821 101.668 77.3446 104.674 77.3547C105.105 77.3563 105.329 77.0993 105.331 76.6649C105.333 76.1172 105.333 75.5688 105.332 75.0211C105.33 74.0586 105.215 73.9422 104.255 73.9407C102.267 73.9368 100.278 73.9485 98.2896 73.9243C97.2458 73.9118 96.7521 73.3657 96.8036 72.2876C97.0193 72.2876 101.616 72.2915 103.729 72.2836L103.731 72.2821ZM97.9919 67.6985C98.6443 67.6571 99.3021 67.6821 99.956 67.7102C100.183 67.7196 100.42 67.7969 100.625 67.8993C100.982 68.0782 101.148 68.3836 101.054 68.7915C100.964 69.1821 100.6 69.2899 100.244 69.2915C99.0904 69.2969 97.9989 69.2915 96.8193 69.2915C96.6607 68.2352 97.0177 67.7602 97.9927 67.6985H97.9919Z" fill="white"/>
<path d="M111.701 65.4547C111.701 64.775 111.511 64.5758 110.849 64.5727C109.832 64.568 108.815 64.568 107.797 64.5742C107.178 64.5781 106.978 64.7688 106.977 65.393C106.972 69.118 106.972 72.843 106.978 76.568C106.979 77.1453 107.2 77.3539 107.783 77.357C108.785 77.3633 109.786 77.361 110.788 77.3594C111.511 77.3586 111.702 77.1664 111.702 76.4414C111.702 74.6102 111.702 72.7789 111.702 70.9477C111.702 69.1164 111.703 67.2852 111.701 65.4539V65.4547Z" fill="white"/>
<path d="M121.18 76.9532C120.439 75.9876 118.367 73.297 117.313 72.0079C116.458 70.9634 116.452 70.6556 117.245 69.5837C117.329 69.4704 120.088 65.8563 120.752 64.9766C120.862 64.8306 120.76 64.622 120.577 64.6181C119.655 64.5985 117.513 64.5602 116.485 64.5946C116.202 64.604 115.83 64.7954 115.666 65.0227C114.587 66.5212 113.559 68.0571 112.502 69.5712C111.905 70.4274 111.93 71.2306 112.559 72.0727C113.738 73.6532 114.882 75.2602 116.04 76.8571C116.298 77.2134 116.634 77.3727 117.084 77.3665C118.066 77.354 120.102 77.3266 121.005 77.3141C121.189 77.3118 121.291 77.1001 121.18 76.9532H121.18Z" fill="white"/>
<path d="M135.12 65.4101C135.115 64.7656 134.913 64.5749 134.209 64.5742C132.992 64.5726 131.776 64.5726 130.559 64.5726V64.571C130.205 64.5718 124.736 64.571 122.356 64.575C121.704 64.5757 121.516 64.7664 121.512 65.4109C121.508 66.021 121.507 66.632 121.513 67.2421C121.518 67.6734 121.736 67.9164 122.177 67.9226C122.756 67.9296 125.25 67.9265 125.963 67.9265C125.963 68.1585 125.963 68.3273 125.963 68.496C125.963 71.1421 125.962 73.7874 125.965 76.4335C125.966 77.2046 126.131 77.3609 126.911 77.3617C127.834 77.3617 128.759 77.3617 129.682 77.3617C130.524 77.3617 130.676 77.214 130.676 76.3851C130.677 73.771 130.676 71.1562 130.676 68.5421V67.9281C131.708 67.9281 133.853 67.9304 134.402 67.9234C134.877 67.9179 135.112 67.6742 135.117 67.2429C135.124 66.6328 135.123 66.0218 135.119 65.4117L135.12 65.4101Z" fill="white"/>
<path d="M65.7594 5.20386L52.8594 10.2976V57.5601C52.8594 57.9937 53.2102 58.3453 53.6422 58.3453H64.9766C65.4086 58.3453 65.7594 57.9937 65.7594 57.5601V7.36401L75.2938 10.4335V57.7749C75.2938 58.1335 75.5836 58.4234 75.9406 58.4234H76.7187C77.0758 58.4234 77.3656 58.1328 77.3656 57.7749V8.99995L65.7594 5.20386Z" fill="#B4B4B4"/>
<path d="M41.5996 24.1858V58.4233H57.884V28.1514L43.0137 23.342L41.5996 24.1858Z" fill="white"/>
<path d="M43.3203 22.2827L34.1758 26.0835V57.703C34.1758 58.1007 34.4945 58.4233 34.8875 58.4233H42.7547C43.1492 58.4233 43.468 58.0991 43.4664 57.6999L43.3297 24.5069L56.5352 28.9663V57.7913C56.5352 58.1397 56.8164 58.4226 57.1633 58.4226H58.1195C58.4664 58.4226 58.7477 58.1397 58.7477 57.7913V27.5546L43.3211 22.2827H43.3203Z" fill="#488A99"/>
<path d="M60.1348 34.564V58.4233H67.3348V37.4022L60.1348 34.564Z" fill="white"/>
<path d="M60.5844 32.511L48.2656 36.104V57.8813C48.2656 58.1805 48.507 58.4235 48.8047 58.4235H60.0453C60.343 58.4235 60.5844 58.1805 60.5844 57.8813V35.1133L66.3219 37.386V57.8149C66.3219 58.1508 66.593 58.4235 66.9266 58.4235H67.7703C68.1039 58.4235 68.375 58.1508 68.375 57.8149V36.0188L60.5844 32.511V32.511Z" fill="#DBAE58"/>
<path d="M93.5277 15.5413L82.2988 19.3577V57.7991C82.2988 58.1436 82.623 58.4233 83.023 58.4233H84.8199L84.8215 58.4069L91.6863 58.3889V58.4233H92.8051C93.2051 58.4233 93.5293 58.1436 93.5293 57.7991V17.8084L102.906 20.8483L103.052 57.9069C103.052 58.192 103.32 58.4225 103.65 58.4225H104.37C104.7 58.4225 104.968 58.1913 104.968 57.9069V19.3405L93.5293 15.5413H93.5277Z" fill="#488A99"/>
<path d="M85.1873 43.2734L91.6842 45.7609V58.4234L84.3154 58.4219L85.1873 43.2734Z" fill="white"/>
<path d="M85.1834 43.2734L79.7998 45.4117V58.1234C79.7998 58.2891 79.9662 58.4227 80.1709 58.4227H84.8123C85.017 58.4227 85.1834 58.2883 85.1834 58.1234L85.1709 44.5648" fill="#DBAE58"/>
<path d="M106.899 34.0171L98.1592 37.5608V57.9249C98.1592 58.2007 98.392 58.4241 98.6795 58.4241H106.379C106.666 58.4241 106.899 58.2007 106.899 57.9249V36.3343L115.681 39.2085V57.8632C115.681 58.1726 115.942 58.4233 116.395 58.4233H117.115C117.308 58.4233 117.699 58.1726 117.699 57.8632L117.725 37.7179L106.899 34.0171V34.0171Z" fill="#B4B4B4"/>
<path d="M99.9971 22.0579V24.6266L103 25.5829V22.9954L99.9971 22.0579Z" fill="#488A99"/>
<path d="M99.9971 26.7454V29.3141L103 30.2704V27.6829L99.9971 26.7454Z" fill="#488A99"/>
<path d="M112.687 40.1892V43.5501L115.76 44.408V41.0892L112.687 40.1892Z" fill="#B4B4B4"/>
</svg>
