<svg width="86" height="44" viewBox="0 0 86 44" fill="none" xmlns="http://www.w3.org/2000/svg">
<path d="M32.2653 0L19.0898 4.1638V42.857C19.0898 43.2098 19.449 43.3702 19.8879 43.3702H31.4832C31.9221 43.3702 32.2653 43.2098 32.2653 42.857V1.76432L42.0012 4.27286V42.966C42.0012 43.2612 42.2965 43.4985 42.6636 43.4985H43.4616C43.8287 43.4985 44.124 43.2612 44.124 42.966V3.10521L32.2653 0Z" fill="#B4B4B4"/>
<path d="M8.55664 15.8372V43.5558H24.0007L25.1875 19.09L10.0011 15.1443L8.55664 15.8372Z" fill="#EDF0F5"/>
<path d="M9.34491 14.0247L0 17.1299V42.9916C0 43.3188 0.327192 43.5819 0.726206 43.5819H8.76235C9.16136 43.5819 9.48855 43.3188 9.48855 42.9916L9.35289 15.8467L22.8396 19.4908V43.0622C22.8396 43.3445 23.1907 43.306 23.5418 43.306H24.4197C24.7708 43.306 25.09 43.3445 25.09 43.0622V18.336L9.34491 14.0247Z" fill="#488A99"/>
<path d="M26.5176 24.1101V43.5818H33.8754V26.4262L26.5176 24.1101Z" fill="#EDF0F5"/>
<path d="M26.9814 22.4229L14.3965 25.3548V43.1392C14.3965 43.383 14.6439 43.5819 14.9471 43.5819H26.4307C26.734 43.5819 26.9814 43.383 26.9814 43.1392V24.5529L32.8389 26.407V43.0879C32.8389 43.3637 33.1182 43.5819 33.4534 43.5819H34.3153C34.6584 43.5819 34.9297 43.3573 34.9297 43.0879V25.2907L26.9814 22.4229Z" fill="#DBAE58"/>
<path d="M60.6259 8.48804L49.1582 11.6125V43.0687C49.1582 43.351 49.4854 43.5178 49.9004 43.5178H59.8917C60.2987 43.5178 60.6338 43.351 60.6338 43.0687V10.3422L70.2102 12.8315L70.3618 43.1586C70.3618 43.3895 70.6331 43.3895 70.9763 43.3895H71.7105C72.0456 43.3895 72.3249 43.3959 72.3249 43.1586V11.5997L60.6259 8.48804Z" fill="#488A99"/>
<path d="M52.5495 31.3342L59.1891 33.368V43.5H52L52.5495 31.3342Z" fill="#EDF0F5"/>
<path d="M52.5492 31.3342L47.0508 33.0729V43.415C47.0508 43.5497 47.1258 43.5 47.3333 43.5H52.0736C52.2811 43.5 52.5412 43.5497 52.5412 43.415L52.5252 32.3864" fill="#DBAE58"/>
<path d="M74.2874 23.6611L65.3574 26.5546V43.1777C65.3574 43.4023 65.5968 43.5883 65.8921 43.5883H73.7606C74.0559 43.5883 74.2953 43.4087 74.2953 43.1777V25.5538L83.2652 27.9019V43.1264C83.2652 43.3766 83.5285 43.5819 83.9914 43.5819H84.7256C84.9251 43.5819 85.3241 43.3766 85.3241 43.1264L85.348 26.6829L74.2874 23.6611Z" fill="#B4B4B4"/>
</svg>
