<svg width="65" height="44" viewBox="0 0 65 44" fill="none" xmlns="http://www.w3.org/2000/svg" aria-hidden="true">
  <path d="M24.199 0L14.3174 4.1638V42.857C14.3174 43.2098 14.5867 43.3702 14.9159 43.3702H23.6124C23.9416 43.3702 24.199 43.2098 24.199 42.857V1.76432L31.5009 4.27286V42.966C31.5009 43.2612 31.7224 43.4985 31.9977 43.4985H32.5962C32.8715 43.4985 33.093 43.2612 33.093 42.966V3.10521L24.199 0Z" fill="#B4B4B4"/>
  <path d="M6.41699 15.8372V43.5558H18L18.8902 19.09L7.50031 15.1443L6.41699 15.8372Z" fill="#EDF0F5"/>
  <path d="M7.00868 14.0247L0 17.1299V42.9916C0 43.3188 0.245394 43.5819 0.544654 43.5819H6.57176C6.87102 43.5819 7.11641 43.3188 7.11641 42.9916L7.01466 15.8467L17.1297 19.4908V43.0622C17.1297 43.3445 17.393 43.306 17.6564 43.306H18.3147C18.5781 43.306 18.8175 43.3445 18.8175 43.0622V18.336L7.00868 14.0247Z" fill="#488A99"/>
  <path d="M19.8877 24.1101V43.5818H25.4061V26.4262L19.8877 24.1101Z" fill="#EDF0F5"/>
  <path d="M20.2356 22.4229L10.7969 25.3548V43.1392C10.7969 43.383 10.9824 43.5819 11.2099 43.5819H19.8226C20.05 43.5819 20.2356 43.383 20.2356 43.1392V24.5529L24.6287 26.407V43.0879C24.6287 43.3637 24.8382 43.5819 25.0896 43.5819H25.736C25.9933 43.5819 26.1968 43.3573 26.1968 43.0879V25.2907L20.2356 22.4229Z" fill="#DBAE58"/>
  <path d="M45.4699 8.48804L36.8691 11.6125V43.0687C36.8691 43.351 37.1145 43.5178 37.4258 43.5178H44.9192C45.2245 43.5178 45.4759 43.351 45.4759 43.0687V10.3422L52.6581 12.8315L52.7718 43.1586C52.7718 43.3895 52.9753 43.3895 53.2327 43.3895H53.7833C54.0347 43.3895 54.2442 43.3959 54.2442 43.1586V11.5997L45.4699 8.48804Z" fill="#488A99"/>
  <path d="M39.4121 31.3342L44.3918 33.368V43.5H39L39.4121 31.3342Z" fill="#EDF0F5"/>
  <path d="M39.4119 31.3342L35.2881 33.0729V43.415C35.2881 43.5497 35.3444 43.5 35.5 43.5H39.0552C39.2108 43.5 39.4059 43.5497 39.4059 43.415L39.3939 32.3864" fill="#DBAE58"/>
  <path d="M55.716 23.6611L49.0186 26.5546V43.1777C49.0186 43.4023 49.1981 43.5883 49.4196 43.5883H55.321C55.5424 43.5883 55.722 43.4087 55.722 43.1777V25.5538L62.4494 27.9019V43.1264C62.4494 43.3766 62.6469 43.5819 62.994 43.5819H63.5447C63.6943 43.5819 63.9935 43.3766 63.9935 43.1264L64.0115 26.6829L55.716 23.6611Z" fill="#B4B4B4"/>
</svg>
