<svg width="200" height="153" viewBox="0 0 200 153" fill="none" xmlns="http://www.w3.org/2000/svg">
<path d="M180.471 0.196078L99.9608 0.392157L19.451 0H19.4118C8.58823 0 0 10.1569 0 22.8627V129.294C0 142 8.58823 152.157 19.4118 152.157H180.588C191.412 152.157 200 142 200 129.294V22.8627C200 10.1569 191.49 0.196078 180.471 0.196078ZM174.157 15.8824L102.235 81.6471L101.961 81.8824L101.725 82.1569C100.863 83.098 99.8431 83.2157 99.2941 83.2157C98.7451 83.2157 97.7255 83.0588 96.902 82.0784L96.6667 81.8039L27.9216 15.5686L99.9608 16.0392L174.157 15.8824ZM180.588 136.471H19.4118C18.0392 136.471 15.6863 133.882 15.6863 129.294V25.3725L85.3333 92.6667C88.8627 96.5882 93.8431 98.8627 99.1373 98.9412H99.3725C104.588 98.9412 109.451 96.7843 113.02 93.0196L184.392 27.6863V129.294C184.314 133.882 181.961 136.471 180.588 136.471Z" fill="#488A99"/>
</svg>
