<svg width="150" height="85" viewBox="0 0 150 85" fill="none" xmlns="http://www.w3.org/2000/svg">
<path d="M14.8789 75.6078C14.882 71.5211 14.8789 67.4352 14.8852 63.3484C14.8852 62.9594 14.8961 62.5594 14.982 62.1828C15.2141 61.168 16.1383 60.5031 17.3477 60.4813C18.6469 60.4578 19.9469 60.4688 21.2461 60.4695C23.8922 60.4695 26.5383 60.4656 29.1844 60.4781C30.5164 60.4844 31.4289 61.1023 31.6945 62.1758C31.7797 62.5203 31.7937 62.8891 31.7945 63.2469C31.8008 67.6461 31.7992 72.0461 31.7984 76.4453C31.7984 77.1781 31.6172 77.357 30.8773 77.3586C29.6562 77.3609 28.4352 77.3609 27.2133 77.3586C26.5461 77.357 26.3461 77.1594 26.3461 76.4875C26.3437 73.0117 26.3477 65.9664 26.3477 65.9195C26.3523 64.6766 26.1789 64.5 24.9508 64.5C23.8078 64.5 22.6648 64.5 21.5219 64.5C20.5945 64.5008 20.3367 64.7344 20.3344 65.6563C20.325 69.1633 20.3289 72.6703 20.3281 76.1773C20.3281 76.3648 20.3328 76.5539 20.3203 76.7406C20.2937 77.1328 20.0656 77.3508 19.6844 77.3539C18.307 77.3648 16.9289 77.3617 15.5508 77.357C15.2367 77.3562 15.0641 77.207 14.9562 76.993C14.8656 76.8141 14.8797 75.7805 14.8805 75.6078H14.8789Z" fill="#4D585B"/>
<path d="M34.1043 81.4626C33.9309 81.4618 33.7574 81.4219 33.6098 81.3313C33.3504 81.1727 33.2543 80.9258 33.2559 80.5415C33.2707 76.0641 33.2621 71.586 33.2653 67.1086C33.266 65.4501 34.0317 64.6204 35.6785 64.593C37.8543 64.5579 40.0309 64.5751 42.2067 64.586C43.0957 64.5907 43.9496 64.7868 44.7262 65.2352C45.8957 65.911 46.4957 66.993 46.734 68.2696C47.109 70.2797 47.0504 72.2907 46.5106 74.2696C46.0512 75.9532 44.9192 76.9641 43.2098 77.1922C42.0223 77.3508 38.5754 77.3594 37.9817 77.3594C37.9817 77.6079 37.9817 77.8196 37.9817 78.0313C37.9817 78.8766 37.984 79.5493 37.9817 80.3946C37.9793 81.1094 37.6567 81.4571 36.952 81.4618C36.2957 81.4657 34.6809 81.4641 34.1059 81.4618L34.1043 81.4626ZM38.0059 73.3868C38.0098 73.6915 38.2574 73.9227 38.5613 73.9329C39.0996 73.9508 39.8246 73.9438 40.3387 73.9329C41.3949 73.911 41.9293 73.3422 42.034 72.304C42.1285 71.3641 42.1082 70.3969 42.0035 69.4579C41.8981 68.5196 41.2371 68.0235 40.284 67.9868C39.7996 67.968 39.3145 67.9766 38.8293 67.9797C38.1684 67.9837 37.9863 68.1547 37.9832 68.811C37.9778 70.0337 37.9918 72.3313 38.0059 73.3868V73.3868Z" fill="#4D585B"/>
<path d="M62.3919 68.5648C61.9224 66.2289 60.7443 65.0265 58.4263 64.6508C56.206 64.2906 53.9646 64.2906 51.7443 64.7062C49.8685 65.0578 48.6732 66.1875 48.1966 68.0344C47.699 69.964 47.6958 71.9086 48.1818 73.8414C48.6513 75.7062 49.831 76.8812 51.738 77.2062C52.8896 77.4023 57.0247 77.457 57.9099 77.3609C60.4138 77.089 61.8349 75.893 62.3474 73.6008C62.7208 71.932 62.7294 70.2414 62.3919 68.5656V68.5648ZM57.8833 71.9742C57.8833 73.1906 56.8974 74.1765 55.681 74.1765H54.7763C53.5599 74.1765 52.574 73.1906 52.574 71.9742V69.8203C52.574 68.6039 53.5599 67.6179 54.7763 67.6179H55.6341C56.8763 67.6179 57.8841 68.625 57.8841 69.8679V71.975L57.8833 71.9742Z" fill="#4D585B"/>
<path d="M67.7951 77.2991C65.3076 77.0952 63.9303 75.7288 63.6303 73.2554C63.4357 71.6491 63.4381 70.0366 63.7131 68.4343C64.0975 66.1921 65.624 64.728 67.8951 64.6343C70.256 64.5366 72.6232 64.5811 74.9881 64.5765C75.4545 64.5757 75.6568 64.8046 75.6678 65.2905C75.681 65.8694 75.6795 66.4499 75.6693 67.0288C75.66 67.578 75.4459 67.7843 74.8865 67.7866C73.6021 67.7921 72.3178 67.785 71.0342 67.7905C69.3271 67.7983 68.5178 68.5101 68.3857 70.2218C68.3271 70.9788 68.349 71.7601 68.467 72.5093C68.6342 73.5702 69.274 74.0827 70.3537 74.1077C71.8092 74.1413 73.2662 74.1311 74.7225 74.1343C75.8717 74.1374 75.931 74.1936 75.931 75.3616C75.931 75.7686 75.935 76.1757 75.9295 76.5835C75.9225 77.1444 75.7232 77.3538 75.167 77.3569C73.9928 77.364 69.0685 77.4038 67.7935 77.2991H67.7951Z" fill="#4D585B"/>
<path d="M77.1297 71.636C77.1297 70.1017 77.1218 68.5665 77.1328 67.0321C77.1437 65.4743 77.9289 64.6188 79.4851 64.6001C82.4914 64.5634 85.4984 64.5626 88.5047 64.6001C90.0882 64.6196 90.8687 65.4712 90.8734 67.0626C90.8828 70.2103 90.8789 73.3579 90.8773 76.5056C90.8773 77.1759 90.6859 77.3587 90.0015 77.3603C89.0304 77.3634 88.0593 77.3626 87.089 77.3603C86.3476 77.3587 86.1703 77.1821 86.1695 76.4532C86.1687 73.9165 86.1695 71.3798 86.1695 68.8423C86.1695 67.9884 85.9758 67.7946 85.1179 67.7899C84.3351 67.786 83.5515 67.7829 82.7687 67.7915C82.0687 67.7985 81.8398 68.0282 81.839 68.729C81.8351 71.2813 81.8383 73.8345 81.8375 76.3868C81.8375 77.2095 81.6836 77.3595 80.8429 77.3603C79.8875 77.3603 78.9328 77.3634 77.9773 77.3587C77.3297 77.3556 77.1328 77.1618 77.132 76.522C77.1289 74.8931 77.1312 73.2649 77.132 71.636H77.1297Z" fill="#4D585B"/>
<path d="M103.732 72.2821C104.905 72.2774 105.596 71.7563 105.707 70.5907C105.798 69.636 105.776 68.6446 105.626 67.6985C105.303 65.6727 104.457 64.8211 102.451 64.5844C100.115 64.3094 97.7569 64.2876 95.4257 64.6547C93.2648 64.9954 92.3093 65.9219 92.1679 68.0743C92.0359 70.0813 92.0648 72.1172 92.2445 74.1204C92.428 76.1751 93.5866 77.2141 95.6593 77.2829C98.6624 77.3821 101.669 77.3446 104.675 77.3547C105.106 77.3563 105.33 77.0993 105.332 76.6649C105.334 76.1172 105.334 75.5688 105.333 75.0211C105.331 74.0586 105.216 73.9422 104.256 73.9407C102.268 73.9368 100.279 73.9485 98.2905 73.9243C97.2468 73.9118 96.753 73.3657 96.8046 72.2876C97.0202 72.2876 101.617 72.2915 103.73 72.2836L103.732 72.2821ZM97.9929 67.6985C98.6452 67.6571 99.303 67.6821 99.9569 67.7102C100.184 67.7196 100.421 67.7969 100.626 67.8993C100.983 68.0782 101.149 68.3836 101.055 68.7915C100.965 69.1821 100.601 69.2899 100.245 69.2915C99.0913 69.2969 97.9999 69.2915 96.8202 69.2915C96.6616 68.2352 97.0187 67.7602 97.9937 67.6985H97.9929Z" fill="#4D585B"/>
<path d="M111.702 65.4547C111.702 64.775 111.512 64.5758 110.85 64.5727C109.833 64.568 108.816 64.568 107.798 64.5742C107.179 64.5781 106.979 64.7688 106.978 65.393C106.973 69.118 106.973 72.843 106.979 76.568C106.98 77.1453 107.201 77.3539 107.784 77.357C108.786 77.3633 109.787 77.361 110.789 77.3594C111.512 77.3586 111.703 77.1664 111.703 76.4414C111.703 74.6102 111.703 72.7789 111.703 70.9477C111.703 69.1164 111.704 67.2852 111.702 65.4539V65.4547Z" fill="#4D585B"/>
<path d="M121.18 76.9532C120.439 75.9876 118.367 73.297 117.313 72.0079C116.458 70.9634 116.452 70.6556 117.245 69.5837C117.329 69.4704 120.088 65.8563 120.752 64.9766C120.862 64.8306 120.76 64.622 120.577 64.6181C119.655 64.5985 117.513 64.5602 116.485 64.5946C116.202 64.604 115.83 64.7954 115.666 65.0227C114.587 66.5212 113.559 68.0571 112.502 69.5712C111.905 70.4274 111.93 71.2306 112.559 72.0727C113.738 73.6532 114.882 75.2602 116.04 76.8571C116.298 77.2134 116.634 77.3727 117.084 77.3665C118.066 77.354 120.102 77.3266 121.005 77.3141C121.189 77.3118 121.291 77.1001 121.18 76.9532H121.18Z" fill="#4D585B"/>
<path d="M135.121 65.4101C135.116 64.7656 134.914 64.5749 134.21 64.5742C132.993 64.5726 131.777 64.5726 130.56 64.5726V64.571C130.206 64.5718 124.737 64.571 122.357 64.575C121.705 64.5757 121.517 64.7664 121.513 65.4109C121.509 66.021 121.508 66.632 121.514 67.2421C121.519 67.6734 121.737 67.9164 122.178 67.9226C122.757 67.9296 125.251 67.9265 125.964 67.9265C125.964 68.1585 125.964 68.3273 125.964 68.496C125.964 71.1421 125.963 73.7874 125.966 76.4335C125.967 77.2046 126.132 77.3609 126.912 77.3617C127.835 77.3617 128.76 77.3617 129.683 77.3617C130.525 77.3617 130.677 77.214 130.677 76.3851C130.678 73.771 130.677 71.1562 130.677 68.5421V67.9281C131.709 67.9281 133.854 67.9304 134.403 67.9234C134.878 67.9179 135.113 67.6742 135.117 67.2429C135.125 66.6328 135.124 66.0218 135.12 65.4117L135.121 65.4101Z" fill="#4D585B"/>
<path d="M65.7594 5.20386L52.8594 10.2976V57.5601C52.8594 57.9937 53.2102 58.3453 53.6422 58.3453H64.9766C65.4086 58.3453 65.7594 57.9937 65.7594 57.5601V7.36401L75.2938 10.4335V57.7749C75.2938 58.1335 75.5836 58.4234 75.9406 58.4234H76.7187C77.0758 58.4234 77.3656 58.1328 77.3656 57.7749V8.99995L65.7594 5.20386Z" fill="#B4B4B4"/>
<path d="M41.5996 24.1858V58.4233H57.884V28.1514L43.0137 23.342L41.5996 24.1858Z" fill="white"/>
<path d="M43.3203 22.2827L34.1758 26.0835V57.703C34.1758 58.1007 34.4945 58.4233 34.8875 58.4233H42.7547C43.1492 58.4233 43.468 58.0991 43.4664 57.6999L43.3297 24.5069L56.5352 28.9663V57.7913C56.5352 58.1397 56.8164 58.4226 57.1633 58.4226H58.1195C58.4664 58.4226 58.7477 58.1397 58.7477 57.7913V27.5546L43.3211 22.2827H43.3203Z" fill="#488A99"/>
<path d="M60.1348 34.564V58.4233H67.3348V37.4022L60.1348 34.564Z" fill="white"/>
<path d="M60.5844 32.511L48.2656 36.104V57.8813C48.2656 58.1805 48.507 58.4235 48.8047 58.4235H60.0453C60.343 58.4235 60.5844 58.1805 60.5844 57.8813V35.1133L66.3219 37.386V57.8149C66.3219 58.1508 66.593 58.4235 66.9266 58.4235H67.7703C68.1039 58.4235 68.375 58.1508 68.375 57.8149V36.0188L60.5844 32.511V32.511Z" fill="#DBAE58"/>
<path d="M93.5277 15.5413L82.2988 19.3577V57.7991C82.2988 58.1436 82.623 58.4233 83.023 58.4233H84.8199L84.8215 58.4069L91.6863 58.3889V58.4233H92.8051C93.2051 58.4233 93.5293 58.1436 93.5293 57.7991V17.8084L102.906 20.8483L103.052 57.9069C103.052 58.192 103.32 58.4225 103.65 58.4225H104.37C104.7 58.4225 104.968 58.1913 104.968 57.9069V19.3405L93.5293 15.5413H93.5277Z" fill="#488A99"/>
<path d="M85.1883 43.2734L91.6852 45.7609V58.4234L84.3164 58.4219L85.1883 43.2734Z" fill="white"/>
<path d="M85.1844 43.2734L79.8008 45.4117V58.1234C79.8008 58.2891 79.9672 58.4227 80.1719 58.4227H84.8133C85.018 58.4227 85.1844 58.2883 85.1844 58.1234L85.1719 44.5648" fill="#DBAE58"/>
<path d="M106.9 34.0171L98.1602 37.5608V57.9249C98.1602 58.2007 98.393 58.4241 98.6805 58.4241H106.38C106.667 58.4241 106.9 58.2007 106.9 57.9249V36.3343L115.682 39.2085V57.8632C115.682 58.1726 115.943 58.4233 116.396 58.4233H117.116C117.309 58.4233 117.7 58.1726 117.7 57.8632L117.726 37.7179L106.9 34.0171V34.0171Z" fill="#B4B4B4"/>
<path d="M99.9961 22.0579V24.6266L102.999 25.5829V22.9954L99.9961 22.0579Z" fill="#488A99"/>
<path d="M99.9961 26.7454V29.3141L102.999 30.2704V27.6829L99.9961 26.7454Z" fill="#488A99"/>
<path d="M112.686 40.1892V43.5501L115.759 44.408V41.0892L112.686 40.1892Z" fill="#B4B4B4"/>
</svg>
