<svg width="140" height="79" viewBox="0 0 140 79" fill="none" xmlns="http://www.w3.org/2000/svg">
<path d="M13.8867 70.5674C13.8896 66.7531 13.8867 62.9396 13.8926 59.1253C13.8926 58.7622 13.9028 58.3888 13.983 58.0374C14.1995 57.0902 15.0621 56.4697 16.1909 56.4492C17.4035 56.4274 18.6168 56.4376 19.8294 56.4383C22.2991 56.4383 24.7688 56.4347 27.2385 56.4463C28.4817 56.4522 29.3334 57.0289 29.5813 58.0308C29.6608 58.3524 29.6739 58.6965 29.6746 59.0305C29.6805 63.1364 29.679 67.2431 29.6783 71.349C29.6783 72.033 29.5091 72.2 28.8186 72.2014C27.6789 72.2036 26.5392 72.2036 25.3988 72.2014C24.7761 72.2 24.5894 72.0155 24.5894 71.3884C24.5872 68.1444 24.5909 61.5687 24.5909 61.525C24.5953 60.3649 24.4334 60.2001 23.2871 60.2001C22.2204 60.2001 21.1536 60.2001 20.0868 60.2001C19.2213 60.2008 18.9807 60.4188 18.9785 61.2793C18.9697 64.5525 18.9734 67.8257 18.9727 71.0989C18.9727 71.2739 18.977 71.4504 18.9654 71.6247C18.9406 71.9907 18.7277 72.1941 18.3718 72.1971C17.0863 72.2073 15.8001 72.2044 14.5138 72.2C14.2207 72.1992 14.0595 72.06 13.9589 71.8602C13.8743 71.6932 13.8874 70.7285 13.8882 70.5674H13.8867Z" fill="#4D585B"/>
<path d="M31.831 76.0318C31.6691 76.0311 31.5072 75.9939 31.3694 75.9093C31.1273 75.7613 31.0376 75.5309 31.0391 75.1721C31.0529 70.9933 31.0449 66.8137 31.0478 62.6349C31.0486 61.0868 31.7631 60.3125 33.3002 60.2869C35.331 60.2541 37.3624 60.2702 39.3931 60.2804C40.2229 60.2847 41.0199 60.4678 41.7447 60.8863C42.8363 61.517 43.3963 62.5269 43.6187 63.7184C43.9687 65.5945 43.914 67.4714 43.4101 69.3184C42.9814 70.8898 41.9248 71.8333 40.3294 72.0462C39.2211 72.1942 36.004 72.2023 35.4498 72.2023C35.4498 72.4341 35.4498 72.6317 35.4498 72.8293C35.4498 73.6183 35.452 74.2461 35.4498 75.0351C35.4476 75.7023 35.1465 76.0267 34.4888 76.0311C33.8763 76.0347 32.3691 76.0333 31.8324 76.0311L31.831 76.0318ZM35.4724 68.4944C35.4761 68.7788 35.7072 68.9946 35.9908 69.0041C36.4932 69.0209 37.1699 69.0143 37.6497 69.0041C38.6355 68.9837 39.1343 68.4529 39.232 67.4838C39.3202 66.6066 39.3013 65.7039 39.2036 64.8275C39.1051 63.9517 38.4882 63.4887 37.5987 63.4544C37.1466 63.4369 36.6938 63.445 36.241 63.4479C35.6241 63.4515 35.4542 63.6112 35.4513 64.2237C35.4462 65.3649 35.4593 67.5093 35.4724 68.4944V68.4944Z" fill="#4D585B"/>
<path d="M58.232 63.9938C57.7938 61.8136 56.6942 60.6914 54.5308 60.3407C52.4585 60.0046 50.3665 60.0046 48.2942 60.3925C46.5435 60.7206 45.4278 61.775 44.983 63.4987C44.5186 65.2998 44.5157 67.1147 44.9692 68.9186C45.4074 70.6591 46.5085 71.7558 48.2884 72.0591C49.3632 72.2422 53.2226 72.2932 54.0488 72.2035C56.3858 71.9498 57.7121 70.8334 58.1904 68.694C58.539 67.1365 58.547 65.5586 58.232 63.9946V63.9938ZM54.024 67.1759C54.024 68.3112 53.1038 69.2314 51.9685 69.2314H51.1241C49.9888 69.2314 49.0686 68.3112 49.0686 67.1759V65.1656C49.0686 64.0303 49.9888 63.1101 51.1241 63.1101H51.9247C53.0841 63.1101 54.0247 64.05 54.0247 65.2101V67.1767L54.024 67.1759Z" fill="#4D585B"/>
<path d="M63.275 72.1461C60.9533 71.9558 59.6678 70.6805 59.3878 68.3719C59.2062 66.8727 59.2084 65.3678 59.4651 63.8722C59.8238 61.7795 61.2486 60.4131 63.3683 60.3256C65.5719 60.2344 67.7812 60.276 69.9884 60.2716C70.4237 60.2709 70.6126 60.4845 70.6228 60.9381C70.6352 61.4784 70.6337 62.0201 70.6242 62.5605C70.6155 63.0731 70.4157 63.2656 69.8936 63.2677C68.6949 63.2729 67.4961 63.2663 66.2981 63.2714C64.7049 63.2787 63.9495 63.943 63.8262 65.5406C63.7715 66.2471 63.792 66.9763 63.9021 67.6756C64.0581 68.6658 64.6553 69.1441 65.663 69.1674C67.0214 69.1988 68.3813 69.1893 69.7405 69.1922C70.8131 69.1951 70.8685 69.2476 70.8685 70.3378C70.8685 70.7176 70.8722 71.0975 70.8671 71.4782C70.8605 72.0017 70.6746 72.1971 70.1554 72.2C69.0595 72.2066 64.4635 72.2438 63.2735 72.1461H63.275Z" fill="#4D585B"/>
<path d="M71.9879 66.8602C71.9879 65.4281 71.9806 63.9953 71.9908 62.5632C72.001 61.1092 72.7338 60.3108 74.1863 60.2933C76.9921 60.259 79.7987 60.2583 82.6045 60.2933C84.0826 60.3115 84.811 61.1063 84.8154 62.5916C84.8241 65.5295 84.8205 68.4673 84.819 71.4051C84.819 72.0307 84.6404 72.2013 84.0016 72.2028C83.0953 72.2057 82.1889 72.205 81.2833 72.2028C80.5913 72.2013 80.4258 72.0365 80.4251 71.3562C80.4243 68.9886 80.4251 66.621 80.4251 64.2527C80.4251 63.4557 80.2442 63.2749 79.4436 63.2705C78.713 63.2669 77.9816 63.2639 77.251 63.272C76.5977 63.2785 76.384 63.4929 76.3833 64.147C76.3796 66.5291 76.3826 68.9121 76.3818 71.2942C76.3818 72.0621 76.2382 72.2021 75.4536 72.2028C74.5618 72.2028 73.6708 72.2057 72.779 72.2013C72.1745 72.1984 71.9908 72.0176 71.9901 71.4204C71.9871 69.9001 71.9893 68.3805 71.9901 66.8602H71.9879Z" fill="#4D585B"/>
<path d="M96.8159 67.4634C97.9111 67.459 98.5557 66.9727 98.6592 65.8848C98.7438 64.9937 98.7241 64.0684 98.5834 63.1854C98.2823 61.2947 97.4926 60.4999 95.6201 60.2789C93.4399 60.0223 91.2392 60.0019 89.0634 60.3446C87.0465 60.6625 86.1548 61.5273 86.0228 63.5361C85.8995 65.4094 85.9265 67.3096 86.0942 69.1792C86.2656 71.0969 87.3469 72.0667 89.2814 72.1308C92.0843 72.2234 94.8909 72.1884 97.696 72.1979C98.0985 72.1994 98.3078 71.9595 98.3092 71.554C98.3114 71.0429 98.3107 70.531 98.31 70.0199C98.3085 69.1215 98.2006 69.0129 97.3052 69.0114C95.4494 69.0078 93.593 69.0187 91.7373 68.9961C90.7631 68.9845 90.3023 68.4748 90.3504 67.4685C90.5516 67.4685 94.842 67.4722 96.8144 67.4649L96.8159 67.4634ZM91.4594 63.1854C92.0683 63.1468 92.6823 63.1701 93.2926 63.1963C93.504 63.2051 93.7257 63.2773 93.9167 63.3728C94.25 63.5398 94.4053 63.8249 94.317 64.2055C94.2332 64.5701 93.8934 64.6707 93.5616 64.6722C92.4847 64.6773 91.466 64.6722 90.365 64.6722C90.2169 63.6863 90.5502 63.243 91.4602 63.1854H91.4594Z" fill="#4D585B"/>
<path d="M104.255 61.0912C104.255 60.4569 104.077 60.2709 103.46 60.268C102.51 60.2636 101.561 60.2636 100.612 60.2695C100.033 60.2731 99.8467 60.451 99.846 61.0336C99.8416 64.5103 99.8416 67.987 99.8467 71.4636C99.8474 72.0025 100.054 72.1972 100.598 72.2001C101.533 72.2059 102.468 72.2037 103.403 72.2023C104.078 72.2016 104.256 72.0222 104.256 71.3455C104.256 69.6363 104.256 67.9272 104.256 66.218C104.256 64.5088 104.257 62.7997 104.255 61.0905V61.0912Z" fill="#4D585B"/>
<path d="M113.102 71.8232C112.41 70.922 110.477 68.4107 109.492 67.2076C108.695 66.2327 108.689 65.9454 109.43 64.945C109.508 64.8392 112.083 61.4661 112.702 60.6451C112.805 60.5087 112.71 60.314 112.54 60.3104C111.679 60.2922 109.679 60.2564 108.72 60.2885C108.456 60.2973 108.108 60.4759 107.955 60.6881C106.948 62.0866 105.989 63.5202 105.003 64.9333C104.445 65.7325 104.469 66.4821 105.055 67.2681C106.156 68.7432 107.224 70.2431 108.305 71.7335C108.546 72.066 108.859 72.2148 109.279 72.2089C110.196 72.1973 112.096 72.1717 112.938 72.1601C113.11 72.1579 113.206 71.9603 113.102 71.8232H113.102Z" fill="#4D585B"/>
<path d="M126.112 61.0495C126.107 60.4479 125.918 60.27 125.261 60.2693C124.126 60.2678 122.991 60.2678 121.856 60.2678V60.2664C121.524 60.2671 116.42 60.2664 114.199 60.27C113.59 60.2707 113.415 60.4486 113.411 61.0502C113.407 61.6197 113.407 62.1899 113.412 62.7594C113.417 63.1619 113.62 63.3886 114.032 63.3945C114.572 63.401 116.9 63.3981 117.565 63.3981C117.565 63.6147 117.565 63.7722 117.565 63.9297C117.565 66.3994 117.564 68.8683 117.567 71.338C117.568 72.0577 117.723 72.2035 118.45 72.2043C119.312 72.2043 120.175 72.2043 121.037 72.2043C121.823 72.2043 121.964 72.0665 121.964 71.2928C121.965 68.853 121.964 66.4125 121.964 63.9727V63.3996C122.927 63.3996 124.93 63.4018 125.442 63.3952C125.885 63.3901 126.104 63.1626 126.109 62.7601C126.115 62.1906 126.115 61.6204 126.111 61.0509L126.112 61.0495Z" fill="#4D585B"/>
<path d="M61.3759 4.85693L49.3359 9.6111V53.7228C49.3359 54.1275 49.6633 54.4556 50.0666 54.4556H60.6453C61.0485 54.4556 61.3759 54.1275 61.3759 53.7228V6.87308L70.2747 9.73797V53.9233C70.2747 54.258 70.5452 54.5285 70.8784 54.5285H71.6047C71.9379 54.5285 72.2084 54.2572 72.2084 53.9233V8.39995L61.3759 4.85693Z" fill="#B4B4B4"/>
<path d="M38.8271 22.5734V54.5284H54.0259V26.2746L40.1469 21.7859L38.8271 22.5734Z" fill="white"/>
<path d="M40.4324 20.7974L31.8975 24.3448V53.8563C31.8975 54.2275 32.195 54.5286 32.5617 54.5286H39.9044C40.2727 54.5286 40.5702 54.226 40.5687 53.8534L40.4411 22.8733L52.7662 27.0354V53.9387C52.7662 54.2639 53.0287 54.5279 53.3525 54.5279H54.245C54.5687 54.5279 54.8312 54.2639 54.8312 53.9387V25.7178L40.4331 20.7974H40.4324Z" fill="#488A99"/>
<path d="M56.125 32.2598V54.5285H62.845V34.9088L56.125 32.2598Z" fill="white"/>
<path d="M56.5454 30.3435L45.0479 33.6969V54.0225C45.0479 54.3017 45.2732 54.5285 45.551 54.5285H56.0422C56.32 54.5285 56.5454 54.3017 56.5454 54.0225V32.7724L61.9004 34.8935V53.9605C61.9004 54.274 62.1534 54.5285 62.4647 54.5285H63.2522C63.5636 54.5285 63.8166 54.274 63.8166 53.9605V33.6175L56.5454 30.3435V30.3435Z" fill="#DBAE58"/>
<path d="M87.2918 14.5054L76.8115 18.0674V53.946C76.8115 54.2676 77.1141 54.5286 77.4875 54.5286H79.1645L79.166 54.5133L85.5732 54.4965V54.5286H86.6174C86.9907 54.5286 87.2933 54.2676 87.2933 53.946V16.6214L96.0447 19.4586L96.1811 54.0466C96.1811 54.3128 96.4312 54.5279 96.7396 54.5279H97.4112C97.7197 54.5279 97.9698 54.312 97.9698 54.0466V18.0513L87.2933 14.5054H87.2918Z" fill="#488A99"/>
<path d="M79.5081 40.3884L85.5718 42.7101V54.5284L78.6943 54.527L79.5081 40.3884Z" fill="white"/>
<path d="M79.5052 40.3884L74.4805 42.3842V54.2484C74.4805 54.403 74.6358 54.5277 74.8268 54.5277H79.1588C79.3498 54.5277 79.5052 54.4023 79.5052 54.2484L79.4935 41.5937" fill="#DBAE58"/>
<path d="M99.7724 31.7493L91.6152 35.0568V54.0632C91.6152 54.3206 91.8325 54.5292 92.1009 54.5292H99.2868C99.5551 54.5292 99.7724 54.3206 99.7724 54.0632V33.912L107.969 36.5946V54.0056C107.969 54.2944 108.213 54.5284 108.635 54.5284H109.308C109.487 54.5284 109.852 54.2944 109.852 54.0056L109.876 35.2033L99.7724 31.7493V31.7493Z" fill="#B4B4B4"/>
<path d="M49.335 11.9423L52.205 10.7698V13.6923L49.335 14.8298V11.9423Z" fill="white"/>
<path d="M49.335 17.6298L52.205 16.4573V19.3798L49.335 20.5173V17.6298Z" fill="white"/>
<path d="M35.1077 27.9022L31.8965 29.1097V26.2222L35.1077 24.9097V27.9022Z" fill="white"/>
<path d="M45.0479 39.0498L48.1454 37.9648V40.7298L45.0479 41.8148V39.0498Z" fill="white"/>
<path d="M93.3301 20.5872V22.9847L96.133 23.8772V21.4622L93.3301 20.5872Z" fill="#488A99"/>
<path d="M93.3301 24.9622V27.3597L96.133 28.2522V25.8372L93.3301 24.9622Z" fill="#488A99"/>
<path d="M105.174 37.5098V40.6466L108.042 41.4473V38.3498L105.174 37.5098Z" fill="#B4B4B4"/>
</svg>
