<svg width="207" height="341" viewBox="0 0 207 341" fill="none" xmlns="http://www.w3.org/2000/svg">
<path d="M24.3921 329C22.8919 328.098 23.4335 325.607 23.8921 323.5C49.8909 204 91.3921 18.4995 91.3921 18.4995C93.1214 14.0733 95.6308 12.9718 100.892 12.9995L119.892 12.9997C119.892 12.9997 118.892 10 115.892 5C112.892 4.76837e-07 107.892 0 107.892 0H83.3918C75.7478 0.268468 72.4598 2.17088 70.3918 9.00001C70.3918 9.00001 2.39414 308 0.391811 318.5C-1.61052 329 4.39182 337 10.8918 338.5C17.3918 339.999 31.4782 333.5 31.4782 333.5C29.4675 332.206 27.7151 330.997 24.3921 329Z" fill="white"/>
<path d="M140.892 194.999L117.93 99.9995L107.155 150.5L114.892 180L100.433 182L95.7392 203.999L140.892 194.999Z" fill="white"/>
<path d="M162.892 289C161.142 285.5 149.892 233.924 149.892 233.924L130.385 238.709L144.385 291.5C146.08 294.722 147.682 295.282 150.885 295.5L168.885 291.895C165.641 290.529 163.07 289.354 162.892 289Z" fill="white"/>
<path fill-rule="evenodd" clip-rule="evenodd" d="M206.392 287.5C206.392 287.5 162.892 102.5 144.392 18.4995C143.682 15.2755 139.392 14.9995 139.392 14.9995H115.892C115.892 14.9995 113.902 15.172 112.892 16.4995C111.938 17.7522 111.837 18.4995 111.837 18.4995C111.837 18.4995 66.8367 225 42.3367 333C41.9128 334.868 40.5832 338.483 43.266 340.173C43.471 340.28 43.6797 340.389 43.8921 340.5C49.3921 341.5 52.3128 340.114 57.3921 338.5C61.7204 337.124 65.1017 337.083 67.8921 333.5C69.3417 331.638 69.8803 330.303 70.3921 328C71.3921 323.5 86.3921 249.499 86.3921 249.499L130.385 238.709L149.892 233.924L165.892 229.999L182.892 297.5C182.892 297.5 192.685 297.639 197.392 295.5C202.892 293 204.892 291.5 204.892 291.5C204.892 291.5 205.94 290.904 206.392 290C206.844 289.095 206.392 287.5 206.392 287.5ZM126.892 57.9995L160.392 201.499L93.3921 214.999L95.7392 203.999L100.433 182L107.155 150.5L117.93 99.9995L126.892 57.9995Z" fill="#737373"/>
<path d="M115.892 14.9995H139.392C139.392 14.9995 135.548 12.9995 132.892 12.9995L119.892 12.9997L100.892 12.9995C95.6308 12.9718 93.1214 14.0733 91.3921 18.4995C91.3921 18.4995 49.8909 204 23.8921 323.5C23.4335 325.607 22.8919 328.098 24.3921 329C27.7151 330.997 29.4675 332.206 31.4782 333.5C33.9255 335.074 36.7556 336.774 43.266 340.173C40.5832 338.483 41.9128 334.868 42.3367 333C66.8367 225 111.837 18.4995 111.837 18.4995C111.837 18.4995 111.938 17.7522 112.892 16.4995C113.902 15.172 115.892 14.9995 115.892 14.9995Z" fill="#454545"/>
<path d="M160.392 201.499L126.892 57.9995L117.93 99.9995L140.892 194.999L160.392 201.499Z" fill="#454545"/>
<path d="M93.3921 214.999L160.392 201.499L140.892 194.999L95.7392 203.999L93.3921 214.999Z" fill="#454545"/>
<path d="M182.892 297.5L165.892 229.999L149.892 233.924C149.892 233.924 161.142 285.5 162.892 289C163.07 289.354 165.641 290.529 168.885 291.895C174.779 294.379 182.892 297.5 182.892 297.5Z" fill="#454545"/>
</svg>
