<svg width="345" height="191" viewBox="0 0 345 191" fill="none" xmlns="http://www.w3.org/2000/svg">
<path d="M343.615 1.14122C342.961 0.367224 341.897 -0.118779 340.566 0.0252215C340.396 0.0432215 340.227 0.0612204 340.057 0.0972204C339.985 0.11522 339.936 0.115221 339.864 0.115221C301.918 10.9152 263.973 21.7152 226.027 32.4972C165.503 49.7232 104.979 66.9312 44.4544 84.1572C30.5152 88.1172 16.5518 92.0952 2.61262 96.0552C0.023216 96.7932 -1.28358 99.8532 1.76562 100.933C25.0702 109.285 48.3748 117.655 71.7036 126.025C84.699 146.797 97.6702 167.569 110.666 188.323C110.811 188.935 111.198 189.403 111.803 189.709C112.408 190.159 113.134 190.321 113.908 190.303C114.852 190.411 115.844 190.213 116.716 189.511C130.147 178.549 143.578 167.587 157.009 156.625C171.141 161.701 185.274 166.759 199.407 171.835C208.676 175.165 217.944 178.477 227.213 181.807C227.503 181.915 227.769 181.915 228.036 181.969C229.512 182.437 231.254 182.257 232.15 180.853C244.685 161.035 257.221 141.199 269.756 121.381C289.867 89.5752 309.977 57.7512 330.087 25.9452C334.709 18.6552 339.307 11.3472 343.929 4.05722C344.801 3.12122 344.534 1.96922 343.615 1.14122ZM33.2014 106.333C26.3286 103.867 19.48 101.401 12.6072 98.9532C47.8666 88.9272 83.126 78.8832 118.361 68.8572C178.885 51.6312 239.41 34.4232 299.934 17.1972C301.821 16.6572 303.685 16.1352 305.572 15.5952C286.769 24.1452 267.966 32.6772 249.162 41.2092C201.198 62.9892 153.233 84.7692 105.269 106.567C94.7662 111.337 84.2634 116.107 73.7606 120.877C60.2328 116.017 46.7292 111.175 33.2014 106.333ZM165.89 85.2912C211.507 64.5732 257.124 43.8552 302.741 23.1372C279.969 37.4292 257.197 51.7392 234.424 66.0312C209.716 81.5472 185.008 97.0632 160.3 112.561C151.37 118.177 142.416 123.775 133.486 129.391C128.888 132.271 123.637 134.989 119.45 138.211C118.022 139.291 117.611 140.209 117.296 141.757C116.304 146.599 115.844 151.549 115.143 156.409C114.102 163.573 113.037 170.719 111.972 177.883C100.913 160.207 89.8536 142.513 78.7942 124.837C107.858 111.661 136.874 98.4672 165.89 85.2912ZM118.894 179.809C119.789 173.725 120.684 167.641 121.58 161.557C122.378 156.139 123.177 150.739 123.976 145.321C124 145.177 124.048 145.015 124.072 144.853C132.784 147.985 141.521 151.117 150.233 154.249C146.724 157.111 143.215 159.973 139.73 162.817C132.784 168.469 125.839 174.139 118.894 179.809ZM154.927 150.001C145.973 146.797 137.019 143.575 128.065 140.371C130.897 138.499 134.164 135.961 134.962 135.439C143.094 130.327 151.225 125.215 159.356 120.121C207.756 89.7192 256.18 59.3352 304.58 28.9332C313.244 23.4972 321.907 18.0612 330.571 12.6072C320.407 28.6812 310.243 44.7552 300.079 60.8472C279.969 92.6532 259.859 124.477 239.748 156.283C235.586 162.853 231.448 169.405 227.31 175.975C203.206 167.317 179.079 158.659 154.927 150.001Z" fill="#488A99"/>
</svg>
