<svg width="350" height="181" viewBox="0 0 350 181" fill="none" xmlns="http://www.w3.org/2000/svg">
<path d="M348.391 71.0225C348.16 70.0362 347.432 69.1198 346.181 68.6438C346.022 68.583 345.863 68.5221 345.695 68.4773C345.622 68.4604 345.579 68.4384 345.515 68.4054C306.802 60.8014 268.089 53.1973 229.384 45.5772C167.636 33.4482 105.897 21.3033 44.1487 9.17433C29.931 6.37445 15.6835 3.57963 1.46579 0.779752C-1.17643 0.261751 -3.73001 2.39495 -1.50346 4.74155C15.4694 22.7633 32.434 40.8011 49.4202 58.8499C51.5689 83.2576 53.696 107.654 55.8529 132.046C55.7044 132.657 55.837 133.25 56.2371 133.797C56.5719 134.473 57.1452 134.947 57.8434 135.283C58.6353 135.807 59.6092 136.081 60.7042 135.851C77.6479 132.182 94.5917 128.512 111.535 124.842C121.823 135.781 132.12 146.704 142.407 157.643C149.154 164.818 155.909 171.977 162.655 179.152C162.865 179.38 163.102 179.501 163.315 179.67C164.418 180.757 166.052 181.387 167.487 180.543C187.654 168.576 207.828 156.593 227.995 144.626C260.353 125.417 292.719 106.191 325.077 86.9816C332.505 82.5846 339.92 78.1605 347.348 73.7635C348.549 73.325 348.834 72.1778 348.391 71.0225ZM24.0545 23.8245C19.0503 18.5071 14.0677 13.2007 9.05538 7.89934C45.0234 14.9735 80.9997 22.0317 116.946 29.0949C178.694 41.2239 240.434 53.3688 302.182 65.4978C304.109 65.8736 306.006 66.2544 307.933 66.6302C287.297 65.7118 266.67 64.7773 246.043 63.8428C193.418 61.4735 140.794 59.1043 88.161 56.751C76.6374 56.233 65.1138 55.7149 53.5902 55.1968C43.7432 44.725 33.9096 34.2803 24.0545 23.8245ZM151.834 65.3153C201.885 67.5652 251.935 69.815 301.986 72.0648C275.208 74.4607 248.421 76.8726 221.642 79.2685C192.583 81.8761 163.524 84.4837 134.473 87.0752C123.966 88.025 113.447 88.9479 102.941 89.8977C97.5365 90.3764 91.6235 90.414 86.4304 91.3842C84.6679 91.6983 83.8846 92.3294 82.9015 93.5659C79.8192 97.4297 77.1623 101.631 74.3306 105.643C70.151 111.554 65.9581 117.438 61.7569 123.337C59.9277 102.567 58.1066 81.7807 56.2773 61.0104C88.1555 62.4654 119.999 63.8823 151.834 65.3153ZM67.0494 128.196C70.6093 123.181 74.1692 118.167 77.7291 113.152C80.9003 108.688 84.0634 104.239 87.2347 99.7737C87.3216 99.6564 87.4383 99.534 87.5334 99.4007C93.874 106.146 100.236 112.903 106.577 119.649C102.151 120.606 97.7249 121.563 93.3288 122.515C84.5744 124.398 75.8119 126.297 67.0494 128.196ZM112.688 117.995C106.165 111.076 99.6495 104.14 93.126 97.22C96.4987 96.8374 100.562 96.0593 101.51 95.9567C111.076 95.0934 120.642 94.23 130.199 93.3827C187.126 88.2675 244.067 83.1793 300.994 78.064C311.181 77.1537 321.368 76.2434 331.563 75.317C315.21 85.0247 298.856 94.7324 282.494 104.456C250.136 123.666 217.77 142.891 185.412 162.101C178.721 166.065 172.059 170.024 165.389 173.999C147.844 155.342 130.277 136.674 112.688 117.995Z" fill="#488A99"/>
</svg>
