<svg width="204" height="107" viewBox="0 0 204 107" fill="none" xmlns="http://www.w3.org/2000/svg">
<path d="M202.991 2.8051C203.059 2.7051 203.12 2.5971 203.159 2.4791C203.17 2.4291 203.17 2.3791 203.184 2.3181C203.205 2.2141 203.227 2.1001 203.22 1.9921C203.22 1.9741 203.231 1.9561 203.227 1.9421C203.22 1.8811 203.191 1.8381 203.18 1.7771C203.166 1.7131 203.166 1.6451 203.141 1.5801C203.134 1.5551 203.116 1.5371 203.102 1.5161C203.07 1.4441 203.03 1.3841 202.991 1.3261C202.937 1.2511 202.891 1.1761 202.826 1.1081C202.779 1.0651 202.733 1.0331 202.679 0.990105C202.604 0.933105 202.522 0.883103 202.436 0.840103C202.379 0.811103 202.321 0.793102 202.257 0.779102C202.168 0.747102 202.067 0.729103 201.971 0.722103C201.971 0.722103 201.91 0.704102 201.882 0.704102H201.832L1.30805 7.3791C0.660046 7.3971 0.116046 7.8801 0.0160461 8.5241C-0.0839539 9.1611 0.292046 9.7911 0.904046 10.0061L45.539 25.7421L58.491 105.386C58.52 105.558 58.58 105.719 58.666 105.862C58.677 105.883 58.695 105.894 58.709 105.912C58.824 106.08 58.977 106.216 59.149 106.316C59.174 106.33 59.181 106.363 59.206 106.373C59.231 106.391 59.253 106.38 59.27 106.391C59.442 106.466 59.628 106.523 59.821 106.523H59.825C59.893 106.523 59.968 106.519 60.04 106.505C60.251 106.469 60.43 106.39 60.588 106.272C60.599 106.265 60.613 106.272 60.62 106.265L197.189 6.3691L202.554 3.2341C202.593 3.2131 202.615 3.1841 202.64 3.1621C202.751 3.0871 202.851 3.0081 202.93 2.9081C202.955 2.8761 202.969 2.8411 202.991 2.8051ZM59.056 29.8611C59.038 29.8821 59.017 29.8901 59.002 29.9111C58.837 30.1011 58.734 30.3331 58.698 30.5841C58.691 30.6091 58.666 30.6271 58.666 30.6481C58.666 30.6591 58.673 30.6771 58.67 30.6951C58.67 30.7271 58.659 30.7631 58.659 30.7991L58.516 88.6801L48.298 25.8741L149.318 11.1111L59.74 29.4741C59.468 29.5321 59.239 29.6781 59.056 29.8611ZM194.165 5.0061L112.08 52.9951L64.367 31.2961L194.165 5.0061ZM177.788 4.2151L46.878 23.3471L8.57305 9.8411L177.788 4.2151ZM61.182 102.504L61.357 32.8951L111.6 55.7421C111.775 55.8241 111.969 55.8671 112.155 55.8671C112.391 55.8671 112.627 55.8031 112.835 55.6771L174.377 19.6921L61.182 102.504Z" fill="#010002"/>
</svg>
