<svg width="187" height="187" viewBox="0 0 187 187" fill="none" xmlns="http://www.w3.org/2000/svg">
<path d="M159.275 44.83C159.024 44.4301 158.615 44.179 158.103 44.2534C158.038 44.2627 157.973 44.272 157.908 44.2906C157.88 44.2999 157.861 44.2999 157.833 44.2999C143.251 49.8799 128.669 55.4599 114.086 61.0306C90.8269 69.9307 67.5676 78.8215 44.3083 87.7216C38.9515 89.7676 33.5854 91.8229 28.2286 93.8689C27.2335 94.2502 26.7313 95.8312 27.9031 96.3892C36.859 100.704 45.8149 105.029 54.7801 109.353C59.7742 120.086 64.759 130.818 69.7531 141.541C69.8089 141.857 69.9577 142.099 70.1902 142.257C70.4227 142.489 70.7017 142.573 70.9993 142.564C71.362 142.619 71.7433 142.517 72.0781 142.154C77.2396 136.491 82.4011 130.827 87.5626 125.163C92.9938 127.786 98.425 130.399 103.856 133.022C107.418 134.742 110.98 136.454 114.542 138.174C114.654 138.23 114.756 138.23 114.858 138.258C115.425 138.5 116.095 138.407 116.439 137.681C121.257 127.442 126.074 117.193 130.891 106.954C138.62 90.5209 146.348 74.0785 154.076 57.6454C155.853 53.8789 157.62 50.1031 159.396 46.3366C159.731 45.853 159.628 45.2578 159.275 44.83ZM39.9838 99.1792C37.3426 97.9051 34.7107 96.631 32.0695 95.3662C45.6196 90.1861 59.1697 84.9967 72.7105 79.8166C95.9698 70.9165 119.229 62.0257 142.488 53.1256C143.214 52.8466 143.93 52.5769 144.655 52.2979C137.429 56.7154 130.203 61.1236 122.977 65.5318C104.544 76.7848 86.1118 88.0378 67.6792 99.3001C63.643 101.765 59.6068 104.229 55.5706 106.694C50.3719 104.183 45.1825 101.681 39.9838 99.1792ZM90.9757 88.3075C108.506 77.6032 126.037 66.8989 143.567 56.1946C134.816 63.5788 126.065 70.9723 117.313 78.3565C107.818 86.3731 98.3227 94.3897 88.8274 102.397C85.3957 105.299 81.9547 108.191 78.523 111.092C76.756 112.58 74.7379 113.985 73.129 115.649C72.5803 116.207 72.4222 116.682 72.3013 117.482C71.92 119.983 71.7433 122.541 71.4736 125.052C71.0737 128.753 70.6645 132.445 70.2553 136.147C66.0052 127.014 61.7551 117.872 57.505 108.74C68.6743 101.932 79.825 95.1151 90.9757 88.3075ZM72.9151 137.142C73.2592 133.998 73.6033 130.855 73.9474 127.712C74.2543 124.912 74.5612 122.122 74.8681 119.323C74.8774 119.249 74.896 119.165 74.9053 119.081C78.2533 120.699 81.6106 122.318 84.9586 123.936C83.6101 125.414 82.2616 126.893 80.9224 128.363C78.2533 131.283 75.5842 134.212 72.9151 137.142ZM86.7628 121.741C83.3218 120.086 79.8808 118.421 76.4398 116.765C77.5279 115.798 78.7834 114.487 79.0903 114.217C82.2151 111.576 85.3399 108.935 88.4647 106.303C107.065 90.5953 125.674 74.8969 144.274 59.1892C147.603 56.3806 150.933 53.572 154.262 50.7541C150.356 59.059 146.45 67.3639 142.544 75.6781C134.816 92.1112 127.088 108.554 119.359 124.987C117.76 128.381 116.169 131.766 114.579 135.161C105.316 130.688 96.0442 126.214 86.7628 121.741Z" fill="white"/>
</svg>
