<svg width="1920" height="200" viewBox="0 0 1920 200" fill="none" xmlns="http://www.w3.org/2000/svg">
<path d="M1920 66.3325L1884.4 76.2183C1848.93 86.2898 1777.33 123.141 1706.67 123.28C1635.6 123.141 1564 104.744 1493.33 97.1788C1422.27 89.8921 1350.67 125.555 1280 135.626C1206.5 160.271 1137.33 152.845 1066.67 160.271C995.6 167.697 924 125.74 853.333 135.626C782.267 145.698 710.667 157.45 640 152.67C568.933 147.704 497.333 125.74 426.666 123.28C355.6 120.635 285.801 78.6639 213.333 67.4464C112.588 51.8518 99.9888 24.3108 50.6897 14.2857L3.20796e-05 -5.96047e-07V200H35.5997C71.0664 200 142.667 200 213.333 200C284.4 200 356 200 426.666 200C497.733 200 569.333 200 640 200C711.067 200 782.667 200 853.333 200C924.4 200 996 200 1066.67 200C1137.73 200 1209.33 200 1280 200C1351.07 200 1422.67 200 1493.33 200C1564.4 200 1636 200 1706.67 200C1777.73 200 1849.33 200 1884 200H1920V66.3325Z" fill="#EDF0F5"/>
</svg>
