<svg width="1920" height="129" viewBox="0 0 1920 129" fill="none" xmlns="http://www.w3.org/2000/svg">
<path d="M0 0L32 12.9C64 25.8 128 61 192 61C256 61 320 25.8 384 21.4866C448 17.3344 512 40.7156 576 51.6C640 62.4844 704 42.8522 768 51.6C832 60.1866 896 90.3 960 98.8866C1024 107.634 1088 55.7522 1152 51.6C1216 47.2866 1280 90.3 1344 75.2634C1408 60.0656 1472 43.1344 1536 30.1134C1600 17.3344 1664 8.46562 1728 19.35C1792 30.2344 1856 60.0656 1888 75.2634L1920 90.3V129H1888C1856 129 1792 129 1728 129C1664 129 1600 129 1536 129C1472 129 1408 129 1344 129C1280 129 1216 129 1152 129C1088 129 1024 129 960 129C896 129 832 129 768 129C704 129 640 129 576 129C512 129 448 129 384 129C320 129 256 129 192 129C128 129 64 129 32 129H0V0Z" fill="#EDF0F5"/>
</svg>
