<svg width="100" height="100" viewBox="0 0 100 100" fill="none" xmlns="http://www.w3.org/2000/svg">
<rect x="0.5" y="0.5" width="99" height="99" rx="49.5" fill="#EDF0F5"/>
<path d="M10.0001 70.0581C10.0001 67.3077 10.0001 64.5574 10.0054 61.807C10.0054 61.5441 10.0107 61.2759 10.0685 61.0235C10.2263 60.3398 10.8468 59.8928 11.6619 59.8771C12.5349 59.8613 13.4131 59.8665 14.2861 59.8665C16.0688 59.8665 17.8463 59.8613 19.629 59.8718C20.5282 59.8771 21.1383 60.2925 21.3171 61.013C21.3749 61.2444 21.3854 61.4915 21.3854 61.7334C21.3907 64.6941 21.3907 67.6548 21.3854 70.6155C21.3854 71.1098 21.2645 71.2308 20.7649 71.2308C19.9445 71.2308 19.1189 71.2308 18.2985 71.2308C17.8515 71.2308 17.7148 71.0993 17.7148 70.6418C17.7148 68.3016 17.7148 63.5582 17.7148 63.5267C17.72 62.6905 17.5991 62.5696 16.7735 62.5696C16.0057 62.5696 15.2326 62.5696 14.4649 62.5696C13.8391 62.5696 13.6655 62.7273 13.6655 63.3479C13.6603 65.7091 13.6603 68.0703 13.6603 70.4315C13.6603 70.5577 13.6655 70.6839 13.655 70.8101C13.6392 71.073 13.4815 71.2203 13.229 71.2255C12.3035 71.2308 11.3727 71.2308 10.4471 71.2255C10.2368 71.2255 10.1211 71.1256 10.0475 70.9784C9.99489 70.8679 10.0001 70.1738 10.0001 70.0581Z" fill="#4D585B"/>
<path d="M22.9429 73.9969C22.8273 73.9969 22.7116 73.9706 22.6116 73.9075C22.4381 73.8023 22.375 73.634 22.375 73.3764C22.3855 70.3631 22.3803 67.3498 22.3803 64.3365C22.3803 63.2216 22.8956 62.659 24.0052 62.6432C25.4672 62.6169 26.9344 62.6327 28.4016 62.6379C29.0011 62.6432 29.5743 62.7747 30.0949 63.0744C30.8837 63.5319 31.2834 64.2576 31.4464 65.1148C31.6988 66.4663 31.662 67.8231 31.2939 69.1536C30.9836 70.2842 30.2211 70.9678 29.0747 71.1203C28.2754 71.2255 25.9562 71.2308 25.5566 71.2308C25.5566 71.3991 25.5566 71.5411 25.5566 71.683C25.5566 72.251 25.5566 72.7032 25.5566 73.2712C25.5566 73.7497 25.3357 73.9864 24.8624 73.9916C24.4207 74.0022 23.3321 74.0022 22.9429 73.9969ZM25.5723 68.5646C25.5776 68.7697 25.7406 68.9274 25.9457 68.9327C26.3086 68.9432 26.7976 68.938 27.1395 68.9327C27.8494 68.9169 28.2123 68.533 28.2806 67.8389C28.3437 67.2078 28.3332 66.5557 28.2596 65.9247C28.1912 65.2936 27.7442 64.9571 27.1026 64.936C26.7766 64.9255 26.4506 64.9308 26.1245 64.9308C25.6775 64.9308 25.5566 65.0464 25.5566 65.4882C25.5513 66.3033 25.5618 67.8494 25.5723 68.5646Z" fill="#4D585B"/>
<path d="M41.9847 65.3147C41.6692 63.7423 40.8751 62.9324 39.3133 62.68C37.8198 62.4381 36.3105 62.4381 34.817 62.7168C33.5549 62.9535 32.7503 63.716 32.4295 64.9571C32.093 66.256 32.093 67.5654 32.419 68.8643C32.7345 70.1212 33.5286 70.91 34.8118 71.1309C35.5848 71.2623 38.372 71.2992 38.9662 71.236C40.6543 71.052 41.6061 70.2474 41.9532 68.7066C42.2056 67.5812 42.2109 66.4453 41.9847 65.3147ZM38.9504 67.6127C38.9504 68.4331 38.2878 69.0957 37.4675 69.0957H36.8574C36.0371 69.0957 35.3745 68.4331 35.3745 67.6127V66.1613C35.3745 65.3409 36.0371 64.6783 36.8574 64.6783H37.4359C38.272 64.6783 38.9504 65.3567 38.9504 66.1929V67.6127V67.6127Z" fill="#4D585B"/>
<path d="M45.6219 71.1942C43.9496 71.0575 43.0188 70.1372 42.8189 68.4701C42.6874 67.3868 42.6874 66.3035 42.8768 65.2255C43.1344 63.7162 44.1652 62.7328 45.6902 62.6697C47.2784 62.6066 48.8718 62.6329 50.4652 62.6329C50.7807 62.6329 50.9174 62.7854 50.9227 63.1114C50.9332 63.5006 50.928 63.8897 50.9227 64.2841C50.9174 64.6522 50.7702 64.7942 50.3968 64.7942C49.5344 64.7995 48.6667 64.7942 47.8042 64.7995C46.6578 64.8048 46.1109 65.2833 46.0215 66.435C45.9847 66.9451 45.9952 67.471 46.0741 67.9758C46.1845 68.691 46.6158 69.0328 47.3467 69.0539C48.3249 69.0749 49.3083 69.0696 50.2864 69.0696C51.0594 69.0696 51.1015 69.1117 51.1015 69.8953C51.1015 70.1687 51.1015 70.4422 51.1015 70.7156C51.0962 71.0943 50.9648 71.2363 50.5861 71.2363C49.7921 71.2415 46.479 71.2678 45.6219 71.1942Z" fill="#4D585B"/>
<path d="M51.9011 67.3815C51.9011 66.3508 51.8959 65.3148 51.9011 64.2841C51.9064 63.2376 52.4375 62.6591 53.484 62.6486C55.5087 62.6223 57.5333 62.6223 59.5527 62.6486C60.6202 62.6591 61.1461 63.2324 61.1461 64.3051C61.1513 66.4244 61.1513 68.5437 61.1461 70.663C61.1461 71.1153 61.0199 71.2362 60.5571 71.2362C59.905 71.2362 59.2477 71.2362 58.5956 71.2362C58.096 71.2362 57.975 71.1153 57.975 70.6262C57.975 68.9171 57.975 67.2133 57.975 65.5041C57.975 64.9309 57.8436 64.7995 57.2651 64.7942C56.7392 64.7942 56.2133 64.789 55.6822 64.7942C55.2089 64.7995 55.0564 64.952 55.0564 65.4253C55.0564 67.1449 55.0564 68.8593 55.0564 70.5789C55.0564 71.131 54.9512 71.2362 54.3885 71.2362C53.747 71.2362 53.1001 71.2362 52.4586 71.2362C52.0221 71.2362 51.8906 71.1048 51.8906 70.6735C51.9011 69.5744 51.9011 68.4806 51.9011 67.3815Z" fill="#4D585B"/>
<path d="M69.8132 67.8182C70.602 67.8129 71.0701 67.4658 71.1437 66.6823C71.2068 66.0407 71.191 65.3728 71.0911 64.7365C70.8755 63.3745 70.3023 62.8013 68.956 62.6383C67.3837 62.4542 65.7955 62.4384 64.2284 62.6856C62.7717 62.917 62.1301 63.5375 62.0355 64.9889C61.9461 66.3404 61.9671 67.7077 62.0881 69.0592C62.2143 70.4423 62.9926 71.1417 64.3861 71.189C66.4055 71.2574 68.4301 71.2311 70.4548 71.2364C70.744 71.2364 70.8965 71.0628 70.8965 70.7736C70.8965 70.4055 70.8965 70.0374 70.8965 69.6693C70.8965 69.0224 70.8176 68.9435 70.1708 68.9435C68.8298 68.9435 67.4941 68.9488 66.1531 68.933C65.4484 68.9225 65.1171 68.5597 65.1539 67.8339C65.2959 67.8234 68.3881 67.8234 69.8132 67.8182ZM65.948 64.7313C66.3845 64.705 66.8315 64.7207 67.268 64.7365C67.4205 64.7418 67.5782 64.7944 67.7202 64.8627C67.9621 64.9837 68.0726 65.1888 68.0094 65.4622C67.9463 65.7252 67.7044 65.7988 67.4625 65.7988C66.6842 65.804 65.9533 65.7988 65.1592 65.7988C65.054 65.0941 65.2907 64.7733 65.948 64.7313Z" fill="#4D585B"/>
<path d="M75.1777 63.2217C75.1777 62.7642 75.0515 62.6327 74.6045 62.6275C73.9208 62.6222 73.2372 62.6222 72.5483 62.6275C72.1329 62.6275 71.9961 62.7589 71.9961 63.1797C71.9909 65.6881 71.9909 68.1965 71.9961 70.6997C71.9961 71.0889 72.1434 71.2309 72.5378 71.2309C73.2109 71.2361 73.884 71.2309 74.5624 71.2309C75.0515 71.2309 75.1777 71.0994 75.1777 70.6156C75.1777 69.385 75.1777 68.1492 75.1777 66.9186C75.1777 65.6881 75.1777 64.4575 75.1777 63.2217Z" fill="#4D585B"/>
<path d="M81.5539 70.9626C81.0544 70.3105 79.6608 68.5015 78.9508 67.6338C78.3776 66.9291 78.3724 66.724 78.9035 66.0035C78.9614 65.9299 80.8177 63.4951 81.2647 62.9009C81.3383 62.8009 81.27 62.6642 81.149 62.659C80.5285 62.6484 79.0876 62.6221 78.3934 62.6432C78.2041 62.6484 77.9517 62.7799 77.8412 62.9324C77.1155 63.9421 76.4214 64.9728 75.7114 65.993C75.3118 66.5715 75.3275 67.1079 75.7482 67.6758C76.5423 68.7381 77.3101 69.8214 78.0937 70.8942C78.2672 71.1361 78.4933 71.2413 78.7983 71.236C79.4609 71.2255 80.8282 71.2097 81.4382 71.1992C81.5592 71.2045 81.6276 71.0625 81.5539 70.9626Z" fill="#4D585B"/>
<path d="M90.9405 63.1901C90.9352 62.7589 90.8038 62.6274 90.3252 62.6274C89.5048 62.6274 88.6897 62.6274 87.8694 62.6274C87.6327 62.6274 83.9516 62.6274 82.3476 62.6274C81.9059 62.6274 81.7797 62.7589 81.7797 63.1901C81.7797 63.6003 81.7744 64.0105 81.7797 64.4207C81.7849 64.7099 81.9269 64.8729 82.2267 64.8782C82.6158 64.8835 84.2934 64.8782 84.7772 64.8782C84.7772 65.036 84.7772 65.1464 84.7772 65.2621C84.7772 67.0448 84.7772 68.8223 84.7772 70.605C84.7772 71.1256 84.8876 71.2308 85.4135 71.2308C86.034 71.2308 86.6546 71.2308 87.2804 71.2308C87.8483 71.2308 87.9482 71.1309 87.9482 70.5735C87.9482 68.8118 87.9482 67.0553 87.9482 65.2936C87.9482 65.1674 87.9482 65.0465 87.9482 64.8782C88.6424 64.8782 90.0886 64.8782 90.4567 64.8782C90.7775 64.8729 90.9352 64.7099 90.9352 64.4207C90.9457 64.0158 90.9457 63.6056 90.9405 63.1901Z" fill="#4D585B"/>
<path d="M35.2852 30.4736L37.3992 29.627V31.7357L35.2852 32.5561V30.4736Z" fill="#EDF0F5"/>
<path d="M35.2852 34.5757L37.3992 33.729V35.8378L35.2852 36.6581V34.5757Z" fill="#EDF0F5"/>
<path d="M25.1722 41.9851L22.832 42.8528V40.7703L25.1722 39.8237V41.9851Z" fill="#EDF0F5"/>
<path d="M32.2617 50.0205L34.523 49.2422V51.2353L32.2617 52.0188V50.0205Z" fill="#EDF0F5"/>
<path d="M67.4258 36.7051V38.4352L69.4452 39.0821V37.3361L67.4258 36.7051Z" fill="#488A99"/>
<path d="M67.4258 39.8604V41.5905L69.4452 42.2373V40.4914L67.4258 39.8604Z" fill="#488A99"/>
<path d="M75.9688 48.9106V51.1719L78.0354 51.7504V49.5154L75.9688 48.9106Z" fill="#B4B4B4"/>
<path d="M44.2487 24L35.5664 27.413V59.1287C35.5664 59.4179 35.8031 59.5494 36.0923 59.5494H43.7333C44.0225 59.5494 44.2487 59.4179 44.2487 59.1287V25.4462L50.6644 27.5024V59.2181C50.6644 59.46 50.859 59.6546 51.1009 59.6546H51.6267C51.8686 59.6546 52.0632 59.46 52.0632 59.2181V26.5453L44.2487 24Z" fill="#B4B4B4"/>
<path d="M27.9883 36.7789V59.8229H38.9476V39.4451L28.9401 36.2109L27.9883 36.7789Z" fill="#EDF0F5"/>
<path d="M29.1463 35.4956L22.9883 38.0409V59.239C22.9883 59.5072 23.2039 59.7228 23.4668 59.7228H28.7624C29.0254 59.7228 29.241 59.5072 29.241 59.239L29.1516 36.9891L38.0389 39.9761V59.2969C38.0389 59.5283 38.2703 59.4967 38.5017 59.4967H39.0802C39.3116 59.4967 39.5219 59.5283 39.5219 59.2969V39.0295L29.1463 35.4956Z" fill="#488A99"/>
<path d="M40.4609 43.7627V59.7231H45.3095V45.6611L40.4609 43.7627Z" fill="#EDF0F5"/>
<path d="M40.7658 42.3794L32.4727 44.7827V59.36C32.4727 59.5599 32.6357 59.7229 32.8355 59.7229H40.4029C40.6027 59.7229 40.7658 59.5599 40.7658 59.36V44.1253L44.6257 45.6451V59.3179C44.6257 59.5441 44.8098 59.7229 45.0306 59.7229H45.5986C45.8247 59.7229 46.0035 59.5388 46.0035 59.3179V44.7301L40.7658 42.3794Z" fill="#DBAE58"/>
<path d="M62.9397 30.9575L55.3828 33.5185V59.3024C55.3828 59.5338 55.5984 59.6705 55.8719 59.6705H62.4559C62.7241 59.6705 62.9449 59.5338 62.9449 59.3024V32.4773L69.2555 34.5177L69.3554 59.376C69.3554 59.5653 69.5342 59.5653 69.7603 59.5653H70.2441C70.465 59.5653 70.6491 59.5706 70.6491 59.376V33.508L62.9397 30.9575Z" fill="#488A99"/>
<path d="M57.6202 49.6841L61.9955 51.3511V59.8441H57.0312L57.6202 49.6841Z" fill="#EDF0F5"/>
<path d="M57.6194 49.6841L53.9961 51.1092V59.5864C53.9961 59.6968 54.1065 59.7862 54.2433 59.7862H57.367C57.5037 59.7862 57.6141 59.6968 57.6141 59.5864L57.6036 50.5465" fill="#DBAE58"/>
<path d="M71.9432 43.3945L66.0586 45.7662V59.3918C66.0586 59.5758 66.2164 59.7283 66.4109 59.7283H71.5961C71.7907 59.7283 71.9484 59.5811 71.9484 59.3918V44.9459L77.8593 46.8706V59.3497C77.8593 59.5548 78.0329 59.7231 78.3379 59.7231H78.8217C78.9531 59.7231 79.2161 59.5548 79.2161 59.3497L79.2319 45.8714L71.9432 43.3945Z" fill="#B4B4B4"/>
<rect x="0.5" y="0.5" width="99" height="99" rx="49.5" stroke="#488A99"/>
</svg>
