<svg width="1920" height="100" viewBox="0 0 1920 100" fill="none" xmlns="http://www.w3.org/2000/svg">
  <path d="M0 0L32 10C64 20 128 47.2868 192 47.2868C256 47.2868 320 20 384 16.6562C448 13.4375 512 31.5625 576 40C640 48.4375 704 33.2187 768 40C832 46.6562 896 70 960 76.6562C1024 83.4375 1088 43.2187 1152 40C1216 36.6562 1280 70 1344 58.3437C1408 46.5625 1472 33.4375 1536 23.3437C1600 13.4375 1664 6.5625 1728 15C1792 23.4375 1856 46.5625 1888 58.3437L1920 70V100H1888C1856 100 1792 100 1728 100C1664 100 1600 100 1536 100C1472 100 1408 100 1344 100C1280 100 1216 100 1152 100C1088 100 1024 100 960 100C896 100 832 100 768 100C704 100 640 100 576 100C512 100 448 100 384 100C320 100 256 100 192 100C128 100 64 100 32 100H0V0Z" fill="#EDF0F5"/>
</svg>
