<svg width="569" height="695" viewBox="0 0 569 695" fill="none" xmlns="http://www.w3.org/2000/svg">
<path d="M555.7 54.8999C559.7 56.1999 560.8 58.0999 560.8 62.0999C560.7 266.8 560.7 471.5 560.7 676.2C560.7 684.9 558.4 687.2 549.7 687.3C547.5 687.3 545.3 687.4 543.1 687.3C538.1 687.1 535.5 684.2 535 679.3C534.8 677.5 534.9 675.7 534.9 673.9C534.9 476.6 534.9 279.3 535 82.1C535 76 533.3 73.4999 527.5 71.6999C491.3 60.3999 413 35.4999 413 35.4999C413 35.4999 412.7 268.5 412.6 382C412.6 386.2 413.7 388.5 417.8 390.1C425.6 393.2 433.2 397 440.9 400.2C444 401.5 445.4 403.1 445.4 406.8C445.3 497 445.3 587.2 445.3 677.5C445.3 684.6 442.6 687.1 435.5 687.3C433.5 687.3 431.5 687.3 429.5 687.3C422.4 687.1 419.9 684.7 419.7 677.4C419.6 674.2 419.7 671 419.7 667.8C419.7 587.8 419.6 507.8 419.8 427.8C419.8 421.9 418.3 419 412.6 416.8C392.8 409.2 347 390.8 347 390.8C347 390.8 347 582.7 347 674.5C347 686 345.7 687.3 334.3 687.3C289.4 687.3 244.5 687.3 199.6 687.3C189.3 687.3 187.3 685.3 187.3 675C187.3 623.9 187.4 572.7 187.2 521.6C187.2 516.7 188.7 514.6 193.3 513.1C204.3 509.5 215.2 505.3 226.2 501.6C229.6 500.5 230.9 498.8 230.8 495.2C230.6 484.4 230.7 473.6 230.7 461.8C216.3 466.8 202.3 471.7 187.7 476.8C187.6 474.1 187.4 472.2 187.4 470.2C187.4 450.2 187.6 430.1 187.3 410.1C187.2 405.2 188.6 402.7 193.4 401C224.2 390.3 254.9 379.1 285.7 368.4C290.9 366.6 292.8 364.3 292.6 358.6C292.1 344.4 292.4 330.1 292.5 315.9C292.5 312.4 291.6 310.5 288.1 309.3C234.5 291.4 181 273.4 127.4 255.5C127 255.4 126.6 255.5 125.1 255.5C125.1 258.1 125.1 260.8 125.1 263.4C125.1 400.3 125.1 537.3 125.1 674.2C125.1 685.5 123.4 687.2 112.4 687.2C81.5 687.2 50.6 687.2 19.8 687.2C10.6 687.2 8.29999 685 8.29999 676C8.29999 565.9 8.30001 455.9 8.20001 345.8C8.20001 342 9.4 340.1 13 338.8C24.5 334.6 35.8 330.1 47.1 325.4C48.9 324.7 51.2 322.4 51.2 320.7C51.6 308.7 51.4 296.7 51.4 283.7C37.1 289.3 23.3 294.6 8.29999 300.4C8.29999 291.4 8.1 283.3 8.5 275.2C8.5 274.1 10.8 272.6 12.2 272C48.8 257.3 85.4 242.6 122.1 228.1C124.2 227.3 127.2 227.5 129.5 228.3C166.5 240.8 203.4 253.5 240.4 266.1C242.5 266.8 244.5 267.4 247.5 268.4C247.5 257.2 247.5 246.7 247.5 236.1C247.5 221.1 247.5 221.1 261.6 216.2C268.4 213.8 275.3 211.6 282 209C283.5 208.4 285.6 206.5 285.7 205.2C286 193.2 285.9 181.2 285.9 168.2C273.1 172.9 260.8 177.5 247.6 182.4C247.6 169.5 247.5 157.6 247.8 145.7C247.8 144.5 250.2 142.8 251.9 142.1C261.7 138.1 271.7 134.4 281.5 130.4C283.2 129.7 285.7 128.2 285.7 127C286 114.7 285.9 102.3 285.9 89.2999C273 94.2999 260.8 99 247.6 104.1C247.6 94 247.6 85.0999 247.9 75.7999C248 74.1999 251.3 72.2999 253.5 71.3999C285.4 58.4999 317.4 45.6999 349.4 32.7999C365 26.4999 395.4 13.8999 406.6 9.19995C409.4 7.99995 412.6 7.79995 415.6 8.79995C436.4 15.4999 521.1 43.4999 555.7 54.8999Z" stroke="#DCE2EC" stroke-width="15" stroke-miterlimit="10" stroke-linejoin="round"/>
</svg>
