<svg width="511" height="563" viewBox="0 0 511 563" fill="none" xmlns="http://www.w3.org/2000/svg">
<path d="M339.3 254.3C339.3 254.3 353.5 248.3 360.1 246.1C362.9 245.2 366.5 244.8 369.2 245.7C412.2 260 455 274.5 498 288.9C502 290.2 503.1 292.1 503.1 296.2C503 378.4 503 460.6 503 542.8C503 552.2 500.8 554.3 491.2 554.4C478.5 554.5 477.2 553.1 477.2 540.3C477.2 488 477.1 435.6 477.3 383.3C477.3 378.5 476.2 376.2 471.3 375C462 372.8 452.8 369.7 443.5 367.3C439.9 366.4 438.2 364.9 438.3 360.8C438.6 348.4 438.4 336 438.4 322.6C451.3 326.3 463.7 329.8 477.1 333.6C477.1 325.9 477.4 319 476.8 312.2C476.7 310.6 473.4 308.8 471.2 308.1C440 297.8 408.8 287.7 377.5 277.6C373.5 276.3 369.6 275.1 364.6 273.5C364.6 277.3 364.6 280.2 364.6 283.1C364.6 368.7 364.6 454.3 364.6 539.9C364.6 553.4 363.5 554.5 349.8 554.5C321.7 554.5 293.7 554.5 265.6 554.5C255.4 554.5 253.4 552.5 253.4 542.1C253.4 459.7 253.4 377.3 253.3 294.9C253.3 290.4 254.6 288.2 258.9 286.6C275.4 280.3 291.6 273.4 308 267C311.8 265.5 313.7 263.8 313.6 259.3C313.3 240.1 313.4 220.8 313.6 201.6C313.6 197.5 312.5 195.6 308.4 194.4C299.2 191.8 290.1 188.5 280.9 185.7C277.3 184.6 275.7 183.1 275.9 179C276.2 170 276 161 276 151.1C288.6 155.1 300.6 159 313.5 163.1C313.5 154.3 313.7 146.3 313.3 138.4C313.2 137 310.7 135.3 308.9 134.6C299.4 131.3 289.9 128.3 280.3 125.4C277.1 124.4 275.9 122.9 275.9 119.5C276.1 110.3 276 101.1 276 91.1003C288.6 95.1003 300.6 99.0003 313.5 103.1C313.5 94.1003 313.6 85.9002 313.4 77.8002C313.4 76.5002 311.8 74.6003 310.5 74.2003C271.7 61.4003 232.9 48.7003 192.9 35.7003C192.9 38.9003 192.9 41.4003 192.9 43.8003C192.9 209.6 192.9 375.4 192.9 541.2C192.9 553.1 191.5 554.5 179.4 554.5C163.7 554.5 163.2 554 163.2 538.4C163.2 491.7 163.1 445 163.3 398.3C163.3 393.1 162.1 390.7 156.9 389C130.6 380.6 104.4 371.7 77.2 362.6C77 365.6 76.8 483.9 76.8 540.7C76.8 553.5 75.7 554.6 63.2 554.6C48.4 554.6 33.5 554.6 18.7 554.6C10.9 554.6 8.20001 552 8.20001 544.1C8.20001 494.6 8.19998 445.1 8.09998 395.5C8.09998 391.6 9.40002 389.8 12.9 388.5C23.2 384.6 33.3 380.1 43.7 376.5C48.6 374.8 49.8 372.2 49.8 367.3C49.7 271.9 49.7 176.4 49.7 81.0003C49.7 74.2003 49.8 67.4003 49.7 60.6003C49.6 57.7003 50.3 56.0003 53.5 54.9003C98.7 39.7003 143.7 24.2003 188.9 9.00026C191.7 8.10026 195.3 8.30026 198.1 9.20026C243.6 24.2003 288.9 39.5003 334.4 54.5003C338.8 56.0003 339.6 58.2003 339.6 62.3003C339.2 123.3 339.3 254.3 339.3 254.3Z" stroke="#DCE2EC" stroke-width="15" stroke-miterlimit="10" stroke-linejoin="round"/>
</svg>
