<svg width="1094" height="704" viewBox="0 0 1094 704" fill="none" xmlns="http://www.w3.org/2000/svg">
<g filter="url(#filter0_d_422_459)">
<path d="M559.7 54.8999C563.7 56.1999 564.8 58.0999 564.8 62.0999C564.7 266.8 564.7 471.5 564.7 676.2C564.7 684.9 562.4 687.2 553.7 687.3C551.5 687.3 549.3 687.4 547.1 687.3C542.1 687.1 539.5 684.2 539 679.3C538.8 677.5 538.9 675.7 538.9 673.9C538.9 476.6 538.9 279.3 539 82.0999C539 75.9999 537.3 73.4999 531.5 71.6999C495.3 60.3999 417 35.4999 417 35.4999C417 35.4999 416.7 268.5 416.6 382C416.6 386.2 417.7 388.5 421.8 390.1C429.6 393.2 437.2 397 444.9 400.2C448 401.5 449.4 403.1 449.4 406.8C449.3 497 449.3 587.2 449.3 677.5C449.3 684.6 446.6 687.1 439.5 687.3C437.5 687.3 435.5 687.3 433.5 687.3C426.4 687.1 423.9 684.7 423.7 677.4C423.6 674.2 423.7 671 423.7 667.8C423.7 587.8 423.6 507.8 423.8 427.8C423.8 421.9 422.3 419 416.6 416.8C396.8 409.2 351 390.8 351 390.8C351 390.8 351 582.7 351 674.5C351 686 349.7 687.3 338.3 687.3C293.4 687.3 248.5 687.3 203.6 687.3C193.3 687.3 191.3 685.3 191.3 675C191.3 623.9 191.4 572.7 191.2 521.6C191.2 516.7 192.7 514.6 197.3 513.1C208.3 509.5 219.2 505.3 230.2 501.6C233.6 500.5 234.9 498.8 234.8 495.2C234.6 484.4 234.7 473.6 234.7 461.8C220.3 466.8 206.3 471.7 191.7 476.8C191.6 474.1 191.4 472.2 191.4 470.2C191.4 450.2 191.6 430.1 191.3 410.1C191.2 405.2 192.6 402.7 197.4 401C228.2 390.3 258.9 379.1 289.7 368.4C294.9 366.6 296.8 364.3 296.6 358.6C296.1 344.4 296.4 330.1 296.5 315.9C296.5 312.4 295.6 310.5 292.1 309.3C238.5 291.4 185 273.4 131.4 255.5C131 255.4 130.6 255.5 129.1 255.5C129.1 258.1 129.1 260.8 129.1 263.4C129.1 400.3 129.1 537.3 129.1 674.2C129.1 685.5 127.4 687.2 116.4 687.2C85.5 687.2 54.5999 687.2 23.7999 687.2C14.5999 687.2 12.2999 685 12.2999 676C12.2999 565.9 12.3 455.9 12.2 345.8C12.2 342 13.3999 340.1 16.9999 338.8C28.4999 334.6 39.7999 330.1 51.0999 325.4C52.8999 324.7 55.2 322.4 55.2 320.7C55.6 308.7 55.3999 296.7 55.3999 283.7C41.0999 289.3 27.2999 294.6 12.2999 300.4C12.2999 291.4 12.0999 283.3 12.4999 275.2C12.4999 274.1 14.8 272.6 16.2 272C52.7999 257.3 89.3999 242.6 126.1 228.1C128.2 227.3 131.2 227.5 133.5 228.3C170.5 240.8 207.4 253.5 244.4 266.1C246.5 266.8 248.5 267.4 251.5 268.4C251.5 257.2 251.5 246.7 251.5 236.1C251.5 221.1 251.5 221.1 265.6 216.2C272.4 213.8 279.3 211.6 286 209C287.5 208.4 289.6 206.5 289.7 205.2C290 193.2 289.9 181.2 289.9 168.2C277.1 172.9 264.8 177.5 251.6 182.4C251.6 169.5 251.5 157.6 251.8 145.7C251.8 144.5 254.2 142.8 255.9 142.1C265.7 138.1 275.7 134.4 285.5 130.4C287.2 129.7 289.7 128.2 289.7 127C290 114.7 289.9 102.3 289.9 89.2999C277 94.2999 264.8 98.9999 251.6 104.1C251.6 93.9999 251.6 85.0999 251.9 75.7999C252 74.1999 255.3 72.2999 257.5 71.3999C289.4 58.4999 321.4 45.6999 353.4 32.7999C369 26.4999 399.4 13.8999 410.6 9.19995C413.4 7.99995 416.6 7.79995 419.6 8.79995C440.4 15.4999 525.1 43.4999 559.7 54.8999Z" stroke="#F5F7FF" stroke-width="15" stroke-miterlimit="10" stroke-linejoin="round"/>
<path d="M918.3 387.3C918.3 387.3 932.5 381.3 939.1 379.1C941.9 378.2 945.5 377.8 948.2 378.7C991.2 393 1034 407.5 1077 421.9C1081 423.2 1082.1 425.1 1082.1 429.2C1082 511.4 1082 593.6 1082 675.8C1082 685.2 1079.8 687.3 1070.2 687.4C1057.5 687.5 1056.2 686.1 1056.2 673.3C1056.2 621 1056.1 568.6 1056.3 516.3C1056.3 511.5 1055.2 509.2 1050.3 508C1041 505.8 1031.8 502.7 1022.5 500.3C1018.9 499.4 1017.2 497.9 1017.3 493.8C1017.6 481.4 1017.4 469 1017.4 455.6C1030.3 459.3 1042.7 462.8 1056.1 466.6C1056.1 458.9 1056.4 452 1055.8 445.2C1055.7 443.6 1052.4 441.8 1050.2 441.1C1019 430.8 987.8 420.7 956.5 410.6C952.5 409.3 948.6 408.1 943.6 406.5C943.6 410.3 943.6 413.2 943.6 416.1C943.6 501.7 943.6 587.3 943.6 672.9C943.6 686.4 942.5 687.5 928.8 687.5C900.7 687.5 872.7 687.5 844.6 687.5C834.4 687.5 832.4 685.5 832.4 675.1C832.4 592.7 832.4 510.3 832.3 427.9C832.3 423.4 833.6 421.2 837.9 419.6C854.4 413.3 870.6 406.4 887 400C890.8 398.5 892.7 396.8 892.6 392.3C892.3 373.1 892.4 353.8 892.6 334.6C892.6 330.5 891.5 328.6 887.4 327.4C878.2 324.8 869.1 321.5 859.9 318.7C856.3 317.6 854.7 316.1 854.9 312C855.2 303 855 294 855 284.1C867.6 288.1 879.6 292 892.5 296.1C892.5 287.3 892.7 279.3 892.3 271.4C892.2 270 889.7 268.3 887.9 267.6C878.4 264.3 868.9 261.3 859.3 258.4C856.1 257.4 854.9 255.9 854.9 252.5C855.1 243.3 855 234.1 855 224.1C867.6 228.1 879.6 232 892.5 236.1C892.5 227.1 892.6 218.9 892.4 210.8C892.4 209.5 890.8 207.6 889.5 207.2C850.7 194.4 811.9 181.7 771.9 168.7C771.9 171.9 771.9 174.4 771.9 176.8C771.9 342.6 771.9 508.4 771.9 674.2C771.9 686.1 770.5 687.5 758.4 687.5C742.7 687.5 742.2 687 742.2 671.4C742.2 624.7 742.1 578 742.3 531.3C742.3 526.1 741.1 523.7 735.9 522C709.6 513.6 683.4 504.7 656.2 495.6C656 498.6 655.8 616.9 655.8 673.7C655.8 686.5 654.7 687.6 642.2 687.6C627.4 687.6 612.5 687.6 597.7 687.6C589.9 687.6 587.2 685 587.2 677.1C587.2 627.6 587.2 578.1 587.1 528.5C587.1 524.6 588.4 522.8 591.9 521.5C602.2 517.6 612.3 513.1 622.7 509.5C627.6 507.8 628.8 505.2 628.8 500.3C628.7 404.9 628.7 309.4 628.7 214C628.7 207.2 628.8 200.4 628.7 193.6C628.6 190.7 629.3 189 632.5 187.9C677.7 172.7 722.7 157.2 767.9 142C770.7 141.1 774.3 141.3 777.1 142.2C822.6 157.2 867.9 172.5 913.4 187.5C917.8 189 918.6 191.2 918.6 195.3C918.2 256.3 918.3 387.3 918.3 387.3Z" stroke="#F5F7FF" stroke-width="15" stroke-miterlimit="10" stroke-linejoin="round"/>
</g>
<defs>
<filter id="filter0_d_422_459" x="0.699951" y="0.659668" width="1092.9" height="702.441" filterUnits="userSpaceOnUse" color-interpolation-filters="sRGB">
<feFlood flood-opacity="0" result="BackgroundImageFix"/>
<feColorMatrix in="SourceAlpha" type="matrix" values="0 0 0 0 0 0 0 0 0 0 0 0 0 0 0 0 0 0 127 0" result="hardAlpha"/>
<feOffset dy="4"/>
<feGaussianBlur stdDeviation="2"/>
<feComposite in2="hardAlpha" operator="out"/>
<feColorMatrix type="matrix" values="0 0 0 0 0 0 0 0 0 0 0 0 0 0 0 0 0 0 0.25 0"/>
<feBlend mode="normal" in2="BackgroundImageFix" result="effect1_dropShadow_422_459"/>
<feBlend mode="normal" in="SourceGraphic" in2="effect1_dropShadow_422_459" result="shape"/>
</filter>
</defs>
</svg>
