<svg width="177" height="165" viewBox="0 0 177 165" fill="none" xmlns="http://www.w3.org/2000/svg">
<path d="M0.200012 90.7998C0.200012 71.1998 0.100012 51.4998 0.200012 31.8998C0.300012 11.9998 10.4 0.999805 30.3 0.799805C68.8 0.299805 107.3 0.299805 145.7 0.799805C166 0.999805 176 11.8998 176 32.2998C176.1 72.5998 176.1 112.9 176 153.2C176 161.8 173.6 164.1 164.8 164.1C152.4 164.1 139.9 164.1 127.5 164.1C118 164.1 115.7 161.8 115.7 152.5C115.7 120 115.7 87.5998 115.7 55.0998C115.7 44.1998 113.2 41.6998 102.2 41.5998C92.2 41.5998 82.2 41.4998 72.1 41.5998C63.1 41.6998 60.2 44.5998 60.2 53.5998C60.2 86.2998 60.2 118.9 60.2 151.6C60.2 162.1 58.2 164.1 47.5 164.1C35.3 164.1 23 164.1 10.8 164.1C2.49999 164.1 0 161.6 0 153.4C0.2 132.5 0.200012 111.7 0.200012 90.7998Z" fill="#F5F7FF"/>
</svg>
