<svg width="176" height="168" viewBox="0 0 176 168" fill="none" xmlns="http://www.w3.org/2000/svg">
<path d="M149.8 102.1C164.8 102 173.7 95.3998 175.1 80.4998C176.3 68.2998 176 55.5998 174.1 43.4998C170 17.5998 159.1 6.69982 133.5 3.59982C103.6 0.0998185 73.4 -0.200157 43.6 4.49984C15.9 8.89984 3.70005 20.6998 1.90005 48.2998C0.200052 73.9998 0.600053 99.9999 2.90005 125.7C5.30005 152 20.1 165.3 46.6 166.2C85 167.5 123.5 167 162 167.1C167.5 167.1 170.4 163.8 170.4 158.3C170.4 151.3 170.4 144.3 170.4 137.3C170.4 125 168.9 123.5 156.6 123.5C131.1 123.5 105.7 123.6 80.2 123.3C66.8 123.1 60.5 116.2 61.2 102.4C63.9 102.1 122.7 102.2 149.8 102.1ZM76.3001 43.3999C84.6001 42.8999 93.1001 43.1998 101.4 43.4998C104.3 43.5998 107.3 44.5999 110 45.8999C114.6 48.1999 116.7 52.0998 115.5 57.2998C114.3 62.2998 109.7 63.6999 105.1 63.6999C90.3 63.7999 76.4001 63.6999 61.3001 63.6999C59.3001 50.2999 63.8001 44.1999 76.3001 43.3999Z" fill="#F5F7FF"/>
</svg>
