<svg width="1540" height="269" viewBox="0 0 1540 269" fill="none" xmlns="http://www.w3.org/2000/svg">
<path d="M1730 -746H-190V334H1730V-746Z" fill="#EDF0F5"/>
<path d="M0.399994 193.7C0.399994 141.4 0.4 89.1 0.5 36.8C0.5 31.8 0.599997 26.7 1.7 21.9C4.7 8.90001 16.5 0.399963 32 0.0999634C48.6 -0.200037 65.3 -0.0999878 81.9 -0.0999878C115.8 -0.0999878 149.6 -0.200012 183.5 -1.22041e-05C200.6 0.0999878 212.2 8 215.6 21.7C216.7 26.1 216.9 30.8 216.9 35.4C217 91.7 217 148 216.9 204.3C216.9 213.7 214.6 216 205.1 216C189.5 216 173.8 216 158.2 216C149.7 216 147.1 213.5 147.1 204.8C147.1 160.3 147.1 70.1 147.1 69.5C147.2 53.6 144.9 51.3 129.2 51.3C114.6 51.3 99.9 51.3 85.3 51.3C73.4 51.3 70.1 54.3 70.1 66.1C70 111 70 155.9 70 200.8C70 203.2 70.1 205.6 69.9 208C69.6 213 66.6 215.8 61.8 215.9C44.2 216 26.5 216 8.89999 215.9C4.89999 215.9 2.7 214 1.3 211.2C0.300003 209.1 0.399994 195.9 0.399994 193.7Z" fill="#F5F7FF"/>
<path d="M246.5 268.6C244.3 268.6 242.1 268.1 240.2 266.9C236.9 264.9 235.7 261.7 235.7 256.8C235.9 199.5 235.8 142.2 235.8 84.8997C235.8 63.6997 245.6 52.9997 266.7 52.6997C294.5 52.1997 322.4 52.4997 350.3 52.5997C361.7 52.6997 372.6 55.1997 382.5 60.8997C397.5 69.5997 405.1 83.3997 408.2 99.6997C413 125.4 412.3 151.2 405.3 176.5C399.4 198 384.9 211 363.1 213.9C347.9 215.9 303.8 216 296.2 216C296.2 219.2 296.2 221.9 296.2 224.6C296.2 235.4 296.2 244 296.2 254.8C296.2 263.9 292 268.4 283 268.5C274.6 268.7 253.9 268.6 246.5 268.6ZM296.5 165.2C296.6 169.1 299.7 172.1 303.6 172.2C310.5 172.4 319.8 172.3 326.3 172.2C339.8 171.9 346.7 164.6 348 151.4C349.2 139.4 349 127 347.6 115C346.3 103 337.8 96.5997 325.6 96.1997C319.4 95.9997 313.2 96.0997 307 96.0997C298.5 96.0997 296.2 98.2997 296.2 106.7C296.1 122.3 296.3 151.7 296.5 165.2Z" fill="#F5F7FF"/>
<path d="M797.2 142.8C797.2 123.2 797.1 103.5 797.2 83.8998C797.3 63.9998 807.4 52.9998 827.3 52.7998C865.8 52.2998 904.3 52.2998 942.7 52.7998C963 52.9998 973 63.8998 973 84.2998C973.1 124.6 973.1 164.9 973 205.2C973 213.8 970.6 216.1 961.8 216.1C949.4 216.1 936.9 216.1 924.5 216.1C915 216.1 912.7 213.8 912.7 204.5C912.7 172 912.7 139.6 912.7 107.1C912.7 96.1998 910.2 93.6998 899.2 93.5998C889.2 93.5998 879.2 93.4998 869.1 93.5998C860.1 93.6998 857.2 96.5998 857.2 105.6C857.2 138.3 857.2 170.9 857.2 203.6C857.2 214.1 855.2 216.1 844.5 216.1C832.3 216.1 820 216.1 807.8 216.1C799.5 216.1 797 213.6 797 205.4C797.2 184.5 797.2 163.7 797.2 142.8Z" fill="#F5F7FF"/>
<path d="M677.8 215.3C646 212.7 628.3 195.2 624.5 163.5C622 142.9 622 122.3 625.6 101.8C630.5 73.0998 650.1 54.3998 679.1 53.1998C709.3 51.9998 739.6 52.4998 769.9 52.4998C775.9 52.4998 778.5 55.3998 778.6 61.5998C778.8 68.9998 778.7 76.3998 778.6 83.8998C778.5 90.8998 775.7 93.5998 768.6 93.5998C752.2 93.6998 735.7 93.5998 719.3 93.6998C697.5 93.7998 687.1 102.9 685.4 124.8C684.7 134.5 684.9 144.5 686.4 154.1C688.5 167.7 696.7 174.2 710.6 174.6C729.2 175 747.9 174.9 766.5 174.9C781.2 174.9 782 175.7 782 190.6C782 195.8 782 201 782 206.2C781.9 213.4 779.4 216.1 772.2 216.1C757.1 216.1 694.1 216.6 677.8 215.3Z" fill="#F5F7FF"/>
<path d="M1353.4 53.0002C1355.7 53.0002 1357 55.7002 1355.6 57.6002C1347.1 68.9002 1311.8 115.1 1310.7 116.6C1300.5 130.3 1300.6 134.3 1311.6 147.6C1325.1 164.1 1351.6 198.5 1361.1 210.9C1362.5 212.8 1361.2 215.5 1358.9 215.5C1347.4 215.7 1321.3 216 1308.7 216.2C1302.9 216.3 1298.6 214.2 1295.3 209.7C1280.5 189.3 1265.8 168.7 1250.7 148.5C1242.7 137.7 1242.3 127.4 1250 116.5C1263.5 97.1002 1276.7 77.5002 1290.5 58.3002C1292.6 55.4002 1297.4 52.9002 1301 52.8002C1314.2 52.2002 1341.6 52.7002 1353.4 53.0002Z" fill="#F5F7FF"/>
<path d="M1239.8 134C1239.8 157.4 1239.8 180.9 1239.8 204.3C1239.8 213.6 1237.4 216 1228.1 216C1215.3 216 1202.5 216 1189.6 216C1182.1 216 1179.3 213.3 1179.3 205.9C1179.2 158.2 1179.2 110.5 1179.3 62.9002C1179.3 54.9002 1181.9 52.5002 1189.8 52.4002C1202.8 52.3002 1215.8 52.3002 1228.9 52.4002C1237.4 52.4002 1239.8 55.0002 1239.8 63.7002C1239.8 87.1002 1239.8 110.6 1239.8 134Z" fill="#F5F7FF"/>
<path d="M1137.8 151.1C1152.8 151 1161.7 144.4 1163.1 129.5C1164.3 117.3 1164 104.6 1162.1 92.4998C1158 66.5998 1147.1 55.6998 1121.5 52.5998C1091.6 49.0998 1061.4 48.7998 1031.6 53.4998C1003.9 57.8998 991.7 69.6998 989.9 97.2998C988.2 123 988.6 149 990.9 174.7C993.3 201 1008.1 214.3 1034.6 215.2C1073 216.5 1111.5 216 1150 216.1C1155.5 216.1 1158.4 212.8 1158.4 207.3C1158.4 200.3 1158.4 193.3 1158.4 186.3C1158.4 174 1156.9 172.5 1144.6 172.5C1119.1 172.5 1093.7 172.6 1068.2 172.3C1054.8 172.1 1048.5 165.2 1049.2 151.4C1051.9 151.1 1110.7 151.2 1137.8 151.1ZM1064.3 92.3999C1072.6 91.8999 1081.1 92.1998 1089.4 92.4998C1092.3 92.5998 1095.3 93.5999 1098 94.8999C1102.6 97.1999 1104.7 101.1 1103.5 106.3C1102.3 111.3 1097.7 112.7 1093.1 112.7C1078.3 112.8 1064.4 112.7 1049.3 112.7C1047.3 99.2999 1051.8 93.1999 1064.3 92.3999Z" fill="#F5F7FF"/>
<path d="M608.6 103.5C602.6 73.6003 587.5 58.2004 557.8 53.4004C529.4 48.8004 500.7 48.8003 472.3 54.1003C448.3 58.6003 433 73.1004 426.9 96.7004C420.5 121.4 420.5 146.3 426.7 171C432.7 194.9 447.8 209.9 472.2 214.1C486.9 216.6 539.9 217.3 551.2 216.1C583.3 212.6 601.4 197.3 608 168C612.8 146.6 612.9 125 608.6 103.5ZM550.9 147.1C550.9 162.7 538.3 175.3 522.7 175.3H511.1C495.5 175.3 482.9 162.7 482.9 147.1V119.5C482.9 103.9 495.5 91.3003 511.1 91.3003H522.1C538 91.3003 550.9 104.2 550.9 120.1V147.1Z" fill="#F5F7FF"/>
<path d="M1539.5 63.1003C1539.4 54.9003 1536.9 52.4004 1527.8 52.4004C1512.2 52.4004 1496.7 52.4004 1481.1 52.4004C1476.6 52.4004 1406.6 52.4004 1376.1 52.4004C1367.7 52.4004 1365.3 54.9003 1365.3 63.1003C1365.3 70.9003 1365.2 78.7004 1365.3 86.5004C1365.4 92.0004 1368.1 95.1004 1373.8 95.2004C1381.2 95.3004 1413.1 95.2004 1422.3 95.2004C1422.3 98.2004 1422.3 100.3 1422.3 102.5C1422.3 136.4 1422.3 170.2 1422.3 204.1C1422.3 214 1424.4 216 1434.4 216C1446.2 216 1458 216 1469.9 216C1480.7 216 1482.6 214.1 1482.6 203.5C1482.6 170 1482.6 136.6 1482.6 103.1C1482.6 100.7 1482.6 98.4004 1482.6 95.2004C1495.8 95.2004 1523.3 95.2004 1530.3 95.2004C1536.4 95.1004 1539.4 92.0004 1539.4 86.5004C1539.6 78.8004 1539.6 70.9003 1539.5 63.1003Z" fill="#F5F7FF"/>
<path d="M70.1 205.201C69.8 210.201 66.8 213.001 62 213.101C44.4 213.201 26.7 213.201 9.10001 213.101C5.10001 213.101 2.9 211.201 1.5 208.401C0.7 206.801 0.5 200.101 0.5 195.301C0.5 199.601 0.5 209.401 1.5 211.401C2.9 214.101 5.10001 216.001 9.10001 216.101C26.7 216.201 44.4 216.201 62 216.101C66.9 216.101 69.8 213.301 70.1 208.201C70.2 206.101 70.2 204.001 70.2 201.901C70.2 203.001 70.2 204.101 70.1 205.201Z" fill="#DCE2EC"/>
<path d="M147.2 66.6003C147.3 50.7003 145 48.4004 129.3 48.4004C114.7 48.4004 100 48.4004 85.4001 48.4004C73.5001 48.4004 70.2001 51.4004 70.2001 63.2004C70.1001 108.1 70.1001 153 70.1001 197.9V198C70.1001 154.1 70.1001 110.1 70.2001 66.2004C70.2001 54.4004 73.5001 51.4004 85.4001 51.4004C100 51.4004 114.7 51.4004 129.3 51.4004C144.5 51.4004 147.1 53.5003 147.2 68.1003C147.2 67.2003 147.2 66.7003 147.2 66.6003Z" fill="#DCE2EC"/>
<path d="M217 201.4C217 210.8 214.7 213.1 205.2 213.1C189.6 213.1 173.9 213.1 158.3 213.1C149.8 213.1 147.2 210.6 147.2 201.9C147.2 192.6 147.2 181.2 147.2 169.1C147.2 182.3 147.2 194.8 147.2 204.9C147.2 213.5 149.8 216 158.3 216.1C173.9 216.1 189.6 216.1 205.2 216.1C214.7 216.1 217 213.8 217 204.4C217 176.1 217 147.8 217 119.5C217 146.8 217 174.1 217 201.4Z" fill="#DCE2EC"/>
<path d="M347.6 111.9C346.3 99.8996 337.8 93.4996 325.6 93.0996C319.4 92.8996 313.2 92.9996 307 92.9996C298.5 92.9996 296.2 95.1996 296.2 103.6C296.2 106.3 296.2 109.4 296.2 112.7C296.2 110.5 296.2 108.4 296.2 106.6C296.2 98.1996 298.6 95.9996 307 95.9996C313.2 95.9996 319.4 95.8996 325.6 96.0996C337.8 96.5996 346.3 102.9 347.6 114.9C348.3 121.4 348.7 128.1 348.8 134.7C348.9 127.1 348.5 119.5 347.6 111.9Z" fill="#DCE2EC"/>
<path d="M296.1 251.899C296.1 260.999 291.9 265.499 282.9 265.599C274.5 265.699 253.8 265.599 246.5 265.599C244.3 265.599 242.1 265.099 240.2 263.899C236.9 261.899 235.7 258.799 235.7 253.999C235.7 254.899 235.7 255.899 235.7 256.799C235.7 261.699 236.9 264.899 240.2 266.899C242.1 268.099 244.3 268.599 246.5 268.599C253.9 268.599 274.5 268.699 282.9 268.599C291.9 268.499 296 264.099 296.1 254.899C296.1 250.099 296.1 245.699 296.1 241.399C296.2 244.799 296.2 248.199 296.1 251.899Z" fill="#DCE2EC"/>
<path d="M405.3 173.499C399.4 194.999 384.9 207.999 363.1 210.899C347.9 212.899 303.8 212.999 296.2 212.999C296.2 214.099 296.2 214.999 296.2 215.999C303.8 215.999 347.9 215.899 363.1 213.899C385 210.999 399.5 197.999 405.3 176.499C409.4 161.499 411.3 146.399 411.2 131.199C411.1 145.399 409.1 159.499 405.3 173.499Z" fill="#DCE2EC"/>
<path d="M973.2 202.099C973.2 210.699 970.8 213 962 213C949.6 213 937.1 213 924.7 213C915.2 213 912.9 210.7 912.9 201.4C912.9 168.9 912.9 136.5 912.9 104C912.9 93.0995 910.4 90.5995 899.4 90.4995C889.4 90.4995 879.4 90.3995 869.3 90.4995C860.3 90.5995 857.4 93.4995 857.4 102.5C857.4 119.7 857.4 136.899 857.4 154.099C857.4 137.899 857.4 121.7 857.4 105.5C857.4 96.4995 860.3 93.5995 869.3 93.4995C879.3 93.3995 889.3 93.3995 899.4 93.4995C910.4 93.5995 912.9 95.9995 912.9 107C912.9 139.5 912.9 171.9 912.9 204.4C912.9 213.7 915.2 216 924.7 216C937.1 216 949.6 216 962 216C970.8 216 973.2 213.599 973.2 205.099C973.2 184.499 973.2 164 973.2 143.4C973.2 163 973.2 182.599 973.2 202.099Z" fill="#DCE2EC"/>
<path d="M844.8 213.1C832.6 213.1 820.3 213.1 808.1 213.1C799.8 213.1 797.3 210.6 797.3 202.4C797.3 192.4 797.3 182.3 797.3 172.3C797.3 183.3 797.3 194.4 797.3 205.4C797.3 213.6 799.8 216.1 808.1 216.1C820.3 216.2 832.6 216.1 844.8 216.1C855.6 216.1 857.5 214.2 857.5 203.6C857.5 202.6 857.5 201.6 857.5 200.6C857.5 211.2 855.5 213.1 844.8 213.1Z" fill="#DCE2EC"/>
<path d="M768.5 90.5002C752.1 90.6002 735.6 90.5002 719.2 90.6002C697.4 90.7002 687 99.8002 685.3 121.7C685 125.6 684.9 129.6 684.9 133.6C684.9 130.6 685.1 127.6 685.3 124.7C687 102.8 697.4 93.7002 719.2 93.6002C735.6 93.5002 752.1 93.6002 768.5 93.5002C775.7 93.5002 778.4 90.8002 778.5 83.8002C778.6 79.6002 778.6 75.4002 778.6 71.2002C778.6 74.4002 778.6 77.6002 778.5 80.8002C778.4 87.9002 775.7 90.5002 768.5 90.5002Z" fill="#DCE2EC"/>
<path d="M781.9 203.1C781.8 210.3 779.3 213 772.1 213C757.1 213.1 694 213.6 677.7 212.3C645.9 209.7 628.2 192.2 624.4 160.5C623.3 151.7 622.7 143 622.7 134.2C622.6 144 623.2 153.8 624.4 163.5C628.2 195.2 645.9 212.6 677.7 215.3C694 216.6 757 216.1 772.1 216C779.2 216 781.8 213.3 781.9 206.1C781.9 202.8 781.9 199.5 781.9 196.2C781.9 198.6 781.9 200.9 781.9 203.1Z" fill="#DCE2EC"/>
<path d="M1310.7 113.5C1305.2 121 1302.7 125.6 1303.3 130.3C1303.8 126.5 1306.3 122.4 1310.7 116.5C1311.8 115.1 1347.1 68.7998 1355.6 57.4998C1356.4 56.4998 1356.3 55.1998 1355.7 54.2998C1355.7 54.3998 1355.6 54.4998 1355.6 54.4998C1347.1 65.7998 1311.8 112.1 1310.7 113.5Z" fill="#DCE2EC"/>
<path d="M1358.9 212.499C1347.4 212.699 1321.3 212.999 1308.7 213.199C1302.9 213.299 1298.6 211.199 1295.3 206.699C1280.5 186.299 1265.8 165.699 1250.7 145.499C1246.9 140.399 1244.8 135.399 1244.5 130.399C1244 136.399 1246.1 142.399 1250.7 148.499C1265.8 168.699 1280.4 189.299 1295.3 209.699C1298.6 214.299 1302.9 216.299 1308.7 216.199C1321.3 215.999 1347.3 215.699 1358.9 215.499C1361.2 215.499 1362.5 212.999 1361.3 211.099C1360.8 211.899 1359.9 212.499 1358.9 212.499Z" fill="#DCE2EC"/>
<path d="M1228.1 213.101C1215.3 213.101 1202.5 213.101 1189.6 213.101C1182.1 213.101 1179.3 210.401 1179.3 203.001C1179.3 179.601 1179.3 156.201 1179.2 132.801C1179.2 157.201 1179.2 181.601 1179.3 206.001C1179.3 213.401 1182.1 216.101 1189.6 216.101C1202.4 216.201 1215.2 216.101 1228.1 216.101C1237.4 216.101 1239.8 213.601 1239.8 204.401C1239.8 203.401 1239.8 202.401 1239.8 201.401C1239.8 210.601 1237.4 213.101 1228.1 213.101Z" fill="#DCE2EC"/>
<path d="M1098 92.0004C1095.4 90.7004 1092.3 89.7004 1089.4 89.6004C1081 89.2004 1072.6 88.9004 1064.3 89.5004C1053.2 90.2004 1048.4 95.1004 1048.9 105.8C1049.4 97.2004 1054.3 93.2004 1064.3 92.5004C1072.6 92.0004 1081.1 92.3004 1089.4 92.6004C1092.3 92.7004 1095.3 93.7004 1098 95.0004C1101.2 96.6004 1103.2 99.1004 1103.7 102.2C1104.3 97.6004 1102.2 94.1004 1098 92.0004Z" fill="#DCE2EC"/>
<path d="M1163 126.401C1161.6 141.301 1152.7 148.001 1137.7 148.001C1110.6 148.101 1051.8 148.101 1049 148.101C1048.9 149.201 1049 150.301 1049 151.301C1049 151.201 1049 151.101 1049 151.101C1051.8 151.101 1110.6 151.201 1137.7 151.001C1152.7 150.901 1161.6 144.301 1163 129.401C1163.5 124.201 1163.7 118.901 1163.7 113.601C1163.7 117.901 1163.4 122.201 1163 126.401Z" fill="#DCE2EC"/>
<path d="M1158.3 204.2C1158.3 209.8 1155.4 213.1 1149.9 213C1111.4 212.9 1072.9 213.4 1034.5 212.1C1008 211.2 993.1 197.9 990.8 171.6C989.4 156.4 988.8 141 988.8 125.7C988.7 142 989.4 158.4 990.8 174.6C993.2 200.9 1008 214.2 1034.5 215.1C1072.9 216.4 1111.4 215.9 1149.9 216C1155.4 216 1158.3 212.7 1158.3 207.2C1158.3 203 1158.3 198.9 1158.3 194.7C1158.3 197.8 1158.3 201 1158.3 204.2Z" fill="#DCE2EC"/>
<path d="M522.1 88.4004H511.1C495.5 88.4004 482.9 101 482.9 116.6V119.6C482.9 104 495.5 91.4004 511.1 91.4004H522.1C538 91.4004 550.9 104.3 550.9 120.2V117.2C550.9 101.3 538 88.4004 522.1 88.4004Z" fill="#DCE2EC"/>
<path d="M608 165C601.4 194.3 583.2 209.7 551.2 213.1C539.9 214.3 486.9 213.6 472.2 211.1C447.8 206.9 432.7 191.9 426.7 168C423.7 156.2 422.2 144.4 422.1 132.5C422 145.3 423.5 158.2 426.7 171C432.7 194.9 447.8 209.9 472.2 214.1C486.9 216.6 539.9 217.3 551.2 216.1C583.3 212.6 601.4 197.3 608 168C610.6 156.5 611.8 145 611.7 133.4C611.6 143.9 610.4 154.5 608 165Z" fill="#DCE2EC"/>
<path d="M1422.3 92.3C1413.2 92.3 1381.2 92.3 1373.8 92.3C1368.2 92.2 1365.4 89.1 1365.3 83.6C1365.3 80.1 1365.3 76.5 1365.2 73C1365.2 77.5 1365.2 82.1 1365.3 86.6C1365.4 92.1 1368.1 95.2 1373.8 95.3C1381.2 95.4 1413.1 95.3 1422.3 95.3C1422.3 94.4 1422.3 93.4 1422.3 92.3Z" fill="#DCE2EC"/>
<path d="M1539.5 83.6C1539.4 89.1 1536.4 92.2 1530.4 92.3C1523.4 92.4 1495.9 92.4 1482.7 92.3C1482.7 93.4 1482.7 94.4 1482.7 95.3C1495.9 95.3 1523.4 95.3 1530.4 95.3C1536.5 95.2 1539.5 92.1 1539.5 86.6C1539.6 82.1 1539.6 77.5 1539.6 73C1539.6 76.5 1539.5 80 1539.5 83.6Z" fill="#DCE2EC"/>
<path d="M1469.9 213.1C1458.1 213.1 1446.3 213.1 1434.4 213.1C1424.4 213.1 1422.3 211.1 1422.3 201.2C1422.3 167.3 1422.3 133.5 1422.3 99.5998C1422.3 99.2998 1422.3 99.0998 1422.3 98.7998C1422.3 100.2 1422.3 101.4 1422.3 102.6C1422.3 136.5 1422.3 170.3 1422.3 204.2C1422.3 214.1 1424.4 216.1 1434.4 216.1C1446.2 216.1 1458 216.1 1469.9 216.1C1480.7 216.1 1482.6 214.2 1482.6 203.6C1482.6 170.1 1482.6 136.7 1482.6 103.2C1482.6 102.2 1482.6 101.2 1482.6 100.2C1482.6 133.7 1482.6 167.1 1482.6 200.6C1482.7 211.2 1480.7 213.1 1469.9 213.1Z" fill="#DCE2EC"/>
<path d="M0.399902 196.7C0.399902 144.4 0.399908 92.1 0.499908 39.8C0.499908 34.8 0.599905 29.7 1.69991 24.9C4.69991 11.9 16.4999 3.39996 31.9999 3.09996C48.5999 2.79996 65.2999 2.90001 81.8999 2.90001C115.8 2.90001 149.6 2.79999 183.5 2.99999C200.6 3.09999 212.2 11 215.6 24.7C216.7 29.1 216.9 33.8 216.9 38.4C216.9 66.4 217 94.4 217 122.4C217 93.4 217 64.4 216.9 35.4C216.9 30.8 216.7 26.1 215.6 21.7C212.2 8 200.5 0.0999878 183.5 -1.22041e-05C149.6 -0.200012 115.8 -0.0999878 81.8999 -0.0999878C65.2999 -0.0999878 48.5999 -0.200037 31.9999 0.0999634C16.4999 0.399963 4.69991 8.90001 1.69991 21.9C0.599905 26.7 0.499908 31.8 0.499908 36.8C0.399908 89.1 0.499902 141.4 0.399902 193.7C0.399902 194.4 0.399902 196.2 0.399902 198.4C0.399902 197.6 0.399902 197 0.399902 196.7Z" fill="#FEFFFF"/>
<path d="M235.8 87.8997C235.8 66.6997 245.6 55.9997 266.7 55.6997C294.5 55.1997 322.4 55.4997 350.3 55.5997C361.7 55.6997 372.6 58.1997 382.5 63.8997C397.5 72.5997 405.1 86.3997 408.2 102.7C410.2 113.2 411.2 123.7 411.2 134.2C411.3 122.7 410.3 111.2 408.2 99.6997C405.2 83.3997 397.5 69.4997 382.5 60.8997C372.6 55.1997 361.6 52.5997 350.3 52.5997C322.4 52.4997 294.6 52.1997 266.7 52.6997C245.6 52.9997 235.8 63.6997 235.8 84.8997C235.8 99.7997 235.8 114.7 235.8 129.6C235.8 115.7 235.8 101.8 235.8 87.8997Z" fill="#FEFFFF"/>
<path d="M296.5 168.199C296.6 172.099 299.7 175.099 303.6 175.199C310.5 175.399 319.8 175.299 326.3 175.199C339.8 174.899 346.7 167.599 348 154.399C348.6 148.899 348.8 143.299 348.8 137.799C348.7 142.399 348.5 146.899 348 151.399C346.7 164.699 339.8 171.999 326.3 172.199C319.7 172.299 310.4 172.399 303.6 172.199C299.7 172.099 296.5 169.099 296.5 165.199C296.3 153.999 296.2 131.899 296.2 115.699C296.2 132.099 296.3 156.299 296.5 168.199Z" fill="#FEFFFF"/>
<path d="M235.8 171.399C235.8 199.899 235.8 228.299 235.7 256.799C235.7 256.899 235.7 256.899 235.7 256.999C235.8 228.499 235.8 199.899 235.8 171.399Z" fill="#FEFFFF"/>
<path d="M797.3 86.8998C797.4 66.9998 807.5 55.9998 827.4 55.7998C865.9 55.2998 904.4 55.2998 942.8 55.7998C963.1 55.9998 973.1 66.8998 973.1 87.2998C973.2 107 973.2 126.8 973.2 146.5C973.2 125.8 973.2 105 973.1 84.2998C973 63.8998 963.1 52.9998 942.8 52.7998C904.3 52.2998 865.8 52.2998 827.4 52.7998C807.5 52.9998 797.4 63.9998 797.3 83.8998C797.2 93.8998 797.2 103.9 797.2 113.9C797.2 104.9 797.2 95.8998 797.3 86.8998Z" fill="#FEFFFF"/>
<path d="M710.5 174.5C696.7 174.2 688.5 167.6 686.3 154C685.4 148.3 684.9 142.5 684.9 136.6C684.8 143.4 685.3 150.3 686.3 157C688.4 170.6 696.6 177.1 710.5 177.5C729.1 177.9 747.8 177.8 766.4 177.8C781.1 177.8 781.9 178.6 781.9 193.5C781.9 195.4 781.9 197.3 781.9 199.3C781.9 196.4 781.9 193.5 781.9 190.5C781.9 175.5 781.1 174.8 766.4 174.8C747.8 174.8 729.1 174.9 710.5 174.5Z" fill="#FEFFFF"/>
<path d="M625.5 104.8C630.4 76.0999 650 57.3999 679 56.1999C709.2 54.9999 739.5 55.4999 769.8 55.4999C775.8 55.4999 778.4 58.3999 778.5 64.5999C778.6 67.7999 778.6 71.0999 778.6 74.2999C778.6 70.0999 778.6 65.7999 778.5 61.5999C778.4 55.3999 775.8 52.4999 769.8 52.4999C739.5 52.5999 709.2 51.9999 679 53.1999C649.9 54.3999 630.4 73.0999 625.5 101.8C623.5 113.6 622.6 125.4 622.7 137.2C622.8 126.4 623.7 115.6 625.5 104.8Z" fill="#FEFFFF"/>
<path d="M1303.4 133.399C1302.7 138.399 1305.4 142.999 1311.6 150.599C1325.1 167.099 1351.6 201.499 1361.1 213.899C1361.2 213.999 1361.2 214.099 1361.3 214.099C1361.9 213.099 1361.9 211.899 1361.1 210.899C1351.6 198.499 1325.1 164.099 1311.6 147.599C1306.6 141.499 1303.9 137.399 1303.4 133.399Z" fill="#FEFFFF"/>
<path d="M1250 119.4C1263.5 99.9996 1276.7 80.3996 1290.5 61.1996C1292.6 58.2996 1297.4 55.7996 1301 55.6996C1314.1 55.2996 1341.6 55.7996 1353.4 55.9996C1354.5 55.9996 1355.3 56.5996 1355.8 57.3996C1356.9 55.4996 1355.7 53.0996 1353.4 52.9996C1341.6 52.7996 1314.2 52.2996 1301 52.6996C1297.4 52.7996 1292.6 55.2996 1290.5 58.1996C1276.7 77.3996 1263.5 96.9996 1250 116.4C1246 122.2 1244.2 127.8 1244.5 133.3C1244.9 128.7 1246.7 124.1 1250 119.4Z" fill="#FEFFFF"/>
<path d="M1179.3 65.9002C1179.3 57.9002 1181.9 55.5002 1189.8 55.4002C1202.8 55.3002 1215.8 55.3002 1228.9 55.4002C1237.4 55.4002 1239.8 58.0002 1239.8 66.7002C1239.8 78.3002 1239.8 89.8002 1239.8 101.4C1239.8 88.8002 1239.8 76.3002 1239.8 63.7002C1239.8 55.0002 1237.4 52.5002 1228.9 52.4002C1215.9 52.3002 1202.9 52.3002 1189.8 52.4002C1181.9 52.4002 1179.3 54.9002 1179.3 62.9002C1179.3 87.2002 1179.3 111.5 1179.3 135.8C1179.3 112.5 1179.3 89.2002 1179.3 65.9002Z" fill="#FEFFFF"/>
<path d="M1049.3 115.8C1064.4 115.8 1078.4 115.9 1093.1 115.8C1097.7 115.8 1102.3 114.4 1103.5 109.4C1103.9 107.9 1103.9 106.5 1103.7 105.2C1103.6 105.6 1103.6 106 1103.5 106.4C1102.3 111.4 1097.7 112.8 1093.1 112.8C1078.3 112.9 1064.4 112.8 1049.3 112.8C1049.1 111.3 1049 110 1048.9 108.7C1048.8 110.8 1048.9 113.1 1049.3 115.8Z" fill="#FEFFFF"/>
<path d="M989.7 100.2C991.5 72.7002 1003.7 60.8002 1031.4 56.4002C1061.2 51.7002 1091.4 52.0002 1121.3 55.5002C1147 58.5002 1157.8 69.4002 1161.9 95.4002C1163 102.3 1163.5 109.5 1163.6 116.6C1163.7 108.5 1163.2 100.3 1161.9 92.4002C1157.8 66.5002 1146.9 55.6002 1121.3 52.5002C1091.4 49.0002 1061.2 48.7002 1031.4 53.4002C1003.7 57.8002 991.5 69.6002 989.7 97.2002C989 107.7 988.7 118.2 988.7 128.7C988.8 119.2 989.1 109.7 989.7 100.2Z" fill="#FEFFFF"/>
<path d="M1144.5 172.3C1119 172.3 1093.6 172.4 1068.1 172.1C1055.8 172 1049.5 166 1049.1 154.4C1048.5 168 1054.8 174.9 1068.1 175.1C1093.5 175.4 1119 175.3 1144.5 175.3C1156.8 175.3 1158.3 176.8 1158.3 189.1C1158.3 191.9 1158.3 194.8 1158.3 197.6C1158.3 193.8 1158.3 189.9 1158.3 186.1C1158.2 173.8 1156.8 172.3 1144.5 172.3Z" fill="#FEFFFF"/>
<path d="M426.9 99.7004C433 76.1004 448.3 61.6003 472.3 57.1003C500.7 51.8003 529.4 51.8004 557.8 56.4004C587.5 61.2004 602.6 76.6003 608.6 106.5C610.6 116.4 611.6 126.4 611.7 136.4C611.8 125.4 610.8 114.5 608.6 103.5C602.6 73.6003 587.5 58.2004 557.8 53.4004C529.4 48.8004 500.7 48.8003 472.3 54.1003C448.3 58.6003 433 73.1004 426.9 96.7004C423.6 109.6 422 122.6 422.1 135.6C422.2 123.6 423.8 111.6 426.9 99.7004Z" fill="#FEFFFF"/>
<path d="M511.1 178.301H522.7C538.3 178.301 550.9 165.701 550.9 150.101V147.101C550.9 162.701 538.3 175.301 522.7 175.301H511.1C495.5 175.301 482.9 162.701 482.9 147.101V150.101C482.9 165.701 495.6 178.301 511.1 178.301Z" fill="#FEFFFF"/>
<path d="M1365.4 66.1003C1365.5 57.9003 1367.9 55.4004 1376.2 55.4004C1406.7 55.4004 1476.7 55.4004 1481.2 55.4004C1496.8 55.4004 1512.3 55.4004 1527.9 55.4004C1536.9 55.4004 1539.5 57.9003 1539.6 66.1003C1539.6 69.4003 1539.6 72.7004 1539.6 76.0004C1539.6 71.7004 1539.6 67.4003 1539.6 63.1003C1539.5 54.9003 1537 52.4004 1527.9 52.4004C1512.3 52.4004 1496.8 52.4004 1481.2 52.4004C1476.7 52.4004 1406.7 52.4004 1376.2 52.4004C1367.8 52.4004 1365.4 54.9003 1365.4 63.1003C1365.4 67.4003 1365.4 71.7004 1365.4 76.0004C1365.3 72.7004 1365.3 69.4003 1365.4 66.1003Z" fill="#FEFFFF"/>
</svg>
