<svg width="1599" height="932" viewBox="0 0 1599 932" fill="none" xmlns="http://www.w3.org/2000/svg">
<path d="M1599 797.338C1599 820.642 1599 844.045 1599 867.348C1599 876.61 1598.01 879 1594.17 879C1588.89 879 1583.61 879 1578.28 879C1575.19 879 1574.03 876.311 1574.03 868.942C1573.99 821.438 1573.99 773.935 1574.03 726.531C1574.03 718.564 1575.1 716.174 1578.36 716.075C1583.73 715.975 1589.09 715.975 1594.5 716.075C1598.01 716.075 1599 718.664 1599 727.328C1599 750.632 1599 774.035 1599 797.338Z" fill="white"/>
<path d="M25 770.786C25 801.666 25 832.679 25 863.56C25 875.833 24.0095 879 20.1712 879C14.8885 879 9.60583 879 4.28185 879C1.18652 879 0.0309534 875.437 0.0309534 865.671C-0.0103178 802.722 -0.0103178 739.773 0.0309534 676.956C0.0309534 666.398 1.104 663.231 4.36442 663.099C9.72967 662.967 15.0949 662.967 20.5014 663.099C24.0095 663.099 25 666.53 25 678.011C25 708.892 25 739.905 25 770.786Z" fill="white"/>
<path d="M30.0028 856.825C30.0028 804.525 30.0028 752.225 30.1028 699.925C30.1028 694.925 30.2028 689.825 31.3028 685.025C34.3028 672.025 46.1028 663.525 61.6028 663.225C78.2028 662.925 94.9028 663.025 111.503 663.025C145.403 663.025 179.203 662.925 213.103 663.125C230.203 663.225 241.803 671.125 245.203 684.825C246.303 689.225 246.503 693.925 246.503 698.525C246.603 754.825 246.603 811.125 246.503 867.425C246.503 876.825 244.203 879.125 234.703 879.125C219.103 879.125 203.403 879.125 187.803 879.125C179.303 879.125 176.703 876.625 176.703 867.925C176.703 823.425 176.703 733.225 176.703 732.625C176.803 716.725 174.503 714.425 158.803 714.425C144.203 714.425 129.503 714.425 114.903 714.425C103.003 714.425 99.7028 717.425 99.7028 729.225C99.6028 774.125 99.6028 819.025 99.6028 863.925C99.6028 866.325 99.7028 868.725 99.5028 871.125C99.2028 876.125 96.2028 878.925 91.4028 879.025C73.8028 879.125 56.1028 879.125 38.5028 879.025C34.5028 879.025 32.3028 877.125 30.9028 874.325C29.9028 872.225 30.0028 859.025 30.0028 856.825Z" fill="white"/>
<path d="M276.103 931.725C273.903 931.725 271.703 931.225 269.803 930.025C266.503 928.025 265.303 924.825 265.303 919.925C265.503 862.625 265.403 805.325 265.403 748.025C265.403 726.825 275.203 716.125 296.303 715.825C324.103 715.325 352.003 715.625 379.903 715.725C391.303 715.825 402.203 718.325 412.103 724.025C427.103 732.725 434.703 746.525 437.803 762.825C442.603 788.525 441.903 814.325 434.903 839.625C429.003 861.125 414.503 874.125 392.703 877.025C377.503 879.025 333.403 879.125 325.803 879.125C325.803 882.325 325.803 885.025 325.803 887.725C325.803 898.525 325.803 907.125 325.803 917.925C325.803 927.025 321.603 931.525 312.603 931.625C304.203 931.825 283.503 931.825 276.103 931.725ZM326.103 828.425C326.203 832.325 329.303 835.325 333.203 835.425C340.103 835.625 349.403 835.525 355.903 835.425C369.403 835.125 376.303 827.825 377.603 814.625C378.803 802.625 378.603 790.225 377.203 778.225C375.903 766.225 367.403 759.825 355.203 759.425C349.003 759.225 342.803 759.325 336.603 759.325C328.103 759.325 325.803 761.525 325.803 769.925C325.703 785.425 325.903 814.825 326.103 828.425Z" fill="white"/>
<path d="M638.203 766.625C632.203 736.725 617.103 721.325 587.403 716.525C559.003 711.925 530.303 711.925 501.903 717.225C477.903 721.725 462.603 736.225 456.503 759.825C450.103 784.525 450.103 809.425 456.303 834.125C462.303 858.025 477.403 873.025 501.803 877.225C516.503 879.725 569.503 880.425 580.803 879.225C612.903 875.725 631.003 860.425 637.603 831.125C642.403 809.725 642.503 788.125 638.203 766.625ZM580.503 810.325C580.503 825.925 567.903 838.525 552.303 838.525H540.703C525.103 838.525 512.503 825.925 512.503 810.325V782.725C512.503 767.125 525.103 754.525 540.703 754.525H551.703C567.603 754.525 580.503 767.425 580.503 783.325V810.325V810.325Z" fill="white"/>
<path d="M707.403 878.425C675.603 875.825 657.903 858.325 654.103 826.625C651.603 806.025 651.603 785.425 655.203 764.925C660.103 736.225 679.703 717.525 708.703 716.325C738.903 715.125 769.203 715.625 799.503 715.625C805.503 715.625 808.103 718.525 808.203 724.725C808.403 732.125 808.303 739.525 808.203 747.025C808.103 754.025 805.303 756.725 798.203 756.725C781.803 756.825 765.303 756.725 748.903 756.825C727.103 756.925 716.703 766.025 715.003 787.925C714.303 797.625 714.503 807.625 716.003 817.225C718.103 830.825 726.303 837.325 740.203 837.725C758.803 838.125 777.503 838.025 796.103 838.025C810.803 838.025 811.603 838.825 811.603 853.725C811.603 858.925 811.603 864.125 811.603 869.325C811.503 876.525 809.003 879.225 801.803 879.225C786.703 879.325 723.703 879.825 707.403 878.425Z" fill="white"/>
<path d="M826.803 805.925C826.803 786.325 826.703 766.625 826.803 747.025C826.903 727.125 837.003 716.125 856.903 715.925C895.403 715.425 933.903 715.425 972.303 715.925C992.603 716.125 1002.6 727.025 1002.6 747.425C1002.7 787.725 1002.7 828.025 1002.6 868.325C1002.6 876.925 1000.2 879.225 991.403 879.225C979.003 879.225 966.503 879.225 954.103 879.225C944.603 879.225 942.303 876.925 942.303 867.625C942.303 835.125 942.303 802.725 942.303 770.225C942.303 759.325 939.803 756.825 928.803 756.725C918.803 756.725 908.803 756.625 898.703 756.725C889.703 756.825 886.803 759.725 886.803 768.725C886.803 801.425 886.803 834.025 886.803 866.725C886.803 877.225 884.803 879.225 874.103 879.225C861.903 879.225 849.603 879.225 837.403 879.225C829.103 879.225 826.603 876.725 826.603 868.525C826.803 847.625 826.803 826.825 826.803 805.925Z" fill="white"/>
<path d="M1167.4 814.225C1182.4 814.125 1191.3 807.525 1192.7 792.625C1193.9 780.425 1193.6 767.725 1191.7 755.625C1187.6 729.725 1176.7 718.825 1151.1 715.725C1121.2 712.225 1091 711.925 1061.2 716.625C1033.5 721.025 1021.3 732.825 1019.5 760.425C1017.8 786.125 1018.2 812.125 1020.5 837.825C1022.9 864.125 1037.7 877.425 1064.2 878.325C1102.6 879.625 1141.1 879.125 1179.6 879.225C1185.1 879.225 1188 875.925 1188 870.425C1188 863.425 1188 856.425 1188 849.425C1188 837.125 1186.5 835.625 1174.2 835.625C1148.7 835.625 1123.3 835.725 1097.8 835.425C1084.4 835.225 1078.1 828.325 1078.8 814.525C1081.5 814.325 1140.3 814.325 1167.4 814.225ZM1093.9 755.525C1102.2 755.025 1110.7 755.325 1119 755.625C1121.9 755.725 1124.9 756.725 1127.6 758.025C1132.2 760.325 1134.3 764.225 1133.1 769.425C1131.9 774.425 1127.3 775.825 1122.7 775.825C1107.9 775.925 1094 775.825 1078.9 775.825C1076.9 762.425 1081.4 756.325 1093.9 755.525Z" fill="white"/>
<path d="M1269.4 726.825C1269.4 718.125 1267 715.625 1258.5 715.525C1245.5 715.425 1232.5 715.425 1219.4 715.525C1211.5 715.525 1208.9 718.025 1208.9 726.025C1208.8 773.725 1208.8 821.425 1208.9 869.025C1208.9 876.425 1211.7 879.125 1219.2 879.125C1232 879.225 1244.8 879.125 1257.7 879.125C1267 879.125 1269.4 876.625 1269.4 867.425C1269.4 844.025 1269.4 820.525 1269.4 797.125C1269.4 773.725 1269.4 750.325 1269.4 726.825Z" fill="white"/>
<path d="M1390.7 874.026C1381.2 861.626 1354.7 827.226 1341.2 810.726C1330.3 797.326 1330.2 793.426 1340.3 779.726C1341.4 778.326 1376.7 732.026 1385.2 720.726C1386.6 718.826 1385.3 716.226 1383 716.126C1371.2 715.926 1343.8 715.426 1330.6 715.826C1327 715.926 1322.2 718.426 1320.1 721.326C1306.3 740.526 1293.1 760.126 1279.6 779.526C1272 790.526 1272.3 800.726 1280.3 811.526C1295.4 831.726 1310 852.326 1324.9 872.726C1328.2 877.326 1332.5 879.326 1338.3 879.226C1350.9 879.026 1376.9 878.726 1388.5 878.526C1390.8 878.626 1392.1 875.926 1390.7 874.026Z" fill="white"/>
<path d="M1569.1 726.225C1569 718.025 1566.5 715.525 1557.4 715.525C1541.8 715.525 1526.3 715.525 1510.7 715.525C1506.2 715.525 1436.2 715.525 1405.7 715.525C1397.3 715.525 1394.9 718.025 1394.9 726.225C1394.9 734.025 1394.8 741.825 1394.9 749.625C1395 755.125 1397.7 758.225 1403.4 758.325C1410.8 758.425 1442.7 758.325 1451.9 758.325C1451.9 761.325 1451.9 763.425 1451.9 765.625C1451.9 799.525 1451.9 833.325 1451.9 867.225C1451.9 877.125 1454 879.125 1464 879.125C1475.8 879.125 1487.6 879.125 1499.5 879.125C1510.3 879.125 1512.2 877.225 1512.2 866.625C1512.2 833.125 1512.2 799.725 1512.2 766.225C1512.2 763.825 1512.2 761.525 1512.2 758.325C1525.4 758.325 1552.9 758.325 1559.9 758.325C1566 758.225 1569 755.125 1569 749.625C1569.2 741.925 1569.2 734.125 1569.1 726.225Z" fill="white"/>
<path d="M672.3 0L507.2 64.9V668C507.2 673.5 511.7 678 517.2 678H662.3C667.8 678 672.3 673.5 672.3 668V27.5L794.3 66.6V669.7C794.3 674.3 798 678 802.6 678H812.6C817.2 678 820.9 674.3 820.9 669.7V48.4L672.3 0Z" fill="#2D4272"/>
<path d="M363.1 242.999V681.199H571.5V293.699L381.2 232.199L363.1 242.999Z" fill="#EDF0F5"/>
<path d="M385.1 218.6L268 267V670.1C268 675.2 272.1 679.3 277.1 679.3H377.8C382.8 679.3 386.9 675.2 386.9 670.1L385.2 247L554.2 303.8V671.2C554.2 675.6 557.8 679.2 562.2 679.2H574.4C578.8 679.2 582.4 675.6 582.4 671.2V285.8L385.1 218.6Z" fill="#456CCE"/>
<path d="M600.3 375.8V679.3H692.5V411.9L600.3 375.8Z" fill="#EDF0F5"/>
<path d="M606.1 349.5L448.4 395.2V672.4C448.4 676.2 451.5 679.3 455.3 679.3H599.2C603 679.3 606.1 676.2 606.1 672.4V382.7L679.5 411.6V671.6C679.5 675.9 683 679.3 687.2 679.3H698C702.3 679.3 705.7 675.8 705.7 671.6V394.2L606.1 349.5Z" fill="#596B99"/>
<path d="M1027.7 132.3L884 181V671.3C884 675.7 888.1 679.3 893.3 679.3H1018.5C1023.6 679.3 1027.8 675.7 1027.8 671.3V161.2L1147.8 200L1149.7 672.7C1149.7 676.3 1153.1 679.3 1157.4 679.3H1166.6C1170.8 679.3 1174.3 676.4 1174.3 672.7V180.8L1027.7 132.3Z" fill="#2D4272"/>
<path d="M913.3 499.1V681.2H1019.5V525.2L913.3 499.1Z" fill="#EDF0F5"/>
<path d="M919.4 487.3L852 514.4V675.6C852 677.7 854.1 679.4 856.7 679.4H916.1C918.7 679.4 920.8 677.7 920.8 675.6L920.6 503.7L1006 530.7L1005.8 675.2C1005.8 677.6 1008.2 679.5 1011.1 679.5H1023.6C1026.5 679.5 1028.9 677.6 1028.9 675.2L1027.2 522L919.4 487.3Z" fill="#596B99"/>
<path d="M1198.9 368.8L1087 413.9V673C1087 676.5 1090 679.4 1093.7 679.4H1192.3C1196 679.4 1199 676.6 1199 673V398.3L1311.4 434.9V672.2C1311.4 676.1 1314.7 679.3 1320.5 679.3H1329.7C1332.2 679.3 1337.2 676.1 1337.2 672.2L1337.5 415.9L1198.9 368.8Z" fill="#596B99"/>
<path d="M503.8 117.1L544 101V141.1L503.8 156.7V117.1Z" fill="#EDF0F5"/>
<path d="M503.8 195.1L544 179V219.1L503.8 234.7V195.1Z" fill="#EDF0F5"/>
<path d="M309.5 336L265 352.5V312.9L309.5 294.9V336Z" fill="#EDF0F5"/>
<path d="M445.3 488.8L488.3 474V511.9L445.3 526.8V488.8Z" fill="#EDF0F5"/>
<path d="M1114 235.6V268.5L1152.4 280.8V247.6L1114 235.6Z" fill="#2D4272"/>
<path d="M1114 295.6V328.5L1152.4 340.8V307.6L1114 295.6Z" fill="#2D4272"/>
<path d="M1276.4 467.7V510.7L1315.7 521.7V479.2L1276.4 467.7Z" fill="#596B99"/>
</svg>
