<svg width="1540" height="932" viewBox="0 0 1540 932" fill="none" xmlns="http://www.w3.org/2000/svg">
<path d="M0.0027771 856.825C0.0027771 804.525 0.0027832 752.225 0.102783 699.925C0.102783 694.925 0.20278 689.825 1.30278 685.025C4.30278 672.025 16.1028 663.525 31.6028 663.225C48.2028 662.925 64.9028 663.025 81.5028 663.025C115.403 663.025 149.203 662.925 183.103 663.125C200.203 663.225 211.803 671.125 215.203 684.825C216.303 689.225 216.503 693.925 216.503 698.525C216.603 754.825 216.603 811.125 216.503 867.425C216.503 876.825 214.203 879.125 204.703 879.125C189.103 879.125 173.403 879.125 157.803 879.125C149.303 879.125 146.703 876.625 146.703 867.925C146.703 823.425 146.703 733.225 146.703 732.625C146.803 716.725 144.503 714.425 128.803 714.425C114.203 714.425 99.5028 714.425 84.9028 714.425C73.0028 714.425 69.7028 717.425 69.7028 729.225C69.6028 774.125 69.6028 819.025 69.6028 863.925C69.6028 866.325 69.7028 868.725 69.5028 871.125C69.2028 876.125 66.2028 878.925 61.4028 879.025C43.8028 879.125 26.1028 879.125 8.50278 879.025C4.50278 879.025 2.30279 877.125 0.902786 874.325C-0.0972137 872.225 0.0027771 859.025 0.0027771 856.825Z" fill="white"/>
<path d="M246.103 931.725C243.903 931.725 241.703 931.225 239.803 930.025C236.503 928.025 235.303 924.825 235.303 919.925C235.503 862.625 235.403 805.325 235.403 748.025C235.403 726.825 245.203 716.125 266.303 715.825C294.103 715.325 322.003 715.625 349.903 715.725C361.303 715.825 372.203 718.325 382.103 724.025C397.103 732.725 404.703 746.525 407.803 762.825C412.603 788.525 411.903 814.325 404.903 839.625C399.003 861.125 384.503 874.125 362.703 877.025C347.503 879.025 303.403 879.125 295.803 879.125C295.803 882.325 295.803 885.025 295.803 887.725C295.803 898.525 295.803 907.125 295.803 917.925C295.803 927.025 291.603 931.525 282.603 931.625C274.203 931.825 253.503 931.825 246.103 931.725ZM296.103 828.425C296.203 832.325 299.303 835.325 303.203 835.425C310.103 835.625 319.403 835.525 325.903 835.425C339.403 835.125 346.303 827.825 347.603 814.625C348.803 802.625 348.603 790.225 347.203 778.225C345.903 766.225 337.403 759.825 325.203 759.425C319.003 759.225 312.803 759.325 306.603 759.325C298.103 759.325 295.803 761.525 295.803 769.925C295.703 785.425 295.903 814.825 296.103 828.425Z" fill="white"/>
<path d="M608.203 766.625C602.203 736.725 587.103 721.325 557.403 716.525C529.003 711.925 500.303 711.925 471.903 717.225C447.903 721.725 432.603 736.225 426.503 759.825C420.103 784.525 420.103 809.425 426.303 834.125C432.303 858.025 447.403 873.025 471.803 877.225C486.503 879.725 539.503 880.425 550.803 879.225C582.903 875.725 601.003 860.425 607.603 831.125C612.403 809.725 612.503 788.125 608.203 766.625ZM550.503 810.325C550.503 825.925 537.903 838.525 522.303 838.525H510.703C495.103 838.525 482.503 825.925 482.503 810.325V782.725C482.503 767.125 495.103 754.525 510.703 754.525H521.703C537.603 754.525 550.503 767.425 550.503 783.325V810.325Z" fill="white"/>
<path d="M677.403 878.425C645.603 875.825 627.903 858.325 624.103 826.625C621.603 806.025 621.603 785.425 625.203 764.925C630.103 736.225 649.703 717.525 678.703 716.325C708.903 715.125 739.203 715.625 769.503 715.625C775.503 715.625 778.103 718.525 778.203 724.725C778.403 732.125 778.303 739.525 778.203 747.025C778.103 754.025 775.303 756.725 768.203 756.725C751.803 756.825 735.303 756.725 718.903 756.825C697.103 756.925 686.703 766.025 685.003 787.925C684.303 797.625 684.503 807.625 686.003 817.225C688.103 830.825 696.303 837.325 710.203 837.725C728.803 838.125 747.503 838.025 766.103 838.025C780.803 838.025 781.603 838.825 781.603 853.725C781.603 858.925 781.603 864.125 781.603 869.325C781.503 876.525 779.003 879.225 771.803 879.225C756.703 879.325 693.703 879.825 677.403 878.425Z" fill="white"/>
<path d="M796.803 805.925C796.803 786.325 796.703 766.625 796.803 747.025C796.903 727.125 807.003 716.125 826.903 715.925C865.403 715.425 903.903 715.425 942.303 715.925C962.603 716.125 972.603 727.025 972.603 747.425C972.703 787.725 972.703 828.025 972.603 868.325C972.603 876.925 970.203 879.225 961.403 879.225C949.003 879.225 936.503 879.225 924.103 879.225C914.603 879.225 912.303 876.925 912.303 867.625C912.303 835.125 912.303 802.725 912.303 770.225C912.303 759.325 909.803 756.825 898.803 756.725C888.803 756.725 878.803 756.625 868.703 756.725C859.703 756.825 856.803 759.725 856.803 768.725C856.803 801.425 856.803 834.025 856.803 866.725C856.803 877.225 854.803 879.225 844.103 879.225C831.903 879.225 819.603 879.225 807.403 879.225C799.103 879.225 796.603 876.725 796.603 868.525C796.803 847.625 796.803 826.825 796.803 805.925Z" fill="white"/>
<path d="M1137.4 814.225C1152.4 814.125 1161.3 807.525 1162.7 792.625C1163.9 780.425 1163.6 767.725 1161.7 755.625C1157.6 729.725 1146.7 718.825 1121.1 715.725C1091.2 712.225 1061 711.925 1031.2 716.625C1003.5 721.025 991.303 732.825 989.503 760.425C987.803 786.125 988.203 812.125 990.503 837.825C992.903 864.125 1007.7 877.425 1034.2 878.325C1072.6 879.625 1111.1 879.125 1149.6 879.225C1155.1 879.225 1158 875.925 1158 870.425C1158 863.425 1158 856.425 1158 849.425C1158 837.125 1156.5 835.625 1144.2 835.625C1118.7 835.625 1093.3 835.725 1067.8 835.425C1054.4 835.225 1048.1 828.325 1048.8 814.525C1051.5 814.325 1110.3 814.325 1137.4 814.225ZM1063.9 755.525C1072.2 755.025 1080.7 755.325 1089 755.625C1091.9 755.725 1094.9 756.725 1097.6 758.025C1102.2 760.325 1104.3 764.225 1103.1 769.425C1101.9 774.425 1097.3 775.825 1092.7 775.825C1077.9 775.925 1064 775.825 1048.9 775.825C1046.9 762.425 1051.4 756.325 1063.9 755.525Z" fill="white"/>
<path d="M1239.4 726.825C1239.4 718.125 1237 715.625 1228.5 715.525C1215.5 715.425 1202.5 715.425 1189.4 715.525C1181.5 715.525 1178.9 718.025 1178.9 726.025C1178.8 773.725 1178.8 821.425 1178.9 869.025C1178.9 876.425 1181.7 879.125 1189.2 879.125C1202 879.225 1214.8 879.125 1227.7 879.125C1237 879.125 1239.4 876.625 1239.4 867.425C1239.4 844.025 1239.4 820.525 1239.4 797.125C1239.4 773.725 1239.4 750.325 1239.4 726.825Z" fill="white"/>
<path d="M1360.7 874.026C1351.2 861.626 1324.7 827.226 1311.2 810.726C1300.3 797.326 1300.2 793.426 1310.3 779.726C1311.4 778.326 1346.7 732.026 1355.2 720.726C1356.6 718.826 1355.3 716.226 1353 716.126C1341.2 715.926 1313.8 715.426 1300.6 715.826C1297 715.926 1292.2 718.426 1290.1 721.326C1276.3 740.526 1263.1 760.126 1249.6 779.526C1242 790.526 1242.3 800.726 1250.3 811.526C1265.4 831.726 1280 852.326 1294.9 872.726C1298.2 877.326 1302.5 879.326 1308.3 879.226C1320.9 879.026 1346.9 878.726 1358.5 878.526C1360.8 878.626 1362.1 875.926 1360.7 874.026Z" fill="white"/>
<path d="M1539.1 726.225C1539 718.025 1536.5 715.525 1527.4 715.525C1511.8 715.525 1496.3 715.525 1480.7 715.525C1476.2 715.525 1406.2 715.525 1375.7 715.525C1367.3 715.525 1364.9 718.025 1364.9 726.225C1364.9 734.025 1364.8 741.825 1364.9 749.625C1365 755.125 1367.7 758.225 1373.4 758.325C1380.8 758.425 1412.7 758.325 1421.9 758.325C1421.9 761.325 1421.9 763.425 1421.9 765.625C1421.9 799.525 1421.9 833.325 1421.9 867.225C1421.9 877.125 1424 879.125 1434 879.125C1445.8 879.125 1457.6 879.125 1469.5 879.125C1480.3 879.125 1482.2 877.225 1482.2 866.625C1482.2 833.125 1482.2 799.725 1482.2 766.225C1482.2 763.825 1482.2 761.525 1482.2 758.325C1495.4 758.325 1522.9 758.325 1529.9 758.325C1536 758.225 1539 755.125 1539 749.625C1539.2 741.925 1539.2 734.125 1539.1 726.225Z" fill="white"/>
<path d="M642.3 0L477.2 64.9V668C477.2 673.5 481.7 678 487.2 678H632.3C637.8 678 642.3 673.5 642.3 668V27.5L764.3 66.6V669.7C764.3 674.3 768 678 772.6 678H782.6C787.2 678 790.9 674.3 790.9 669.7V48.4L642.3 0Z" fill="#2D4272"/>
<path d="M333.1 242.999V681.199H541.5V293.699L351.2 232.199L333.1 242.999Z" fill="#EDF0F5"/>
<path d="M355.1 218.6L238 267V670.1C238 675.2 242.1 679.3 247.1 679.3H347.8C352.8 679.3 356.9 675.2 356.9 670.1L355.2 247L524.2 303.8V671.2C524.2 675.6 527.8 679.2 532.2 679.2H544.4C548.8 679.2 552.4 675.6 552.4 671.2V285.8L355.1 218.6Z" fill="#456CCE"/>
<path d="M570.3 375.8V679.3H662.5V411.9L570.3 375.8Z" fill="#EDF0F5"/>
<path d="M576.1 349.5L418.4 395.2V672.4C418.4 676.2 421.5 679.3 425.3 679.3H569.2C573 679.3 576.1 676.2 576.1 672.4V382.7L649.5 411.6V671.6C649.5 675.9 653 679.3 657.2 679.3H668C672.3 679.3 675.7 675.8 675.7 671.6V394.2L576.1 349.5Z" fill="#596B99"/>
<path d="M997.7 132.3L854 181V671.3C854 675.7 858.1 679.3 863.3 679.3H988.5C993.6 679.3 997.8 675.7 997.8 671.3V161.2L1117.8 200L1119.7 672.7C1119.7 676.3 1123.1 679.3 1127.4 679.3H1136.6C1140.8 679.3 1144.3 676.4 1144.3 672.7V180.8L997.7 132.3Z" fill="#2D4272"/>
<path d="M883.3 499.1V681.2H989.5V525.2L883.3 499.1Z" fill="#EDF0F5"/>
<path d="M889.4 487.3L822 514.4V675.6C822 677.7 824.1 679.4 826.7 679.4H886.1C888.7 679.4 890.8 677.7 890.8 675.6L890.6 503.7L976 530.7L975.8 675.2C975.8 677.6 978.2 679.5 981.1 679.5H993.6C996.5 679.5 998.9 677.6 998.9 675.2L997.2 522L889.4 487.3Z" fill="#596B99"/>
<path d="M1168.9 368.8L1057 413.9V673C1057 676.5 1060 679.4 1063.7 679.4H1162.3C1166 679.4 1169 676.6 1169 673V398.3L1281.4 434.9V672.2C1281.4 676.1 1284.7 679.3 1290.5 679.3H1299.7C1302.2 679.3 1307.2 676.1 1307.2 672.2L1307.5 415.9L1168.9 368.8Z" fill="#596B99"/>
<path d="M473.8 117.1L514 101V141.1L473.8 156.7V117.1Z" fill="#EDF0F5"/>
<path d="M473.8 195.1L514 179V219.1L473.8 234.7V195.1Z" fill="#EDF0F5"/>
<path d="M279.5 336L235 352.5V312.9L279.5 294.9V336Z" fill="#EDF0F5"/>
<path d="M415.3 488.8L458.3 474V511.9L415.3 526.8V488.8Z" fill="#EDF0F5"/>
<path d="M1084 235.6V268.5L1122.4 280.8V247.6L1084 235.6Z" fill="#2D4272"/>
<path d="M1084 295.6V328.5L1122.4 340.8V307.6L1084 295.6Z" fill="#2D4272"/>
<path d="M1246.4 467.7V510.7L1285.7 521.7V479.2L1246.4 467.7Z" fill="#596B99"/>
</svg>
