<svg width="1552" height="1042" viewBox="0 0 1552 1042" fill="none" xmlns="http://www.w3.org/2000/svg">
<path d="M936.403 58.3749C941.439 59.776 942.824 61.8238 942.824 66.1348C942.698 286.753 942.699 507.371 942.699 727.989C942.699 737.366 939.802 739.844 928.847 739.952C926.077 739.952 923.307 740.06 920.537 739.952C914.241 739.737 910.967 736.611 910.337 731.33C910.086 729.39 910.212 727.45 910.212 725.51C910.212 512.868 910.212 300.225 910.337 87.6901C910.337 81.1157 908.197 78.4213 900.894 76.4813C855.311 64.3026 756.717 37.4663 756.717 37.4663C756.717 37.4663 756.339 288.585 756.213 410.911C756.213 415.438 757.599 417.917 762.761 419.641C772.583 422.982 782.153 427.078 791.848 430.526C795.752 431.928 797.515 433.652 797.515 437.64C797.389 534.854 797.389 632.068 797.389 729.39C797.389 737.042 793.989 739.737 785.049 739.952C782.53 739.952 780.012 739.952 777.494 739.952C768.554 739.737 765.406 737.15 765.154 729.282C765.028 725.833 765.154 722.385 765.154 718.936C765.154 632.715 765.028 546.494 765.28 460.273C765.28 453.914 763.391 450.788 756.213 448.417C731.282 440.226 673.611 420.395 673.611 420.395C673.611 420.395 673.611 627.218 673.611 726.157C673.611 738.551 671.974 739.952 657.619 739.952C601.082 739.952 544.545 739.952 488.008 739.952C475.038 739.952 472.52 737.797 472.52 726.696C472.52 671.622 472.646 616.44 472.394 561.367C472.394 556.086 474.282 553.822 480.075 552.206C493.926 548.326 507.651 543.799 521.502 539.812C525.783 538.626 527.42 536.794 527.294 532.914C527.042 521.274 527.168 509.634 527.168 496.917C509.036 502.305 491.407 507.586 473.023 513.083C472.897 510.173 472.646 508.125 472.646 505.97C472.646 484.415 472.897 462.752 472.52 441.196C472.394 435.915 474.157 433.221 480.201 431.389C518.984 419.857 557.64 407.786 596.423 396.254C602.971 394.314 605.363 391.835 605.112 385.692C604.482 370.387 604.86 354.975 604.986 339.671C604.986 335.899 603.852 333.851 599.445 332.558C531.953 313.266 464.587 293.866 397.095 274.574C396.591 274.466 396.087 274.574 394.198 274.574C394.198 277.376 394.198 280.286 394.198 283.088C394.198 430.634 394.198 578.288 394.198 725.833C394.198 738.012 392.058 739.844 378.207 739.844C339.298 739.844 300.389 739.844 261.606 739.844C250.022 739.844 247.126 737.473 247.126 727.773C247.126 609.112 247.126 490.558 247 371.896C247 367.801 248.511 365.753 253.044 364.352C267.525 359.825 281.753 354.975 295.982 349.91C298.249 349.155 301.145 346.677 301.145 344.844C301.649 331.911 301.397 318.978 301.397 304.967C283.39 311.003 266.014 316.715 247.126 322.966C247.126 313.266 246.874 304.536 247.378 295.806C247.378 294.621 250.274 293.004 252.037 292.357C298.123 276.514 344.209 260.671 390.421 245.043C393.065 244.181 396.843 244.397 399.739 245.259C446.329 258.731 492.793 272.419 539.382 285.998C542.027 286.753 544.545 287.4 548.322 288.477C548.322 276.406 548.322 265.09 548.322 253.666C548.322 237.499 548.322 237.499 566.077 232.218C574.639 229.631 583.328 227.26 591.764 224.458C593.653 223.812 596.297 221.764 596.423 220.363C596.801 207.43 596.675 194.496 596.675 180.485C580.558 185.551 565.07 190.509 548.448 195.79C548.448 181.887 548.322 169.061 548.7 156.236C548.7 154.942 551.722 153.11 553.863 152.356C566.203 148.045 578.795 144.057 591.135 139.746C593.275 138.992 596.423 137.375 596.423 136.082C596.801 122.825 596.675 109.461 596.675 95.45C580.432 100.839 565.07 105.904 548.448 111.401C548.448 100.515 548.448 90.9234 548.826 80.9002C548.952 79.1758 553.107 77.128 555.878 76.158C596.045 62.2549 636.339 48.4595 676.633 34.5564C696.276 27.7665 734.556 14.1867 748.658 9.12117C752.184 7.82786 756.213 7.6123 759.991 8.69007C786.182 15.9111 892.835 46.0884 936.403 58.3749Z" stroke="white" stroke-width="15" stroke-miterlimit="10" stroke-linejoin="round"/>
<path d="M1357.46 436.801C1357.46 436.801 1373.63 430.743 1381.14 428.522C1384.33 427.613 1388.43 427.209 1391.51 428.118C1440.48 442.556 1489.22 457.196 1538.19 471.735C1542.75 473.048 1544 474.966 1544 479.106C1543.89 562.099 1543.89 645.093 1543.89 728.086C1543.89 737.577 1541.38 739.697 1530.45 739.798C1515.98 739.899 1514.5 738.486 1514.5 725.562C1514.5 672.757 1514.39 619.851 1514.62 567.047C1514.62 562.2 1513.36 559.878 1507.78 558.666C1497.19 556.445 1486.72 553.315 1476.12 550.892C1472.02 549.983 1470.09 548.469 1470.2 544.329C1470.54 531.81 1470.32 519.29 1470.32 505.761C1485.01 509.496 1499.13 513.03 1514.39 516.867C1514.39 509.092 1514.73 502.126 1514.05 495.26C1513.93 493.645 1510.18 491.827 1507.67 491.121C1472.14 480.721 1436.61 470.524 1400.96 460.326C1396.4 459.014 1391.96 457.802 1386.27 456.186C1386.27 460.023 1386.27 462.951 1386.27 465.879C1386.27 552.306 1386.27 638.732 1386.27 725.158C1386.27 738.789 1385.02 739.899 1369.41 739.899C1337.41 739.899 1305.52 739.899 1273.52 739.899C1261.91 739.899 1259.63 737.88 1259.63 727.38C1259.63 644.184 1259.63 560.989 1259.51 477.793C1259.51 473.25 1261 471.028 1265.89 469.413C1284.68 463.052 1303.13 456.086 1321.81 449.624C1326.14 448.109 1328.3 446.393 1328.19 441.849C1327.85 422.464 1327.96 402.978 1328.19 383.592C1328.19 379.453 1326.93 377.534 1322.27 376.323C1311.79 373.698 1301.42 370.366 1290.95 367.539C1286.85 366.428 1285.02 364.914 1285.25 360.774C1285.59 351.687 1285.37 342.6 1285.37 332.605C1299.72 336.643 1313.38 340.581 1328.07 344.721C1328.07 335.836 1328.3 327.758 1327.85 319.782C1327.73 318.369 1324.88 316.652 1322.83 315.945C1312.02 312.614 1301.2 309.585 1290.26 306.657C1286.62 305.647 1285.25 304.132 1285.25 300.7C1285.48 291.411 1285.37 282.122 1285.37 272.025C1299.72 276.064 1313.38 280.002 1328.07 284.141C1328.07 275.054 1328.19 266.775 1327.96 258.597C1327.96 257.285 1326.14 255.366 1324.66 254.962C1280.47 242.039 1236.28 229.216 1190.73 216.091C1190.73 219.322 1190.73 221.846 1190.73 224.269C1190.73 391.67 1190.73 559.07 1190.73 726.471C1190.73 738.486 1189.13 739.899 1175.35 739.899C1157.47 739.899 1156.9 739.395 1156.9 723.644C1156.9 676.493 1156.79 629.342 1157.02 582.191C1157.02 576.941 1155.65 574.518 1149.73 572.802C1119.78 564.32 1089.94 555.335 1058.96 546.147C1058.73 549.176 1058.51 668.618 1058.51 725.966C1058.51 738.89 1057.25 740 1043.02 740C1026.16 740 1009.19 740 992.34 740C983.457 740 980.382 737.375 980.382 729.399C980.382 679.421 980.382 629.443 980.268 579.364C980.268 575.427 981.748 573.609 985.734 572.297C997.465 568.359 1008.97 563.816 1020.81 560.181C1026.39 558.464 1027.76 555.839 1027.76 550.892C1027.64 454.571 1027.64 358.149 1027.64 261.828C1027.64 254.962 1027.76 248.097 1027.64 241.231C1027.53 238.303 1028.33 236.587 1031.97 235.476C1083.45 220.129 1134.7 204.48 1186.17 189.133C1189.36 188.224 1193.46 188.426 1196.65 189.335C1248.47 204.48 1300.06 219.927 1351.88 235.072C1356.89 236.587 1357.8 238.808 1357.8 242.947C1357.34 304.536 1357.46 436.801 1357.46 436.801Z" stroke="white" stroke-width="15" stroke-miterlimit="10" stroke-linejoin="round"/>
<path d="M679.056 985.903C647.256 983.303 629.556 965.803 625.756 934.103C623.256 913.503 623.256 892.903 626.856 872.403C631.756 843.703 651.356 825.003 680.356 823.803C710.556 822.603 740.856 823.103 771.156 823.103C777.156 823.103 779.756 826.003 779.856 832.203C780.056 839.603 779.956 847.003 779.856 854.503C779.756 861.503 776.956 864.203 769.856 864.203C753.456 864.303 736.956 864.203 720.556 864.303C698.756 864.403 688.356 873.503 686.656 895.403C685.956 905.103 686.156 915.103 687.656 924.703C689.756 938.303 697.956 944.803 711.856 945.203C730.456 945.603 749.156 945.503 767.756 945.503C782.456 945.503 783.256 946.303 783.256 961.203C783.256 966.403 783.256 971.603 783.256 976.803C783.156 984.003 780.656 986.703 773.456 986.703C758.356 986.703 695.356 987.203 679.056 985.903Z" fill="white"/>
<path d="M0.0027771 964.825C0.0027771 912.525 0.0027832 860.225 0.102783 807.925C0.102783 802.925 0.20278 797.825 1.30278 793.025C4.30278 780.025 16.1028 771.525 31.6028 771.225C48.2028 770.925 64.9028 771.025 81.5028 771.025C115.403 771.025 149.203 770.925 183.103 771.125C200.203 771.225 211.803 779.125 215.203 792.825C216.303 797.225 216.503 801.925 216.503 806.525C216.603 862.825 216.603 919.125 216.503 975.425C216.503 984.825 214.203 987.125 204.703 987.125C189.103 987.125 173.403 987.125 157.803 987.125C149.303 987.125 146.703 984.625 146.703 975.925C146.703 931.425 146.703 841.225 146.703 840.625C146.803 824.725 144.503 822.425 128.803 822.425C114.203 822.425 99.5028 822.425 84.9028 822.425C73.0028 822.425 69.7028 825.425 69.7028 837.225C69.6028 882.125 69.6028 927.025 69.6028 971.925C69.6028 974.325 69.7028 976.725 69.5028 979.125C69.2028 984.125 66.2028 986.925 61.4028 987.025C43.8028 987.125 26.1028 987.125 8.50278 987.025C4.50278 987.025 2.30279 985.125 0.902786 982.325C-0.0972137 980.225 0.0027771 967.025 0.0027771 964.825Z" fill="white"/>
<path d="M606.893 874.262C600.913 844.477 585.865 829.136 556.265 824.354C527.961 819.772 499.359 819.772 471.055 825.052C447.136 829.534 431.888 843.979 425.809 867.488C419.431 892.094 419.431 916.898 425.61 941.503C431.589 965.312 446.638 980.254 470.955 984.438C485.606 986.929 538.426 987.626 549.688 986.431C581.679 982.944 599.717 967.703 606.295 938.515C611.079 917.197 611.178 895.68 606.893 874.262ZM549.389 917.695C549.389 933.235 536.831 945.787 521.284 945.787H509.723C494.176 945.787 481.619 933.235 481.619 917.695V890.201C481.619 874.661 494.176 862.109 509.723 862.109H520.686C536.532 862.109 549.389 874.959 549.389 890.799V917.695V917.695Z" fill="white"/>
<path d="M241.8 1041.18C239.6 1041.18 237.4 1040.68 235.5 1039.48C232.2 1037.48 231 1034.28 231 1029.38C231.2 972.081 231.1 914.781 231.1 857.481C231.1 836.281 240.9 825.581 262 825.281C289.8 824.781 317.7 825.081 345.6 825.181C357 825.281 367.9 827.781 377.8 833.481C392.8 842.181 400.4 855.981 403.5 872.281C408.3 897.981 407.6 923.781 400.6 949.081C394.7 970.581 380.2 983.581 358.4 986.481C343.2 988.481 299.1 988.581 291.5 988.581C291.5 991.781 291.5 994.481 291.5 997.181C291.5 1007.98 291.5 1016.58 291.5 1027.38C291.5 1036.48 287.3 1040.98 278.3 1041.08C269.9 1041.28 249.2 1041.18 241.8 1041.18ZM291.8 937.781C291.9 941.681 295 944.681 298.9 944.781C305.8 944.981 315.1 944.881 321.6 944.781C335.1 944.481 342 937.181 343.3 923.981C344.5 911.981 344.3 899.581 342.9 887.581C341.6 875.581 333.1 869.181 320.9 868.781C314.7 868.581 308.5 868.681 302.3 868.681C293.8 868.681 291.5 870.881 291.5 879.281C291.4 894.881 291.6 924.281 291.8 937.781Z" fill="white"/>
<path d="M798.2 911.375C798.2 891.775 798.1 872.075 798.2 852.475C798.3 832.575 808.4 821.575 828.3 821.375C866.8 820.875 905.3 820.875 943.7 821.375C964 821.575 974 832.475 974 852.875C974.1 893.175 974.1 933.475 974 973.775C974 982.375 971.6 984.675 962.8 984.675C950.4 984.675 937.9 984.675 925.5 984.675C916 984.675 913.7 982.375 913.7 973.075C913.7 940.575 913.7 908.175 913.7 875.675C913.7 864.775 911.2 862.275 900.2 862.175C890.2 862.175 880.2 862.075 870.1 862.175C861.1 862.275 858.2 865.175 858.2 874.175C858.2 906.875 858.2 939.475 858.2 972.175C858.2 982.675 856.2 984.675 845.5 984.675C833.3 984.675 821 984.675 808.8 984.675C800.5 984.675 798 982.175 798 973.975C798.2 953.075 798.2 932.275 798.2 911.375Z" fill="white"/>
<path d="M1136.95 922.129C1151.95 922.029 1160.85 915.429 1162.25 900.529C1163.45 888.329 1163.15 875.629 1161.25 863.529C1157.15 837.629 1146.25 826.729 1120.65 823.629C1090.75 820.129 1060.55 819.829 1030.75 824.529C1003.05 828.929 990.846 840.729 989.046 868.329C987.346 894.029 987.746 920.029 990.046 945.729C992.446 972.029 1007.25 985.329 1033.75 986.229C1072.15 987.529 1110.65 987.029 1149.15 987.129C1154.65 987.129 1157.55 983.829 1157.55 978.329C1157.55 971.329 1157.55 964.329 1157.55 957.329C1157.55 945.029 1156.05 943.529 1143.75 943.529C1118.25 943.529 1092.85 943.629 1067.35 943.329C1053.95 943.129 1047.65 936.229 1048.35 922.429C1051.05 922.129 1109.85 922.229 1136.95 922.129ZM1063.45 863.429C1071.75 862.929 1080.25 863.229 1088.55 863.529C1091.45 863.629 1094.45 864.629 1097.15 865.929C1101.75 868.229 1103.85 872.129 1102.65 877.329C1101.45 882.329 1096.85 883.729 1092.25 883.729C1077.45 883.829 1063.55 883.729 1048.45 883.729C1046.45 870.329 1050.95 864.229 1063.45 863.429Z" fill="white"/>
<path d="M1237.58 906.675C1237.58 930.075 1237.58 953.575 1237.58 976.975C1237.58 986.275 1235.17 988.675 1225.87 988.675C1213.07 988.675 1200.27 988.675 1187.37 988.675C1179.87 988.675 1177.08 985.975 1177.08 978.575C1176.98 930.875 1176.98 883.175 1177.08 835.575C1177.08 827.575 1179.67 825.175 1187.57 825.075C1200.58 824.975 1213.57 824.975 1226.67 825.075C1235.17 825.075 1237.58 827.675 1237.58 836.375C1237.58 859.775 1237.58 883.275 1237.58 906.675Z" fill="white"/>
<path d="M1346.94 825.482C1349.24 825.482 1350.54 828.182 1349.14 830.082C1340.64 841.382 1305.34 887.582 1304.24 889.082C1294.04 902.782 1294.14 906.782 1305.14 920.082C1318.64 936.582 1345.14 970.982 1354.64 983.382C1356.04 985.282 1354.74 987.982 1352.44 987.982C1340.94 988.182 1314.84 988.482 1302.24 988.682C1296.44 988.782 1292.14 986.682 1288.84 982.182C1274.04 961.782 1259.34 941.182 1244.24 920.982C1236.24 910.182 1235.84 899.882 1243.54 888.982C1257.04 869.582 1270.24 849.982 1284.04 830.782C1286.14 827.882 1290.94 825.382 1294.54 825.282C1307.74 824.682 1335.14 825.182 1346.94 825.482Z" fill="white"/>
<path d="M1544.24 833.7C1544.14 825.5 1541.64 823 1532.54 823C1516.94 823 1501.44 823 1485.84 823C1481.34 823 1411.34 823 1380.84 823C1372.44 823 1370.04 825.5 1370.04 833.7C1370.04 841.5 1369.94 849.3 1370.04 857.1C1370.14 862.6 1372.84 865.7 1378.54 865.8C1385.94 865.9 1417.84 865.8 1427.04 865.8C1427.04 868.8 1427.04 870.9 1427.04 873.1C1427.04 907 1427.04 940.8 1427.04 974.7C1427.04 984.6 1429.14 986.6 1439.14 986.6C1450.94 986.6 1462.74 986.6 1474.64 986.6C1485.44 986.6 1487.34 984.7 1487.34 974.1C1487.34 940.6 1487.34 907.2 1487.34 873.7C1487.34 871.3 1487.34 869 1487.34 865.8C1500.54 865.8 1528.04 865.8 1535.04 865.8C1541.14 865.7 1544.14 862.6 1544.14 857.1C1544.34 849.4 1544.34 841.5 1544.24 833.7Z" fill="white"/>
</svg>
