<svg width="1540" height="948" viewBox="0 0 1540 948" fill="none" xmlns="http://www.w3.org/2000/svg">
<path d="M0.0027771 872.825C0.0027771 820.525 0.0027832 768.225 0.102783 715.925C0.102783 710.925 0.20278 705.825 1.30278 701.025C4.30278 688.025 16.1028 679.525 31.6028 679.225C48.2028 678.925 64.9028 679.025 81.5028 679.025C115.403 679.025 149.203 678.925 183.103 679.125C200.203 679.225 211.803 687.125 215.203 700.825C216.303 705.225 216.503 709.925 216.503 714.525C216.603 770.825 216.603 827.125 216.503 883.425C216.503 892.825 214.203 895.125 204.703 895.125C189.103 895.125 173.403 895.125 157.803 895.125C149.303 895.125 146.703 892.625 146.703 883.925C146.703 839.425 146.703 749.225 146.703 748.625C146.803 732.725 144.503 730.425 128.803 730.425C114.203 730.425 99.5028 730.425 84.9028 730.425C73.0028 730.425 69.7028 733.425 69.7028 745.225C69.6028 790.125 69.6028 835.025 69.6028 879.925C69.6028 882.325 69.7028 884.725 69.5028 887.125C69.2028 892.125 66.2028 894.925 61.4028 895.025C43.8028 895.125 26.1028 895.125 8.50278 895.025C4.50278 895.025 2.30279 893.125 0.902786 890.325C-0.0972137 888.225 0.0027771 875.025 0.0027771 872.825Z" fill="white"/>
<path d="M246.103 947.725C243.903 947.725 241.703 947.225 239.803 946.025C236.503 944.025 235.303 940.825 235.303 935.925C235.503 878.625 235.403 821.325 235.403 764.025C235.403 742.825 245.203 732.125 266.303 731.825C294.103 731.325 322.003 731.625 349.903 731.725C361.303 731.825 372.203 734.325 382.103 740.025C397.103 748.725 404.703 762.525 407.803 778.825C412.603 804.525 411.903 830.325 404.903 855.625C399.003 877.125 384.503 890.125 362.703 893.025C347.503 895.025 303.403 895.125 295.803 895.125C295.803 898.325 295.803 901.025 295.803 903.725C295.803 914.525 295.803 923.125 295.803 933.925C295.803 943.025 291.603 947.525 282.603 947.625C274.203 947.825 253.503 947.825 246.103 947.725ZM296.103 844.425C296.203 848.325 299.303 851.325 303.203 851.425C310.103 851.625 319.403 851.525 325.903 851.425C339.403 851.125 346.303 843.825 347.603 830.625C348.803 818.625 348.603 806.225 347.203 794.225C345.903 782.225 337.403 775.825 325.203 775.425C319.003 775.225 312.803 775.325 306.603 775.325C298.103 775.325 295.803 777.525 295.803 785.925C295.703 801.425 295.903 830.825 296.103 844.425Z" fill="white"/>
<path d="M608.203 782.625C602.203 752.725 587.103 737.325 557.403 732.525C529.003 727.925 500.303 727.925 471.903 733.225C447.903 737.725 432.603 752.225 426.503 775.825C420.103 800.525 420.103 825.425 426.303 850.125C432.303 874.025 447.403 889.025 471.803 893.225C486.503 895.725 539.503 896.425 550.803 895.225C582.903 891.725 601.003 876.425 607.603 847.125C612.403 825.725 612.503 804.125 608.203 782.625ZM550.503 826.325C550.503 841.925 537.903 854.525 522.303 854.525H510.703C495.103 854.525 482.503 841.925 482.503 826.325V798.725C482.503 783.125 495.103 770.525 510.703 770.525H521.703C537.603 770.525 550.503 783.425 550.503 799.325V826.325Z" fill="white"/>
<path d="M677.403 894.425C645.603 891.825 627.903 874.325 624.103 842.625C621.603 822.025 621.603 801.425 625.203 780.925C630.103 752.225 649.703 733.525 678.703 732.325C708.903 731.125 739.203 731.625 769.503 731.625C775.503 731.625 778.103 734.525 778.203 740.725C778.403 748.125 778.303 755.525 778.203 763.025C778.103 770.025 775.303 772.725 768.203 772.725C751.803 772.825 735.303 772.725 718.903 772.825C697.103 772.925 686.703 782.025 685.003 803.925C684.303 813.625 684.503 823.625 686.003 833.225C688.103 846.825 696.303 853.325 710.203 853.725C728.803 854.125 747.503 854.025 766.103 854.025C780.803 854.025 781.603 854.825 781.603 869.725C781.603 874.925 781.603 880.125 781.603 885.325C781.503 892.525 779.003 895.225 771.803 895.225C756.703 895.325 693.703 895.825 677.403 894.425Z" fill="white"/>
<path d="M796.803 821.925C796.803 802.325 796.703 782.625 796.803 763.025C796.903 743.125 807.003 732.125 826.903 731.925C865.403 731.425 903.903 731.425 942.303 731.925C962.603 732.125 972.603 743.025 972.603 763.425C972.703 803.725 972.703 844.025 972.603 884.325C972.603 892.925 970.203 895.225 961.403 895.225C949.003 895.225 936.503 895.225 924.103 895.225C914.603 895.225 912.303 892.925 912.303 883.625C912.303 851.125 912.303 818.725 912.303 786.225C912.303 775.325 909.803 772.825 898.803 772.725C888.803 772.725 878.803 772.625 868.703 772.725C859.703 772.825 856.803 775.725 856.803 784.725C856.803 817.425 856.803 850.025 856.803 882.725C856.803 893.225 854.803 895.225 844.103 895.225C831.903 895.225 819.603 895.225 807.403 895.225C799.103 895.225 796.603 892.725 796.603 884.525C796.803 863.625 796.803 842.825 796.803 821.925Z" fill="white"/>
<path d="M1137.4 830.225C1152.4 830.125 1161.3 823.525 1162.7 808.625C1163.9 796.425 1163.6 783.725 1161.7 771.625C1157.6 745.725 1146.7 734.825 1121.1 731.725C1091.2 728.225 1061 727.925 1031.2 732.625C1003.5 737.025 991.303 748.825 989.503 776.425C987.803 802.125 988.203 828.125 990.503 853.825C992.903 880.125 1007.7 893.425 1034.2 894.325C1072.6 895.625 1111.1 895.125 1149.6 895.225C1155.1 895.225 1158 891.925 1158 886.425C1158 879.425 1158 872.425 1158 865.425C1158 853.125 1156.5 851.625 1144.2 851.625C1118.7 851.625 1093.3 851.725 1067.8 851.425C1054.4 851.225 1048.1 844.325 1048.8 830.525C1051.5 830.325 1110.3 830.325 1137.4 830.225ZM1063.9 771.525C1072.2 771.025 1080.7 771.325 1089 771.625C1091.9 771.725 1094.9 772.725 1097.6 774.025C1102.2 776.325 1104.3 780.225 1103.1 785.425C1101.9 790.425 1097.3 791.825 1092.7 791.825C1077.9 791.925 1064 791.825 1048.9 791.825C1046.9 778.425 1051.4 772.325 1063.9 771.525Z" fill="white"/>
<path d="M1239.4 742.825C1239.4 734.125 1237 731.625 1228.5 731.525C1215.5 731.425 1202.5 731.425 1189.4 731.525C1181.5 731.525 1178.9 734.025 1178.9 742.025C1178.8 789.725 1178.8 837.425 1178.9 885.025C1178.9 892.425 1181.7 895.125 1189.2 895.125C1202 895.225 1214.8 895.125 1227.7 895.125C1237 895.125 1239.4 892.625 1239.4 883.425C1239.4 860.025 1239.4 836.525 1239.4 813.125C1239.4 789.725 1239.4 766.325 1239.4 742.825Z" fill="white"/>
<path d="M1360.7 890.026C1351.2 877.626 1324.7 843.226 1311.2 826.726C1300.3 813.326 1300.2 809.426 1310.3 795.726C1311.4 794.326 1346.7 748.026 1355.2 736.726C1356.6 734.826 1355.3 732.226 1353 732.126C1341.2 731.926 1313.8 731.426 1300.6 731.826C1297 731.926 1292.2 734.426 1290.1 737.326C1276.3 756.526 1263.1 776.126 1249.6 795.526C1242 806.526 1242.3 816.726 1250.3 827.526C1265.4 847.726 1280 868.326 1294.9 888.726C1298.2 893.326 1302.5 895.326 1308.3 895.226C1320.9 895.026 1346.9 894.726 1358.5 894.526C1360.8 894.626 1362.1 891.926 1360.7 890.026Z" fill="white"/>
<path d="M1539.1 742.225C1539 734.025 1536.5 731.525 1527.4 731.525C1511.8 731.525 1496.3 731.525 1480.7 731.525C1476.2 731.525 1406.2 731.525 1375.7 731.525C1367.3 731.525 1364.9 734.025 1364.9 742.225C1364.9 750.025 1364.8 757.825 1364.9 765.625C1365 771.125 1367.7 774.225 1373.4 774.325C1380.8 774.425 1412.7 774.325 1421.9 774.325C1421.9 777.325 1421.9 779.425 1421.9 781.625C1421.9 815.525 1421.9 849.325 1421.9 883.225C1421.9 893.125 1424 895.125 1434 895.125C1445.8 895.125 1457.6 895.125 1469.5 895.125C1480.3 895.125 1482.2 893.225 1482.2 882.625C1482.2 849.125 1482.2 815.725 1482.2 782.225C1482.2 779.825 1482.2 777.525 1482.2 774.325C1495.4 774.325 1522.9 774.325 1529.9 774.325C1536 774.225 1539 771.125 1539 765.625C1539.2 757.925 1539.2 750.125 1539.1 742.225Z" fill="white"/>
<path d="M699.3 0L534.2 64.9V668C534.2 673.5 538.7 678 544.2 678H689.3C694.8 678 699.3 673.5 699.3 668V27.5L821.3 66.6V669.7C821.3 674.3 825 678 829.6 678H839.6C844.2 678 847.9 674.3 847.9 669.7V48.4L699.3 0Z" fill="#2D4272"/>
<path d="M390.1 242.999V681.199H598.5V293.699L408.2 232.199L390.1 242.999Z" fill="#EDF0F5"/>
<path d="M412.1 218.6L295 267V670.1C295 675.2 299.1 679.3 304.1 679.3H404.8C409.8 679.3 413.9 675.2 413.9 670.1L412.2 247L581.2 303.8V671.2C581.2 675.6 584.8 679.2 589.2 679.2H601.4C605.8 679.2 609.4 675.6 609.4 671.2V285.8L412.1 218.6Z" fill="#456CCE"/>
<path d="M627.3 375.8V679.3H719.5V411.9L627.3 375.8Z" fill="#EDF0F5"/>
<path d="M633.1 349.5L475.4 395.2V672.4C475.4 676.2 478.5 679.3 482.3 679.3H626.2C630 679.3 633.1 676.2 633.1 672.4V382.7L706.5 411.6V671.6C706.5 675.9 710 679.3 714.2 679.3H725C729.3 679.3 732.7 675.8 732.7 671.6V394.2L633.1 349.5Z" fill="#596B99"/>
<path d="M1054.7 132.3L911 181V671.3C911 675.7 915.1 679.3 920.3 679.3H1045.5C1050.6 679.3 1054.8 675.7 1054.8 671.3V161.2L1174.8 200L1176.7 672.7C1176.7 676.3 1180.1 679.3 1184.4 679.3H1193.6C1197.8 679.3 1201.3 676.4 1201.3 672.7V180.8L1054.7 132.3Z" fill="#2D4272"/>
<path d="M940.3 499.1V681.2H1046.5V525.2L940.3 499.1Z" fill="#EDF0F5"/>
<path d="M946.4 487.3L879 514.4V675.6C879 677.7 881.1 679.4 883.7 679.4H943.1C945.7 679.4 947.8 677.7 947.8 675.6L947.6 503.7L1033 530.7L1032.8 675.2C1032.8 677.6 1035.2 679.5 1038.1 679.5H1050.6C1053.5 679.5 1055.9 677.6 1055.9 675.2L1054.2 522L946.4 487.3Z" fill="#596B99"/>
<path d="M1225.9 368.8L1114 413.9V673C1114 676.5 1117 679.4 1120.7 679.4H1219.3C1223 679.4 1226 676.6 1226 673V398.3L1338.4 434.9V672.2C1338.4 676.1 1341.7 679.3 1347.5 679.3H1356.7C1359.2 679.3 1364.2 676.1 1364.2 672.2L1364.5 415.9L1225.9 368.8Z" fill="#596B99"/>
<path d="M533.8 117.1L574 101V141.1L533.8 156.7V117.1Z" fill="#EDF0F5"/>
<path d="M533.8 195.1L574 179V219.1L533.8 234.7V195.1Z" fill="#EDF0F5"/>
<path d="M339.5 336L295 352.5V312.9L339.5 294.9V336Z" fill="#EDF0F5"/>
<path d="M475.3 488.8L518.3 474V511.9L475.3 526.8V488.8Z" fill="#EDF0F5"/>
<path d="M1138 235.6V268.5L1176.4 280.8V247.6L1138 235.6Z" fill="#2D4272"/>
<path d="M1138 295.6V328.5L1176.4 340.8V307.6L1138 295.6Z" fill="#2D4272"/>
<path d="M1300.4 467.7V510.7L1339.7 521.7V479.2L1300.4 467.7Z" fill="#596B99"/>
</svg>
