<svg width="190" height="167" viewBox="0 0 190 167" fill="none" xmlns="http://www.w3.org/2000/svg">
<path d="M186.6 53.5003C180.6 23.6003 165.5 8.20037 135.8 3.40037C107.4 -1.19963 78.7 -1.19968 50.3 4.10032C26.3 8.60032 11 23.1004 4.90001 46.7004C-1.49999 71.4004 -1.5 96.3003 4.7 121C10.7 144.9 25.8 159.9 50.2 164.1C64.9 166.6 117.9 167.3 129.2 166.1C161.3 162.6 179.4 147.3 186 118C190.8 96.6003 190.9 75.0003 186.6 53.5003ZM128.9 97.1003C128.9 112.7 116.3 125.3 100.7 125.3H89.1C73.5 125.3 60.9 112.7 60.9 97.1003V69.5003C60.9 53.9003 73.5 41.3003 89.1 41.3003H100.1C116 41.3003 128.9 54.2003 128.9 70.1003V97.1003V97.1003Z" fill="#F5F7FF"/>
</svg>
