<svg width="217" height="217" viewBox="0 0 217 217" fill="none" xmlns="http://www.w3.org/2000/svg">
<path d="M0.399994 194.7C0.399994 142.4 0.4 90.1 0.5 37.8C0.5 32.8 0.599997 27.7 1.7 22.9C4.7 9.90001 16.5 1.39996 32 1.09996C48.6 0.799963 65.3 0.900012 81.9 0.900012C115.8 0.900012 149.6 0.799988 183.5 0.999988C200.6 1.09999 212.2 9 215.6 22.7C216.7 27.1 216.9 31.8 216.9 36.4C217 92.7 217 149 216.9 205.3C216.9 214.7 214.6 217 205.1 217C189.5 217 173.8 217 158.2 217C149.7 217 147.1 214.5 147.1 205.8C147.1 161.3 147.1 71.1 147.1 70.5C147.2 54.6 144.9 52.3 129.2 52.3C114.6 52.3 99.9 52.3 85.3 52.3C73.4 52.3 70.1 55.3 70.1 67.1C70 112 70 156.9 70 201.8C70 204.2 70.1 206.6 69.9 209C69.6 214 66.6 216.8 61.8 216.9C44.2 217 26.5 217 8.89999 216.9C4.89999 216.9 2.7 215 1.3 212.2C0.300003 210.1 0.399994 196.9 0.399994 194.7Z" fill="#F5F7FF"/>
</svg>
