<svg width="177" height="217" viewBox="0 0 177 217" fill="none" xmlns="http://www.w3.org/2000/svg">
<path d="M11.4999 216.6C9.29994 216.6 7.09995 216.1 5.19995 214.9C1.89995 212.9 0.699951 209.7 0.699951 204.8C0.899951 147.5 0.799927 90.1997 0.799927 32.8997C0.799927 11.6997 10.6 0.999726 31.7 0.699726C59.5 0.199726 87.3999 0.499689 115.3 0.599689C126.7 0.699689 137.6 3.19974 147.5 8.89974C162.5 17.5997 170.1 31.3997 173.2 47.6997C178 73.3997 177.3 99.1997 170.3 124.5C164.4 146 149.9 159 128.1 161.9C112.9 163.9 68.8 164 61.2 164C61.2 167.2 61.2 169.9 61.2 172.6C61.2 183.4 61.2 192 61.2 202.8C61.2 211.9 56.9999 216.4 47.9999 216.5C39.5999 216.7 18.8999 216.6 11.4999 216.6ZM61.4999 113.2C61.5999 117.1 64.6999 120.1 68.5999 120.2C75.4999 120.4 84.7999 120.3 91.2999 120.2C104.8 119.9 111.7 112.6 113 99.3997C114.2 87.3997 114 74.9997 112.6 62.9997C111.3 50.9997 102.8 44.5997 90.5999 44.1997C84.3999 43.9997 78.1999 44.0997 71.9999 44.0997C63.4999 44.0997 61.2 46.2997 61.2 54.6997C61.1 70.2997 61.2999 99.6997 61.4999 113.2Z" fill="#F5F7FF"/>
</svg>
