<svg width="160" height="165" viewBox="0 0 160 165" fill="none" xmlns="http://www.w3.org/2000/svg">
<path d="M55.8 163.3C24 160.7 6.29998 143.2 2.49998 111.5C-1.66893e-05 90.8998 -4.1008e-05 70.2998 3.59996 49.7998C8.49996 21.0998 28.1 2.3998 57.1 1.1998C87.3 -0.000202954 117.6 0.499785 147.9 0.499785C153.9 0.499785 156.5 3.39976 156.6 9.59976C156.8 16.9998 156.7 24.3998 156.6 31.8998C156.5 38.8998 153.7 41.5998 146.6 41.5998C130.2 41.6998 113.7 41.5998 97.3 41.6998C75.5 41.7998 65.1 50.8998 63.4 72.7998C62.7 82.4998 62.9 92.4998 64.4 102.1C66.5 115.7 74.7 122.2 88.6 122.6C107.2 123 125.9 122.9 144.5 122.9C159.2 122.9 160 123.7 160 138.6C160 143.8 160 149 160 154.2C159.9 161.4 157.4 164.1 150.2 164.1C135.1 164.1 72.1 164.6 55.8 163.3Z" fill="#F5F7FF"/>
</svg>
