<svg width="175" height="164" viewBox="0 0 175 164" fill="none" xmlns="http://www.w3.org/2000/svg">
<path d="M174.5 11.1003C174.4 2.90034 171.9 0.400391 162.8 0.400391C147.2 0.400391 131.7 0.400391 116.1 0.400391C111.6 0.400391 41.6 0.400391 11.1 0.400391C2.69999 0.400391 0.30006 2.90034 0.30006 11.1003C0.30006 18.9003 0.20006 26.7004 0.30006 34.5004C0.40006 40.0004 3.10006 43.1004 8.80006 43.2004C16.2001 43.3004 48.1001 43.2004 57.3001 43.2004C57.3001 46.2004 57.3001 48.3004 57.3001 50.5004C57.3001 84.4004 57.3001 118.2 57.3001 152.1C57.3001 162 59.4 164 69.4 164C81.2 164 93 164 104.9 164C115.7 164 117.6 162.1 117.6 151.5C117.6 118 117.6 84.6003 117.6 51.1003C117.6 48.7003 117.6 46.4004 117.6 43.2004C130.8 43.2004 158.3 43.2004 165.3 43.2004C171.4 43.1004 174.4 40.0004 174.4 34.5004C174.6 26.8004 174.6 18.9003 174.5 11.1003Z" fill="#F5F7FF"/>
</svg>
