<svg width="110" height="25" fill="none" xmlns="http://www.w3.org/2000/svg">
    <path d="M110 0H0v25h110V0Z" fill="#251B40"/>
    <path d="M89.713 11.135v5.808c0 1.19.92 2.008 2.144 2.008 1.242 0 2.143-1.01 2.143-2.008 0-.987-.861-2.008-2.143-2.008a2.72 2.72 0 0 0-.862.14 67.067 67.067 0 0 1-.598-1.308 4.388 4.388 0 0 1 1.46-.233c2.261 0 3.938 1.57 3.938 3.409 0 1.92-1.795 3.42-3.938 3.42-2.177 0-3.925-1.517-3.925-3.42v-5.808h1.781ZM83.201 13.534c.31 0 .585.023.848.076l.145.023c.046.012.105.024.144.041 1.618.415 2.801 1.722 2.801 3.28 0 .094-.013.182-.013.275a2.803 2.803 0 0 1-.178.741 5.393 5.393 0 0 0-2.162-.426c-.776 0-1.506.14-2.19.415V16.44a8.747 8.747 0 0 1 2.176-.274c.132 0 .25.011.382.011-.276-.554-.98-1.086-1.953-1.086-1.183 0-2.143.841-2.143 1.868 0 1.04.992 1.85 2.143 1.85.598 0 1.111-.18 1.532-.554l1.223 1.18c-.684.572-1.65.933-2.761.933-2.216 0-3.925-1.552-3.925-3.409 0-1.914 1.755-3.426 3.931-3.426ZM63.518 11.292h1.709v5.336c0 1.179 1.078 2.212 2.492 2.212 1.387 0 2.491-.98 2.491-2.212v-5.336h1.71v5.336c0 1.179 1.065 2.212 2.478 2.212 1.388 0 2.492-.98 2.492-2.212v-5.336h1.71v5.336c0 2.095-1.907 3.735-4.202 3.735-1.36 0-2.564-.56-3.333-1.47-.782.916-1.985 1.47-3.346 1.47-2.328 0-4.201-1.663-4.201-3.735v-5.336ZM58.455 13.534c.309 0 .585.023.848.076l.145.023c.046.012.105.024.144.041 1.618.415 2.801 1.722 2.801 3.28 0 .094-.013.182-.013.275a2.8 2.8 0 0 1-.178.741 5.393 5.393 0 0 0-2.163-.426c-.775 0-1.505.14-2.189.415V16.44a8.747 8.747 0 0 1 2.176-.274c.132 0 .25.011.382.011-.276-.554-.98-1.086-1.953-1.086-1.183 0-2.143.841-2.143 1.868 0 1.04.992 1.85 2.143 1.85.598 0 1.111-.18 1.532-.554l1.223 1.18c-.684.572-1.65.933-2.762.933-2.215 0-3.925-1.552-3.925-3.409 0-1.914 1.756-3.426 3.932-3.426ZM51.85 20.363v-9.07h1.794v9.07H51.85ZM47.55 12.571h1.783v2.084h1.051v1.553h-1.051v1.337c0 .688.644 1.254 1.413 1.254h.44v1.553h-.44c-1.769 0-3.195-1.296-3.195-2.848V12.57ZM43.248 12.571h1.782v2.084h1.052v1.553H45.03v1.337c0 .688.644 1.254 1.413 1.254h.44v1.553h-.44c-1.768 0-3.195-1.296-3.195-2.848V12.57ZM42.202 13.884v6.48H40.42v-6.48h1.782Z" fill="#FFFFFD"/>
    <path fill-rule="evenodd" clip-rule="evenodd" d="m42.39 11.719-1.226 1.059-.963-.88 1.227-1.058.962.879Z" fill="#F09926"/>
    <path d="M33.834 11.304h1.782v5.09c0 1.413 1.446 2.382 3.24 2.382h.862v1.582h-.98c-2.715 0-4.904-1.734-4.904-3.888v-5.166Z" fill="#FFFFFD"/>
    <path fill-rule="evenodd" clip-rule="evenodd" d="M24.648 6.147c-5.429-3.291-10.752-1.31-12.476-.182l.471.555-.471-.555C9.715 7.57 8.101 9.671 8.146 12.728l.01.693 1.578-.018-.01-.692c-.037-2.516 1.24-4.23 3.39-5.636h.001c1.393-.91 5.955-2.627 10.637.212h.001c1.663 1.004 2.665 2.617 3.19 4.594v.002c.282 1.05.352 2.875-.201 4.402-.274.756-.684 1.392-1.244 1.835-.545.43-1.275.71-2.29.706-.892-.005-1.48-.436-1.882-.942a3.504 3.504 0 0 1-.547-.996l-.003-.011-.15-.516-1.451-.008-.18.474-.005.012a3.337 3.337 0 0 1-.135.278c-.104.19-.26.437-.472.68-.431.49-1.013.877-1.802.857h-.001c-1.186-.03-2.05-.568-2.58-1.525l-.001-.002a4.488 4.488 0 0 1-.397-.956c1.873-.825 2.84-2.15 3.334-3.27.26-.592.39-1.134.457-1.528a5.425 5.425 0 0 0 .069-.656V10.698c0-.001 0-.002-.789-.004l.79.002.001-.501-3.426-.999-.335.435.654.388a94.624 94.624 0 0 0-.654-.388l-.002.002-.003.004-.008.012-.03.04c-.026.034-.06.083-.104.146a10.694 10.694 0 0 0-1.216 2.37c-.318.88-.56 1.957-.48 3.096-1.586.45-2.81.276-3.655-.01a4.869 4.869 0 0 1-1.129-.55 3.45 3.45 0 0 1-.337-.255l-.01-.009-.526-.511-1.171.927.529.514.585-.464-.585.465h.001l.002.002.003.004.011.01a2.227 2.227 0 0 0 .144.125c.093.077.227.18.4.295.347.23.854.514 1.514.737 1.12.38 2.64.574 4.486.098.113.352.264.705.459 1.055.757 1.368 2.117 2.259 3.955 2.303l.022-.691-.021.691c1.498.038 2.507-.724 3.096-1.396.07-.08.136-.16.197-.24.061.09.128.182.201.273.575.725 1.583 1.528 3.169 1.536 1.392.007 2.505-.392 3.353-1.06.832-.658 1.364-1.538 1.693-2.446.652-1.8.57-3.883.234-5.138-.58-2.18-1.736-4.154-3.832-5.419ZM12.581 17.734l.709-.303-.709.304Zm-6.435-2.79c.586-.464.585-.465.585-.465l-.585.464Zm5.976 1.734a5.854 5.854 0 0 1-.262-1.377l.092.707.17.67Zm2.588-5.827c-.03.048-.063.1-.096.156a9.394 9.394 0 0 0-.77 1.614 6.774 6.774 0 0 0-.418 2.044 4.782 4.782 0 0 0 2.037-2.262c.208-.473.314-.908.368-1.226l-1.121-.326Zm-3.17.662 1.22-1.058-.971-.862-1.22 1.058.97.862Z" fill="#F09926"/>
    <path d="M38.571 3.145c.644 0 1.148.166 1.512.497.364.331.546.789.546 1.372 0 .565-.168 1.008-.504 1.33-.336.317-.798.476-1.386.476a2.79 2.79 0 0 1-.742-.098 3.437 3.437 0 0 1-.749-.315v1.68h-.686V5.112c0-.625.175-1.108.525-1.45.35-.344.845-.517 1.484-.517Zm.049 3.108c.406 0 .726-.107.959-.322.233-.22.35-.52.35-.903 0-.392-.119-.698-.357-.917-.238-.224-.565-.336-.98-.336-.425 0-.756.117-.994.35-.233.229-.35.555-.35.98v.658a2.11 2.11 0 0 0 1.372.49Zm6.37-1.876v3.71h-.644v-.588c-.149.205-.338.362-.566.469-.23.107-.481.16-.757.16-.359 0-.68-.078-.966-.237a1.736 1.736 0 0 1-.672-.665 2.033 2.033 0 0 1-.237-.994c0-.373.079-.702.237-.987.164-.285.388-.506.672-.665a1.95 1.95 0 0 1 .966-.238c.266 0 .511.051.735.154.224.098.411.245.56.44v-.56h.672ZM43.08 7.54c.233 0 .445-.054.637-.161.19-.112.34-.266.447-.462.108-.2.161-.43.161-.686 0-.257-.053-.483-.16-.68a1.125 1.125 0 0 0-.448-.461 1.28 1.28 0 0 0-.637-.161c-.238 0-.453.054-.645.16a1.186 1.186 0 0 0-.448.463 1.391 1.391 0 0 0-.16.679c0 .257.053.485.16.686.112.196.262.35.448.462.192.107.407.16.645.16Zm5.144-1.386c.247.065.438.17.574.315a.759.759 0 0 1 .203.539c0 .22-.075.415-.224.588-.15.168-.358.3-.623.399a2.61 2.61 0 0 1-.883.14c-.275 0-.546-.035-.812-.105a2.52 2.52 0 0 1-.7-.315l.203-.511c.178.112.38.2.61.266.228.06.46.09.692.09.318 0 .57-.053.756-.16.192-.112.287-.261.287-.448a.442.442 0 0 0-.23-.4c-.15-.092-.362-.14-.637-.14h-.68v-.482h.63c.252 0 .45-.044.596-.133.144-.089.217-.21.217-.364 0-.168-.087-.299-.26-.392-.167-.093-.396-.14-.685-.14-.37 0-.759.096-1.17.287l-.181-.518a3.112 3.112 0 0 1 1.42-.343c.3 0 .568.042.806.126.237.084.424.203.56.357a.774.774 0 0 1 .203.525c0 .182-.061.345-.182.49a1.125 1.125 0 0 1-.49.329Zm3.562-1.813c.373 0 .702.08.987.238.29.159.511.383.665.672.159.285.238.614.238.987 0 .369-.077.698-.23.987a1.667 1.667 0 0 1-.645.665c-.275.159-.59.238-.945.238-.28 0-.532-.05-.756-.147a1.483 1.483 0 0 1-.56-.441v1.904h-.679v-3.2c0-.372.08-.704.238-.993.163-.29.39-.513.68-.672.293-.159.63-.238 1.007-.238Zm-.02 3.199c.237 0 .452-.054.643-.161.191-.112.338-.266.441-.462.107-.2.161-.427.161-.68 0-.251-.054-.475-.16-.671-.104-.2-.25-.357-.442-.47a1.227 1.227 0 0 0-.644-.167c-.369 0-.667.121-.896.364-.229.238-.343.55-.343.938 0 .257.051.485.154.686a1.2 1.2 0 0 0 .441.462c.187.107.401.16.644.16Zm6.377-3.164v3.71h-.644v-.588c-.15.205-.339.362-.567.469-.229.107-.48.16-.756.16-.36 0-.681-.078-.966-.237a1.736 1.736 0 0 1-.672-.665 2.033 2.033 0 0 1-.238-.994c0-.373.08-.702.238-.987.163-.285.387-.506.672-.665a1.95 1.95 0 0 1 .966-.238c.266 0 .51.051.735.154.224.098.41.245.56.44v-.56h.672ZM56.232 7.54c.233 0 .446-.054.637-.161.191-.112.34-.266.448-.462.107-.2.16-.43.16-.686 0-.257-.053-.483-.16-.68a1.126 1.126 0 0 0-.448-.461 1.28 1.28 0 0 0-.637-.161c-.238 0-.453.054-.644.16a1.186 1.186 0 0 0-.448.463 1.39 1.39 0 0 0-.161.679c0 .257.053.485.16.686.113.196.262.35.449.462.191.107.406.16.644.16Zm5.086-3.038c.346 0 .654.077.924.23.271.155.481.37.63.645.154.27.231.58.231.93 0 .36-.081.68-.245.96-.158.275-.385.49-.679.644-.289.154-.62.23-.994.23-.63 0-1.117-.214-1.463-.643-.34-.434-.51-1.043-.51-1.827 0-.76.156-1.356.468-1.785.313-.434.791-.721 1.435-.861l1.694-.378.098.616-1.56.336c-.486.107-.848.29-1.086.546-.238.257-.373.625-.406 1.106.159-.238.364-.422.616-.553.252-.13.535-.196.847-.196Zm-.119 3.08c.238 0 .448-.054.63-.161.187-.107.332-.254.434-.441.103-.191.154-.408.154-.651 0-.369-.112-.665-.336-.89-.224-.223-.518-.335-.882-.335s-.66.112-.889.336c-.224.224-.336.52-.336.889 0 .243.052.46.154.65.108.188.255.335.441.442.187.107.397.16.63.16Zm4.453.546c-.369 0-.7-.082-.994-.245a1.81 1.81 0 0 1-.693-.672 1.959 1.959 0 0 1-.245-.98c0-.364.082-.688.245-.973.168-.29.4-.513.693-.672.294-.163.625-.245.994-.245s.698.082.987.245c.294.159.523.383.686.672.168.285.252.609.252.973s-.084.69-.252.98a1.759 1.759 0 0 1-.686.672c-.29.163-.618.245-.987.245Zm0-.588a1.184 1.184 0 0 0 1.085-.623c.107-.2.161-.43.161-.686 0-.257-.054-.483-.16-.68a1.125 1.125 0 0 0-.449-.461 1.255 1.255 0 0 0-.637-.161c-.238 0-.453.054-.644.16a1.186 1.186 0 0 0-.448.463 1.391 1.391 0 0 0-.16.679c0 .257.053.485.16.686.112.196.261.35.448.462.191.107.406.16.644.16Zm7.537-3.2c.466 0 .835.136 1.106.407.275.27.412.672.412 1.204v2.135h-.671V6.029c0-.36-.085-.63-.252-.812-.164-.182-.4-.273-.708-.273-.34 0-.61.107-.811.322-.201.21-.302.513-.302.91v1.91h-.671V6.03c0-.36-.085-.63-.252-.812-.164-.182-.4-.273-.708-.273-.34 0-.61.107-.811.322-.201.21-.302.513-.302.91v1.91h-.671v-3.71h.644v.554c.135-.191.312-.336.532-.434.219-.103.468-.154.748-.154.29 0 .547.058.77.175.224.117.397.287.518.51.14-.214.334-.382.581-.503.253-.121.535-.182.848-.182Zm6.2.036v3.71h-.644v-.588c-.15.205-.338.362-.567.469-.229.107-.48.16-.756.16-.36 0-.681-.078-.966-.237a1.736 1.736 0 0 1-.672-.665 2.033 2.033 0 0 1-.238-.994c0-.373.08-.702.238-.987.163-.285.387-.506.672-.665a1.95 1.95 0 0 1 .966-.238c.266 0 .511.051.735.154.224.098.41.245.56.44v-.56h.672ZM77.478 7.54c.233 0 .446-.054.637-.161.191-.112.34-.266.448-.462.107-.2.161-.43.161-.686 0-.257-.054-.483-.161-.68a1.126 1.126 0 0 0-.448-.461 1.28 1.28 0 0 0-.637-.161c-.238 0-.453.054-.644.16a1.186 1.186 0 0 0-.448.463 1.39 1.39 0 0 0-.161.679c0 .257.054.485.161.686.112.196.261.35.448.462.191.107.406.16.644.16Zm3.196-3.164h.672v1.575h2.114V4.377h.672v3.71h-.672V6.533h-2.114v1.554h-.672v-3.71Zm6.354 3.752c-.369 0-.7-.082-.994-.245a1.81 1.81 0 0 1-.693-.672 1.959 1.959 0 0 1-.245-.98c0-.364.082-.688.245-.973.168-.29.4-.513.693-.672.294-.163.625-.245.994-.245s.698.082.987.245c.294.159.523.383.686.672.168.285.252.609.252.973s-.084.69-.252.98a1.759 1.759 0 0 1-.686.672c-.29.163-.618.245-.987.245Zm0-.588a1.184 1.184 0 0 0 1.085-.623c.107-.2.161-.43.161-.686 0-.257-.054-.483-.16-.68a1.125 1.125 0 0 0-.449-.461 1.255 1.255 0 0 0-.637-.161c-.238 0-.453.054-.644.16a1.186 1.186 0 0 0-.448.463 1.391 1.391 0 0 0-.16.679c0 .257.053.485.16.686.112.196.261.35.448.462.191.107.406.16.644.16Z" fill="#fff"/>
</svg>
