<svg width="243" height="57" fill="none" xmlns="http://www.w3.org/2000/svg">
    <g filter="url(#a)">
        <path d="M223.203 25.054v15.06c0 3.089 2.387 5.208 5.558 5.208 3.222 0 5.557-2.619 5.557-5.207 0-2.558-2.233-5.207-5.557-5.207-.802 0-1.552.136-2.234.363a169.39 169.39 0 0 1-1.551-3.39c1.176-.409 2.421-.606 3.785-.606 5.864 0 10.211 4.072 10.211 8.84 0 4.98-4.654 8.87-10.211 8.87-5.643 0-10.178-3.936-10.178-8.87v-15.06h4.62ZM206.317 31.275c.801 0 1.517.06 2.199.197l.375.06c.119.031.273.061.375.107 4.194 1.074 7.262 4.465 7.262 8.506 0 .242-.034.47-.034.712a7.252 7.252 0 0 1-.46 1.922c-1.705-.742-3.597-1.105-5.609-1.105s-3.904.363-5.677 1.075v-3.936a22.679 22.679 0 0 1 5.643-.711c.341 0 .648.03.989.03-.716-1.438-2.54-2.815-5.063-2.815-3.069 0-5.558 2.18-5.558 4.843 0 2.695 2.574 4.799 5.558 4.799 1.551 0 2.881-.47 3.972-1.438l3.171 3.057C211.687 48.062 209.181 49 206.3 49c-5.746 0-10.178-4.026-10.178-8.84 0-4.964 4.552-8.885 10.195-8.885ZM155.274 25.463h4.433v13.834c0 3.058 2.796 5.737 6.461 5.737 3.597 0 6.461-2.543 6.461-5.737V25.463h4.432v13.834c0 3.058 2.762 5.737 6.427 5.737 3.598 0 6.462-2.543 6.462-5.737V25.463h4.432v13.834c0 5.434-4.944 9.688-10.894 9.688-3.528 0-6.648-1.453-8.643-3.815-2.028 2.377-5.148 3.815-8.677 3.815-6.035 0-10.894-4.314-10.894-9.688V25.463ZM142.15 31.275c.801 0 1.517.06 2.199.197l.375.06c.119.031.273.061.375.107 4.194 1.074 7.262 4.465 7.262 8.506 0 .242-.034.47-.034.712a7.252 7.252 0 0 1-.46 1.922c-1.705-.742-3.597-1.105-5.609-1.105s-3.904.363-5.677 1.075v-3.936a22.679 22.679 0 0 1 5.643-.711c.341 0 .648.03.989.03-.716-1.438-2.54-2.815-5.063-2.815-3.069 0-5.558 2.18-5.558 4.843 0 2.695 2.574 4.799 5.558 4.799 1.551 0 2.881-.47 3.972-1.438l3.171 3.057c-1.773 1.484-4.279 2.422-7.16 2.422-5.746 0-10.178-4.026-10.178-8.84 0-4.964 4.552-8.885 10.195-8.885ZM125.021 48.985V25.463h4.655v23.522h-4.655ZM113.875 28.779h4.62v5.403h2.728v4.026h-2.728v3.467c0 1.786 1.671 3.254 3.665 3.254h1.142v4.026h-1.142c-4.586 0-8.285-3.36-8.285-7.386v-12.79ZM102.718 28.779h4.62v5.403h2.727v4.026h-2.727v3.467c0 1.786 1.67 3.254 3.665 3.254h1.142v4.026h-1.142c-4.586 0-8.285-3.36-8.285-7.386v-12.79ZM100.007 32.183v16.801h-4.62V32.183h4.62Z" fill="#FFFFFD"/>
        <path fill-rule="evenodd" clip-rule="evenodd" d="m100.494 26.569-3.181 2.745-2.496-2.279 3.181-2.745 2.496 2.279Z" fill="#F09926"/>
        <path d="M78.307 25.493h4.62v13.199c0 3.663 3.75 6.175 8.404 6.175h2.233v4.102h-2.54c-7.04 0-12.717-4.495-12.717-10.08V25.493Z" fill="#FFFFFD"/>
        <path fill-rule="evenodd" clip-rule="evenodd" d="M54.487 12.122c-14.078-8.534-27.881-3.395-32.351-.473l1.222 1.44-1.223-1.44c-6.372 4.164-10.556 9.61-10.439 17.538l.027 1.795 4.09-.046-.026-1.795c-.096-6.522 3.215-10.969 8.793-14.613 3.612-2.362 15.44-6.813 27.582.548l.002.001.002.001c4.312 2.603 6.91 6.784 8.272 11.913v.003c.729 2.723.91 7.456-.523 11.415-.71 1.96-1.773 3.611-3.226 4.758-1.412 1.114-3.305 1.843-5.936 1.83-2.315-.012-3.84-1.13-4.882-2.442a9.083 9.083 0 0 1-1.366-2.433 4.436 4.436 0 0 1-.052-.149l-.009-.029v-.002l-.389-1.336-3.761-.019-.468 1.228v.002l-.012.029c-.013.03-.033.079-.063.145a9.848 9.848 0 0 1-1.51 2.338c-1.118 1.273-2.627 2.274-4.673 2.222h-.003c-3.074-.074-5.318-1.472-6.69-3.953l-.002-.002-.001-.003a11.634 11.634 0 0 1-1.03-2.48c4.857-2.14 7.368-5.572 8.645-8.479a16.842 16.842 0 0 0 1.186-3.962c.086-.513.13-.935.154-1.236a9.562 9.562 0 0 0 .025-.465v-.051s0-.002-2.045-.01l2.045.008.007-1.3-8.885-2.59-.869 1.127 1.688 1.001a260.042 260.042 0 0 0-1.688-1l-.001.001-.003.004-.008.01-.023.03-.078.105a25.088 25.088 0 0 0-1.147 1.747 27.718 27.718 0 0 0-2.274 4.773c-.825 2.288-1.452 5.078-1.245 8.031-4.112 1.166-7.288.715-9.477-.027a12.612 12.612 0 0 1-2.927-1.424 8.94 8.94 0 0 1-.875-.661 1.629 1.629 0 0 1-.025-.024H8.02v-.002l-1.362-1.323L3.62 34.8l1.37 1.332 1.52-1.202a156.89 156.89 0 0 0-1.518 1.204l.002.002.004.004.01.01.028.025.085.078c.07.063.166.146.287.246.243.2.59.466 1.04.766a16.887 16.887 0 0 0 3.925 1.912c2.904.985 6.845 1.488 11.632.252.292.913.683 1.828 1.189 2.737 1.963 3.547 5.49 5.856 10.255 5.972l.059-1.794-.056 1.794c3.884.098 6.502-1.88 8.03-3.62.182-.21.352-.417.51-.622.158.233.332.47.52.708 1.49 1.878 4.105 3.96 8.217 3.982 3.61.018 6.497-1.016 8.695-2.751 2.158-1.703 3.537-3.986 4.39-6.34 1.69-4.667 1.477-10.069.607-13.322-1.502-5.653-4.503-10.772-9.935-14.052ZM23.195 42.167l-.001-.002 1.84-.784-1.838.788-.001-.002ZM6.51 34.931c1.519-1.203 1.518-1.204 1.517-1.204l.002.001-1.519 1.203Zm15.496 4.499a15.19 15.19 0 0 1-.68-3.573l.238 1.834.442 1.739Zm3.38-5.222c2.834-1.627 4.402-3.858 5.284-5.866.539-1.226.814-2.354.953-3.176l-2.908-.848c-.078.126-.161.26-.247.404a24.367 24.367 0 0 0-1.997 4.187c-.585 1.625-1.018 3.43-1.084 5.299Zm-4.89-8.173 3.163-2.744-2.518-2.234-3.162 2.744 2.517 2.234Z" fill="#F09926"/>
        <path d="M83.908 14.112c-.98 0-1.867-.215-2.66-.644a4.87 4.87 0 0 1-1.848-1.792c-.448-.765-.672-1.624-.672-2.576s.224-1.806.672-2.562a4.713 4.713 0 0 1 1.862-1.792c.793-.439 1.68-.658 2.66-.658.765 0 1.465.13 2.1.392a4.23 4.23 0 0 1 1.624 1.134l-.91.882c-.737-.775-1.657-1.162-2.758-1.162-.728 0-1.386.163-1.974.49-.588.327-1.05.78-1.386 1.358a3.784 3.784 0 0 0-.49 1.918c0 .71.163 1.353.49 1.932a3.62 3.62 0 0 0 1.386 1.344c.588.327 1.246.49 1.974.49 1.092 0 2.011-.392 2.758-1.176l.91.882a4.343 4.343 0 0 1-1.638 1.148 5.465 5.465 0 0 1-2.1.392Zm8.306-.028c-.737 0-1.4-.163-1.988-.49a3.62 3.62 0 0 1-1.386-1.344c-.326-.579-.49-1.232-.49-1.96s.164-1.377.49-1.946A3.49 3.49 0 0 1 90.226 7c.588-.327 1.251-.49 1.988-.49.738 0 1.396.163 1.974.49a3.397 3.397 0 0 1 1.372 1.344c.336.57.504 1.218.504 1.946s-.168 1.381-.504 1.96a3.519 3.519 0 0 1-1.372 1.344c-.578.327-1.236.49-1.974.49Zm0-1.176c.476 0 .901-.107 1.274-.322a2.37 2.37 0 0 0 .896-.924c.215-.401.322-.859.322-1.372 0-.513-.107-.966-.322-1.358a2.251 2.251 0 0 0-.896-.924 2.51 2.51 0 0 0-1.274-.322c-.476 0-.905.107-1.288.322a2.372 2.372 0 0 0-.896.924c-.214.392-.322.845-.322 1.358 0 .513.108.97.322 1.372.224.392.523.7.896.924.383.215.812.322 1.288.322Zm9.727-2.772c.495.13.877.34 1.148.63.271.29.406.649.406 1.078 0 .439-.149.83-.448 1.176-.299.336-.714.602-1.246.798-.523.187-1.111.28-1.764.28-.55 0-1.092-.07-1.624-.21a5.04 5.04 0 0 1-1.4-.63l.406-1.022c.355.224.76.401 1.218.532.457.121.92.182 1.386.182.635 0 1.139-.107 1.512-.322.383-.224.574-.523.574-.896 0-.345-.154-.611-.462-.798-.299-.187-.723-.28-1.274-.28h-1.358v-.966h1.26c.504 0 .901-.089 1.19-.266.289-.177.434-.42.434-.728 0-.336-.173-.597-.518-.784-.336-.187-.793-.28-1.372-.28-.737 0-1.517.191-2.338.574l-.364-1.036a6.224 6.224 0 0 1 2.842-.686c.597 0 1.134.084 1.61.252.476.168.849.406 1.12.714.271.308.406.658.406 1.05 0 .364-.121.69-.364.98-.243.29-.569.509-.98.658Zm10.653-3.556v6.412c0 1.297-.322 2.254-.966 2.87-.644.625-1.605.938-2.884.938-.7 0-1.367-.098-2.002-.294-.634-.187-1.148-.457-1.54-.812l.644-1.036c.346.299.77.532 1.274.7a4.817 4.817 0 0 0 1.582.266c.868 0 1.508-.205 1.918-.616.42-.41.63-1.036.63-1.876v-.588a3.02 3.02 0 0 1-1.176.868c-.457.187-.956.28-1.498.28a4.15 4.15 0 0 1-1.932-.448 3.467 3.467 0 0 1-1.344-1.274c-.326-.55-.49-1.176-.49-1.876s.164-1.32.49-1.862c.327-.55.775-.975 1.344-1.274a4.151 4.151 0 0 1 1.932-.448c.56 0 1.078.103 1.554.308.486.205.882.509 1.19.91V6.58h1.274Zm-3.864 5.936c.486 0 .92-.103 1.302-.308a2.23 2.23 0 0 0 .91-.854c.224-.373.336-.793.336-1.26 0-.719-.238-1.297-.714-1.736-.476-.448-1.087-.672-1.834-.672-.756 0-1.372.224-1.848.672-.476.439-.714 1.017-.714 1.736 0 .467.108.887.322 1.26.224.364.528.649.91.854.392.205.836.308 1.33.308Zm13.46-5.936V14h-1.288v-1.176c-.299.41-.677.723-1.134.938a3.511 3.511 0 0 1-1.512.322c-.719 0-1.363-.159-1.932-.476a3.477 3.477 0 0 1-1.344-1.33c-.317-.579-.476-1.241-.476-1.988 0-.747.159-1.405.476-1.974a3.477 3.477 0 0 1 1.344-1.33c.569-.317 1.213-.476 1.932-.476.532 0 1.022.103 1.47.308.448.196.821.49 1.12.882V6.58h1.344Zm-3.822 6.328c.467 0 .891-.107 1.274-.322.383-.224.681-.532.896-.924a2.86 2.86 0 0 0 .322-1.372c0-.513-.107-.966-.322-1.358a2.25 2.25 0 0 0-.896-.924 2.559 2.559 0 0 0-1.274-.322c-.476 0-.905.107-1.288.322a2.375 2.375 0 0 0-.896.924c-.215.392-.322.845-.322 1.358 0 .513.107.97.322 1.372.224.392.523.7.896.924.383.215.812.322 1.288.322Zm6.393-6.328h1.344v3.15h4.228V6.58h1.344V14h-1.344v-3.108h-4.228V14h-1.344V6.58Zm12.707 7.504c-.737 0-1.4-.163-1.988-.49a3.62 3.62 0 0 1-1.386-1.344c-.326-.579-.49-1.232-.49-1.96s.164-1.377.49-1.946A3.49 3.49 0 0 1 135.48 7c.588-.327 1.251-.49 1.988-.49.738 0 1.396.163 1.974.49a3.392 3.392 0 0 1 1.372 1.344c.336.57.504 1.218.504 1.946s-.168 1.381-.504 1.96a3.514 3.514 0 0 1-1.372 1.344c-.578.327-1.236.49-1.974.49Zm0-1.176c.476 0 .901-.107 1.274-.322.383-.224.682-.532.896-.924a2.86 2.86 0 0 0 .322-1.372c0-.513-.107-.966-.322-1.358a2.245 2.245 0 0 0-.896-.924 2.508 2.508 0 0 0-1.274-.322c-.476 0-.905.107-1.288.322a2.375 2.375 0 0 0-.896.924c-.214.392-.322.845-.322 1.358 0 .513.108.97.322 1.372.224.392.523.7.896.924.383.215.812.322 1.288.322Zm14.605-2.758c.961.243 1.442.845 1.442 1.806 0 .653-.248 1.157-.742 1.512-.486.355-1.214.532-2.184.532h-3.57V6.58h3.444c.877 0 1.563.168 2.058.504.494.327.742.793.742 1.4 0 .392-.108.733-.322 1.022a1.94 1.94 0 0 1-.868.644Zm-3.738-.378h2.016c.513 0 .9-.093 1.162-.28.27-.187.406-.457.406-.812 0-.71-.523-1.064-1.568-1.064h-2.016v2.156Zm2.156 3.192c.56 0 .98-.089 1.26-.266.28-.177.42-.453.42-.826 0-.383-.131-.667-.392-.854-.252-.187-.654-.28-1.204-.28h-2.24v2.226h2.156Z" fill="#fff"/>
    </g>
    <defs>
        <filter id="a" x="-.379" y="4.088" width="243.351" height="52.912" filterUnits="userSpaceOnUse" color-interpolation-filters="sRGB">
            <feFlood flood-opacity="0" result="BackgroundImageFix"/>
            <feColorMatrix in="SourceAlpha" values="0 0 0 0 0 0 0 0 0 0 0 0 0 0 0 0 0 0 127 0" result="hardAlpha"/>
            <feOffset dy="4"/>
            <feGaussianBlur stdDeviation="2"/>
            <feComposite in2="hardAlpha" operator="out"/>
            <feColorMatrix values="0 0 0 0 0 0 0 0 0 0 0 0 0 0 0 0 0 0 0.25 0"/>
            <feBlend in2="BackgroundImageFix" result="effect1_dropShadow_298_375"/>
            <feBlend in="SourceGraphic" in2="effect1_dropShadow_298_375" result="shape"/>
        </filter>
    </defs>
</svg>
