<svg width="50" height="50" fill="none" xmlns="http://www.w3.org/2000/svg">
    <path d="M25 50c13.807 0 25-11.193 25-25S38.807 0 25 0 0 11.193 0 25s11.193 25 25 25Z" fill="#251B40"/>
    <path d="M32.574 19.895c-1.529-2.253-3.915-3.599-6.897-3.918-4.773-.512-10.44 2.274-10.44 9.479l1.32.014c0-6.956 5.53-8.496 8.886-8.114 9.097 1.038 7.966 11.862 5.762 13.21-3.53 2.159-4.431-2.008-4.431-2.008H25.48s-.491 2.802-2.986 2.375c-1.632-.279-2.099-2.017-2.225-2.63 3.636-1.94 3.49-6.25 3.49-6.25l-3.155-.96s-2.061 3.314-1.929 6.423c-3.165.925-5.348-1.3-5.356-1.309l-.968.898c.038.041 2.656 2.97 6.591 1.714.15.603.86 3.062 3.314 3.482 2.128.365 3.366-.876 3.778-1.52.554.92 1.613 1.696 3.161 1.767.044.002.087 0 .131.003 2.098.096 4.518-1.739 4.906-5.744.24-2.486-.364-5.005-1.659-6.912Zm-11.298 2.819 1.06.315c-.072.492-.28 2.52-2.227 3.776.088-1.787.768-3.294 1.167-4.091Z" fill="#EC9A29"/>
    <path d="m18.608 21.471-1.119 1.1.86.874 1.119-1.1-.86-.874Z" fill="#EC9A29"/>
    <path d="M6.998 33a.257.257 0 0 1-.03-.203.258.258 0 0 1 .122-.164l3.454-2.078a.256.256 0 0 1 .203-.029.26.26 0 0 1 .165.12c.037.063.046.13.028.2a.26.26 0 0 1-.123.163l-3.292 1.98 1.142 1.9a.226.226 0 0 1 .027.175.223.223 0 0 1-.106.142.216.216 0 0 1-.17.024.224.224 0 0 1-.143-.107L6.998 33ZM9.198 36.392a.254.254 0 0 1-.052-.195.25.25 0 0 1 .102-.172l3.218-2.448a.253.253 0 0 1 .194-.052c.07.01.128.043.172.102a.254.254 0 0 1 .052.194.25.25 0 0 1-.101.172l-3.218 2.448a.253.253 0 0 1-.194.052.252.252 0 0 1-.173-.102ZM13.302 34.964a.224.224 0 0 1 .13-.395.218.218 0 0 1 .164.053l1.196 1.028 1.196 1.028c.05.042.076.095.081.158a.217.217 0 0 1-.052.163.213.213 0 0 1-.156.079.23.23 0 0 1-.167-.059l-.992-.853-2.513 2.923a.247.247 0 0 1-.18.089.262.262 0 0 1-.194-.066.252.252 0 0 1-.09-.178.254.254 0 0 1 .062-.19L14.3 35.82l-.998-.857ZM16.55 37.614a.221.221 0 0 1-.126-.114.214.214 0 0 1-.008-.175c.021-.057.06-.099.117-.126a.216.216 0 0 1 .171-.009l1.482.54 1.482.538a.225.225 0 0 1 .132.119c.027.057.03.114.009.172a.212.212 0 0 1-.118.128.23.23 0 0 1-.177.004l-1.23-.448-1.317 3.623a.247.247 0 0 1-.138.147.263.263 0 0 1-.203.007.253.253 0 0 1-.149-.135.251.251 0 0 1-.008-.2l1.317-3.623-1.235-.448ZM20.304 42.832a.256.256 0 0 1-.175-.106.257.257 0 0 1-.052-.198l.584-3.988a.257.257 0 0 1 .106-.176.257.257 0 0 1 .198-.05c.072.01.13.045.172.105.043.06.058.125.048.198l-.556 3.801 2.192.322c.065.009.115.04.154.09.037.05.051.108.042.172a.216.216 0 0 1-.09.147.222.222 0 0 1-.171.042l-2.452-.36ZM24.521 43.27a.26.26 0 0 1-.197-.055.256.256 0 0 1-.103-.177L24 41.323l-.059-.453-.236-1.83a.257.257 0 0 1 .055-.197.256.256 0 0 1 .177-.103l2.458-.317a.224.224 0 0 1 .172.046c.05.038.079.09.087.154a.217.217 0 0 1-.046.166.224.224 0 0 1-.155.088l-2.198.283.212 1.643 1.933-.25a.224.224 0 0 1 .171.046c.05.038.08.088.086.148a.224.224 0 0 1-.045.172.224.224 0 0 1-.155.088l-1.932.249.197 1.528 2.198-.283a.224.224 0 0 1 .171.045c.05.04.08.09.088.155a.217.217 0 0 1-.046.165.225.225 0 0 1-.155.088l-2.457.316ZM30.084 38.745a.253.253 0 0 1-.087-.218.246.246 0 0 1 .125-.198.258.258 0 0 1 .312.03l2.616 2.413-.937-3.353a.354.354 0 0 1 .16-.404.368.368 0 0 1 .223-.055c.08.006.15.038.21.097l2.562 2.359-.959-3.425a.293.293 0 0 1 .012-.168.251.251 0 0 1 .108-.126.248.248 0 0 1 .23-.02c.082.032.134.09.158.176l1.103 3.978a.348.348 0 0 1-.154.401.356.356 0 0 1-.432-.042L32.77 37.83l.937 3.353a.357.357 0 0 1-.16.405.357.357 0 0 1-.433-.043l-3.03-2.8ZM38.719 37.874a.256.256 0 0 1-.183.092.258.258 0 0 1-.195-.063l-1.312-1.126-.347-.298-1.4-1.201a.258.258 0 0 1-.092-.183.258.258 0 0 1 .063-.195l1.614-1.88a.224.224 0 0 1 .158-.082.223.223 0 0 1 .168.057c.046.04.071.09.077.154a.225.225 0 0 1-.057.168l-1.443 1.682 1.256 1.078 1.269-1.478a.225.225 0 0 1 .158-.081.215.215 0 0 1 .163.052c.05.042.077.095.081.158a.224.224 0 0 1-.056.168l-1.269 1.479 1.169 1.003 1.444-1.682a.225.225 0 0 1 .157-.081.223.223 0 0 1 .168.056c.047.04.072.092.077.154a.224.224 0 0 1-.056.169l-1.612 1.88ZM41.703 34.349a.258.258 0 0 1-.164.123.257.257 0 0 1-.202-.028l-3.478-2.037a.258.258 0 0 1-.123-.163.257.257 0 0 1 .027-.203l.859-1.465c.082-.14.185-.256.31-.349a1.188 1.188 0 0 1 .857-.224c.154.02.3.07.44.152.158.093.284.209.379.35.094.14.157.291.188.455a1.31 1.31 0 0 1 1.348-.001 1.332 1.332 0 0 1 .477 1.824l-.918 1.566Zm-1.742-3.736a.68.68 0 0 0-.268-.09.738.738 0 0 0-.717.352l-.687 1.171 1.245.73.687-1.172a.685.685 0 0 0 .092-.273.737.737 0 0 0-.352-.718Zm-.033 2.393 1.513.886.745-1.271a.886.886 0 0 0-.31-1.205.888.888 0 0 0-.67-.092.888.888 0 0 0-.534.411l-.744 1.271ZM6.621 19.723c.055-.264.145-.602.305-1.016.197-.508.459-.834.763-.987.274-.146.613-.163.967-.026.36.14.602.355.731.636.184.384.16.883-.034 1.385-.06.153-.12.293-.196.4l1.594.617-.199.514-3.93-1.523Zm2.118.23c.072-.1.14-.238.205-.41.24-.619.086-1.114-.463-1.326-.525-.203-.924.07-1.143.637a2.283 2.283 0 0 0-.146.5l1.547.599ZM10.875 17.228l.8 1.165-.345.453-2.518-3.736.403-.53 4.277 1.425-.357.468-1.344-.45-.916 1.205Zm.504-1.374-1.23-.411c-.279-.093-.518-.196-.753-.295l-.008.01c.163.204.327.417.484.64l.73 1.08.777-1.024ZM11.438 12.414c.085-.337.269-.688.608-1.003.543-.503 1.181-.568 1.629-.085.357.385.35.935.06 1.36l.008.008c.484-.362 1.071-.371 1.488.08.602.65.281 1.43-.29 1.96-.282.262-.636.477-1.006.552l-.186-.415a2.07 2.07 0 0 0 .878-.46c.464-.43.487-.917.17-1.26-.435-.469-1.01-.187-1.41.184l-.186.172-.283-.307.185-.172c.413-.383.497-.935.2-1.255-.292-.316-.678-.286-1.017.029-.237.219-.393.544-.461.806l-.386-.194ZM14.654 9.49c.209-.17.492-.377.876-.597.472-.27.881-.359 1.215-.287.303.06.579.26.767.588.192.335.244.656.168.955-.098.414-.432.787-.898 1.055a1.918 1.918 0 0 1-.404.187l.85 1.483-.478.274-2.096-3.658Zm1.5 1.51a1.84 1.84 0 0 0 .419-.187c.576-.33.767-.812.474-1.323-.28-.49-.762-.527-1.288-.225-.209.12-.359.227-.429.297L16.155 11ZM19.374 10.473l-.013 1.413-.543.174.08-4.505.634-.203 2.687 3.62-.56.179-.843-1.14-1.442.463Zm1.2-.836-.771-1.042c-.175-.236-.313-.459-.448-.674l-.013.004c.017.26.03.528.03.801l-.02 1.303 1.223-.392ZM25.404 6.728v.462l-1.841.005.002 1.145c.133-.02.386-.032.526-.033.405-.001.803.087 1.102.282.323.208.545.543.546 1.043.002.399-.13.703-.352.925-.347.343-.922.477-1.505.479-.386 0-.677-.024-.86-.049l-.011-4.254 2.393-.005Zm-1.832 3.847c.126.025.272.031.462.03.342 0 .69-.109.898-.33a.874.874 0 0 0 .233-.628c-.001-.33-.141-.55-.35-.696-.222-.15-.508-.213-.811-.213-.127 0-.298.014-.437.027l.005 1.81ZM30.462 9.31c-.274 1.443-1.297 2.042-2.366 1.839-1.107-.21-1.721-1.216-1.48-2.485.252-1.33 1.244-2.044 2.364-1.831 1.144.217 1.718 1.234 1.482 2.478Zm-3.265-.548c-.17.895.163 1.79 1.015 1.951.858.163 1.492-.535 1.674-1.486.158-.833-.112-1.787-1.014-1.958-.896-.17-1.5.572-1.675 1.493ZM32.66 8.817l-1.111-.67.242-.401 2.703 1.632-.242.4-1.116-.673-1.963 3.25-.477-.287 1.963-3.251ZM34.227 12.341l-1.195.756-.44-.362 3.829-2.375.514.422-1.585 4.22-.455-.373.5-1.326-1.168-.962Zm1.354.557.457-1.214c.104-.275.216-.51.323-.742l-.01-.008c-.21.156-.428.312-.656.46l-1.106.688.992.816ZM39.588 13.35l-1.406 1.1 1.271 1.625 1.406-1.1.343.44-3.36 2.627-.344-.439 1.576-1.232-1.271-1.625-1.575 1.232-.34-.434 3.361-2.628.339.434ZM42.244 21.115c-1.255.763-2.384.406-2.95-.525-.585-.962-.25-2.092.853-2.763 1.157-.704 2.352-.446 2.944.528.605.995.234 2.102-.847 2.76Zm-1.78-2.792c-.78.474-1.22 1.32-.77 2.061.454.747 1.398.75 2.225.247.725-.44 1.251-1.28.774-2.064-.473-.779-1.43-.73-2.23-.244Z" fill="#fff"/>
    <path d="M7.805 26.606a.844.844 0 1 0 0-1.688.844.844 0 0 0 0 1.688ZM41.96 26.606a.844.844 0 1 0 0-1.688.844.844 0 0 0 0 1.688Z" fill="#EC9A29"/>
</svg>
