<svg width="250" height="188" fill="none" xmlns="http://www.w3.org/2000/svg">
    <path d="M226.565 0H23.435C10.492 0 0 10.492 0 23.435v140.61c0 12.943 10.492 23.435 23.435 23.435h203.13c12.943 0 23.435-10.492 23.435-23.435V23.435C250 10.492 239.508 0 226.565 0Zm15.623 160.572-73.894-73.894 73.894-47.087v120.981ZM23.435 7.812h203.13c8.615 0 15.623 7.008 15.623 15.623v6.9L134.639 98.87a17.208 17.208 0 0 1-18.942-.275L7.812 25.27v-1.834c0-8.615 7.009-15.623 15.623-15.623ZM7.812 34.704l74.936 50.932-74.936 74.936V34.704Zm218.753 144.964H23.435c-6.434 0-11.967-3.914-14.358-9.483l80.147-80.147 22.087 15.011a24.97 24.97 0 0 0 14.059 4.329c4.669 0 9.345-1.304 13.461-3.925l22.819-14.54 79.273 79.272c-2.391 5.569-7.923 9.483-14.358 9.483Z" fill="#488A99"/>
</svg>
