<svg width="116" height="66" fill="none" xmlns="http://www.w3.org/2000/svg">
    <path d="M11.506 58.47c.002-3.16 0-6.32.005-9.48 0-.302.008-.61.075-.902.179-.785.894-1.299 1.829-1.316 1.005-.018 2.01-.01 3.015-.009 2.046 0 4.092-.003 6.139.007 1.03.005 1.736.482 1.94 1.313.067.266.078.551.078.828.005 3.402.004 6.804.003 10.207 0 .566-.14.705-.712.706-.944.002-1.889.002-2.834 0-.515-.001-.67-.154-.67-.674-.002-2.688.001-8.136.001-8.172.004-.962-.13-1.098-1.08-1.098h-2.652c-.717 0-.916.181-.918.894-.008 2.712-.005 5.424-.005 8.136 0 .145.003.292-.006.436-.02.303-.197.472-.492.474-1.065.009-2.13.006-3.197.003a.473.473 0 0 1-.46-.282c-.07-.138-.058-.938-.058-1.071h-.001ZM26.374 62.998a.736.736 0 0 1-.383-.102c-.2-.123-.274-.313-.273-.61.011-3.463.005-6.926.007-10.389 0-1.282.593-1.924 1.866-1.945 1.683-.027 3.366-.014 5.049-.006.687.004 1.348.156 1.948.502.905.523 1.369 1.36 1.553 2.347.29 1.554.245 3.11-.173 4.64-.355 1.302-1.23 2.084-2.553 2.26-.918.123-3.583.13-4.043.13v.52c0 .653.002 1.173 0 1.827-.001.553-.25.821-.796.825-.507.003-1.756.002-2.2 0h-.002Zm3.017-6.246a.433.433 0 0 0 .43.423c.416.014.977.008 1.374 0 .817-.017 1.23-.457 1.311-1.26a10.51 10.51 0 0 0-.023-2.201c-.082-.726-.593-1.11-1.33-1.138-.375-.014-.75-.008-1.125-.005-.511.003-.652.135-.654.643a265 265 0 0 0 .017 3.538ZM48.25 53.023c-.364-1.806-1.275-2.736-3.068-3.027a14.95 14.95 0 0 0-5.167.043c-1.45.272-2.375 1.146-2.743 2.574a8.98 8.98 0 0 0-.012 4.491c.363 1.442 1.275 2.35 2.75 2.602.89.152 4.089.194 4.773.12 1.936-.21 3.035-1.136 3.432-2.908a9.296 9.296 0 0 0 .034-3.894Zm-3.487 2.637c0 .94-.763 1.703-1.704 1.703h-.7c-.94 0-1.702-.762-1.702-1.703v-1.666c0-.94.762-1.703 1.703-1.703h.663c.96 0 1.74.779 1.74 1.74v1.63-.001ZM52.428 59.778c-1.924-.158-2.99-1.214-3.221-3.127-.15-1.242-.149-2.49.064-3.729.297-1.733 1.478-2.866 3.234-2.938 1.826-.076 3.656-.041 5.485-.045.36 0 .517.176.526.552.01.448.009.897.001 1.345-.007.424-.173.584-.605.586-.994.004-1.987-.002-2.98.003-1.32.006-1.946.556-2.048 1.88a7.67 7.67 0 0 0 .063 1.769c.13.82.624 1.217 1.46 1.236 1.125.026 2.252.018 3.378.02.889.003.934.046.934.95 0 .314.003.63 0 .944-.006.434-.16.596-.59.599-.908.005-4.717.036-5.703-.045h.002ZM59.647 55.398c0-1.186-.006-2.373.002-3.56.008-1.205.616-1.866 1.82-1.88 2.324-.03 4.65-.03 6.974 0 1.225.014 1.829.673 1.832 1.904.007 2.434.004 4.868.003 7.302 0 .519-.148.66-.677.661-.751.003-1.502.002-2.252 0-.574-.001-.711-.138-.712-.701v-5.886c0-.66-.15-.81-.813-.814a114.6 114.6 0 0 0-1.817.001c-.54.006-.718.183-.719.725-.002 1.974 0 3.949 0 5.922 0 .637-.12.753-.77.753-.739 0-1.477.003-2.216-.001-.5-.002-.653-.152-.654-.647-.002-1.26 0-2.519 0-3.779h-.001ZM80.22 55.898c.907-.004 1.44-.407 1.526-1.308a8.968 8.968 0 0 0-.062-2.237c-.25-1.566-.904-2.225-2.456-2.408-1.806-.212-3.63-.23-5.432.055-1.672.263-2.41.98-2.52 2.644a30.273 30.273 0 0 0 .06 4.676c.142 1.589 1.037 2.392 2.64 2.445 2.323.077 4.648.048 6.972.056.334.001.507-.198.509-.534v-1.27c-.001-.745-.09-.835-.832-.836-1.538-.003-3.076.006-4.614-.013-.807-.01-1.189-.432-1.149-1.266.167 0 3.722.003 5.356-.003h.001Zm-4.44-3.545a14.307 14.307 0 0 1 1.52.01c.175.007.359.066.517.146.276.138.405.374.332.69-.07.302-.351.385-.626.386-.893.005-1.737 0-2.649 0-.123-.816.154-1.184.907-1.232ZM86.383 50.618c0-.525-.148-.68-.66-.682-.786-.003-1.573-.003-2.36.001-.478.003-.633.15-.634.634-.003 2.88-.003 5.76 0 8.642.001.446.172.607.624.61.774.005 1.549.003 2.323.002.56-.001.707-.15.707-.71v-8.497ZM93.713 59.51c-.573-.746-2.175-2.827-2.991-3.824-.661-.808-.666-1.046-.052-1.875.065-.087 2.199-2.882 2.712-3.563a.173.173 0 0 0-.135-.277c-.713-.015-2.37-.044-3.165-.018a.923.923 0 0 0-.634.331c-.834 1.159-1.628 2.347-2.446 3.518-.462.662-.442 1.283.044 1.934.912 1.222 1.796 2.465 2.692 3.7.2.276.46.399.808.394l3.031-.04a.174.174 0 0 0 .136-.28ZM104.493 50.584c-.004-.499-.161-.646-.705-.647l-2.822-.001v-.001c-.274 0-4.503 0-6.344.003-.504 0-.65.148-.653.646-.003.472-.003.945.001 1.416.004.334.172.522.513.527.448.005 2.377.003 2.928.003v.44c0 2.047 0 4.092.002 6.139 0 .596.129.717.731.717h2.144c.651 0 .768-.114.768-.755v-6.54c.798 0 2.457.002 2.881-.004.368-.004.549-.192.553-.526.006-.472.005-.944.002-1.416l.001-.001Z" fill="#4D585B"/>
    <path d="m50.854 4.024-9.976 3.94v36.55c0 .335.271.606.605.606h8.766a.606.606 0 0 0 .605-.607V5.695l7.373 2.374v36.61a.5.5 0 0 0 .5.502h.602c.276 0 .5-.225.5-.502V6.96l-8.975-2.936Z" fill="#B4B4B4"/>
    <path d="M32.17 18.704V45.18h12.594V21.77l-11.5-3.72-1.093.653Z" fill="#fff"/>
    <path d="m33.502 17.232-7.072 2.94v24.452c0 .307.246.557.55.557h6.084c.305 0 .552-.25.55-.56l-.105-25.669 10.212 3.449v22.291c0 .27.217.488.486.488h.74a.487.487 0 0 0 .485-.488V21.31l-11.93-4.077Z" fill="#488A99"/>
    <path d="M46.504 26.73v18.45h5.568V28.925l-5.568-2.194Z" fill="#fff"/>
    <path d="m46.853 25.142-9.527 2.778v16.842c0 .23.187.419.417.419h8.693c.23 0 .417-.188.417-.42V27.155l4.437 1.758V44.71c0 .26.21.47.467.47h.653a.47.47 0 0 0 .467-.47V27.855l-6.024-2.713Z" fill="#DBAE58"/>
    <path d="m72.328 12.019-8.684 2.951v29.728c0 .267.251.483.56.483h1.39l.001-.013 5.31-.014v.027h.864c.31 0 .56-.216.56-.483V13.772l7.252 2.35.113 28.66c0 .22.207.398.462.398h.557c.255 0 .463-.178.463-.398V14.957l-8.847-2.938Z" fill="#488A99"/>
    <path d="m65.878 33.465 5.025 1.923v9.793l-5.699-.001.674-11.715Z" fill="#fff"/>
    <path d="m65.876 33.465-4.163 1.653v9.83c0 .129.129.232.287.232h3.59c.157 0 .286-.104.286-.231l-.01-10.485" fill="#DBAE58"/>
    <path d="m82.669 26.307-6.759 2.74v15.748c0 .214.18.386.403.386h5.954a.394.394 0 0 0 .402-.386V28.1l6.791 2.222v14.427c0 .239.202.433.553.433h.557c.148 0 .451-.194.451-.433l.02-15.58-8.372-2.861Z" fill="#B4B4B4"/>
    <path d="m40.878 9.895 2.378-.971v2.421l-2.378.943V9.895ZM40.878 14.607l2.378-.971v2.422L40.878 17v-2.393ZM29.09 23.12l-2.661 1v-2.393l2.66-1.087v2.48ZM37.325 32.355l2.567-.898v2.29l-2.567.9v-2.291Z" fill="#fff"/>
    <path d="M77.331 17.058v1.987l2.322.74v-2.002l-2.322-.725ZM77.331 20.683v1.987l2.322.74v-2.002l-2.322-.725Z" fill="#488A99"/>
    <path d="M87.144 31.08v2.599l2.376.663v-2.566l-2.376-.696Z" fill="#B4B4B4"/>
</svg>
