<svg width="440" height="340" fill="none" xmlns="http://www.w3.org/2000/svg">
    <path fill-rule="evenodd" clip-rule="evenodd" d="M440 0H0v340h440V0ZM97.636 82.81C114.307 62.388 132 41.795 156.522 28.46c46.455-25.27 157.131 12.137 191.038 33.116 25.348 15.691 47.825 35.709 60.664 60.201 23.302 44.441 10.597 99.497-25.561 137.034-36.157 37.536-92.714 58.17-149.287 60.925-19.613.961-40.398-.352-56.824-9.613-10.339-5.826-18.011-14.249-25.702-22.69-6.775-7.438-13.564-14.89-22.202-20.594-13.058-8.623-29.789-12.997-46.236-17.298-23.427-6.126-46.279-12.101-57.122-29.986-14.798-24.404 4.264-53.29 22.641-75.818l34.875-42.748 14.83-18.177Z" fill="#000"/>
</svg>
