<svg width="86" height="44" fill="none" xmlns="http://www.w3.org/2000/svg">
    <path d="M32.265 0 19.09 4.164v38.693c0 .353.359.513.798.513h11.595c.44 0 .782-.16.782-.513V1.764l9.736 2.509v38.693c0 .295.296.532.663.532h.798c.367 0 .662-.237.662-.532V3.106L32.265 0Z" fill="#B4B4B4"/>
    <path d="M8.557 15.837v27.719H24l1.186-24.466-15.186-3.946-1.444.693Z" fill="#EDF0F5"/>
    <path d="M9.345 14.025 0 17.13v25.862c0 .327.327.59.726.59h8.036c.4 0 .727-.263.727-.59l-.136-27.145L22.84 19.49v23.571c0 .282.35.244.702.244h.878c.35 0 .67.038.67-.244V18.336L9.345 14.025Z" fill="#488A99"/>
    <path d="M26.518 24.11v19.472h7.357V26.426l-7.357-2.316Z" fill="#EDF0F5"/>
    <path d="m26.981 22.423-12.585 2.932v17.784c0 .244.248.443.551.443h11.484c.303 0 .55-.199.55-.443V24.553l5.858 1.854v16.68c0 .277.28.495.614.495h.862c.343 0 .615-.225.615-.494V25.29l-7.949-2.868Z" fill="#DBAE58"/>
    <path d="m60.626 8.488-11.468 3.125v31.456c0 .282.327.449.742.449h9.992c.407 0 .742-.167.742-.45V10.343l9.576 2.49.152 30.327c0 .23.271.23.614.23h.734c.336 0 .615.007.615-.23v-31.56l-11.7-3.111Z" fill="#488A99"/>
    <path d="m52.55 31.334 6.64 2.034V43.5H52l.55-12.166Z" fill="#EDF0F5"/>
    <path d="m52.55 31.334-5.5 1.739v10.342c0 .135.076.085.283.085h4.74c.208 0 .468.05.468-.085l-.016-11.029" fill="#DBAE58"/>
    <path d="m74.287 23.661-8.93 2.894v16.623c0 .224.24.41.535.41h7.869c.295 0 .534-.18.534-.41V25.554l8.97 2.348v15.224c0 .25.263.456.726.456h.735c.2 0 .598-.205.598-.456l.024-16.443-11.06-3.022Z" fill="#B4B4B4"/>
</svg>
