<svg width="150" height="85" fill="none" xmlns="http://www.w3.org/2000/svg">
    <path d="M14.878 75.608c.003-4.087 0-8.173.006-12.26 0-.389.011-.789.097-1.165.232-1.015 1.156-1.68 2.366-1.702 1.299-.023 2.599-.012 3.898-.012 2.646 0 5.292-.003 7.938.01 1.332.005 2.245.623 2.51 1.697.086.344.1.713.1 1.07.007 4.4.005 8.8.005 13.2 0 .732-.182.911-.922.913-1.22.002-2.442.002-3.664 0-.667-.002-.867-.2-.867-.871-.002-3.476.002-10.522.002-10.569.004-1.242-.17-1.419-1.397-1.419h-3.43c-.926 0-1.184.234-1.187 1.156-.009 3.507-.005 7.014-.006 10.521 0 .188.005.377-.008.564-.026.392-.254.61-.636.613-1.377.01-2.755.008-4.133.003a.611.611 0 0 1-.595-.364c-.09-.179-.076-1.212-.075-1.385h-.002ZM34.103 81.463a.952.952 0 0 1-.494-.132c-.26-.158-.356-.405-.354-.79.015-4.477.006-8.955.01-13.432 0-1.659.766-2.489 2.413-2.516 2.175-.035 4.352-.018 6.528-.007.889.005 1.743.2 2.52.65 1.169.675 1.769 1.757 2.007 3.034.375 2.01.316 4.02-.223 6-.46 1.683-1.592 2.694-3.301 2.922-1.188.159-4.635.167-5.228.167v.672c0 .846.002 1.518 0 2.364-.003.714-.325 1.062-1.03 1.067a435.3 435.3 0 0 1-2.846 0h-.002Zm3.902-8.076a.56.56 0 0 0 .555.546c.539.018 1.264.01 1.778 0 1.056-.022 1.59-.59 1.695-1.629.095-.94.074-1.907-.03-2.846-.106-.938-.767-1.434-1.72-1.471-.484-.019-.97-.01-1.455-.007-.66.004-.843.175-.846.831-.005 1.223.009 3.52.023 4.576ZM62.391 68.565c-.47-2.336-1.648-3.538-3.966-3.914-2.22-.36-4.461-.36-6.682.055-1.876.352-3.07 1.481-3.547 3.328-.498 1.93-.501 3.875-.015 5.807.47 1.865 1.649 3.04 3.556 3.365 1.152.196 5.287.251 6.172.155 2.504-.272 3.925-1.468 4.437-3.76a12.02 12.02 0 0 0 .045-5.035v-.001Zm-4.509 3.41a2.202 2.202 0 0 1-2.202 2.202h-.905a2.202 2.202 0 0 1-2.202-2.203V69.82c0-1.216.986-2.202 2.202-2.202h.858a2.25 2.25 0 0 1 2.25 2.25v2.107ZM67.793 77.3c-2.487-.205-3.865-1.571-4.165-4.045-.194-1.606-.192-3.218.083-4.82.385-2.243 1.911-3.707 4.182-3.8 2.361-.098 4.728-.054 7.093-.059.466 0 .669.229.68.715.013.578.011 1.159.001 1.738-.009.549-.223.755-.782.758-1.285.005-2.57-.002-3.853.003-1.707.008-2.516.72-2.648 2.432a9.919 9.919 0 0 0 .081 2.287c.167 1.061.807 1.574 1.887 1.599 1.455.033 2.912.023 4.368.026 1.15.003 1.21.06 1.21 1.228 0 .407.003.814-.003 1.222-.007.56-.206.77-.762.773-1.174.007-6.098.047-7.373-.058h.001ZM77.129 71.636c0-1.534-.008-3.07.003-4.604.01-1.558.796-2.413 2.352-2.432 3.006-.037 6.013-.037 9.02 0 1.583.02 2.364.871 2.368 2.463.01 3.147.006 6.295.004 9.443 0 .67-.191.853-.875.854-.972.003-1.943.003-2.913 0-.741-.001-.919-.178-.92-.907v-7.61c0-.855-.193-1.048-1.051-1.053-.783-.004-1.566-.007-2.35.001-.7.008-.928.237-.929.938-.004 2.552 0 5.106-.001 7.658 0 .823-.154.972-.995.973-.956 0-1.91.003-2.866-.001-.647-.003-.844-.197-.845-.837-.003-1.629 0-3.257 0-4.886h-.002ZM103.731 72.282c1.173-.005 1.864-.526 1.975-1.691a11.57 11.57 0 0 0-.081-2.892c-.323-2.026-1.169-2.878-3.175-3.115-2.336-.275-4.694-.296-7.025.07-2.161.341-3.117 1.268-3.258 3.42a39.154 39.154 0 0 0 .076 6.046c.184 2.055 1.343 3.094 3.415 3.163 3.004.1 6.01.062 9.016.072.431.001.655-.256.657-.69.002-.548.002-1.096.001-1.644-.002-.962-.117-1.079-1.077-1.08-1.988-.004-3.977.007-5.965-.017-1.044-.012-1.538-.558-1.486-1.636.215 0 4.812.004 6.925-.004l.002-.002Zm-5.74-4.584c.653-.04 1.311-.016 1.965.012.227.01.464.087.669.19.357.178.523.484.429.891-.09.391-.454.499-.81.5-1.154.006-2.245 0-3.425 0-.158-1.056.199-1.53 1.174-1.593h-.001ZM111.701 65.455c0-.68-.19-.88-.852-.882a284.868 284.868 0 0 0-3.052.001c-.619.004-.819.195-.82.819-.005 3.725-.005 7.45.001 11.175.001.577.222.786.805.789 1.002.006 2.003.004 3.005.002.723 0 .914-.193.914-.918v-5.493c0-1.832.001-3.663-.001-5.494ZM121.18 76.953c-.741-.965-2.813-3.656-3.867-4.945-.855-1.045-.861-1.352-.068-2.424.084-.114 2.843-3.728 3.507-4.607a.224.224 0 0 0-.175-.359c-.922-.02-3.064-.058-4.092-.023-.283.009-.655.2-.819.428-1.079 1.498-2.107 3.034-3.164 4.548-.597.856-.572 1.66.057 2.502 1.179 1.58 2.323 3.187 3.481 4.784.258.356.594.516 1.044.51l3.921-.053a.225.225 0 0 0 .175-.36ZM135.12 65.41c-.005-.644-.207-.835-.911-.836l-3.65-.001v-.002c-.354 0-5.823 0-8.203.004-.652 0-.84.191-.844.836-.004.61-.005 1.221.001 1.831.005.431.223.674.664.68.579.008 3.073.005 3.786.005v.569c0 2.646-.001 5.291.002 7.938.001.77.166.927.946.928h2.771c.842 0 .994-.148.994-.977v-8.457c1.032 0 3.177.002 3.726-.005.475-.005.71-.249.715-.68.007-.61.006-1.221.002-1.831l.001-.002Z" fill="#fff"/>
    <path d="m65.76 5.204-12.9 5.094V57.56c0 .434.35.785.782.785h11.335a.784.784 0 0 0 .782-.785V7.364l9.535 3.07v47.34c0 .36.29.65.647.65h.778c.357 0 .647-.291.647-.65V9L65.759 5.204Z" fill="#B4B4B4"/>
    <path d="M41.6 24.186v34.237h16.284V28.151l-14.87-4.809-1.414.844Z" fill="#fff"/>
    <path d="m43.32 22.283-9.144 3.8v31.62c0 .398.319.72.712.72h7.867a.716.716 0 0 0 .711-.723l-.136-33.193 13.205 4.46V57.79a.63.63 0 0 0 .628.632h.957a.63.63 0 0 0 .628-.632V27.555L43.32 22.283Z" fill="#488A99"/>
    <path d="M60.135 34.564v23.86h7.2V37.401l-7.2-2.838Z" fill="#fff"/>
    <path d="m60.584 32.511-12.318 3.593v21.777c0 .3.241.542.539.542h11.24a.54.54 0 0 0 .54-.542V35.113l5.737 2.273v20.429c0 .336.271.608.605.608h.843a.607.607 0 0 0 .605-.608V36.019l-7.79-3.508Z" fill="#DBAE58"/>
    <path d="m93.528 15.541-11.23 3.817v38.441c0 .345.325.624.725.624h1.797l.002-.016 6.864-.018v.034h1.12c.4 0 .723-.28.723-.624V17.81l9.377 3.04.146 37.058c0 .285.268.516.598.516h.72c.33 0 .598-.232.598-.516V19.34l-11.439-3.8h-.001Z" fill="#488A99"/>
    <path d="m85.187 43.273 6.497 2.488v12.662l-7.369-.001.872-15.149Z" fill="#fff"/>
    <path d="M85.183 43.273 79.8 45.412v12.711c0 .166.166.3.37.3h4.642c.205 0 .371-.135.371-.3l-.012-13.558" fill="#DBAE58"/>
    <path d="m106.899 34.017-8.74 3.544v20.364c0 .276.233.5.52.5h7.7a.51.51 0 0 0 .52-.5v-21.59l8.782 2.873v18.655c0 .31.261.56.714.56h.72c.193 0 .584-.25.584-.56l.026-20.145-10.826-3.7Z" fill="#B4B4B4"/>
    <path d="M99.997 22.058v2.569l3.003.956v-2.588l-3.003-.937ZM99.997 26.745v2.57l3.003.955v-2.587l-3.003-.938Z" fill="#488A99"/>
    <path d="M112.687 40.19v3.36l3.073.858v-3.319l-3.073-.9Z" fill="#B4B4B4"/>
</svg>
