<svg width="65" height="44" fill="none" xmlns="http://www.w3.org/2000/svg" aria-hidden="true">
    <path d="m24.199 0-9.882 4.164v38.693c0 .353.27.513.599.513h8.696c.33 0 .587-.16.587-.513V1.764l7.302 2.509v38.693c0 .295.221.532.497.532h.598c.276 0 .497-.237.497-.532V3.106L24.199 0Z" fill="#B4B4B4"/>
    <path d="M6.417 15.837v27.719H18l.89-24.466L7.5 15.144l-1.083.693Z" fill="#EDF0F5"/>
    <path d="M7.009 14.025 0 17.13v25.862c0 .327.245.59.545.59h6.027c.299 0 .544-.263.544-.59l-.101-27.145L17.13 19.49v23.571c0 .282.263.244.526.244h.659c.263 0 .502.038.502-.244V18.336L7.01 14.025Z" fill="#488A99"/>
    <path d="M19.888 24.11v19.472h5.518V26.426l-5.518-2.316Z" fill="#EDF0F5"/>
    <path d="m20.236 22.423-9.44 2.932v17.784c0 .244.186.443.414.443h8.613c.227 0 .413-.199.413-.443V24.553l4.393 1.854v16.68c0 .277.21.495.46.495h.647c.257 0 .46-.225.46-.494V25.29l-5.96-2.868Z" fill="#DBAE58"/>
    <path d="m45.47 8.488-8.6 3.125v31.456c0 .282.245.449.556.449h7.493c.306 0 .557-.167.557-.45V10.343l7.182 2.49.114 30.327c0 .23.203.23.46.23h.551c.252 0 .461.007.461-.23v-31.56L45.47 8.489Z" fill="#488A99"/>
    <path d="m39.412 31.334 4.98 2.034V43.5H39l.412-12.166Z" fill="#EDF0F5"/>
    <path d="m39.412 31.334-4.124 1.739v10.342c0 .135.056.085.212.085h3.555c.156 0 .35.05.35-.085l-.011-11.029" fill="#DBAE58"/>
    <path d="m55.716 23.661-6.697 2.894v16.623c0 .224.18.41.4.41h5.902c.221 0 .401-.18.401-.41V25.554l6.727 2.348v15.224c0 .25.198.456.545.456h.55c.15 0 .45-.205.45-.456l.017-16.443-8.295-3.022Z" fill="#B4B4B4"/>
</svg>
