<svg width="200" height="153" fill="none" xmlns="http://www.w3.org/2000/svg">
    <path d="m180.471.196-80.51.196L19.45 0h-.04C8.589 0 0 10.157 0 22.863v106.431C0 142 8.588 152.157 19.412 152.157h161.176C191.412 152.157 200 142 200 129.294V22.863C200 10.157 191.49.196 180.471.196Zm-6.314 15.686-71.922 65.765-.274.235-.236.275c-.862.941-1.882 1.059-2.43 1.059a3.092 3.092 0 0 1-2.393-1.138l-.235-.274-68.745-66.235 72.039.47 74.196-.157Zm6.431 120.589H19.412c-1.373 0-3.726-2.589-3.726-7.177V25.372l69.647 67.295a18.916 18.916 0 0 0 13.804 6.274h.236c5.215 0 10.078-2.157 13.647-5.921l71.372-65.334v101.608c-.078 4.588-2.431 7.177-3.804 7.177Z" fill="#488A99"/>
</svg>
