<svg width="140" height="79" fill="none" xmlns="http://www.w3.org/2000/svg">
    <path d="M13.887 70.567c.003-3.814 0-7.627.006-11.442 0-.363.01-.736.09-1.088.216-.947 1.08-1.567 2.208-1.588 1.213-.022 2.426-.011 3.638-.01 2.47 0 4.94-.004 7.41.007 1.243.006 2.094.583 2.342 1.585.08.321.093.666.094 1 .005 4.105.004 8.212.003 12.318 0 .684-.169.851-.86.852-1.14.003-2.279.003-3.42 0-.622-.001-.809-.185-.809-.813-.002-3.244.002-9.82.002-9.863.004-1.16-.158-1.325-1.304-1.325h-3.2c-.866 0-1.106.219-1.108 1.08-.01 3.272-.006 6.546-.006 9.819 0 .175.004.351-.008.526-.024.366-.237.57-.593.572-1.286.01-2.572.007-3.858.003a.57.57 0 0 1-.555-.34c-.085-.167-.072-1.132-.07-1.293h-.002ZM31.831 76.032a.887.887 0 0 1-.462-.123c-.242-.148-.331-.378-.33-.737.014-4.179.006-8.358.009-12.537 0-1.548.715-2.322 2.252-2.348 2.031-.033 4.062-.017 6.093-.007.83.005 1.627.188 2.352.606 1.091.631 1.651 1.64 1.874 2.832.35 1.876.295 3.753-.209 5.6-.429 1.572-1.485 2.515-3.08 2.728-1.109.148-4.326.156-4.88.156v.627c0 .79.002 1.417 0 2.206-.002.667-.303.992-.961.996-.613.004-2.12.002-2.657 0h-.001Zm3.641-7.538c.004.285.235.5.519.51.502.017 1.179.01 1.659 0 .986-.02 1.484-.551 1.582-1.52.088-.877.07-1.78-.028-2.656-.099-.876-.716-1.34-1.605-1.374-.452-.017-.905-.009-1.358-.006-.617.004-.787.163-.79.776a320.24 320.24 0 0 0 .021 4.27ZM58.232 63.994c-.438-2.18-1.538-3.303-3.701-3.653-2.072-.336-4.164-.336-6.237.051-1.75.329-2.866 1.383-3.311 3.107a10.84 10.84 0 0 0-.014 5.42c.438 1.74 1.54 2.837 3.32 3.14 1.074.183 4.934.234 5.76.145 2.337-.254 3.663-1.37 4.141-3.51.349-1.558.357-3.135.042-4.7Zm-4.208 3.182c0 1.135-.92 2.055-2.056 2.055h-.844a2.055 2.055 0 0 1-2.055-2.055v-2.01c0-1.136.92-2.056 2.055-2.056h.8c1.16 0 2.1.94 2.1 2.1v1.967-.001ZM63.275 72.146c-2.322-.19-3.607-1.466-3.887-3.774-.182-1.5-.18-3.004.077-4.5.359-2.093 1.784-3.459 3.903-3.546 2.204-.092 4.413-.05 6.62-.054.436-.001.625.212.635.666.012.54.01 1.082.001 1.622-.008.513-.208.706-.73.708-1.2.005-2.398-.002-3.596.003-1.593.008-2.349.672-2.472 2.27a9.254 9.254 0 0 0 .076 2.135c.156.99.753 1.468 1.761 1.491 1.358.032 2.718.022 4.078.025 1.072.003 1.127.056 1.127 1.146 0 .38.004.76 0 1.14-.007.524-.193.72-.713.722-1.096.007-5.692.044-6.882-.054h.002ZM71.988 66.86c0-1.432-.007-2.865.003-4.297.01-1.454.743-2.252 2.195-2.27a340.88 340.88 0 0 1 8.418 0c1.479.019 2.207.813 2.211 2.299.01 2.938.005 5.875.004 8.813 0 .626-.179.796-.817.798-.907.003-1.813.002-2.719 0-.692-.002-.857-.166-.858-.847v-7.103c0-.797-.18-.978-.981-.983-.731-.003-1.462-.006-2.193.002-.653.007-.867.22-.868.875-.003 2.382 0 4.765-.001 7.147 0 .768-.144.908-.928.909-.892 0-1.783.003-2.675-.002-.605-.003-.788-.183-.789-.78-.003-1.52 0-3.04 0-4.56h-.002ZM96.816 67.463c1.095-.004 1.74-.49 1.843-1.578.085-.891.065-1.817-.076-2.7-.3-1.89-1.09-2.685-2.963-2.906-2.18-.257-4.38-.277-6.557.066-2.017.318-2.908 1.182-3.04 3.191a36.535 36.535 0 0 0 .071 5.643c.172 1.918 1.253 2.888 3.187 2.952 2.803.092 5.61.057 8.415.067.403.001.612-.238.613-.644.002-.511.002-1.023.001-1.534-.002-.898-.11-1.007-1.005-1.009-1.856-.003-3.712.008-5.568-.015-.974-.011-1.435-.521-1.387-1.527.202 0 4.492.003 6.464-.004l.002-.002Zm-5.357-4.278c.61-.038 1.223-.015 1.834.011.211.01.433.081.624.177.333.167.488.452.4.833-.084.364-.424.465-.755.466-1.077.005-2.096 0-3.197 0-.148-.986.185-1.429 1.095-1.487ZM104.255 61.091c0-.634-.178-.82-.795-.823-.95-.004-1.899-.004-2.848.002-.579.003-.765.181-.766.764-.004 3.476-.004 6.953 0 10.43.001.538.208.733.752.736.935.006 1.87.004 2.805.002.675 0 .853-.18.853-.856v-5.128c0-1.71.001-3.418-.001-5.128v.001ZM113.102 71.823c-.692-.901-2.625-3.412-3.61-4.615-.797-.975-.803-1.263-.062-2.263.078-.106 2.653-3.479 3.272-4.3a.209.209 0 0 0-.162-.335c-.861-.018-2.861-.054-3.82-.022-.264.01-.612.188-.765.4-1.007 1.399-1.966 2.832-2.952 4.245-.558.8-.534 1.55.052 2.335 1.101 1.475 2.169 2.975 3.25 4.466.241.332.554.48.974.475l3.659-.049a.21.21 0 0 0 .164-.337ZM126.112 61.05c-.005-.602-.194-.78-.851-.78-1.135-.002-2.27-.002-3.405-.002v-.002c-.332.001-5.436 0-7.657.004-.609 0-.784.179-.788.78-.004.57-.004 1.14.001 1.71.005.402.208.629.62.635.54.006 2.868.003 3.533.003v.532c0 2.47-.001 4.938.002 7.408.001.72.156.866.883.866h2.587c.786 0 .927-.137.927-.911V63.4c.963 0 2.966.002 3.478-.005.443-.005.662-.232.667-.635.006-.57.006-1.14.002-1.71h.001Z" fill="#4D585B"/>
    <path d="M61.376 4.857 49.336 9.61v44.112c0 .404.327.733.73.733h10.58c.402 0 .73-.329.73-.733V6.873l8.899 2.865v44.185c0 .335.27.605.603.605h.727a.605.605 0 0 0 .603-.605V8.4L61.376 4.857Z" fill="#B4B4B4"/>
    <path d="M38.827 22.573v31.955h15.199V26.275l-13.88-4.49-1.319.788Z" fill="#fff"/>
    <path d="m40.432 20.797-8.535 3.548v29.511c0 .371.298.673.665.673h7.342a.668.668 0 0 0 .665-.676l-.128-30.98 12.325 4.162V53.94c0 .325.263.589.587.589h.892a.588.588 0 0 0 .586-.59v-28.22l-14.398-4.92Z" fill="#488A99"/>
    <path d="M56.125 32.26v22.269h6.72v-19.62l-6.72-2.65Z" fill="#fff"/>
    <path d="m56.545 30.343-11.497 3.354v20.325c0 .28.225.507.503.507h10.491a.505.505 0 0 0 .503-.507v-21.25l5.355 2.122V53.96c0 .313.253.568.565.568h.787a.567.567 0 0 0 .565-.569V33.618l-7.272-3.273Z" fill="#DBAE58"/>
    <path d="m87.292 14.505-10.48 3.562v35.879c0 .322.302.583.675.583h1.678l.001-.016 6.407-.017v.033h1.044c.374 0 .676-.261.676-.583V16.621l8.752 2.838.136 34.588c0 .266.25.48.559.48h.671c.309 0 .559-.215.559-.48V18.05l-10.677-3.546h-.001Z" fill="#488A99"/>
    <path d="m79.508 40.388 6.064 2.322v11.818l-6.878-.001.814-14.139Z" fill="#fff"/>
    <path d="m79.505 40.388-5.024 1.996v11.864c0 .155.155.28.346.28h4.332c.19 0 .346-.126.346-.28l-.011-12.654" fill="#DBAE58"/>
    <path d="m99.772 31.75-8.157 3.307v19.006c0 .258.218.466.486.466h7.186a.476.476 0 0 0 .485-.466V33.912l8.197 2.683v17.41c0 .29.244.523.666.523h.673c.179 0 .544-.234.544-.522l.024-18.803-10.104-3.454Z" fill="#B4B4B4"/>
    <path d="m49.335 11.942 2.87-1.172v2.922l-2.87 1.138v-2.888ZM49.335 17.63l2.87-1.173v2.923l-2.87 1.137V17.63ZM35.108 27.902l-3.211 1.208v-2.888l3.21-1.312v2.992ZM45.048 39.05l3.097-1.085v2.765l-3.097 1.085V39.05Z" fill="#fff"/>
    <path d="M93.33 20.587v2.398l2.803.892v-2.415l-2.803-.875ZM93.33 24.962v2.398l2.803.892v-2.415l-2.803-.875Z" fill="#488A99"/>
    <path d="M105.174 37.51v3.137l2.868.8V38.35l-2.868-.84Z" fill="#B4B4B4"/>
</svg>
