<svg width="207" height="341" fill="none" xmlns="http://www.w3.org/2000/svg">
    <path d="M24.392 329c-1.5-.902-.959-3.393-.5-5.5 25.999-119.5 67.5-305 67.5-305 1.73-4.427 4.239-5.528 9.5-5.5h19s-1-3-4-8-8-5-8-5h-24.5c-7.644.268-10.932 2.17-13 9 0 0-67.998 299-70 309.5-2.003 10.5 4 18.5 10.5 20 6.5 1.499 20.586-5 20.586-5-2.01-1.294-3.763-2.503-7.086-4.5ZM140.892 194.999l-22.962-95-10.775 50.501 7.737 29.5-14.459 2-4.694 21.999 45.153-9ZM162.892 289c-1.75-3.5-13-55.076-13-55.076l-19.507 4.785 14 52.791c1.695 3.222 3.297 3.782 6.5 4l18-3.605c-3.244-1.366-5.815-2.541-5.993-2.895Z" fill="#fff"/>
    <path fill-rule="evenodd" clip-rule="evenodd" d="M206.392 287.5s-43.5-185-62-269c-.71-3.225-5-3.5-5-3.5h-23.5s-1.99.172-3 1.5c-.954 1.252-1.055 2-1.055 2s-45 206.5-69.5 314.5c-.424 1.868-1.754 5.483.929 7.173l.626.327c5.5 1 8.42-.386 13.5-2 4.328-1.376 7.71-1.417 10.5-5 1.45-1.862 1.988-3.197 2.5-5.5 1-4.5 16-78.501 16-78.501l43.993-10.79 19.507-4.785 16-3.925 17 67.501s9.793.139 14.5-2c5.5-2.5 7.5-4 7.5-4s1.048-.596 1.5-1.5c.452-.905 0-2.5 0-2.5ZM126.892 58l33.5 143.499-67 13.5 2.347-11L100.433 182l6.722-31.5L117.93 100l8.962-42Z" fill="#737373"/>
    <path d="M115.892 15h23.5s-3.844-2-6.5-2h-32c-5.261-.028-7.77 1.073-9.5 5.5 0 0-41.501 185.5-67.5 305-.459 2.107-1 4.598.5 5.5 3.323 1.997 5.076 3.206 7.086 4.5 2.447 1.574 5.278 3.274 11.788 6.673-2.683-1.69-1.353-5.305-.93-7.173 24.5-108 69.501-314.5 69.501-314.5s.101-.748 1.055-2c1.01-1.328 3-1.5 3-1.5ZM160.392 201.499l-33.5-143.5-8.962 42 22.962 95 19.5 6.5Z" fill="#454545"/>
    <path d="m93.392 214.999 67-13.5-19.5-6.5-45.153 9-2.347 11ZM182.892 297.5l-17-67.501-16 3.925s11.25 51.576 13 55.076c.178.354 2.749 1.529 5.993 2.895 5.894 2.484 14.007 5.605 14.007 5.605Z" fill="#454545"/>
</svg>
