<svg width="187" height="187" fill="none" xmlns="http://www.w3.org/2000/svg">
    <path d="M159.275 44.83c-.251-.4-.66-.651-1.172-.577-.065.01-.13.019-.195.038-.028.009-.047.009-.075.009-14.582 5.58-29.164 11.16-43.747 16.73-23.26 8.9-46.518 17.791-69.778 26.692-5.356 2.046-10.723 4.1-16.08 6.147-.995.381-1.497 1.962-.325 2.52 8.956 4.315 17.912 8.64 26.877 12.964 4.994 10.733 9.979 21.465 14.973 32.188.056.316.205.558.437.716.233.232.512.316.81.307.362.055.743-.047 1.078-.41l15.485-16.991c5.43 2.623 10.862 5.236 16.293 7.859 3.562 1.72 7.124 3.432 10.686 5.152.112.056.214.056.316.084.567.242 1.237.149 1.581-.577 4.818-10.239 9.635-20.488 14.452-30.727 7.729-16.433 15.457-32.875 23.185-49.309 1.777-3.766 3.544-7.542 5.32-11.308.335-.484.232-1.08-.121-1.507ZM39.984 99.18c-2.641-1.275-5.273-2.549-7.915-3.814 13.55-5.18 27.1-10.37 40.641-15.55 23.26-8.9 46.519-17.79 69.778-26.69.726-.28 1.442-.55 2.167-.828-7.226 4.417-14.452 8.826-21.678 13.234A171796.582 171796.582 0 0 0 67.679 99.3l-12.108 7.394c-5.2-2.511-10.389-5.013-15.587-7.515Zm50.992-10.873 52.591-32.112c-8.751 7.384-17.502 14.777-26.254 22.161-9.495 8.017-18.99 16.034-28.486 24.041-3.431 2.902-6.872 5.794-10.304 8.695-1.767 1.488-3.785 2.893-5.394 4.557-.549.558-.707 1.033-.828 1.833-.381 2.501-.558 5.059-.827 7.57-.4 3.701-.81 7.393-1.219 11.095-4.25-9.133-8.5-18.275-12.75-27.407 11.17-6.808 22.32-13.625 33.47-20.432Zm-18.06 48.835 1.031-9.43.921-8.389c.01-.074.028-.158.037-.242 3.348 1.618 6.706 3.237 10.054 4.855a8069.336 8069.336 0 0 0-4.037 4.427c-2.669 2.92-5.338 5.849-8.007 8.779Zm13.847-15.401c-3.441-1.655-6.882-3.32-10.323-4.976 1.088-.967 2.343-2.278 2.65-2.548 3.125-2.641 6.25-5.282 9.375-7.914 18.6-15.708 37.209-31.406 55.809-47.114 3.329-2.808 6.659-5.617 9.988-8.435a63898.48 63898.48 0 0 0-11.718 24.924c-7.728 16.433-15.456 32.876-23.185 49.309a4914.2 4914.2 0 0 0-4.78 10.174c-9.263-4.473-18.535-8.947-27.816-13.42Z" fill="#fff"/>
</svg>
