<svg width="350" height="181" fill="none" xmlns="http://www.w3.org/2000/svg">
    <path d="M348.391 71.022c-.231-.986-.959-1.902-2.21-2.378-.159-.061-.318-.122-.486-.167a.688.688 0 0 1-.18-.072c-38.713-7.604-77.426-15.208-116.131-22.828C167.636 33.448 105.897 21.303 44.149 9.174 29.93 6.374 15.684 3.58 1.466.78-1.176.262-3.73 2.395-1.504 4.742 15.47 22.763 32.435 40.802 49.42 58.85c2.149 24.408 4.276 48.804 6.433 73.196-.149.611-.016 1.204.384 1.751.335.676.908 1.15 1.606 1.486.792.524 1.766.798 2.861.568l50.831-11.009c10.288 10.939 20.585 21.862 30.872 32.801 6.747 7.175 13.502 14.334 20.248 21.509.21.228.447.349.66.518 1.103 1.087 2.737 1.717 4.172.873 20.167-11.967 40.341-23.95 60.508-35.917 32.358-19.209 64.724-38.435 97.082-57.644 7.428-4.397 14.843-8.822 22.271-13.219 1.201-.438 1.486-1.585 1.043-2.74ZM24.054 23.824C19.05 18.508 14.069 13.202 9.056 7.9 45.023 14.973 81 22.032 116.946 29.095c61.748 12.129 123.488 24.274 185.236 36.403 1.927.376 3.824.756 5.751 1.132-20.636-.918-41.263-1.853-61.89-2.787-52.625-2.37-105.249-4.739-157.882-7.092l-34.57-1.554a36694.55 36694.55 0 0 0-29.537-31.373Zm127.78 41.491 150.152 6.75c-26.778 2.396-53.565 4.808-80.344 7.204-29.059 2.607-58.118 5.215-87.169 7.806-10.507.95-21.026 1.873-31.532 2.823-5.404.478-11.317.516-16.51 1.486-1.763.314-2.546.945-3.53 2.182-3.082 3.864-5.739 8.065-8.57 12.077-4.18 5.911-8.373 11.795-12.574 17.694-1.83-20.77-3.65-41.556-5.48-62.327 31.879 1.455 63.722 2.872 95.557 4.305Zm-84.785 62.881 10.68-15.044 9.506-13.378c.087-.118.203-.24.298-.373 6.341 6.745 12.703 13.502 19.044 20.248l-13.248 2.866c-8.755 1.883-17.517 3.782-26.28 5.681Zm45.639-10.201c-6.523-6.919-13.038-13.855-19.562-20.775 3.373-.383 7.436-1.16 8.384-1.263 9.566-.864 19.132-1.727 28.689-2.574 56.927-5.115 113.868-10.204 170.795-15.319 10.187-.91 20.374-1.82 30.569-2.747-16.353 9.708-32.707 19.415-49.069 29.139-32.358 19.21-64.724 38.435-97.082 57.645a8958.96 8958.96 0 0 0-20.023 11.898 116186.258 116186.258 0 0 0-52.701-56.004Z" fill="#488A99"/>
</svg>
