<svg width="345" height="191" fill="none" xmlns="http://www.w3.org/2000/svg">
    <path d="M343.615 1.141c-.654-.774-1.718-1.26-3.049-1.116-.17.018-.339.036-.509.072a.702.702 0 0 1-.193.018c-37.946 10.8-75.891 21.6-113.837 32.382-60.524 17.226-121.048 34.434-181.573 51.66-13.939 3.96-27.902 7.938-41.841 11.898-2.59.738-3.897 3.798-.847 4.878 23.304 8.352 46.609 16.722 69.938 25.092 12.995 20.772 25.966 41.544 38.962 62.298.145.612.532 1.08 1.137 1.386.605.45 1.331.612 2.105.594.944.108 1.936-.09 2.808-.792l40.293-32.886c14.132 5.076 28.265 10.134 42.398 15.21 9.269 3.33 18.537 6.642 27.806 9.972.29.108.556.108.823.162 1.476.468 3.218.288 4.114-1.116 12.535-19.818 25.071-39.654 37.606-59.472 20.111-31.806 40.221-63.63 60.331-95.436 4.622-7.29 9.22-14.598 13.842-21.888.872-.936.605-2.088-.314-2.916ZM33.201 106.333c-6.872-2.466-13.721-4.932-20.594-7.38 35.26-10.026 70.519-20.07 105.754-30.096 60.524-17.226 121.049-34.434 181.573-51.66 1.887-.54 3.751-1.062 5.638-1.602a76140.55 76140.55 0 0 1-56.41 25.614c-47.964 21.78-95.929 43.56-143.893 65.358l-31.508 14.31c-13.528-4.86-27.032-9.702-40.56-14.544ZM165.89 85.291l136.851-62.154c-22.772 14.292-45.544 28.602-68.317 42.894a165630.29 165630.29 0 0 1-74.124 46.53c-8.93 5.616-17.884 11.214-26.814 16.83-4.598 2.88-9.849 5.598-14.036 8.82-1.428 1.08-1.839 1.998-2.154 3.546-.992 4.842-1.452 9.792-2.153 14.652-1.041 7.164-2.106 14.31-3.171 21.474-11.059-17.676-22.118-35.37-33.178-53.046 29.064-13.176 58.08-26.37 87.096-39.546Zm-46.996 94.518 2.686-18.252c.798-5.418 1.597-10.818 2.396-16.236.024-.144.072-.306.096-.468 8.712 3.132 17.449 6.264 26.161 9.396l-10.503 8.568c-6.946 5.652-13.891 11.322-20.836 16.992Zm36.033-29.808c-8.954-3.204-17.908-6.426-26.862-9.63 2.832-1.872 6.099-4.41 6.897-4.932 8.132-5.112 16.263-10.224 24.394-15.318 48.4-30.402 96.824-60.786 145.224-91.188 8.664-5.436 17.327-10.872 25.991-16.326a112880.49 112880.49 0 0 0-30.492 48.24c-20.11 31.806-40.22 63.63-60.331 95.436-4.162 6.57-8.3 13.122-12.438 19.692-24.104-8.658-48.231-17.316-72.383-25.974Z" fill="#488A99"/>
</svg>
