<svg width="204" height="107" fill="none" xmlns="http://www.w3.org/2000/svg">
    <path d="M202.991 2.805c.068-.1.129-.208.168-.326.011-.05.011-.1.025-.16.021-.105.043-.219.036-.327 0-.018.011-.036.007-.05-.007-.06-.036-.104-.047-.165-.014-.064-.014-.132-.039-.197-.007-.025-.025-.043-.039-.064a1.233 1.233 0 0 0-.111-.19c-.054-.075-.1-.15-.165-.218-.047-.043-.093-.075-.147-.118a1.54 1.54 0 0 0-.243-.15.727.727 0 0 0-.179-.06 1.1 1.1 0 0 0-.286-.058s-.061-.018-.089-.018h-.05L1.308 7.38A1.35 1.35 0 0 0 .016 8.524c-.1.637.276 1.267.888 1.482l44.635 15.736 12.952 79.644c.029.172.089.333.175.476.011.021.029.032.043.05.115.168.268.304.44.404.025.014.032.047.057.057.025.018.047.007.064.018.172.075.358.132.551.132h.004a1.246 1.246 0 0 0 .763-.251c.011-.007.025 0 .032-.007L197.189 6.369l5.365-3.135c.039-.02.061-.05.086-.072a1.25 1.25 0 0 0 .29-.254c.025-.032.039-.067.061-.103ZM59.056 29.861c-.018.021-.039.03-.054.05a1.3 1.3 0 0 0-.304.673c-.007.025-.032.043-.032.064 0 .011.007.03.004.047 0 .032-.011.068-.011.104l-.143 57.881-10.218-62.806 101.02-14.763L59.74 29.474a1.377 1.377 0 0 0-.684.387ZM194.165 5.006l-82.085 47.99-47.713-21.7 129.798-26.29Zm-16.377-.79L46.878 23.346 8.573 9.841l169.215-5.626ZM61.182 102.503l.175-69.609L111.6 55.742a1.313 1.313 0 0 0 1.235-.065l61.542-35.985-113.195 82.812Z" fill="#010002"/>
</svg>
