<svg width="1920" height="200" fill="none" xmlns="http://www.w3.org/2000/svg">
    <path d="m1920 66.332-35.6 9.886c-35.47 10.072-107.07 46.923-177.73 47.062-71.07-.139-142.67-18.536-213.34-26.101-71.06-7.287-142.66 28.376-213.33 38.447-73.5 24.645-142.67 17.219-213.33 24.645-71.07 7.426-142.67-34.531-213.337-24.645C782.267 145.698 710.667 157.45 640 152.67c-71.067-4.966-142.667-26.93-213.334-29.39-71.066-2.645-140.865-44.616-213.333-55.834C112.588 51.852 99.989 24.311 50.69 14.286L0 0v200H1920V66.332Z" fill="#EDF0F5"/>
</svg>
