<svg width="100" height="100" fill="none" xmlns="http://www.w3.org/2000/svg">
    <rect x=".5" y=".5" width="99" height="99" rx="49.5" fill="#EDF0F5"/>
    <path d="M10 70.058c0-2.75 0-5.5.005-8.251 0-.263.006-.531.063-.784.158-.683.779-1.13 1.594-1.146.873-.016 1.751-.01 2.624-.01 1.783 0 3.56-.006 5.343.005.9.005 1.51.42 1.688 1.141.058.231.068.479.068.72.006 2.961.006 5.922 0 8.883 0 .494-.12.615-.62.615h-2.466c-.447 0-.584-.132-.584-.59v-7.114c.005-.837-.116-.957-.942-.957h-2.308c-.626 0-.8.157-.8.778-.005 2.361-.005 4.722-.005 7.084 0 .126.005.252-.005.378-.016.263-.173.41-.426.415-.925.006-1.856.006-2.782 0a.41.41 0 0 1-.4-.247c-.052-.11-.047-.804-.047-.92ZM22.943 73.997a.616.616 0 0 1-.331-.09c-.174-.105-.237-.273-.237-.53.01-3.014.005-6.027.005-9.04 0-1.115.516-1.678 1.625-1.694 1.462-.026 2.93-.01 4.397-.005.6.005 1.172.137 1.693.436.789.458 1.188 1.184 1.351 2.04a8.887 8.887 0 0 1-.152 4.04c-.31 1.13-1.073 1.814-2.22 1.966-.799.105-3.118.11-3.517.11v2.041c0 .479-.221.715-.695.72-.441.011-1.53.011-1.92.006Zm2.63-5.432a.377.377 0 0 0 .373.368c.363.01.852.005 1.194 0 .71-.016 1.072-.4 1.14-1.094a8.962 8.962 0 0 0-.02-1.914c-.069-.631-.516-.968-1.157-.989-.326-.01-.652-.005-.979-.005-.447 0-.567.115-.567.557-.006.815.005 2.361.015 3.077ZM41.985 65.315c-.316-1.573-1.11-2.383-2.672-2.635a13.043 13.043 0 0 0-4.496.037c-1.262.236-2.067.999-2.388 2.24a7.805 7.805 0 0 0-.01 3.907c.316 1.257 1.11 2.046 2.393 2.267.773.131 3.56.168 4.154.105 1.688-.184 2.64-.989 2.987-2.53a8.103 8.103 0 0 0 .032-3.391Zm-3.035 2.298c0 .82-.662 1.483-1.483 1.483h-.61c-.82 0-1.483-.663-1.483-1.483V66.16c0-.82.663-1.483 1.483-1.483h.579c.836 0 1.514.679 1.514 1.515v1.42ZM45.622 71.194c-1.672-.136-2.603-1.057-2.803-2.724-.132-1.083-.132-2.166.058-3.245.257-1.509 1.288-2.492 2.813-2.555 1.588-.063 3.182-.037 4.775-.037.316 0 .452.152.458.478.01.39.005.779 0 1.173-.006.368-.153.51-.526.51-.863.005-1.73 0-2.593.005-1.146.006-1.693.484-1.782 1.636a6.863 6.863 0 0 0 .052 1.54c.11.716.542 1.058 1.273 1.079.978.02 1.961.016 2.94.016.772 0 .815.042.815.825v.82c-.006.38-.137.521-.516.521-.794.005-4.107.032-4.964-.042ZM51.901 67.382c0-1.031-.005-2.067 0-3.098.005-1.046.536-1.625 1.583-1.635a233.4 233.4 0 0 1 6.069 0c1.067.01 1.593.583 1.593 1.656.005 2.12.005 4.239 0 6.358 0 .452-.126.573-.589.573h-1.961c-.5 0-.621-.12-.621-.61v-5.122c0-.573-.131-.705-.71-.71-.526 0-1.052-.005-1.583 0-.473.005-.626.158-.626.631v5.154c0 .552-.105.657-.667.657h-1.93c-.437 0-.568-.131-.568-.563.01-1.099.01-2.192.01-3.291ZM69.813 67.818c.789-.005 1.257-.352 1.33-1.136a7.775 7.775 0 0 0-.052-1.945c-.215-1.362-.789-1.936-2.135-2.099-1.572-.184-3.16-.2-4.728.048-1.456.231-2.098.852-2.192 2.303a26.293 26.293 0 0 0 .052 4.07c.126 1.383.905 2.083 2.298 2.13 2.02.068 4.044.042 6.069.047.289 0 .442-.173.442-.462v-1.105c0-.647-.08-.725-.726-.725-1.341 0-2.677.005-4.018-.011-.705-.01-1.036-.373-1-1.1.143-.01 3.235-.01 4.66-.015Zm-3.865-3.087c.437-.026.884-.01 1.32.006.153.005.31.057.452.126.242.12.353.326.29.6-.064.262-.306.336-.547.336-.779.005-1.51 0-2.304 0-.105-.705.132-1.026.789-1.068ZM75.178 63.222c0-.458-.126-.59-.573-.595-.684-.005-1.368-.005-2.057 0-.415 0-.552.132-.552.553-.005 2.508-.005 5.017 0 7.52 0 .389.147.53.542.53.673.006 1.346 0 2.024 0 .49 0 .616-.13.616-.614v-7.394ZM81.554 70.963c-.5-.652-1.893-2.462-2.603-3.33-.573-.704-.579-.909-.047-1.63a883.21 883.21 0 0 0 2.36-3.102.151.151 0 0 0-.115-.242c-.62-.01-2.061-.037-2.756-.016a.807.807 0 0 0-.552.29c-.725 1.01-1.42 2.04-2.13 3.06-.4.579-.383 1.115.037 1.683.794 1.062 1.562 2.145 2.346 3.218.173.242.4.347.704.342.663-.01 2.03-.026 2.64-.037.121.005.19-.136.116-.236ZM90.94 63.19c-.005-.431-.136-.563-.615-.563h-7.977c-.442 0-.568.132-.568.563 0 .41-.006.82 0 1.23.005.29.147.453.447.458.389.005 2.066 0 2.55 0v5.727c0 .52.11.626.636.626h1.867c.568 0 .668-.1.668-.657V64.877h2.509c.32-.005.478-.168.478-.457.01-.405.01-.815.005-1.23Z" fill="#4D585B"/>
    <path d="m35.285 30.474 2.114-.847v2.109l-2.114.82v-2.082ZM35.285 34.576l2.114-.847v2.109l-2.114.82v-2.082ZM25.172 41.985l-2.34.868V40.77l2.34-.946v2.161ZM32.262 50.02l2.261-.778v1.993l-2.261.784V50.02Z" fill="#EDF0F5"/>
    <path d="M67.426 36.705v1.73l2.02.647v-1.746l-2.02-.63ZM67.426 39.86v1.73l2.02.647v-1.746l-2.02-.63Z" fill="#488A99"/>
    <path d="M75.969 48.91v2.262l2.066.578v-2.235l-2.066-.604ZM44.249 24l-8.683 3.413v31.716c0 .289.237.42.526.42h7.641c.29 0 .516-.131.516-.42V25.446l6.415 2.056v31.716c0 .242.195.437.437.437h.526a.435.435 0 0 0 .436-.437V26.545L44.25 24Z" fill="#B4B4B4"/>
    <path d="M27.988 36.779v23.044h10.96V39.445L28.94 36.211l-.952.568Z" fill="#EDF0F5"/>
    <path d="m29.146 35.496-6.158 2.545v21.198c0 .268.216.484.479.484h5.295a.481.481 0 0 0 .479-.484l-.09-22.25 8.888 2.987v19.32c0 .232.231.2.463.2h.578c.232 0 .442.032.442-.2V39.03l-10.376-3.533Z" fill="#488A99"/>
    <path d="M40.46 43.763v15.96h4.85V45.661l-4.85-1.898Z" fill="#EDF0F5"/>
    <path d="m40.766 42.38-8.293 2.403V59.36c0 .2.163.363.363.363h7.567c.2 0 .363-.163.363-.363V44.125l3.86 1.52v13.673c0 .226.184.405.405.405h.568a.405.405 0 0 0 .405-.405V44.73l-5.238-2.35Z" fill="#DBAE58"/>
    <path d="m62.94 30.957-7.557 2.562v25.783c0 .232.215.368.489.368h6.584c.268 0 .489-.136.489-.368V32.477l6.31 2.04.1 24.859c0 .19.18.19.405.19h.484c.221 0 .405.005.405-.19V33.508l-7.71-2.55Z" fill="#488A99"/>
    <path d="m57.62 49.684 4.376 1.667v8.493H57.03l.59-10.16Z" fill="#EDF0F5"/>
    <path d="m57.62 49.684-3.624 1.425v8.477c0 .11.11.2.247.2h3.124c.137 0 .247-.09.247-.2l-.01-9.04" fill="#DBAE58"/>
    <path d="m71.943 43.395-5.884 2.371v13.626c0 .184.157.336.352.336h5.185a.342.342 0 0 0 .352-.336V44.946l5.911 1.925V59.35c0 .205.174.373.479.373h.484c.131 0 .394-.168.394-.373l.016-13.479-7.289-2.477Z" fill="#B4B4B4"/>
    <rect x=".5" y=".5" width="99" height="99" rx="49.5" stroke="#488A99"/>
</svg>
