<svg id="elv8tpirng01" xmlns="http://www.w3.org/2000/svg" xmlns:xlink="http://www.w3.org/1999/xlink" viewBox="0 0 132 100" shape-rendering="geometricPrecision" text-rendering="geometricPrecision"><path d="M121.336,23.8633C112.161,10.3477,97.8468,2.27105,79.9519,0.354168C51.3117,-2.71596,17.603774,6.7727,17.603774,50h9.056603c0-41.7351,31.750023-43.66532,51.889023-41.37051C133.13,14.8555,126.347,79.8035,113.123,87.8879C91.9403,100.842,86.5325,75.8412,86.5325,75.8412h-7.7533c0,0-2.9493,16.8156-17.9182,14.2519-9.7948-1.6753-12.5922-12.1013-13.3519-15.7792C69.3273,62.6685,72.320755,45.1656,72.320755,45.1656L54.207547,33.3213c0,0-17.054347,22.3342-16.259447,40.9926C18.9584,79.862,5.85974,61.7879,5.80909,61.7373L0,67.1256c.22987.2454,14.3377,16.2468,37.9481,8.7156.9039,3.6156,6.7636,19.9402,21.4831,22.461c12.7675,2.1858,20.1974-5.2597,22.6714-9.1207c3.3195,5.5129,9.6779,10.1766,18.9664,10.6012.261.0117.522.0039.787.0195c12.584.5768,27.105-10.4337,29.431-34.4649c1.445-14.9182-2.182-30.0312-9.951-41.474ZM54.207547,38.569L66,45.1656c-.4286,2.9493-11.6187,23.1366-23.307,30.6756.5298-10.726,9.122347-32.4916,11.514547-37.2722Z" transform="matrix(.89 0 0 0.88 7.237917 6.162481)" fill="#f00" stroke="#ec9a29" stroke-width="10"/></svg>