<svg width="132" height="100" viewBox="0 0 132 100" fill="none" xmlns="http://www.w3.org/2000/svg" style="">
<path d="M121.336 23.8633C112.161 2.27105 79.9519 0.354168C51.3117 -2.71596 17.3182
14.0022 17.3182 57.2295L25.2312 57.3113C25.2312 15.5762 58.4104 6.33468 78.5494 8.62949C133.13
14.8555 126.347 79.8035 113.123 87.8879C91.9403 100.842 86.5325 75.8412 86.5325 75.8412H78.7792C78.7792
75.8412 75.8299 92.6568 60.861 90.0931C51.0662 88.4178 48.2688 77.9918 47.5091 74.3139C69.3273 62.6685
68.4545 36.8139 68.4545 36.8139L49.5195 31.0516C49.5195 31.0516 37.1532 50.9334 37.9481 69.5918C18.9584
75.1399 5.85974 61.7879 5.80909 61.7373L0 67.1256C0.22987 67.371 15.939 84.9386 39.5494 77.4074C40.4533
81.023 44.7117 95.7814 59.4312 98.3022C72.1987 100.488 79.6286 93.0425 82.1026 89.1815C85.4221 94.6944
91.7805 99.3581 101.069 99.7827C101.33 99.7944 101.591 99.7866 101.856 99.8022C114.44 100.379 128.961
89.3685 131.287 65.3373C132.732 50.4191 129.105 35.3061 121.336 23.8633ZM53.5442 40.7762L59.9026
42.6698C59.474 45.6191 58.2312 57.7866 46.5429 65.3256C47.0727 54.5996 51.152 45.5568 53.5442
40.7762Z" stroke="#EC9A29" class="HeVtpzzG_0"></path>
<path d="M37.538 33.3213L30.8228 39.918L35.9777 45.1656L42.693 38.569L37.538 33.3213Z" stroke="#EC9A29" class="HeVtpzzG_1"></path>
<style data-made-with="vivus-instant">.HeVtpzzG_0{stroke-dasharray:858 860;stroke-dashoffset:859;animation:HeVtpzzG_draw 2882ms ease-in 0ms forwards;}.HeVtpzzG_1{stroke-dasharray:34 36;stroke-dashoffset:35;animation:HeVtpzzG_draw 117ms ease-in 2882ms forwards;}@keyframes HeVtpzzG_draw{100%{stroke-dashoffset:0;}}@keyframes HeVtpzzG_fade{0%{stroke-opacity:1;}94.44444444444444%{stroke-opacity:1;}100%{stroke-opacity:0;}}</style></svg>
