<svg width="60" height="86" viewBox="0 0 60 86" fill="none" xmlns="http://www.w3.org/2000/svg">
<path d="M26.4655 58.48C26.4655 55.28 26.9855 52.48 28.0255 50.08C29.1455 47.6 30.4655 45.52 31.9855 43.84C33.5855 42.16 35.6655 40.16 38.2255 37.84C41.4255 35.04 43.7855 32.64 45.3055 30.64C46.8255 28.56 47.5855 26.08 47.5855 23.2C47.5855 19.28 46.0655 16.16 43.0255 13.84C39.9855 11.44 35.7855 10.24 30.4255 10.24C21.0655 10.24 13.9055 13.4 8.94547 19.72L0.185469 13.48C3.54547 9.16 7.82547 5.84 13.0255 3.52C18.3055 1.2 24.3855 0.0399995 31.2655 0.0399995C39.9855 0.0399995 46.9055 1.96 52.0255 5.8C57.1455 9.56 59.7055 14.76 59.7055 21.4C59.7055 24.68 59.1455 27.6 58.0255 30.16C56.9855 32.64 55.7055 34.72 54.1855 36.4C52.6655 38.08 50.6255 40.08 48.0655 42.4C44.7855 45.36 42.3455 47.96 40.7455 50.2C39.2255 52.44 38.4655 55.2 38.4655 58.48H26.4655ZM32.5855 85.72C30.3455 85.72 28.4655 85 26.9455 83.56C25.5055 82.04 24.7855 80.2 24.7855 78.04C24.7855 75.88 25.5055 74.08 26.9455 72.64C28.4655 71.12 30.3455 70.36 32.5855 70.36C34.8255 70.36 36.6655 71.12 38.1055 72.64C39.5455 74.08 40.2655 75.88 40.2655 78.04C40.2655 80.2 39.5055 82.04 37.9855 83.56C36.5455 85 34.7455 85.72 32.5855 85.72Z" fill="#DBAE58"/>
</svg>
