<svg width="24" height="24" viewBox="0 0 24 24" fill="none" xmlns="http://www.w3.org/2000/svg">
<path d="M21.6656 2.69019L12.0422 2.71362L2.41875 2.66675H2.41406C1.12031 2.66675 0.09375 3.88081 0.09375 5.39956V18.1214C0.09375 19.6402 1.12031 20.8542 2.41406 20.8542H21.6797C22.9734 20.8542 24 19.6402 24 18.1214V5.39956C24 3.88081 22.9828 2.69019 21.6656 2.69019ZM20.9109 4.56519L12.3141 12.4261L12.2812 12.4542L12.2531 12.4871C12.15 12.5996 12.0281 12.6136 11.9625 12.6136C11.8969 12.6136 11.775 12.5949 11.6766 12.4777L11.6484 12.4449L3.43125 4.52769L12.0422 4.58394L20.9109 4.56519ZM21.6797 18.9792H2.41406C2.25 18.9792 1.96875 18.6699 1.96875 18.1214V5.69956L10.2938 13.7433C10.7156 14.2121 11.3109 14.4839 11.9438 14.4933H11.9719C12.5953 14.4933 13.1766 14.2355 13.6031 13.7855L22.1344 5.97612V18.1214C22.125 18.6699 21.8438 18.9792 21.6797 18.9792Z" fill="white"/>
</svg>
