<svg width="24" height="24" viewBox="0 0 24 24" fill="none" xmlns="http://www.w3.org/2000/svg">
<path d="M17.5879 15.6975C17.3788 15.4878 17.1304 15.3213 16.857 15.2078C16.5835 15.0942 16.2902 15.0357 15.9941 15.0357C15.698 15.0357 15.4048 15.0942 15.1313 15.2078C14.8578 15.3213 14.6094 15.4878 14.4004 15.6975L13.3129 16.785C12.0884 16.0079 10.954 15.0973 9.93037 14.07C8.90522 13.0445 7.99484 11.9103 7.21537 10.6875L8.30287 9.60002C8.51263 9.39099 8.67906 9.1426 8.79262 8.86911C8.90618 8.59562 8.96464 8.3024 8.96464 8.00627C8.96464 7.71014 8.90618 7.41692 8.79262 7.14343C8.67906 6.86994 8.51263 6.62155 8.30287 6.41252L6.18037 4.29752C5.97429 4.08707 5.728 3.92019 5.45614 3.80681C5.18429 3.69343 4.89241 3.63586 4.59787 3.63752C4.30123 3.6368 4.00737 3.69473 3.73321 3.808C3.45905 3.92127 3.20999 4.08764 3.00037 4.29752L1.98037 5.31002C1.49419 5.83275 1.13134 6.45778 0.91849 7.13918C0.705635 7.82057 0.648186 8.54101 0.750366 9.24752C0.990366 12.06 2.83537 15.4425 5.67787 18.2925C8.52037 21.1425 11.9404 22.98 14.7529 23.25C14.9627 23.2612 15.173 23.2612 15.3829 23.25C15.9883 23.2754 16.5927 23.1797 17.1606 22.9685C17.7286 22.7573 18.2487 22.4348 18.6904 22.02L19.7029 21C19.9128 20.7904 20.0791 20.5413 20.1924 20.2672C20.3057 19.993 20.3636 19.6992 20.3629 19.4025C20.3645 19.108 20.307 18.8161 20.1936 18.5442C20.0802 18.2724 19.9133 18.0261 19.7029 17.82L17.5879 15.6975ZM18.6454 19.9425L17.6254 20.955C17.2482 21.2693 16.808 21.499 16.3344 21.6284C15.8608 21.7577 15.3649 21.7839 14.8804 21.705C12.4429 21.495 9.33787 19.77 6.77287 17.205C4.20787 14.64 2.48287 11.5575 2.25037 9.12002C2.16949 8.63546 2.19465 8.13912 2.32413 7.66522C2.45361 7.19132 2.68433 6.75114 3.00037 6.37502L4.05787 5.35502C4.12795 5.28551 4.21106 5.23052 4.30244 5.19319C4.39381 5.15587 4.49166 5.13695 4.59037 5.13752C4.68907 5.13695 4.78692 5.15587 4.8783 5.19319C4.96967 5.23052 5.05279 5.28551 5.12287 5.35502L7.24537 7.50002C7.38505 7.64054 7.46346 7.83063 7.46346 8.02877C7.46346 8.22691 7.38505 8.417 7.24537 8.55752L5.74537 10.0575C5.62799 10.1743 5.55257 10.3267 5.53086 10.4908C5.50915 10.655 5.54238 10.8217 5.62537 10.965C6.52341 12.4939 7.61492 13.9005 8.87287 15.15C10.1224 16.408 11.529 17.4995 13.0579 18.3975C13.2012 18.4805 13.3679 18.5137 13.532 18.492C13.6962 18.4703 13.8486 18.3949 13.9654 18.2775L15.4654 16.7775C15.6059 16.6378 15.796 16.5594 15.9941 16.5594C16.1923 16.5594 16.3823 16.6378 16.5229 16.7775L18.6454 18.9C18.7149 18.9701 18.7699 19.0532 18.8072 19.1446C18.8445 19.236 18.8634 19.3338 18.8629 19.4325C18.8582 19.6241 18.7803 19.8065 18.6454 19.9425ZM19.9504 4.04252C18.9081 2.99625 17.669 2.16665 16.3045 1.60156C14.94 1.03647 13.4772 0.747059 12.0004 0.750023C11.8015 0.750023 11.6107 0.82904 11.47 0.969692C11.3294 1.11034 11.2504 1.30111 11.2504 1.50002C11.2504 1.69893 11.3294 1.8897 11.47 2.03035C11.6107 2.171 11.8015 2.25002 12.0004 2.25002C13.2877 2.24998 14.5623 2.50487 15.7507 3.00001C16.939 3.49514 18.0175 4.22071 18.924 5.13484C19.8304 6.04896 20.5469 7.13355 21.032 8.32602C21.5171 9.51848 21.7613 10.7952 21.7504 12.0825C21.7504 12.2814 21.8294 12.4722 21.97 12.6129C22.1107 12.7535 22.3015 12.8325 22.5004 12.8325C22.6993 12.8325 22.89 12.7535 23.0307 12.6129C23.1713 12.4722 23.2504 12.2814 23.2504 12.0825C23.2647 10.59 22.9801 9.10965 22.4134 7.72882C21.8466 6.34799 21.0092 5.09459 19.9504 4.04252Z" fill="white"/>
<path d="M15.6823 8.33249C16.1079 8.75555 16.4446 9.25948 16.6726 9.81462C16.9006 10.3698 17.0152 10.9649 17.0098 11.565C17.0098 11.7639 17.0888 11.9547 17.2294 12.0953C17.3701 12.236 17.5609 12.315 17.7598 12.315C17.9587 12.315 18.1494 12.236 18.2901 12.0953C18.4307 11.9547 18.5098 11.7639 18.5098 11.565C18.5197 10.7708 18.3718 9.98248 18.0747 9.24585C17.7777 8.50922 17.3373 7.8389 16.7791 7.27378C16.221 6.70866 15.5562 6.25999 14.8233 5.95378C14.0904 5.64757 13.304 5.48993 12.5098 5.48999C12.3109 5.48999 12.1201 5.56901 11.9794 5.70966C11.8388 5.85031 11.7598 6.04108 11.7598 6.23999C11.7598 6.4389 11.8388 6.62967 11.9794 6.77032C12.1201 6.91097 12.3109 6.98999 12.5098 6.98999C13.1008 6.99444 13.6852 7.1153 14.2296 7.34565C14.7739 7.57599 15.2675 7.91133 15.6823 8.33249Z" fill="white"/>
</svg>
