<svg width="93" height="61" viewBox="0 0 93 61" fill="none" xmlns="http://www.w3.org/2000/svg">
<path d="M0.000166215 56.1904C0.000166215 52.835 0.00016658 49.4795 0.00615179 46.1241C0.00615179 45.8033 0.0121368 45.4761 0.0779741 45.1682C0.25753 44.3341 0.963785 43.7888 1.89149 43.7696C2.88504 43.7503 3.88457 43.7567 4.87811 43.7567C6.9071 43.7567 8.9301 43.7503 10.9591 43.7631C11.9826 43.7696 12.6768 44.2764 12.8803 45.1554C12.9462 45.4376 12.9581 45.7392 12.9581 46.0343C12.9641 49.6464 12.9641 53.2584 12.9581 56.8705C12.9581 57.4735 12.8205 57.6211 12.2519 57.6211C11.3182 57.6211 10.3785 57.6211 9.44483 57.6211C8.93608 57.6211 8.78047 57.4607 8.78047 56.9025C8.78047 54.0475 8.78047 48.2606 8.78047 48.2221C8.78645 47.202 8.64879 47.0544 7.70912 47.0544C6.83528 47.0544 5.95545 47.0544 5.08161 47.0544C4.36937 47.0544 4.17186 47.2469 4.17186 48.0039C4.16587 50.8846 4.16587 53.7652 4.16587 56.6459C4.16587 56.7999 4.17186 56.9539 4.15989 57.1078C4.14193 57.4286 3.96238 57.6083 3.67509 57.6147C2.62169 57.6211 1.56231 57.6211 0.508909 57.6147C0.269501 57.6147 0.137827 57.4928 0.0540336 57.3131C-0.00581845 57.1784 0.000166215 56.3315 0.000166215 56.1904Z" fill="#4D585B"/>
<path d="M14.7304 60.996C14.5987 60.996 14.467 60.9639 14.3533 60.8869C14.1558 60.7586 14.084 60.5533 14.084 60.2389C14.096 56.5627 14.09 52.8865 14.09 49.2103C14.09 47.8502 14.6765 47.1637 15.9394 47.1445C17.6033 47.1124 19.2732 47.1316 20.943 47.1381C21.6253 47.1445 22.2777 47.3049 22.8703 47.6706C23.7681 48.2287 24.2229 49.1141 24.4085 50.1599C24.6958 51.8087 24.6539 53.464 24.2349 55.0871C23.8818 56.4665 23.0139 57.3006 21.7091 57.4866C20.7994 57.6149 18.1599 57.6213 17.705 57.6213C17.705 57.8266 17.705 57.9999 17.705 58.1731C17.705 58.866 17.705 59.4177 17.705 60.1106C17.705 60.6945 17.4537 60.9832 16.915 60.9896C16.4122 61.0024 15.1733 61.0024 14.7304 60.996ZM17.723 54.3686C17.729 54.6188 17.9145 54.8113 18.1479 54.8177C18.5609 54.8305 19.1175 54.8241 19.5066 54.8177C20.3146 54.7984 20.7276 54.3301 20.8054 53.4832C20.8772 52.7133 20.8652 51.9178 20.7814 51.1479C20.7036 50.378 20.1949 49.9674 19.4647 49.9417C19.0936 49.9289 18.7225 49.9353 18.3514 49.9353C17.8427 49.9353 17.705 50.0765 17.705 50.6154C17.6991 51.6098 17.711 53.496 17.723 54.3686Z" fill="#4D585B"/>
<path d="M36.4022 50.4034C36.0431 48.4851 35.1393 47.4971 33.3617 47.1892C31.6619 46.894 29.9442 46.894 28.2444 47.2341C26.8079 47.5228 25.8922 48.4531 25.5271 49.9672C25.144 51.5519 25.144 53.1494 25.5151 54.734C25.8742 56.2674 26.778 57.2298 28.2384 57.4992C29.1182 57.6596 32.2904 57.7045 32.9667 57.6275C34.888 57.403 35.9713 56.4214 36.3663 54.5416C36.6536 53.1686 36.6596 51.7828 36.4022 50.4034ZM32.9487 53.2071C32.9487 54.208 32.1946 55.0163 31.2609 55.0163H30.5666C29.6329 55.0163 28.8788 54.208 28.8788 53.2071V51.4364C28.8788 50.4355 29.6329 49.6271 30.5666 49.6271H31.225C32.1767 49.6271 32.9487 50.4548 32.9487 51.4749V53.2071Z" fill="#4D585B"/>
<path d="M40.5433 57.5762C38.64 57.4094 37.5806 56.2866 37.3532 54.2528C37.2035 52.9312 37.2035 51.6096 37.419 50.2943C37.7123 48.453 38.8854 47.2533 40.6211 47.1763C42.4286 47.0993 44.2421 47.1314 46.0557 47.1314C46.4148 47.1314 46.5704 47.3174 46.5764 47.7152C46.5883 48.19 46.5824 48.6647 46.5764 49.1459C46.5704 49.595 46.4028 49.7682 45.9778 49.7682C44.9963 49.7747 44.0087 49.7682 43.0271 49.7747C41.7224 49.7811 41.0999 50.3649 40.9982 51.7699C40.9563 52.3923 40.9682 53.0338 41.058 53.6498C41.1837 54.5223 41.6745 54.9393 42.5064 54.965C43.6197 54.9906 44.7389 54.9842 45.8522 54.9842C46.732 54.9842 46.7799 55.0355 46.7799 55.9915C46.7799 56.3251 46.7799 56.6587 46.7799 56.9923C46.7739 57.4543 46.6242 57.6275 46.1933 57.6275C45.2895 57.6339 41.5189 57.666 40.5433 57.5762Z" fill="#4D585B"/>
<path d="M47.6897 52.9249C47.6897 51.6674 47.6837 50.4035 47.6897 49.1461C47.6957 47.8693 48.3002 47.1636 49.4913 47.1508C51.7956 47.1187 54.0999 47.1187 56.3982 47.1508C57.6132 47.1636 58.2117 47.8629 58.2117 49.1717C58.2177 51.7572 58.2177 54.3428 58.2117 56.9283C58.2117 57.4801 58.0681 57.6276 57.5414 57.6276C56.7992 57.6276 56.051 57.6276 55.3089 57.6276C54.7403 57.6276 54.6026 57.4801 54.6026 56.8834C54.6026 54.7983 54.6026 52.7196 54.6026 50.6345C54.6026 49.9352 54.453 49.7748 53.7946 49.7684C53.1961 49.7684 52.5976 49.762 51.9931 49.7684C51.4544 49.7748 51.2808 49.9608 51.2808 50.5383C51.2808 52.6362 51.2808 54.7277 51.2808 56.8257C51.2808 57.4993 51.1611 57.6276 50.5207 57.6276C49.7905 57.6276 49.0543 57.6276 48.3241 57.6276C47.8274 57.6276 47.6777 57.4672 47.6777 56.9411C47.6897 55.6003 47.6897 54.2658 47.6897 52.9249Z" fill="#4D585B"/>
<path d="M68.0749 53.4574C68.9727 53.451 69.5053 53.0275 69.5891 52.0716C69.661 51.2889 69.643 50.4741 69.5293 49.6978C69.2839 48.0361 68.6315 47.3368 67.0993 47.1379C65.3097 46.9134 63.5022 46.8941 61.7186 47.1957C60.0607 47.4779 59.3305 48.235 59.2227 50.0057C59.121 51.6546 59.1449 53.3227 59.2826 54.9715C59.4262 56.6588 60.3121 57.5121 61.8981 57.5699C64.1965 57.6533 66.5008 57.6212 68.8051 57.6276C69.1343 57.6276 69.3078 57.4159 69.3078 57.063C69.3078 56.6139 69.3078 56.1648 69.3078 55.7157C69.3078 54.9266 69.218 54.8304 68.4819 54.8304C66.9556 54.8304 65.4354 54.8368 63.9092 54.8175C63.1071 54.8047 62.7301 54.362 62.772 53.4766C62.9336 53.4638 66.4529 53.4638 68.0749 53.4574ZM63.6757 49.6914C64.1725 49.6593 64.6813 49.6785 65.178 49.6978C65.3516 49.7042 65.5312 49.7684 65.6928 49.8518C65.9681 49.9993 66.0938 50.2495 66.0219 50.5832C65.9501 50.9039 65.6748 50.9938 65.3995 50.9938C64.5137 51.0002 63.6817 50.9938 62.778 50.9938C62.6583 50.1341 62.9276 49.7427 63.6757 49.6914Z" fill="#4D585B"/>
<path d="M74.1822 47.8499C74.1822 47.2917 74.0385 47.1313 73.5298 47.1249C72.7517 47.1185 71.9736 47.1185 71.1896 47.1249C70.7167 47.1249 70.5611 47.2853 70.5611 47.7986C70.5551 50.8589 70.5551 53.9192 70.5611 56.973C70.5611 57.4478 70.7287 57.621 71.1776 57.621C71.9437 57.6274 72.7098 57.621 73.4819 57.621C74.0385 57.621 74.1822 57.4606 74.1822 56.8704C74.1822 55.3691 74.1822 53.8614 74.1822 52.3601C74.1822 50.8589 74.1822 49.3576 74.1822 47.8499Z" fill="#4D585B"/>
<path d="M81.442 57.2939C80.8734 56.4983 79.2873 54.2913 78.4793 53.2327C77.8269 52.373 77.821 52.1228 78.4255 51.2438C78.4913 51.154 80.6041 48.1835 81.1128 47.4586C81.1966 47.3367 81.1188 47.1699 80.9811 47.1634C80.2749 47.1506 78.6349 47.1185 77.8449 47.1442C77.6294 47.1506 77.3421 47.311 77.2164 47.4971C76.3905 48.7289 75.6004 49.9864 74.7924 51.231C74.3376 51.9367 74.3555 52.5911 74.8343 53.284C75.7381 54.58 76.6119 55.9016 77.5037 57.2105C77.7013 57.5056 77.9586 57.6339 78.3058 57.6275C79.0599 57.6146 80.616 57.5954 81.3103 57.5826C81.448 57.589 81.5258 57.4158 81.442 57.2939Z" fill="#4D585B"/>
<path d="M92.1183 47.8117C92.1124 47.2856 91.9627 47.1252 91.4181 47.1252C90.4844 47.1252 89.5567 47.1252 88.623 47.1252C88.3536 47.1252 84.164 47.1252 82.3385 47.1252C81.8358 47.1252 81.6921 47.2856 81.6921 47.8117C81.6921 48.3122 81.6861 48.8126 81.6921 49.313C81.6981 49.6659 81.8597 49.8648 82.2009 49.8712C82.6438 49.8776 84.553 49.8712 85.1037 49.8712C85.1037 50.0636 85.1037 50.1984 85.1037 50.3395C85.1037 52.5144 85.1037 54.683 85.1037 56.8579C85.1037 57.493 85.2294 57.6213 85.8279 57.6213C86.5341 57.6213 87.2404 57.6213 87.9526 57.6213C88.599 57.6213 88.7128 57.4995 88.7128 56.8194C88.7128 54.6701 88.7128 52.5273 88.7128 50.378C88.7128 50.224 88.7128 50.0765 88.7128 49.8712C89.5028 49.8712 91.1487 49.8712 91.5677 49.8712C91.9328 49.8648 92.1124 49.6659 92.1124 49.313C92.1243 48.819 92.1243 48.3186 92.1183 47.8117Z" fill="#4D585B"/>
<path d="M38.9822 0L29.1006 4.1638V42.857C29.1006 43.2098 29.3699 43.3702 29.6991 43.3702H38.3956C38.7248 43.3702 38.9822 43.2098 38.9822 42.857V1.76432L46.2841 4.27286V42.966C46.2841 43.2612 46.5056 43.4985 46.7809 43.4985H47.3794C47.6547 43.4985 47.8762 43.2612 47.8762 42.966V3.10521L38.9822 0Z" fill="#B4B4B4"/>
<path d="M20.4756 15.5901V43.7038H32.9488V18.8429L21.5589 14.8972L20.4756 15.5901Z" fill="#EDF0F5"/>
<path d="M21.7919 14.0247L14.7832 17.1299V42.9916C14.7832 43.3188 15.0286 43.5819 15.3279 43.5819H21.355C21.6542 43.5819 21.8996 43.3188 21.8996 42.9916L21.7979 15.8467L31.9129 19.4908V43.0622C31.9129 43.3445 32.1762 43.306 32.4396 43.306H33.0979C33.3613 43.306 33.6007 43.3445 33.6007 43.0622V18.336L21.7919 14.0247Z" fill="#488A99"/>
<path d="M34.6709 24.1101V43.5818H40.1893V26.4262L34.6709 24.1101Z" fill="#EDF0F5"/>
<path d="M35.0188 22.4229L25.5801 25.3548V43.1392C25.5801 43.383 25.7656 43.5819 25.9931 43.5819H34.6058C34.8332 43.5819 35.0188 43.383 35.0188 43.1392V24.5529L39.4119 26.407V43.0879C39.4119 43.3637 39.6214 43.5819 39.8728 43.5819H40.5192C40.7765 43.5819 40.98 43.3573 40.98 43.0879V25.2907L35.0188 22.4229Z" fill="#DBAE58"/>
<path d="M60.2531 8.48804L51.6523 11.6125V43.0687C51.6523 43.351 51.8977 43.5178 52.209 43.5178H59.7024C60.0077 43.5178 60.2591 43.351 60.2591 43.0687V10.3422L67.4413 12.8315L67.555 43.1586C67.555 43.3895 67.7585 43.3895 68.0159 43.3895H68.5665C68.8179 43.3895 69.0274 43.3959 69.0274 43.1586V11.5997L60.2531 8.48804Z" fill="#488A99"/>
<path d="M54.1957 31.3342L59.1754 33.368V43.7294H53.5254L54.1957 31.3342Z" fill="#EDF0F5"/>
<path d="M54.1951 31.3342L50.0713 33.0729V43.415C50.0713 43.5497 50.197 43.6588 50.3526 43.6588H53.9078C54.0634 43.6588 54.1891 43.5497 54.1891 43.415L54.1771 32.3864" fill="#DBAE58"/>
<path d="M70.4992 23.6611L63.8018 26.5546V43.1777C63.8018 43.4023 63.9813 43.5883 64.2028 43.5883H70.1042C70.3256 43.5883 70.5052 43.4087 70.5052 43.1777V25.5538L77.2326 27.9019V43.1264C77.2326 43.3766 77.4301 43.5819 77.7772 43.5819H78.3279C78.4775 43.5819 78.7767 43.3766 78.7767 43.1264L78.7947 26.6829L70.4992 23.6611Z" fill="#B4B4B4"/>
<path d="M28.7783 7.89792L31.1844 6.86499V9.43769L28.7783 10.4385V7.89792Z" fill="#EDF0F5"/>
<path d="M28.7783 12.9023L31.1844 11.8694V14.4421L28.7783 15.4429V12.9023Z" fill="#EDF0F5"/>
<path d="M17.2679 21.942L14.6045 23.0006V20.46L17.2679 19.3052V21.942Z" fill="#EDF0F5"/>
<path d="M25.3359 31.7452L27.9096 30.7957V33.2272L25.3359 34.1831V31.7452Z" fill="#EDF0F5"/>
<path d="M65.3594 15.5005V17.6113L67.6577 18.4004V16.2704L65.3594 15.5005Z" fill="#488A99"/>
<path d="M65.3594 19.3499V21.4606L67.6577 22.2498V20.1197L65.3594 19.3499Z" fill="#488A99"/>
<path d="M75.0791 30.3914V33.1501L77.4313 33.8558V31.1292L75.0791 30.3914Z" fill="#B4B4B4"/>
</svg>
