<svg width="100" height="100" viewBox="0 0 100 100" fill="none" xmlns="http://www.w3.org/2000/svg">
<path d="M50 100C22.4303 100 0 77.5697 0 50C0 22.4303 22.4303 0 50 0C77.5697 0 100 22.4303 100 50C100 77.5697 77.5697 100 50 100ZM50 3.0303C24.1 3.0303 3.0303 24.1 3.0303 50C3.0303 75.9 24.1 96.9697 50 96.9697C75.9 96.9697 96.9697 75.9 96.9697 50C96.9697 24.1 75.9 3.0303 50 3.0303Z" fill="#DBAE58"/>
<path d="M35.4609 42.5909C39.0173 42.5909 41.9003 39.7079 41.9003 36.1516C41.9003 32.5952 39.0173 29.7122 35.4609 29.7122C31.9045 29.7122 29.0215 32.5952 29.0215 36.1516C29.0215 39.7079 31.9045 42.5909 35.4609 42.5909Z" fill="#DBAE58"/>
<path d="M66.1425 42.5909C69.6989 42.5909 72.5819 39.7079 72.5819 36.1516C72.5819 32.5952 69.6989 29.7122 66.1425 29.7122C62.5861 29.7122 59.7031 32.5952 59.7031 36.1516C59.7031 39.7079 62.5861 42.5909 66.1425 42.5909Z" fill="#DBAE58"/>
<path d="M31.2911 72.4788C31.0184 72.4788 30.7456 72.4061 30.4972 72.2546C29.785 71.8122 29.5638 70.8818 30.0032 70.1697C34.3335 63.1576 41.8366 58.9697 50.0729 58.9697C58.1911 58.9697 65.6366 63.0667 69.9881 69.9243C70.4366 70.6303 70.2275 71.5667 69.5214 72.0122C68.8123 72.4576 67.879 72.2546 67.4305 71.5455C63.6396 65.5667 57.1487 62 50.0759 62C42.9002 62 36.3608 65.6485 32.585 71.7637C32.2972 72.2243 31.8002 72.4788 31.2911 72.4788Z" fill="#DBAE58"/>
<path d="M32.6619 44.0927C32.6253 44.0302 32.5687 44 32.4998 44C32.4239 44 32.3725 44.0331 32.3376 44.0927C30.951 46.4862 30.2539 48.0362 30.2539 48.7538C30.2539 49.1608 30.3527 49.5376 30.554 49.882C30.7563 50.2279 31.0302 50.4995 31.3751 50.6997C31.7201 50.8999 32.0962 51 32.4998 51C32.9034 51 33.2795 50.8999 33.6245 50.6997C33.9695 50.4995 34.2407 50.2265 34.4421 49.882C34.6443 49.5361 34.7457 49.1608 34.7457 48.7538C34.7457 48.0362 34.0536 46.4832 32.6619 44.0927ZM34.1143 49.6921C33.9453 49.9784 33.7169 50.2014 33.4313 50.3685C33.1441 50.5363 32.8344 50.6202 32.4998 50.6202C32.1617 50.6202 31.8485 50.5363 31.5614 50.3685C31.2758 50.2015 31.0495 49.9792 30.8818 49.6921C30.7149 49.4066 30.6334 49.0923 30.6334 48.7538C30.6334 48.5639 30.6979 48.2915 30.8266 47.9331C30.9567 47.5703 31.1258 47.1802 31.3303 46.7636C31.7433 45.9209 32.1272 45.2107 32.4998 44.5726C32.8723 45.2107 33.2534 45.9224 33.6659 46.7636C33.871 47.1817 34.0399 47.571 34.1695 47.9331C34.2985 48.2923 34.3662 48.5639 34.3662 48.7538C34.3662 49.0923 34.2834 49.4058 34.1143 49.6921Z" fill="#488A99"/>
<path d="M33.2133 47.4466C33.1347 47.5129 33.1225 47.6373 33.1926 47.7153C33.2089 47.7337 33.2642 47.7984 33.365 47.964C33.416 48.0472 33.4568 48.137 33.4927 48.2327C33.5638 48.4233 33.6318 48.6839 33.5858 48.923C33.5179 49.2771 33.273 49.5869 32.8303 49.8438C32.7382 49.8975 32.7065 50.0027 32.7613 50.0962C32.7996 50.161 32.851 50.1963 32.9235 50.1963C32.9545 50.1963 32.9856 50.1889 33.0201 50.175C33.5686 49.8614 33.8812 49.4677 33.9619 48.9886C34.0951 48.1981 33.506 47.4952 33.4823 47.4673C33.4129 47.3848 33.2935 47.3782 33.2133 47.4466Z" fill="#488A99"/>
<path d="M38.6619 51.0927C38.6253 51.0302 38.5687 51 38.4998 51C38.4239 51 38.3725 51.0331 38.3376 51.0927C36.951 53.4862 36.2539 55.0362 36.2539 55.7538C36.2539 56.1608 36.3527 56.5376 36.554 56.882C36.7563 57.2279 37.0302 57.4995 37.3751 57.6997C37.7201 57.8999 38.0962 58 38.4998 58C38.9034 58 39.2795 57.8999 39.6245 57.6997C39.9695 57.4995 40.2407 57.2265 40.4421 56.882C40.6443 56.5361 40.7457 56.1608 40.7457 55.7538C40.7457 55.0362 40.0536 53.4832 38.6619 51.0927ZM40.1143 56.6921C39.9453 56.9784 39.7169 57.2014 39.4313 57.3685C39.1441 57.5363 38.8344 57.6202 38.4998 57.6202C38.1617 57.6202 37.8485 57.5363 37.5614 57.3685C37.2758 57.2015 37.0495 56.9792 36.8818 56.6921C36.7149 56.4066 36.6334 56.0923 36.6334 55.7538C36.6334 55.5639 36.6979 55.2915 36.8266 54.9331C36.9567 54.5703 37.1258 54.1802 37.3303 53.7636C37.7433 52.9209 38.1272 52.2107 38.4998 51.5726C38.8723 52.2107 39.2534 52.9224 39.6659 53.7636C39.871 54.1817 40.0399 54.571 40.1695 54.9331C40.2985 55.2923 40.3662 55.5639 40.3662 55.7538C40.3662 56.0923 40.2834 56.4058 40.1143 56.6921Z" fill="#488A99"/>
<path d="M39.2133 54.4466C39.1347 54.5129 39.1225 54.6373 39.1926 54.7153C39.2089 54.7337 39.2642 54.7984 39.365 54.964C39.416 55.0472 39.4568 55.137 39.4927 55.2327C39.5638 55.4233 39.6318 55.6839 39.5858 55.923C39.5179 56.2771 39.273 56.5869 38.8303 56.8438C38.7382 56.8975 38.7065 57.0027 38.7613 57.0962C38.7996 57.161 38.851 57.1963 38.9235 57.1963C38.9545 57.1963 38.9856 57.1889 39.0201 57.175C39.5686 56.8614 39.8812 56.4677 39.9619 55.9886C40.0951 55.1981 39.506 54.4952 39.4823 54.4673C39.4129 54.3848 39.2935 54.3782 39.2133 54.4466Z" fill="#488A99"/>
<path d="M31.6619 58.0927C31.6253 58.0302 31.5687 58 31.4998 58C31.4239 58 31.3725 58.0331 31.3376 58.0927C29.951 60.4862 29.2539 62.0362 29.2539 62.7538C29.2539 63.1608 29.3527 63.5376 29.554 63.882C29.7563 64.2279 30.0302 64.4995 30.3751 64.6997C30.7201 64.8999 31.0962 65 31.4998 65C31.9034 65 32.2795 64.8999 32.6245 64.6997C32.9695 64.4995 33.2407 64.2265 33.4421 63.882C33.6443 63.5361 33.7457 63.1608 33.7457 62.7538C33.7457 62.0362 33.0536 60.4832 31.6619 58.0927ZM33.1143 63.6921C32.9453 63.9784 32.7169 64.2014 32.4313 64.3685C32.1441 64.5363 31.8344 64.6202 31.4998 64.6202C31.1617 64.6202 30.8485 64.5363 30.5614 64.3685C30.2758 64.2015 30.0495 63.9792 29.8818 63.6921C29.7149 63.4066 29.6334 63.0923 29.6334 62.7538C29.6334 62.5639 29.6979 62.2915 29.8266 61.9331C29.9567 61.5703 30.1258 61.1802 30.3303 60.7636C30.7433 59.9209 31.1272 59.2107 31.4998 58.5726C31.8723 59.2107 32.2534 59.9224 32.6659 60.7636C32.871 61.1817 33.0399 61.571 33.1695 61.9331C33.2985 62.2923 33.3662 62.5639 33.3662 62.7538C33.3662 63.0923 33.2834 63.4058 33.1143 63.6921Z" fill="#488A99"/>
<path d="M32.2133 61.4466C32.1347 61.5129 32.1225 61.6373 32.1926 61.7153C32.2089 61.7337 32.2642 61.7984 32.365 61.964C32.416 62.0472 32.4568 62.137 32.4927 62.2327C32.5638 62.4233 32.6318 62.6839 32.5858 62.923C32.5179 63.2771 32.273 63.5869 31.8303 63.8438C31.7382 63.8975 31.7065 64.0027 31.7613 64.0962C31.7996 64.161 31.851 64.1963 31.9235 64.1963C31.9545 64.1963 31.9856 64.1889 32.0201 64.175C32.5686 63.8614 32.8812 63.4677 32.9619 62.9886C33.0951 62.1981 32.506 61.4952 32.4823 61.4673C32.4129 61.3848 32.2935 61.3782 32.2133 61.4466Z" fill="#488A99"/>
</svg>
