<svg width="50" height="50" viewBox="0 0 50 50" fill="none" xmlns="http://www.w3.org/2000/svg">
  <path d="M24.9995 16.3137C24.6876 16.3137 24.3758 16.1874 24.1464 15.9343L4.64008 0H1.16007C0.152562 0 -0.374315 1.20959 0.306937 1.95959L24.147 22.6685C24.3764 22.921 24.6883 23.0479 25.0001 23.0479C25.312 23.0479 25.6239 22.9216 25.8533 22.6685L49.6933 1.95959C50.374 1.20959 49.8477 0 48.8402 0H45.3602L25.8539 15.9343C25.7454 16.054 25.6134 16.1496 25.4663 16.2149C25.3192 16.2802 25.1602 16.3139 24.9995 16.3137V16.3137Z" fill="#4D585B"/>
  <path d="M24.9995 29.7981C24.6876 29.7981 24.3758 29.6718 24.1464 29.4186L4.64008 13.4844H1.16007C0.152562 13.4844 -0.374315 14.694 0.306937 15.444L24.147 36.1528C24.3764 36.4054 24.6883 36.5322 25.0001 36.5322C25.312 36.5322 25.6239 36.406 25.8533 36.1528L49.6933 15.444C50.374 14.694 49.8477 13.4844 48.8402 13.4844H45.3602L25.8539 29.4186C25.7454 29.5384 25.6134 29.634 25.4663 29.6993C25.3192 29.7646 25.1602 29.7983 24.9995 29.7981V29.7981Z" fill="#4D585B"/>
  <path d="M24.9995 43.2649C24.6876 43.2649 24.3758 43.1386 24.1464 42.8854L4.64008 26.9512H1.16007C0.152562 26.9512 -0.374315 28.1608 0.306937 28.9108L24.147 49.6196C24.3764 49.8721 24.6883 49.999 25.0001 49.999C25.312 49.999 25.6239 49.8728 25.8533 49.6196L49.6933 28.9108C50.374 28.1608 49.8477 26.9512 48.8402 26.9512H45.3602L25.8539 42.8854C25.7454 43.0052 25.6134 43.1008 25.4663 43.1661C25.3192 43.2314 25.1602 43.2651 24.9995 43.2649V43.2649Z" fill="#4D585B"/>
</svg>
