<svg width="36" height="36" viewBox="0 0 36 36" fill="none" xmlns="http://www.w3.org/2000/svg">
<path d="M10.4823 4.84619C10.4823 2.90773 12.0054 1.38469 13.9438 1.38469C15.8822 1.38469 17.4053 2.9078 17.4053 4.84619V8.16927C18.236 7.3385 18.7899 6.09231 18.7899 4.84619C18.79 2.21538 16.5746 0 13.9438 0C11.3131 0 9.09766 2.21538 9.09766 4.84619C9.09766 6.23081 9.6515 7.3385 10.4823 8.16927V4.84619Z" fill="#488A99"/>
<path d="M30.559 12.4616C29.4513 12.4616 28.482 13.4309 28.482 14.5386V17.5847V18.0001H27.0974V14.8155V13.1539C27.0974 12.0462 26.1281 11.077 25.0204 11.077C23.9127 11.077 22.9435 12.0462 22.9435 13.1539V14.5386V16.6154H21.5589V14.5385V11.7693C21.5589 10.6616 20.5896 9.69229 19.4819 9.69229C18.3742 9.69229 17.405 10.6616 17.405 11.7693V14.4001V18.0001H16.0204V14.5386V4.84625C16.0204 3.73855 15.0511 2.76929 13.9434 2.76929C12.8357 2.76929 11.8665 3.73855 11.8665 4.84625V19.1077C8.95874 16.0616 5.22032 12.7385 3.69728 14.2616C2.17417 15.7847 6.05109 19.9385 11.4511 29.077C13.9434 33.2308 16.9896 36.0001 22.2511 36.0001C27.9279 36.0001 32.6357 31.2924 32.6357 25.6154V21.0462V14.5385C32.6359 13.4309 31.6667 12.4616 30.559 12.4616Z" fill="#488A99"/>
</svg>
