<svg width="16" height="30" viewBox="0 0 16 30" fill="none" xmlns="http://www.w3.org/2000/svg">
<path d="M4.67488 14.9997C4.67488 14.8126 4.76255 14.6255 4.93833 14.4878L16 2.78405V0.696042C16 0.0915372 15.1603 -0.224589 14.6396 0.184162L0.263383 14.4882C0.0880252 14.6258 6.19041e-07 14.813 6.19041e-07 15.0001C6.19041e-07 15.1872 0.0876087 15.3743 0.263383 15.512L14.6396 29.816C15.1603 30.2244 16 29.9086 16 29.3041L16 27.2161L4.93833 15.5123C4.85516 15.4472 4.7888 15.368 4.74346 15.2798C4.69813 15.1915 4.67474 15.0961 4.67488 14.9997Z" fill="#4D585B"/>
</svg>
