<svg width="7" height="7" viewBox="0 0 7 7" fill="none" xmlns="http://www.w3.org/2000/svg">
<path d="M3.66192 0.0927323C3.62534 0.0301742 3.56875 0 3.49978 0C3.42391 0 3.37246 0.0331174 3.33764 0.0927323C1.95096 2.48618 1.25391 4.03617 1.25391 4.75375C1.25391 5.16076 1.35268 5.53758 1.55404 5.88202C1.75629 6.22794 2.03016 6.49952 2.37511 6.69972C2.72008 6.89991 3.09616 7 3.49978 7C3.9034 7 4.2795 6.89991 4.62445 6.69972C4.96948 6.49953 5.2407 6.22647 5.44206 5.88202C5.64431 5.53611 5.74566 5.16076 5.74566 4.75375C5.74565 4.03617 5.05361 2.48323 3.66192 0.0927323ZM5.11433 5.69214C4.94527 5.97844 4.71689 6.20144 4.43125 6.36851C4.14415 6.53632 3.83444 6.62022 3.49978 6.62022C3.16167 6.62022 2.8485 6.53633 2.56139 6.36851C2.27583 6.20145 2.04951 5.97918 1.88178 5.69214C1.71485 5.40657 1.63338 5.09231 1.63338 4.75375C1.63338 4.56387 1.69793 4.29155 1.82658 3.93312C1.95671 3.57027 2.12576 3.1802 2.33029 2.76364C2.74333 1.92093 3.12723 1.2107 3.49978 0.572604C3.87234 1.21071 4.25344 1.92241 4.66589 2.76365C4.87102 3.18169 5.03985 3.57103 5.16952 3.93313C5.29855 4.2923 5.36619 4.56387 5.36619 4.75376C5.36619 5.09231 5.28339 5.40585 5.11433 5.69214Z" fill="#488A99"/>
<path d="M4.21327 3.44664C4.13474 3.51288 4.12252 3.63726 4.19259 3.71528C4.20885 3.73368 4.26421 3.79844 4.36504 3.96405C4.41597 4.04722 4.45681 4.13701 4.49272 4.23269C4.56375 4.42331 4.63175 4.68386 4.58583 4.92305C4.51789 5.27706 4.27296 5.58691 3.83033 5.84377C3.73818 5.8975 3.70653 6.00274 3.76129 6.09621C3.79964 6.16098 3.85101 6.19631 3.92351 6.19631C3.95449 6.19631 3.98555 6.18894 4.02007 6.17496C4.5686 5.86143 4.88118 5.46768 4.96191 4.98855C5.09505 4.19809 4.50604 3.49523 4.48234 3.46725C4.41287 3.38482 4.29349 3.37819 4.21327 3.44664Z" fill="#488A99"/>
</svg>
