<?xml version="1.0" encoding="utf-8"?>
<!-- Generator: Adobe Illustrator 26.1.0, SVG Export Plug-In . SVG Version: 6.00 Build 0)  -->
<svg version="1.1" xmlns="http://www.w3.org/2000/svg" xmlns:xlink="http://www.w3.org/1999/xlink" x="0px" y="0px"
	 viewBox="0 0 1920 1080" style="enable-background:new 0 0 1920 1080;" xml:space="preserve">
<style type="text/css">
	.st0{fill:#EEF1F6;}
	.st1{fill:#4D585B;}
	.st2{fill:#B4B4B4;}
	.st3{fill:#EDF0F5;}
	.st4{fill:#488A99;}
	.st5{fill:#DBAE58;}
</style>
<g id="Layer_1">
	<rect class="st0" width="1920" height="1080"/>
</g>
<g id="Layer_2">
	<g>
		<g>
			<g>
				<path class="st1" d="M190.4,967.8c0-52.3,0-104.6,0.1-156.9c0-5,0.1-10.1,1.2-14.9c3-13,14.8-21.5,30.3-21.8
					c16.6-0.3,33.3-0.2,49.9-0.2c33.9,0,67.7-0.1,101.6,0.1c17.1,0.1,28.7,8,32.1,21.7c1.1,4.4,1.3,9.1,1.3,13.7
					c0.1,56.3,0.1,112.6,0,168.9c0,9.4-2.3,11.7-11.8,11.7c-15.6,0-31.3,0-46.9,0c-8.5,0-11.1-2.5-11.1-11.2c0-44.5,0-134.7,0-135.3
					c0.1-15.9-2.2-18.2-17.9-18.2c-14.6,0-29.3,0-43.9,0c-11.9,0-15.2,3-15.2,14.8c-0.1,44.9-0.1,89.8-0.1,134.7
					c0,2.4,0.1,4.8-0.1,7.2c-0.3,5-3.3,7.8-8.1,7.9c-17.6,0.1-35.3,0.1-52.9,0c-4,0-6.2-1.9-7.6-4.7
					C190.3,983.2,190.4,970,190.4,967.8z"/>
			</g>
			<path class="st1" d="M436.5,1042.7c-2.2,0-4.4-0.5-6.3-1.7c-3.3-2-4.5-5.2-4.5-10.1c0.2-57.3,0.1-114.6,0.1-171.9
				c0-21.2,9.8-31.9,30.9-32.2c27.8-0.5,55.7-0.2,83.6-0.1c11.4,0.1,22.3,2.6,32.2,8.3c15,8.7,22.6,22.5,25.7,38.8
				c4.8,25.7,4.1,51.5-2.9,76.8c-5.9,21.5-20.4,34.5-42.2,37.4c-15.2,2-59.3,2.1-66.9,2.1c0,3.2,0,5.9,0,8.6c0,10.8,0,19.4,0,30.2
				c0,9.1-4.2,13.6-13.2,13.7C464.6,1042.8,443.9,1042.8,436.5,1042.7z M486.5,939.4c0.1,3.9,3.2,6.9,7.1,7c6.9,0.2,16.2,0.1,22.7,0
				c13.5-0.3,20.4-7.6,21.7-20.8c1.2-12,1-24.4-0.4-36.4c-1.3-12-9.8-18.4-22-18.8c-6.2-0.2-12.4-0.1-18.6-0.1
				c-8.5,0-10.8,2.2-10.8,10.6C486.1,896.4,486.3,925.8,486.5,939.4z"/>
			<path class="st1" d="M798.6,877.6c-6-29.9-21.1-45.3-50.8-50.1c-28.4-4.6-57.1-4.6-85.5,0.7c-24,4.5-39.3,19-45.4,42.6
				c-6.4,24.7-6.4,49.6-0.2,74.3c6,23.9,21.1,38.9,45.5,43.1c14.7,2.5,67.7,3.2,79,2c32.1-3.5,50.2-18.8,56.8-48.1
				C802.8,920.7,802.9,899.1,798.6,877.6z M740.9,921.3c0,15.6-12.6,28.2-28.2,28.2h-11.6c-15.6,0-28.2-12.6-28.2-28.2v-27.6
				c0-15.6,12.6-28.2,28.2-28.2h11c15.9,0,28.8,12.9,28.8,28.8V921.3z"/>
			<path class="st1" d="M867.8,989.4c-31.8-2.6-49.5-20.1-53.3-51.8c-2.5-20.6-2.5-41.2,1.1-61.7c4.9-28.7,24.5-47.4,53.5-48.6
				c30.2-1.2,60.5-0.7,90.8-0.7c6,0,8.6,2.9,8.7,9.1c0.2,7.4,0.1,14.8,0,22.3c-0.1,7-2.9,9.7-10,9.7c-16.4,0.1-32.9,0-49.3,0.1
				c-21.8,0.1-32.2,9.2-33.9,31.1c-0.7,9.7-0.5,19.7,1,29.3c2.1,13.6,10.3,20.1,24.2,20.5c18.6,0.4,37.3,0.3,55.9,0.3
				c14.7,0,15.5,0.8,15.5,15.7c0,5.2,0,10.4,0,15.6c-0.1,7.2-2.6,9.9-9.8,9.9C947.1,990.3,884.1,990.8,867.8,989.4z"/>
			<path class="st1" d="M987.2,916.9c0-19.6-0.1-39.3,0-58.9c0.1-19.9,10.2-30.9,30.1-31.1c38.5-0.5,77-0.5,115.4,0
				c20.3,0.2,30.3,11.1,30.3,31.5c0.1,40.3,0.1,80.6,0,120.9c0,8.6-2.4,10.9-11.2,10.9c-12.4,0-24.9,0-37.3,0
				c-9.5,0-11.8-2.3-11.8-11.6c0-32.5,0-64.9,0-97.4c0-10.9-2.5-13.4-13.5-13.5c-10,0-20-0.1-30.1,0c-9,0.1-11.9,3-11.9,12
				c0,32.7,0,65.3,0,98c0,10.5-2,12.5-12.7,12.5c-12.2,0-24.5,0-36.7,0c-8.3,0-10.8-2.5-10.8-10.7
				C987.2,958.6,987.2,937.8,987.2,916.9z"/>
			<path class="st1" d="M1327.8,925.2c15-0.1,23.9-6.7,25.3-21.6c1.2-12.2,0.9-24.9-1-37c-4.1-25.9-15-36.8-40.6-39.9
				c-29.9-3.5-60.1-3.8-89.9,0.9c-27.7,4.4-39.9,16.2-41.7,43.8c-1.7,25.7-1.3,51.7,1,77.4c2.4,26.3,17.2,39.6,43.7,40.5
				c38.4,1.3,76.9,0.8,115.4,0.9c5.5,0,8.4-3.3,8.4-8.8c0-7,0-14,0-21c0-12.3-1.5-13.8-13.8-13.8c-25.5,0-50.9,0.1-76.4-0.2
				c-13.4-0.2-19.7-7.1-19-20.9C1241.9,925.3,1300.7,925.3,1327.8,925.2z M1254.3,866.5c8.3-0.5,16.8-0.2,25.1,0.1
				c2.9,0.1,5.9,1.1,8.6,2.4c4.6,2.3,6.7,6.2,5.5,11.4c-1.2,5-5.8,6.4-10.4,6.4c-14.8,0.1-28.7,0-43.8,0
				C1237.3,873.4,1241.8,867.3,1254.3,866.5z"/>
			<g>
				<path class="st1" d="M1429.8,837.8c0-8.7-2.4-11.2-10.9-11.3c-13-0.1-26-0.1-39.1,0c-7.9,0-10.5,2.5-10.5,10.5
					c-0.1,47.7-0.1,95.4,0,143c0,7.4,2.8,10.1,10.3,10.1c12.8,0.1,25.6,0,38.5,0c9.3,0,11.7-2.5,11.7-11.7c0-23.4,0-46.9,0-70.3
					C1429.8,884.7,1429.8,861.3,1429.8,837.8z"/>
				<path class="st1" d="M1551.1,985c-9.5-12.4-36-46.8-49.5-63.3c-10.9-13.4-11-17.3-0.9-31c1.1-1.4,36.4-47.7,44.9-59
					c1.4-1.9,0.1-4.5-2.2-4.6c-11.8-0.2-39.2-0.7-52.4-0.3c-3.6,0.1-8.4,2.6-10.5,5.5c-13.8,19.2-27,38.8-40.5,58.2
					c-7.6,11-7.3,21.2,0.7,32c15.1,20.2,29.7,40.8,44.6,61.2c3.3,4.6,7.6,6.6,13.4,6.5c12.6-0.2,38.6-0.5,50.2-0.7
					C1551.2,989.6,1552.5,986.9,1551.1,985z"/>
			</g>
			<path class="st1" d="M1729.5,837.2c-0.1-8.2-2.6-10.7-11.7-10.7c-15.6,0-31.1,0-46.7,0l0,0c-4.5,0-74.5,0-105,0
				c-8.4,0-10.8,2.5-10.8,10.7c0,7.8-0.1,15.6,0,23.4c0.1,5.5,2.8,8.6,8.5,8.7c7.4,0.1,39.3,0,48.5,0c0,3,0,5.1,0,7.3
				c0,33.9,0,67.7,0,101.6c0,9.9,2.1,11.9,12.1,11.9c11.8,0,23.6,0,35.5,0c10.8,0,12.7-1.9,12.7-12.5c0-33.5,0-66.9,0-100.4
				c0-2.4,0-4.7,0-7.9l0,0c13.2,0,40.7,0,47.7,0c6.1-0.1,9.1-3.2,9.1-8.7C1729.6,852.9,1729.6,845.1,1729.5,837.2z"/>
		</g>
	</g>
</g>
<g id="Layer_3">
	<path class="st2" d="M841.7,66.6l-165.1,64.9v603.1c0,5.5,4.5,10,10,10h145.1c5.5,0,10-4.5,10-10V94.1l122,39.1v603.1
		c0,4.6,3.7,8.3,8.3,8.3h10c4.6,0,8.3-3.7,8.3-8.3V115L841.7,66.6z"/>
	<g>
		<polygon class="st3" points="532.5,309.6 532.5,747.8 740.9,747.8 740.9,360.3 550.6,298.8 		"/>
		<path class="st4" d="M554.5,285.2l-117.1,48.4v403.1c0,5.1,4.1,9.2,9.1,9.2h100.7c5,0,9.1-4.1,9.1-9.2l-1.7-423.1l169,56.8v367.4
			c0,4.4,3.6,8,8,8h12.2c4.4,0,8-3.6,8-8V352.4L554.5,285.2z"/>
	</g>
	<g>
		<polygon class="st3" points="769.7,442.4 769.7,745.9 861.9,745.9 861.9,478.5 		"/>
		<path class="st5" d="M775.5,416.1l-157.7,45.7V739c0,3.8,3.1,6.9,6.9,6.9h143.9c3.8,0,6.9-3.1,6.9-6.9V449.3l73.4,28.9v260
			c0,4.3,3.5,7.7,7.7,7.7h10.8c4.3,0,7.7-3.5,7.7-7.7V460.8L775.5,416.1z"/>
	</g>
	<path class="st4" d="M1197.1,198.9l-143.7,48.7v490.3c0,4.4,4.1,8,9.3,8h125.2c5.1,0,9.3-3.6,9.3-8V227.8l120,38.8l1.9,472.7
		c0,3.6,3.4,6.6,7.7,6.6h9.2c4.2,0,7.7-2.9,7.7-6.6V247.4L1197.1,198.9z"/>
	<g>
		<polygon class="st3" points="1090.4,553.9 1173.6,585.6 1173.6,747.1 1079.2,747.1 		"/>
		<path class="st5" d="M1090.4,553.9l-68.9,27.1v161.2c0,2.1,2.1,3.8,4.7,3.8h59.4c2.6,0,4.7-1.7,4.7-3.8l-0.2-171.9"/>
	</g>
	<path class="st2" d="M1368.3,435.4l-111.9,45.1v259.1c0,3.5,3,6.4,6.7,6.4h98.6c3.7,0,6.7-2.8,6.7-6.4V464.9l112.4,36.6l0,237.3
		c0,3.9,3.3,7.1,9.1,7.1h9.2c2.5,0,7.5-3.2,7.5-7.1l0.3-256.3L1368.3,435.4z"/>
</g>
<g id="Layer_5">
	<g>
		<polygon class="st3" points="675.8,163.8 716,147.7 716,187.8 675.8,203.4 		"/>
		<polygon class="st3" points="675.8,241.8 716,225.7 716,265.8 675.8,281.4 		"/>
	</g>
	<polygon class="st3" points="481.5,382.7 437,399.2 437,359.6 481.5,341.6 	"/>
	<polygon class="st3" points="617.3,535.5 660.3,520.7 660.3,558.6 617.3,573.5 	"/>
	<g>
		<g>
			<polygon class="st4" points="1280,282.3 1280,315.2 1318.4,327.5 1318.4,294.3 			"/>
			<polygon class="st4" points="1280,342.3 1280,375.2 1318.4,387.5 1318.4,354.3 			"/>
		</g>
	</g>
	<polygon class="st2" points="1442.4,514.4 1442.4,557.4 1481.7,568.4 1481.7,525.9 	"/>
</g>
</svg>
