  <svg id="svg" width="362" height="275" viewBox="0 0 362 275" fill="none" xmlns="http://www.w3.org/2000/svg">
    <path id="elephant-eye" d="M99.5996 110.3L103.1 106.8" stroke="#EC9A29" stroke-width="21" stroke-miterlimit="10" stroke-linecap="square"/>
    <path id="elephant-body" d="M17.9004 185.2C17.9004 185.2 55.7004 226.6 121.2 197.4C177.7 172.3 177.6 110.6 177.6 110.6L142.3 99.1C142.3 99.1 96.8004 167.2 126.8 227.7C136.7 247.8 153.7 260.1 176.7 260.6C211.5 261.4 224.9 220.5 224.9 220.5H229C229 220.5 240.1 263 277.8 263C351 263 355.2 167.4 345.6 127.5C337 91.5 320.4 60.5 291.7 41C214.5 -11.7 139.5 20.8 115.9 38.6C81.0004 64.9 59.2004 98.1 60.1004 146.4" stroke="#EC9A29" stroke-width="24" stroke-miterlimit="10" stroke-linecap="square"/>
  </svg>
