<?xml version="1.0" encoding="utf-8"?>
<!-- Generator: Adobe Illustrator 26.1.0, SVG Export Plug-In . SVG Version: 6.00 Build 0)  -->
<svg version="1.1" xmlns="http://www.w3.org/2000/svg" xmlns:xlink="http://www.w3.org/1999/xlink" x="0px" y="0px"
	 viewBox="0 0 2134.1 1080" style="enable-background:new 0 0 2134.1 1080;" xml:space="preserve">
<style type="text/css">
	.st0{fill:#251B40;}
	.st1{fill:#F09926;}
	.st2{fill:#FFFFFD;}
	.st3{fill:none;stroke:#F09926;stroke-width:21;stroke-linecap:square;stroke-miterlimit:10;}
	.st4{fill:none;stroke:#F09926;stroke-width:24;stroke-linecap:square;stroke-miterlimit:10;}
</style>
<g id="Layer_2">
</g>
<g id="Layer_1">
</g>
<g id="Layer_3">
</g>
<g id="Layer_4">
	<rect class="st0" width="2134.1" height="1080"/>
	<path class="st2" d="M1637.5,507.3v99.5c0,20.4,14,34.4,32.6,34.4c18.9,0,32.6-17.3,32.6-34.4c0-16.9-13.1-34.4-32.6-34.4
		c-4.7,0-9.1,0.9-13.1,2.4c-1.8-4.2-8-19.5-9.1-22.4c6.9-2.7,14.2-4,22.2-4c34.4,0,59.9,26.9,59.9,58.4c0,32.9-27.3,58.6-59.9,58.6
		c-33.1,0-59.7-26-59.7-58.6v-99.5H1637.5z"/>
	<path class="st2" d="M1538.5,548.4c4.7,0,8.9,0.4,12.9,1.3l2.2,0.4c0.7,0.2,1.6,0.4,2.2,0.7c24.6,7.1,42.6,29.5,42.6,56.2
		c0,1.6-0.2,3.1-0.2,4.7c-0.4,4.4-1.3,8.7-2.7,12.7c-10-4.9-21.1-7.3-32.9-7.3c-11.8,0-22.9,2.4-33.3,7.1v-26
		c12.4-3.6,23.8-4.7,33.1-4.7c2,0,3.8,0.2,5.8,0.2c-4.2-9.5-14.9-18.6-29.7-18.6c-18,0-32.6,14.4-32.6,32
		c0,17.8,15.1,31.7,32.6,31.7c9.1,0,16.9-3.1,23.3-9.5c4.7,5.1,12.7,13.8,18.6,20.2c-10.4,9.8-25.1,16-42,16
		c-33.7,0-59.7-26.6-59.7-58.4C1478.7,574.3,1505.4,548.4,1538.5,548.4z"/>
	<path class="st2" d="M1239.1,510h26v91.4c0,20.2,16.4,37.9,37.9,37.9c21.1,0,37.9-16.8,37.9-37.9V510h26v91.4
		c0,20.2,16.2,37.9,37.7,37.9c21.1,0,37.9-16.8,37.9-37.9V510h26v91.4c0,35.9-29,64-63.9,64c-20.7,0-39-9.6-50.7-25.2
		c-11.9,15.7-30.2,25.2-50.9,25.2c-35.4,0-63.9-28.5-63.9-64V510z"/>
	<path class="st2" d="M1162.1,548.4c4.7,0,8.9,0.4,12.9,1.3l2.2,0.4c0.7,0.2,1.6,0.4,2.2,0.7c24.6,7.1,42.6,29.5,42.6,56.2
		c0,1.6-0.2,3.1-0.2,4.7c-0.4,4.4-1.3,8.7-2.7,12.7c-10-4.9-21.1-7.3-32.9-7.3s-22.9,2.4-33.3,7.1v-26c12.4-3.6,23.8-4.7,33.1-4.7
		c2,0,3.8,0.2,5.8,0.2c-4.2-9.5-14.9-18.6-29.7-18.6c-18,0-32.6,14.4-32.6,32c0,17.8,15.1,31.7,32.6,31.7c9.1,0,16.9-3.1,23.3-9.5
		c4.7,5.1,12.7,13.8,18.6,20.2c-10.4,9.8-25.1,16-42,16c-33.7,0-59.7-26.6-59.7-58.4C1102.3,574.3,1129,548.4,1162.1,548.4z"/>
	<path class="st2" d="M1061.6,665.4V510h27.3v155.4H1061.6z"/>
	<path class="st2" d="M996.2,531.9h27.1v35.7h16v26.6h-16v22.9c0,11.8,9.8,21.5,21.5,21.5h6.7v26.6h-6.7
		c-26.9,0-48.6-22.2-48.6-48.8V531.9z"/>
	<path class="st2" d="M930.8,531.9h27.1v35.7h16v26.6h-16v22.9c0,11.8,9.8,21.5,21.5,21.5h6.7v26.6h-6.7
		c-26.9,0-48.6-22.2-48.6-48.8V531.9z"/>
	<g>
		<path class="st2" d="M914.9,554.4v111h-27.1v-111H914.9z"/>
		<line class="st3" x1="899.3" y1="520.6" x2="902.9" y2="517.1"/>
	</g>
	<path class="st2" d="M787.6,510.2h27.1v87.2c0,24.2,22,40.8,49.3,40.8h13.1v27.1h-14.9c-41.3,0-74.6-29.7-74.6-66.6V510.2z"/>
	<g>
		<line class="st3" x1="485.7" y1="512.7" x2="489.3" y2="509.1"/>
		<path class="st4" d="M404,587.5c0,0,37.8,41.4,103.3,12.2c56.5-25.1,56.4-86.8,56.4-86.8l-35.3-11.5c0,0-45.5,68.1-15.5,128.6
			c9.9,20.1,26.9,32.4,49.9,32.9c34.8,0.8,48.2-40.1,48.2-40.1h4.1c0,0,11.1,42.5,48.8,42.5c73.2,0,77.4-95.6,67.8-135.5
			c-8.6-36-25.2-67-53.9-86.5c-77.2-52.7-152.2-20.2-175.8-2.4c-34.9,26.3-56.7,59.5-55.8,107.8"/>
	</g>
</g>
</svg>
