<?xml version="1.0" encoding="utf-8"?>
<!-- Generator: Adobe Illustrator 26.1.0, SVG Export Plug-In . SVG Version: 6.00 Build 0)  -->
<svg version="1.1" xmlns="http://www.w3.org/2000/svg" xmlns:xlink="http://www.w3.org/1999/xlink" x="0px" y="0px"
	 viewBox="0 0 1920 1080" style="enable-background:new 0 0 1920 1080;" xml:space="preserve">
<style type="text/css">
	.st0{fill:#F1F4F9;}
	.st1{fill:#DCE2EC;}
	.st2{fill:#FEFFFF;}
	.st3{fill:#E5E8EE;}
	.st4{fill:#EDF0F5;}
	.st5{filter:url(#Adobe_OpacityMaskFilter);}
	.st6{opacity:0.64;mask:url(#SVGID_1_);}
	.st7{fill:#FFFFFF;}
	.st8{filter:url(#Adobe_OpacityMaskFilter_00000021822053877102913050000012012769219108279212_);}
	.st9{opacity:0.64;mask:url(#SVGID_00000080914139178942914770000003011784365623554463_);}
	.st10{fill:#F1EFF9;}
	.st11{filter:url(#Adobe_OpacityMaskFilter_00000058551479849512858200000002006344633969385870_);}
	.st12{opacity:0.64;mask:url(#SVGID_00000093899076055378708890000006185248712721410233_);}
	.st13{filter:url(#Adobe_OpacityMaskFilter_00000049907849623823083800000015140375155626878372_);}
	.st14{opacity:0.64;mask:url(#SVGID_00000026848476059971331070000015696590638170068905_);}
	.st15{filter:url(#Adobe_OpacityMaskFilter_00000134965662147534480100000002612977353157497531_);}
	.st16{opacity:0.64;mask:url(#SVGID_00000003100032851808367660000002358352215885382580_);}
	.st17{filter:url(#Adobe_OpacityMaskFilter_00000058548432534746980040000013177575474537278602_);}
	.st18{opacity:0.64;mask:url(#SVGID_00000065796641353832280700000005613714074538974593_);}
	.st19{filter:url(#Adobe_OpacityMaskFilter_00000099631518830241057550000006664848994508366219_);}
	.st20{opacity:0.64;mask:url(#SVGID_00000068658310686861180650000002798853105560522632_);}
	.st21{filter:url(#Adobe_OpacityMaskFilter_00000101815350784522535210000005115840534412732094_);}
	.st22{opacity:0.64;mask:url(#SVGID_00000117670443731392226540000013004526317891959194_);}
	.st23{filter:url(#Adobe_OpacityMaskFilter_00000181055016158699546120000006038204052731346580_);}
	.st24{opacity:0.64;mask:url(#SVGID_00000093860892942832346090000008804144765686218167_);}
	.st25{fill:none;stroke:#F1F4F9;stroke-width:15;stroke-linejoin:round;stroke-miterlimit:10;}
	.st26{filter:url(#Adobe_OpacityMaskFilter_00000150823670528021882270000008573452013618596488_);}
	.st27{opacity:0.64;mask:url(#SVGID_00000070833358759464078200000006417104245649196428_);}
	.st28{filter:url(#Adobe_OpacityMaskFilter_00000103977356569383847880000016083940081654909839_);}
	.st29{opacity:0.64;mask:url(#SVGID_00000129899014288434727950000014192824506687736239_);}
	.st30{filter:url(#Adobe_OpacityMaskFilter_00000047757394060384482990000012342261348449671063_);}
	.st31{opacity:0.64;mask:url(#SVGID_00000168801345409235899180000012905417513021244064_);}
	.st32{filter:url(#Adobe_OpacityMaskFilter_00000065770333479806908180000018147509846298031238_);}
	.st33{opacity:0.64;mask:url(#SVGID_00000010306212553922538060000008586835966662922165_);}
	.st34{filter:url(#Adobe_OpacityMaskFilter_00000034784701452979725150000016673429724335094402_);}
	.st35{opacity:0.64;mask:url(#SVGID_00000172428258952434536870000008664810163771235720_);}
	.st36{filter:url(#Adobe_OpacityMaskFilter_00000084524491103002980660000008138152821956982426_);}
	.st37{opacity:0.64;mask:url(#SVGID_00000032642056251364115360000013320957414307658375_);}
	.st38{filter:url(#Adobe_OpacityMaskFilter_00000079485210549389695190000015301777203382756000_);}
	.st39{opacity:0.64;mask:url(#SVGID_00000052081965304169481810000005258983500561133498_);}
	.st40{filter:url(#Adobe_OpacityMaskFilter_00000181085421899176771950000011802016416632914857_);}
	.st41{opacity:0.64;mask:url(#SVGID_00000096739934663688924070000003563646281557773230_);}
	.st42{filter:url(#Adobe_OpacityMaskFilter_00000125596640738750239450000018343388210072420744_);}
	.st43{opacity:0.64;mask:url(#SVGID_00000083055363212851562940000005358296267574372256_);}
	.st44{fill:#F5F7FF;}
	.st45{fill:none;stroke:#F5F7FF;stroke-width:15;stroke-linejoin:round;stroke-miterlimit:10;}
</style>
<g id="Layer_1">
</g>
<g id="Layer_2">
</g>
<g id="Layer_3">
</g>
<g id="Layer_4">
</g>
<g id="Layer_5">
</g>
<g id="Layer_6">
	<rect class="st4" width="1920" height="1080"/>
	<g>
		<image style="overflow:visible;" width="242" height="241" xlink:href="A40D265D.png"  transform="matrix(1 0 0 1 178 762.52)">
		</image>
		<g>
			<path class="st44" d="M190.4,939.7c0-52.3,0-104.6,0.1-156.9c0-5,0.1-10.1,1.2-14.9c3-13,14.8-21.5,30.3-21.8
				c16.6-0.3,33.3-0.2,49.9-0.2c33.9,0,67.7-0.1,101.6,0.1c17.1,0.1,28.7,8,32.1,21.7c1.1,4.4,1.3,9.1,1.3,13.7
				c0.1,56.3,0.1,112.6,0,168.9c0,9.4-2.3,11.7-11.8,11.7c-15.6,0-31.3,0-46.9,0c-8.5,0-11.1-2.5-11.1-11.2c0-44.5,0-134.7,0-135.3
				c0.1-15.9-2.2-18.2-17.9-18.2c-14.6,0-29.3,0-43.9,0c-11.9,0-15.2,3-15.2,14.8c-0.1,44.9-0.1,89.8-0.1,134.7
				c0,2.4,0.1,4.8-0.1,7.2c-0.3,5-3.3,7.8-8.1,7.9c-17.6,0.1-35.3,0.1-52.9,0c-4,0-6.2-1.9-7.6-4.7
				C190.3,955.1,190.4,941.9,190.4,939.7z"/>
		</g>
	</g>
	<g>
		<image style="overflow:visible;" width="201" height="242" xlink:href="A40D265F.png"  transform="matrix(1 0 0 1 413 814.52)">
		</image>
		<g>
			<g>
				<path class="st44" d="M436.5,1014.6c-2.2,0-4.4-0.5-6.3-1.7c-3.3-2-4.5-5.2-4.5-10.1c0.2-57.3,0.1-114.6,0.1-171.9
					c0-21.2,9.8-31.9,30.9-32.2c27.8-0.5,55.7-0.2,83.6-0.1c11.4,0.1,22.3,2.6,32.2,8.3c15,8.7,22.6,22.5,25.7,38.8
					c4.8,25.7,4.1,51.5-2.9,76.8c-5.9,21.5-20.4,34.5-42.2,37.4c-15.2,2-59.3,2.1-66.9,2.1c0,3.2,0,5.9,0,8.6c0,10.8,0,19.4,0,30.2
					c0,9.1-4.2,13.6-13.2,13.7C464.6,1014.7,443.9,1014.6,436.5,1014.6z M486.5,911.2c0.1,3.9,3.2,6.9,7.1,7
					c6.9,0.2,16.2,0.1,22.7,0c13.5-0.3,20.4-7.6,21.7-20.8c1.2-12,1-24.4-0.4-36.4c-1.3-12-9.8-18.4-22-18.8
					c-6.2-0.2-12.4-0.1-18.6-0.1c-8.5,0-10.8,2.2-10.8,10.6C486.1,868.3,486.3,897.7,486.5,911.2z"/>
			</g>
		</g>
	</g>
	<g>
		<image style="overflow:visible;" width="201" height="189" xlink:href="A40D265A.png"  transform="matrix(1 0 0 1 975 814.52)">
		</image>
		<g>
			<path class="st44" d="M987.2,888.8c0-19.6-0.1-39.3,0-58.9c0.1-19.9,10.2-30.9,30.1-31.1c38.5-0.5,77-0.5,115.4,0
				c20.3,0.2,30.3,11.1,30.3,31.5c0.1,40.3,0.1,80.6,0,120.9c0,8.6-2.4,10.9-11.2,10.9c-12.4,0-24.9,0-37.3,0
				c-9.5,0-11.8-2.3-11.8-11.6c0-32.5,0-64.9,0-97.4c0-10.9-2.5-13.4-13.5-13.5c-10,0-20-0.1-30.1,0c-9,0.1-11.9,3-11.9,12
				c0,32.7,0,65.3,0,98c0,10.5-2,12.5-12.7,12.5c-12.2,0-24.5,0-36.7,0c-8.3,0-10.8-2.5-10.8-10.7
				C987.2,930.5,987.2,909.7,987.2,888.8z"/>
		</g>
	</g>
	<g>
		<image style="overflow:visible;" width="184" height="189" xlink:href="A40D265B.png"  transform="matrix(1 0 0 1 800 814.52)">
		</image>
		<g>
			<path class="st44" d="M867.8,961.3c-31.8-2.6-49.5-20.1-53.3-51.8c-2.5-20.6-2.5-41.2,1.1-61.7c4.9-28.7,24.5-47.4,53.5-48.6
				c30.2-1.2,60.5-0.7,90.8-0.7c6,0,8.6,2.9,8.7,9.1c0.2,7.4,0.1,14.8,0,22.3c-0.1,7-2.9,9.7-10,9.7c-16.4,0.1-32.9,0-49.3,0.1
				c-21.8,0.1-32.2,9.2-33.9,31.1c-0.7,9.7-0.5,19.7,1,29.3c2.1,13.6,10.3,20.1,24.2,20.5c18.6,0.4,37.3,0.3,55.9,0.3
				c14.7,0,15.5,0.8,15.5,15.7c0,5.2,0,10.4,0,15.6c-0.1,7.2-2.6,9.9-9.8,9.9C947.1,962.1,884.1,962.6,867.8,961.3z"/>
		</g>
	</g>
	<g>
		<image style="overflow:visible;" width="142" height="189" xlink:href="A40D2665.png"  transform="matrix(1 0 0 1 1422 814.52)">
		</image>
		<g>
			<path class="st44" d="M1543.4,799c2.3,0,3.6,2.7,2.2,4.6c-8.5,11.3-43.8,57.5-44.9,59c-10.2,13.7-10.1,17.7,0.9,31
				c13.5,16.5,40,50.9,49.5,63.3c1.4,1.9,0.1,4.6-2.2,4.6c-11.5,0.2-37.6,0.5-50.2,0.7c-5.8,0.1-10.1-2-13.4-6.5
				c-14.8-20.4-29.5-41-44.6-61.2c-8-10.8-8.4-21.1-0.7-32c13.5-19.4,26.7-39,40.5-58.2c2.1-2.9,6.9-5.4,10.5-5.5
				C1504.2,798.2,1531.6,798.7,1543.4,799z"/>
		</g>
	</g>
	<g>
		<image style="overflow:visible;" width="85" height="189" xlink:href="A40D2667.png"  transform="matrix(1 0 0 1 1357 814.52)">
		</image>
		<g>
			<path class="st44" d="M1429.8,880c0,23.4,0,46.9,0,70.3c0,9.3-2.4,11.7-11.7,11.7c-12.8,0-25.6,0-38.5,0
				c-7.5,0-10.3-2.7-10.3-10.1c-0.1-47.7-0.1-95.4,0-143c0-8,2.6-10.4,10.5-10.5c13-0.1,26-0.1,39.1,0c8.5,0,10.9,2.6,10.9,11.3
				C1429.8,833.1,1429.8,856.6,1429.8,880z"/>
		</g>
	</g>
	<g>
		<image style="overflow:visible;" width="200" height="191" xlink:href="A40D266A.png"  transform="matrix(1 0 0 1 1166 812.52)">
		</image>
		<g>
			<g>
				<path class="st44" d="M1327.8,897.1c15-0.1,23.9-6.7,25.3-21.6c1.2-12.2,0.9-24.9-1-37c-4.1-25.9-15-36.8-40.6-39.9
					c-29.9-3.5-60.1-3.8-89.9,0.9c-27.7,4.4-39.9,16.2-41.7,43.8c-1.7,25.7-1.3,51.7,1,77.4c2.4,26.3,17.2,39.6,43.7,40.5
					c38.4,1.3,76.9,0.8,115.4,0.9c5.5,0,8.4-3.3,8.4-8.8c0-7,0-14,0-21c0-12.3-1.5-13.8-13.8-13.8c-25.5,0-50.9,0.1-76.4-0.2
					c-13.4-0.2-19.7-7.1-19-20.9C1241.9,897.1,1300.7,897.2,1327.8,897.1z M1254.3,838.4c8.3-0.5,16.8-0.2,25.1,0.1
					c2.9,0.1,5.9,1.1,8.6,2.4c4.6,2.3,6.7,6.2,5.5,11.4c-1.2,5-5.8,6.4-10.4,6.4c-14.8,0.1-28.7,0-43.8,0
					C1237.3,845.3,1241.8,839.2,1254.3,838.4z"/>
			</g>
		</g>
	</g>
	<g>
		<image style="overflow:visible;" width="214" height="192" xlink:href="A40D266B.png"  transform="matrix(1 0 0 1 600 812.52)">
		</image>
		<g>
			<g>
				<path class="st44" d="M798.6,849.5c-6-29.9-21.1-45.3-50.8-50.1c-28.4-4.6-57.1-4.6-85.5,0.7c-24,4.5-39.3,19-45.4,42.6
					c-6.4,24.7-6.4,49.6-0.2,74.3c6,23.9,21.1,38.9,45.5,43.1c14.7,2.5,67.7,3.2,79,2c32.1-3.5,50.2-18.8,56.8-48.1
					C802.8,892.6,802.9,871,798.6,849.5z M740.9,893.1c0,15.6-12.6,28.2-28.2,28.2h-11.6c-15.6,0-28.2-12.6-28.2-28.2v-27.6
					c0-15.6,12.6-28.2,28.2-28.2h11c15.9,0,28.8,12.9,28.8,28.8V893.1z"/>
			</g>
		</g>
	</g>
	<g>
		<image style="overflow:visible;" width="199" height="189" xlink:href="A40D266D.png"  transform="matrix(1 0 0 1 1543 814.52)">
		</image>
		<g>
			<path class="st44" d="M1729.5,809.1c-0.1-8.2-2.6-10.7-11.7-10.7c-15.6,0-31.1,0-46.7,0l0,0c-4.5,0-74.5,0-105,0
				c-8.4,0-10.8,2.5-10.8,10.7c0,7.8-0.1,15.6,0,23.4c0.1,5.5,2.8,8.6,8.5,8.7c7.4,0.1,39.3,0,48.5,0c0,3,0,5.1,0,7.3
				c0,33.9,0,67.7,0,101.6c0,9.9,2.1,11.9,12.1,11.9c11.8,0,23.6,0,35.5,0c10.8,0,12.7-1.9,12.7-12.5c0-33.5,0-66.9,0-100.4
				c0-2.4,0-4.7,0-7.9l0,0c13.2,0,40.7,0,47.7,0c6.1-0.1,9.1-3.2,9.1-8.7C1729.6,824.8,1729.6,816.9,1729.5,809.1z"/>
		</g>
	</g>
	<g>
		<path class="st1" d="M260.1,951.2c-0.3,5-3.3,7.8-8.1,7.9c-17.6,0.1-35.3,0.1-52.9,0c-4,0-6.2-1.9-7.6-4.7c-0.8-1.6-1-8.3-1-13.1
			c0,4.3,0,14.1,1,16.1c1.4,2.7,3.6,4.6,7.6,4.7c17.6,0.1,35.3,0.1,52.9,0c4.9,0,7.8-2.8,8.1-7.9c0.1-2.1,0.1-4.2,0.1-6.3
			C260.2,949,260.2,950.1,260.1,951.2z"/>
		<path class="st1" d="M337.2,812.6c0.1-15.9-2.2-18.2-17.9-18.2c-14.6,0-29.3,0-43.9,0c-11.9,0-15.2,3-15.2,14.8
			c-0.1,44.9-0.1,89.8-0.1,134.7c0,0,0,0.1,0,0.1c0-43.9,0-87.9,0.1-131.8c0-11.8,3.3-14.8,15.2-14.8c14.6,0,29.3,0,43.9,0
			c15.2,0,17.8,2.1,17.9,16.7C337.2,813.2,337.2,812.7,337.2,812.6z"/>
		<path class="st1" d="M407,947.4c0,9.4-2.3,11.7-11.8,11.7c-15.6,0-31.3,0-46.9,0c-8.5,0-11.1-2.5-11.1-11.2c0-9.3,0-20.7,0-32.8
			c0,13.2,0,25.7,0,35.8c0,8.6,2.6,11.1,11.1,11.2c15.6,0,31.3,0,46.9,0c9.5,0,11.8-2.3,11.8-11.7c0-28.3,0-56.6,0-84.9
			C407,892.8,407,920.1,407,947.4z"/>
	</g>
	<g>
		<path class="st1" d="M425.8,872.6c0,13.9,0,27.9,0,41.8C425.8,900.5,425.8,886.5,425.8,872.6z"/>
		<path class="st1" d="M537.6,857.9c-1.3-12-9.8-18.4-22-18.8c-6.2-0.2-12.4-0.1-18.6-0.1c-8.5,0-10.8,2.2-10.8,10.6
			c0,2.7,0,5.8,0,9.1c0-2.2,0-4.3,0-6.1c0-8.4,2.4-10.6,10.8-10.6c6.2,0,12.4-0.1,18.6,0.1c12.2,0.5,20.7,6.8,22,18.8
			c0.7,6.5,1.1,13.2,1.2,19.8C538.9,873.1,538.5,865.5,537.6,857.9z"/>
		<path class="st1" d="M486.1,997.9c0,9.1-4.2,13.6-13.2,13.7c-8.4,0.1-29.1,0-36.4,0c-2.2,0-4.4-0.5-6.3-1.7
			c-3.3-2-4.5-5.1-4.5-9.9c0,0.9,0,1.9,0,2.8c0,4.9,1.2,8.1,4.5,10.1c1.9,1.2,4.1,1.7,6.3,1.7c7.4,0,28,0.1,36.4,0
			c9-0.1,13.1-4.5,13.2-13.7c0-4.8,0-9.2,0-13.5C486.2,990.8,486.2,994.2,486.1,997.9z"/>
		<path class="st1" d="M595.3,919.5c-5.9,21.5-20.4,34.5-42.2,37.4c-15.2,2-59.3,2.1-66.9,2.1c0,1.1,0,2,0,3
			c7.6,0,51.7-0.1,66.9-2.1c21.9-2.9,36.4-15.9,42.2-37.4c4.1-15,6-30.1,5.9-45.3C601.1,891.4,599.1,905.5,595.3,919.5z"/>
	</g>
	<g>
		<path class="st1" d="M987.2,885.8c0-9.6,0-19.3,0-28.9c0,10.3,0,20.5,0,30.8C987.2,887.1,987.2,886.4,987.2,885.8z"/>
		<path class="st1" d="M1163.2,948.1c0,8.6-2.4,10.9-11.2,10.9c-12.4,0-24.9,0-37.3,0c-9.5,0-11.8-2.3-11.8-11.6
			c0-32.5,0-64.9,0-97.4c0-10.9-2.5-13.4-13.5-13.5c-10,0-20-0.1-30.1,0c-9,0.1-11.9,3-11.9,12c0,17.2,0,34.4,0,51.6
			c0-16.2,0-32.4,0-48.6c0-9,2.9-11.9,11.9-12c10-0.1,20-0.1,30.1,0c11,0.1,13.5,2.5,13.5,13.5c0,32.5,0,64.9,0,97.4
			c0,9.3,2.3,11.6,11.8,11.6c12.4,0,24.9,0,37.3,0c8.8,0,11.2-2.4,11.2-10.9c0-20.6,0-41.1,0-61.7
			C1163.2,909,1163.2,928.6,1163.2,948.1z"/>
		<path class="st1" d="M1034.8,959.1c-12.2,0-24.5,0-36.7,0c-8.3,0-10.8-2.5-10.8-10.7c0-10,0-20.1,0-30.1c0,11,0,22.1,0,33.1
			c0,8.2,2.5,10.7,10.8,10.7c12.2,0.1,24.5,0,36.7,0c10.8,0,12.7-1.9,12.7-12.5c0-1,0-2,0-3C1047.5,957.2,1045.5,959.1,1034.8,959.1
			z"/>
	</g>
	<g>
		<path class="st1" d="M958.5,836.5c-16.4,0.1-32.9,0-49.3,0.1c-21.8,0.1-32.2,9.2-33.9,31.1c-0.3,3.9-0.4,7.9-0.4,11.9
			c0-3,0.2-6,0.4-8.9c1.7-21.9,12.1-31,33.9-31.1c16.4-0.1,32.9,0,49.3-0.1c7.2,0,9.9-2.7,10-9.7c0.1-4.2,0.1-8.4,0.1-12.6
			c0,3.2,0,6.4-0.1,9.6C968.4,833.9,965.7,836.5,958.5,836.5z"/>
		<path class="st1" d="M971.9,949.1c-0.1,7.2-2.6,9.9-9.8,9.9c-15,0.1-78.1,0.6-94.4-0.7c-31.8-2.6-49.5-20.1-53.3-51.8
			c-1.1-8.8-1.7-17.5-1.7-26.3c-0.1,9.8,0.5,19.6,1.7,29.3c3.8,31.7,21.5,49.1,53.3,51.8c16.3,1.3,79.3,0.8,94.4,0.7
			c7.1,0,9.7-2.7,9.8-9.9c0-3.3,0-6.6,0-9.9C971.9,944.6,971.9,946.9,971.9,949.1z"/>
	</g>
	<g>
		<path class="st1" d="M1500.7,859.5c-5.5,7.5-8,12.1-7.4,16.8c0.5-3.8,3-7.9,7.4-13.8c1.1-1.4,36.4-47.7,44.9-59
			c0.8-1,0.7-2.3,0.1-3.2c0,0.1-0.1,0.2-0.1,0.2C1537.1,811.8,1501.8,858.1,1500.7,859.5z"/>
		<path class="st1" d="M1548.9,958.5c-11.5,0.2-37.6,0.5-50.2,0.7c-5.8,0.1-10.1-2-13.4-6.5c-14.8-20.4-29.5-41-44.6-61.2
			c-3.8-5.1-5.9-10.1-6.2-15.1c-0.5,6,1.6,12,6.2,18.1c15.1,20.2,29.7,40.8,44.6,61.2c3.3,4.6,7.6,6.6,13.4,6.5
			c12.6-0.2,38.6-0.5,50.2-0.7c2.3,0,3.6-2.5,2.4-4.4C1550.8,957.9,1549.9,958.5,1548.9,958.5z"/>
	</g>
	<g>
		<path class="st1" d="M1418.1,959.1c-12.8,0-25.6,0-38.5,0c-7.5,0-10.3-2.7-10.3-10.1c0-23.4,0-46.8-0.1-70.2
			c0,24.4,0,48.8,0.1,73.2c0,7.4,2.8,10.1,10.3,10.1c12.8,0.1,25.6,0,38.5,0c9.3,0,11.7-2.5,11.7-11.7c0-1,0-2,0-3
			C1429.8,956.6,1427.4,959.1,1418.1,959.1z"/>
		<path class="st1" d="M1429.8,877c0,0.8,0,1.5,0,2.3c0-11.6,0-23.3,0-34.9C1429.8,855.2,1429.8,866.1,1429.8,877z"/>
	</g>
	<g>
		<path class="st1" d="M1288,838c-2.6-1.3-5.7-2.3-8.6-2.4c-8.4-0.4-16.8-0.7-25.1-0.1c-11.1,0.7-15.9,5.6-15.4,16.3
			c0.5-8.6,5.4-12.6,15.4-13.3c8.3-0.5,16.8-0.2,25.1,0.1c2.9,0.1,5.9,1.1,8.6,2.4c3.2,1.6,5.2,4.1,5.7,7.2
			C1294.3,843.6,1292.2,840.1,1288,838z"/>
		<path class="st1" d="M1353,872.4c-1.4,14.9-10.3,21.6-25.3,21.6c-27.1,0.1-85.9,0.1-88.7,0.1c-0.1,1.1,0,2.2,0,3.2
			c0-0.1,0-0.2,0-0.2c2.8,0,61.6,0.1,88.7-0.1c15-0.1,23.9-6.7,25.3-21.6c0.5-5.2,0.7-10.5,0.7-15.8
			C1353.7,863.9,1353.4,868.2,1353,872.4z"/>
		<path class="st1" d="M1348.3,950.2c0,5.6-2.9,8.9-8.4,8.8c-38.5-0.1-77,0.4-115.4-0.9c-26.5-0.9-41.4-14.2-43.7-40.5
			c-1.4-15.2-2-30.6-2-45.9c-0.1,16.3,0.6,32.7,2,48.9c2.4,26.3,17.2,39.6,43.7,40.5c38.4,1.3,76.9,0.8,115.4,0.9
			c5.5,0,8.4-3.3,8.4-8.8c0-4.2,0-8.3,0-12.5C1348.3,943.8,1348.3,947,1348.3,950.2z"/>
	</g>
	<g>
		<path class="st1" d="M712.1,834.4h-11c-15.6,0-28.2,12.6-28.2,28.2v3c0-15.6,12.6-28.2,28.2-28.2h11c15.9,0,28.8,12.9,28.8,28.8
			v-3C740.9,847.3,728,834.4,712.1,834.4z"/>
		<path class="st1" d="M798,911c-6.6,29.3-24.8,44.7-56.8,48.1c-11.3,1.2-64.3,0.5-79-2c-24.4-4.2-39.5-19.2-45.5-43.1
			c-3-11.8-4.5-23.6-4.6-35.5c-0.1,12.8,1.4,25.7,4.6,38.5c6,23.9,21.1,38.9,45.5,43.1c14.7,2.5,67.7,3.2,79,2
			c32.1-3.5,50.2-18.8,56.8-48.1c2.6-11.5,3.8-23,3.7-34.6C801.6,889.9,800.4,900.5,798,911z"/>
	</g>
	<g>
		<path class="st1" d="M1612.3,838.3c-9.1,0-41.1,0-48.5,0c-5.6-0.1-8.4-3.2-8.5-8.7c0-3.5,0-7.1-0.1-10.6c0,4.5,0,9.1,0.1,13.6
			c0.1,5.5,2.8,8.6,8.5,8.7c7.4,0.1,39.3,0,48.5,0C1612.3,840.4,1612.3,839.4,1612.3,838.3z"/>
		<path class="st1" d="M1729.5,829.6c-0.1,5.5-3.1,8.6-9.1,8.7c-7,0.1-34.5,0.1-47.7,0l0,0c0,1.1,0,2.1,0,3c13.2,0,40.7,0,47.7,0
			c6.1-0.1,9.1-3.2,9.1-8.7c0.1-4.5,0.1-9.1,0.1-13.6C1729.6,822.5,1729.5,826,1729.5,829.6z"/>
		<path class="st1" d="M1659.9,959.1c-11.8,0-23.6,0-35.5,0c-10,0-12.1-2-12.1-11.9c0-33.9,0-67.7,0-101.6c0-0.3,0-0.5,0-0.8
			c0,1.4,0,2.6,0,3.8c0,33.9,0,67.7,0,101.6c0,9.9,2.1,11.9,12.1,11.9c11.8,0,23.6,0,35.5,0c10.8,0,12.7-1.9,12.7-12.5
			c0-33.5,0-66.9,0-100.4c0-1,0-2,0-3c0,33.5,0,66.9,0,100.4C1672.7,957.2,1670.7,959.1,1659.9,959.1z"/>
	</g>
	<g>
		<path class="st2" d="M337.2,817.2c0,9.3,0,59.5,0,100.9c0-45,0-99,0-99.4C337.2,818.1,337.2,817.6,337.2,817.2z"/>
		<path class="st2" d="M190.4,942.7c0-52.3,0-104.6,0.1-156.9c0-5,0.1-10.1,1.2-14.9c3-13,14.8-21.5,30.3-21.8
			c16.6-0.3,33.3-0.2,49.9-0.2c33.9,0,67.7-0.1,101.6,0.1c17.1,0.1,28.7,8,32.1,21.7c1.1,4.4,1.3,9.1,1.3,13.7c0,28,0.1,56,0.1,84
			c0-29,0-58-0.1-87c0-4.6-0.2-9.3-1.3-13.7c-3.4-13.7-15.1-21.6-32.1-21.7c-33.9-0.2-67.7-0.1-101.6-0.1c-16.6,0-33.3-0.1-49.9,0.2
			c-15.5,0.3-27.3,8.8-30.3,21.8c-1.1,4.8-1.2,9.9-1.2,14.9c-0.1,52.3,0,104.6-0.1,156.9c0,0.7,0,2.5,0,4.7
			C190.4,943.6,190.4,943,190.4,942.7z"/>
		<path class="st2" d="M260.2,949.9c0,0.3,0,0.6,0,1c0-1.3,0-2.6,0-3.9C260.2,948,260.2,949,260.2,949.9z"/>
	</g>
	<g>
		<path class="st2" d="M425.8,833.9c0-21.2,9.8-31.9,30.9-32.2c27.8-0.5,55.7-0.2,83.6-0.1c11.4,0.1,22.3,2.6,32.2,8.3
			c15,8.7,22.6,22.5,25.7,38.8c2,10.5,3,21,3,31.5c0.1-11.5-0.9-23-3-34.5c-3-16.3-10.7-30.2-25.7-38.8c-9.9-5.7-20.9-8.3-32.2-8.3
			c-27.9-0.1-55.7-0.4-83.6,0.1c-21.1,0.3-30.9,11-30.9,32.2c0,14.9,0,29.8,0,44.7C425.8,861.7,425.8,847.8,425.8,833.9z"/>
		<path class="st2" d="M486.5,914.2c0.1,3.9,3.2,6.9,7.1,7c6.9,0.2,16.2,0.1,22.7,0c13.5-0.3,20.4-7.6,21.7-20.8
			c0.6-5.5,0.8-11.1,0.8-16.6c-0.1,4.6-0.3,9.1-0.8,13.6c-1.3,13.3-8.2,20.6-21.7,20.8c-6.6,0.1-15.9,0.2-22.7,0
			c-3.9-0.1-7.1-3.1-7.1-7c-0.2-11.2-0.3-33.3-0.3-49.5C486.2,878.1,486.3,902.3,486.5,914.2z"/>
		<path class="st2" d="M486.2,973.7c0,6,0,11.3,0,16.7c0-6.5,0-12.6,0-19.7C486.2,971.7,486.2,972.7,486.2,973.7z"/>
		<path class="st2" d="M425.8,917.4c0,28.5,0,56.9-0.1,85.4c0,0.1,0,0.1,0,0.2C425.8,974.5,425.8,945.9,425.8,917.4z"/>
	</g>
	<g>
		<path class="st2" d="M987.2,890.7c0,10.2,0,20.4,0,30.6c0-9.8,0-19.6,0-29.5C987.2,891.4,987.2,891.1,987.2,890.7z"/>
		<path class="st2" d="M987.3,832.9c0.1-19.9,10.2-30.9,30.1-31.1c38.5-0.5,77-0.5,115.4,0c20.3,0.2,30.3,11.1,30.3,31.5
			c0.1,19.7,0.1,39.5,0.1,59.2c0-20.7,0-41.5-0.1-62.2c-0.1-20.4-10-31.3-30.3-31.5c-38.5-0.5-77-0.5-115.4,0
			c-19.9,0.2-30,11.2-30.1,31.1c-0.1,10-0.1,20-0.1,30C987.2,850.9,987.2,841.9,987.3,832.9z"/>
		<path class="st2" d="M1047.5,949.6C1047.5,949.6,1047.5,949.6,1047.5,949.6c0-15.5,0-31,0-46.4
			C1047.5,918.7,1047.5,934.2,1047.5,949.6z"/>
	</g>
	<g>
		<path class="st2" d="M900.5,920.5c-13.8-0.3-22-6.9-24.2-20.5c-0.9-5.7-1.4-11.5-1.4-17.4c-0.1,6.8,0.4,13.7,1.4,20.4
			c2.1,13.6,10.3,20.1,24.2,20.5c18.6,0.4,37.3,0.3,55.9,0.3c14.7,0,15.5,0.8,15.5,15.7c0,1.9,0,3.8,0,5.8c0-2.9,0-5.8,0-8.8
			c0-15-0.8-15.7-15.5-15.7C937.8,920.8,919.1,920.9,900.5,920.5z"/>
		<path class="st2" d="M815.5,850.8c4.9-28.7,24.5-47.4,53.5-48.6c30.2-1.2,60.5-0.7,90.8-0.7c6,0,8.6,2.9,8.7,9.1
			c0.1,3.2,0.1,6.5,0.1,9.7c0-4.2,0-8.5-0.1-12.7c-0.1-6.2-2.7-9.1-8.7-9.1c-30.3,0.1-60.6-0.5-90.8,0.7
			c-29.1,1.2-48.6,19.9-53.5,48.6c-2,11.8-2.9,23.6-2.8,35.4C812.8,872.4,813.7,861.6,815.5,850.8z"/>
	</g>
	<g>
		<path class="st2" d="M1493.4,879.4c-0.7,5,2,9.6,8.2,17.2c13.5,16.5,40,50.9,49.5,63.3c0.1,0.1,0.1,0.2,0.2,0.2
			c0.6-1,0.6-2.2-0.2-3.2c-9.5-12.4-36-46.8-49.5-63.3C1496.6,887.5,1493.9,883.4,1493.4,879.4z"/>
		<path class="st2" d="M1440,865.4c13.5-19.4,26.7-39,40.5-58.2c2.1-2.9,6.9-5.4,10.5-5.5c13.1-0.4,40.6,0.1,52.4,0.3
			c1.1,0,1.9,0.6,2.4,1.4c1.1-1.9-0.1-4.3-2.4-4.4c-11.8-0.2-39.2-0.7-52.4-0.3c-3.6,0.1-8.4,2.6-10.5,5.5
			c-13.8,19.2-27,38.8-40.5,58.2c-4,5.8-5.8,11.4-5.5,16.9C1434.9,874.7,1436.7,870.1,1440,865.4z"/>
	</g>
	<g>
		<path class="st2" d="M1369.3,811.9c0-8,2.6-10.4,10.5-10.5c13-0.1,26-0.1,39.1,0c8.5,0,10.9,2.6,10.9,11.3c0,11.6,0,23.1,0,34.7
			c0-12.6,0-25.1,0-37.7c0-8.7-2.4-11.2-10.9-11.3c-13-0.1-26-0.1-39.1,0c-7.9,0-10.5,2.5-10.5,10.5c0,24.3,0,48.6,0,72.9
			C1369.3,858.5,1369.3,835.2,1369.3,811.9z"/>
		<path class="st2" d="M1429.8,883c0,22.4,0,44.9,0,67.3c0,0,0,0,0,0c0-22.7,0-45.4,0-68.1C1429.8,882.5,1429.8,882.8,1429.8,883z"
			/>
	</g>
	<g>
		<path class="st2" d="M1239.3,861.8c15.1,0,29.1,0.1,43.8,0c4.6,0,9.2-1.4,10.4-6.4c0.4-1.5,0.4-2.9,0.2-4.2
			c-0.1,0.4-0.1,0.8-0.2,1.2c-1.2,5-5.8,6.4-10.4,6.4c-14.8,0.1-28.7,0-43.8,0c-0.2-1.5-0.3-2.8-0.4-4.1
			C1238.8,856.8,1238.9,859.1,1239.3,861.8z"/>
		<path class="st2" d="M1179.7,846.2c1.8-27.5,14-39.4,41.7-43.8c29.8-4.7,60-4.4,89.9-0.9c25.7,3,36.5,13.9,40.6,39.9
			c1.1,6.9,1.6,14.1,1.7,21.2c0.1-8.1-0.4-16.3-1.7-24.2c-4.1-25.9-15-36.8-40.6-39.9c-29.9-3.5-60.1-3.8-89.9,0.9
			c-27.7,4.4-39.9,16.2-41.7,43.8c-0.7,10.5-1,21-1,31.5C1178.8,865.2,1179.1,855.7,1179.7,846.2z"/>
		<path class="st2" d="M1334.5,918.3c-25.5,0-50.9,0.1-76.4-0.2c-12.3-0.1-18.6-6.1-19-17.7c-0.6,13.6,5.7,20.5,19,20.7
			c25.4,0.3,50.9,0.2,76.4,0.2c12.3,0,13.8,1.5,13.8,13.8c0,2.8,0,5.7,0,8.5c0-3.8,0-7.7,0-11.5
			C1348.2,919.8,1346.8,918.3,1334.5,918.3z"/>
	</g>
	<g>
		<path class="st2" d="M616.9,845.7c6.1-23.6,21.4-38.1,45.4-42.6c28.4-5.3,57.1-5.3,85.5-0.7c29.7,4.8,44.8,20.2,50.8,50.1
			c2,9.9,3,19.9,3.1,29.9c0.1-11-0.9-21.9-3.1-32.9c-6-29.9-21.1-45.3-50.8-50.1c-28.4-4.6-57.1-4.6-85.5,0.7
			c-24,4.5-39.3,19-45.4,42.6c-3.3,12.9-4.9,25.9-4.8,38.9C612.2,869.6,613.8,857.6,616.9,845.7z"/>
		<path class="st2" d="M701.1,924.3h11.6c15.6,0,28.2-12.6,28.2-28.2v-3c0,15.6-12.6,28.2-28.2,28.2h-11.6
			c-15.6,0-28.2-12.6-28.2-28.2v3C672.9,911.7,685.6,924.3,701.1,924.3z"/>
	</g>
	<g>
		<path class="st2" d="M1555.4,812.1c0.1-8.2,2.5-10.7,10.8-10.7c30.5,0,100.5,0,105,0l0,0c15.6,0,31.1,0,46.7,0
			c9,0,11.6,2.5,11.7,10.7c0,3.3,0,6.6,0,9.9c0-4.3,0-8.6,0-12.9c-0.1-8.2-2.6-10.7-11.7-10.7c-15.6,0-31.1,0-46.7,0l0,0
			c-4.5,0-74.5,0-105,0c-8.4,0-10.8,2.5-10.8,10.7c0,4.3,0,8.6,0,12.9C1555.3,818.7,1555.3,815.4,1555.4,812.1z"/>
		<path class="st2" d="M1612.3,844.3c0,1.3,0,2.4,0,3.5C1612.3,846.7,1612.3,845.6,1612.3,844.3L1612.3,844.3z"/>
		<polygon class="st2" points="1672.7,844.3 1672.7,844.3 1672.7,844.3 		"/>
	</g>
	<g>
		<image style="overflow:visible;" width="1110" height="719" xlink:href="B5E68B76.png"  transform="matrix(1 0 0 1 405 35.52)">
		</image>
		<g>
			<g>
				<path class="st45" d="M972.7,72.9c4,1.3,5.1,3.2,5.1,7.2c-0.1,204.7-0.1,409.4-0.1,614.1c0,8.7-2.3,11-11,11.1
					c-2.2,0-4.4,0.1-6.6,0c-5-0.2-7.6-3.1-8.1-8c-0.2-1.8-0.1-3.6-0.1-5.4c0-197.3,0-394.6,0.1-591.8c0-6.1-1.7-8.6-7.5-10.4
					C908.3,78.4,830,53.5,830,53.5s-0.3,233-0.4,346.5c0,4.2,1.1,6.5,5.2,8.1c7.8,3.1,15.4,6.9,23.1,10.1c3.1,1.3,4.5,2.9,4.5,6.6
					c-0.1,90.2-0.1,180.4-0.1,270.7c0,7.1-2.7,9.6-9.8,9.8c-2,0-4,0-6,0c-7.1-0.2-9.6-2.6-9.8-9.9c-0.1-3.2,0-6.4,0-9.6
					c0-80-0.1-160,0.1-240c0-5.9-1.5-8.8-7.2-11c-19.8-7.6-65.6-26-65.6-26s0,191.9,0,283.7c0,11.5-1.3,12.8-12.7,12.8
					c-44.9,0-89.8,0-134.7,0c-10.3,0-12.3-2-12.3-12.3c0-51.1,0.1-102.3-0.1-153.4c0-4.9,1.5-7,6.1-8.5c11-3.6,21.9-7.8,32.9-11.5
					c3.4-1.1,4.7-2.8,4.6-6.4c-0.2-10.8-0.1-21.6-0.1-33.4c-14.4,5-28.4,9.9-43,15c-0.1-2.7-0.3-4.6-0.3-6.6c0-20,0.2-40.1-0.1-60.1
					c-0.1-4.9,1.3-7.4,6.1-9.1c30.8-10.7,61.5-21.9,92.3-32.6c5.2-1.8,7.1-4.1,6.9-9.8c-0.5-14.2-0.2-28.5-0.1-42.7
					c0-3.5-0.9-5.4-4.4-6.6c-53.6-17.9-107.1-35.9-160.7-53.8c-0.4-0.1-0.8,0-2.3,0c0,2.6,0,5.3,0,7.9c0,136.9,0,273.9,0,410.8
					c0,11.3-1.7,13-12.7,13c-30.9,0-61.8,0-92.6,0c-9.2,0-11.5-2.2-11.5-11.2c0-110.1,0-220.1-0.1-330.2c0-3.8,1.2-5.7,4.8-7
					c11.5-4.2,22.8-8.7,34.1-13.4c1.8-0.7,4.1-3,4.1-4.7c0.4-12,0.2-24,0.2-37c-14.3,5.6-28.1,10.9-43.1,16.7c0-9-0.2-17.1,0.2-25.2
					c0-1.1,2.3-2.6,3.7-3.2c36.6-14.7,73.2-29.4,109.9-43.9c2.1-0.8,5.1-0.6,7.4,0.2c37,12.5,73.9,25.2,110.9,37.8
					c2.1,0.7,4.1,1.3,7.1,2.3c0-11.2,0-21.7,0-32.3c0-15,0-15,14.1-19.9c6.8-2.4,13.7-4.6,20.4-7.2c1.5-0.6,3.6-2.5,3.7-3.8
					c0.3-12,0.2-24,0.2-37c-12.8,4.7-25.1,9.3-38.3,14.2c0-12.9-0.1-24.8,0.2-36.7c0-1.2,2.4-2.9,4.1-3.6c9.8-4,19.8-7.7,29.6-11.7
					c1.7-0.7,4.2-2.2,4.2-3.4c0.3-12.3,0.2-24.7,0.2-37.7c-12.9,5-25.1,9.7-38.3,14.8c0-10.1,0-19,0.3-28.3c0.1-1.6,3.4-3.5,5.6-4.4
					c31.9-12.9,63.9-25.7,95.9-38.6c15.6-6.3,46-18.9,57.2-23.6c2.8-1.2,6-1.4,9-0.4C853.4,33.5,938.1,61.5,972.7,72.9z"/>
				<path class="st45" d="M1331.3,405.3c0,0,14.2-6,20.8-8.2c2.8-0.9,6.4-1.3,9.1-0.4c43,14.3,85.8,28.8,128.8,43.2
					c4,1.3,5.1,3.2,5.1,7.3c-0.1,82.2-0.1,164.4-0.1,246.6c0,9.4-2.2,11.5-11.8,11.6c-12.7,0.1-14-1.3-14-14.1
					c0-52.3-0.1-104.7,0.1-157c0-4.8-1.1-7.1-6-8.3c-9.3-2.2-18.5-5.3-27.8-7.7c-3.6-0.9-5.3-2.4-5.2-6.5
					c0.3-12.4,0.1-24.8,0.1-38.2c12.9,3.7,25.3,7.2,38.7,11c0-7.7,0.3-14.6-0.3-21.4c-0.1-1.6-3.4-3.4-5.6-4.1
					c-31.2-10.3-62.4-20.4-93.7-30.5c-4-1.3-7.9-2.5-12.9-4.1c0,3.8,0,6.7,0,9.6c0,85.6,0,171.2,0,256.8c0,13.5-1.1,14.6-14.8,14.6
					c-28.1,0-56.1,0-84.2,0c-10.2,0-12.2-2-12.2-12.4c0-82.4,0-164.8-0.1-247.2c0-4.5,1.3-6.7,5.6-8.3c16.5-6.3,32.7-13.2,49.1-19.6
					c3.8-1.5,5.7-3.2,5.6-7.7c-0.3-19.2-0.2-38.5,0-57.7c0-4.1-1.1-6-5.2-7.2c-9.2-2.6-18.3-5.9-27.5-8.7c-3.6-1.1-5.2-2.6-5-6.7
					c0.3-9,0.1-18,0.1-27.9c12.6,4,24.6,7.9,37.5,12c0-8.8,0.2-16.8-0.2-24.7c-0.1-1.4-2.6-3.1-4.4-3.8c-9.5-3.3-19-6.3-28.6-9.2
					c-3.2-1-4.4-2.5-4.4-5.9c0.2-9.2,0.1-18.4,0.1-28.4c12.6,4,24.6,7.9,37.5,12c0-9,0.1-17.2-0.1-25.3c0-1.3-1.6-3.2-2.9-3.6
					c-38.8-12.8-77.6-25.5-117.6-38.5c0,3.2,0,5.7,0,8.1c0,165.8,0,331.6,0,497.4c0,11.9-1.4,13.3-13.5,13.3
					c-15.7,0-16.2-0.5-16.2-16.1c0-46.7-0.1-93.4,0.1-140.1c0-5.2-1.2-7.6-6.4-9.3c-26.3-8.4-52.5-17.3-79.7-26.4
					c-0.2,3-0.4,121.3-0.4,178.1c0,12.8-1.1,13.9-13.6,13.9c-14.8,0-29.7,0-44.5,0c-7.8,0-10.5-2.6-10.5-10.5c0-49.5,0-99-0.1-148.6
					c0-3.9,1.3-5.7,4.8-7c10.3-3.9,20.4-8.4,30.8-12c4.9-1.7,6.1-4.3,6.1-9.2c-0.1-95.4-0.1-190.9-0.1-286.3c0-6.8,0.1-13.6,0-20.4
					c-0.1-2.9,0.6-4.6,3.8-5.7c45.2-15.2,90.2-30.7,135.4-45.9c2.8-0.9,6.4-0.7,9.2,0.2c45.5,15,90.8,30.3,136.3,45.3
					c4.4,1.5,5.2,3.7,5.2,7.8C1331.2,274.3,1331.3,405.3,1331.3,405.3z"/>
			</g>
		</g>
	</g>
</g>
</svg>
