<?xml version="1.0" encoding="utf-8"?>
<!-- Generator: Adobe Illustrator 26.1.0, SVG Export Plug-In . SVG Version: 6.00 Build 0)  -->
<svg version="1.1" xmlns="http://www.w3.org/2000/svg" xmlns:xlink="http://www.w3.org/1999/xlink" x="0px" y="0px"
	 viewBox="0 0 1920 1080" style="enable-background:new 0 0 1920 1080;" xml:space="preserve">
<style type="text/css">
	.st0{fill:#F1F4F9;}
	.st1{fill:#DCE2EC;}
	.st2{fill:#FEFFFF;}
	.st3{fill:#E5E8EE;}
	.st4{fill:#C5CCD6;}
	.st5{filter:url(#Adobe_OpacityMaskFilter);}
	.st6{opacity:0.74;mask:url(#SVGID_1_);}
	.st7{fill:#FFFFFF;}
	.st8{fill:url(#SVGID_00000120533791427591864890000008039321398611832971_);}
	.st9{fill:#F1EFF9;}
	.st10{fill:none;stroke:#DCE2EC;stroke-width:15;stroke-linejoin:round;stroke-miterlimit:10;}
</style>
<g id="Layer_1">
</g>
<g id="Layer_2">
</g>
<g id="Layer_3">
</g>
<g id="Layer_4">
	<g>
		<rect class="st0" width="1920" height="1080"/>
		<g>
			
				<image style="overflow:visible;opacity:0.57;" width="248" height="248" xlink:href="2FF07DC0.png"  transform="matrix(1 0 0 1 176 766)">
			</image>
			<g>
				<path class="st0" d="M190.4,939.7c0-52.3,0-104.6,0.1-156.9c0-5,0.1-10.1,1.2-14.9c3-13,14.8-21.5,30.3-21.8
					c16.6-0.3,33.3-0.2,49.9-0.2c33.9,0,67.7-0.1,101.6,0.1c17.1,0.1,28.7,8,32.1,21.7c1.1,4.4,1.3,9.1,1.3,13.7
					c0.1,56.3,0.1,112.6,0,168.9c0,9.4-2.3,11.7-11.8,11.7c-15.6,0-31.3,0-46.9,0c-8.5,0-11.1-2.5-11.1-11.2c0-44.5,0-134.7,0-135.3
					c0.1-15.9-2.2-18.2-17.9-18.2c-14.6,0-29.3,0-43.9,0c-11.9,0-15.2,3-15.2,14.8c-0.1,44.9-0.1,89.8-0.1,134.7
					c0,2.4,0.1,4.8-0.1,7.2c-0.3,5-3.3,7.8-8.1,7.9c-17.6,0.1-35.3,0.1-52.9,0c-4,0-6.2-1.9-7.6-4.7
					C190.3,955.1,190.4,941.9,190.4,939.7z"/>
			</g>
		</g>
		<g>
			<path class="st4" d="M337.2,811.6c0.1-15.9-2.2-18.2-17.9-18.2c-14.6,0-29.3,0-43.9,0c-11.9,0-15.2,3-15.2,14.8
				c-0.1,44.9-0.1,89.8-0.1,134.7c0,0,0,0.1,0,0.1c0-43.6,0-87.2,0.1-130.8c0-11.8,3.3-14.8,15.2-14.8c14.6,0,29.3,0,43.9,0
				c15.2,0,17.8,2.1,17.9,16.6C337.2,812.6,337.2,811.7,337.2,811.6z"/>
			<path class="st4" d="M260.1,950.2c-0.3,5-3.3,7.8-8.1,7.9c-17.6,0.1-35.3,0.1-52.9,0c-4,0-6.2-1.9-7.6-4.7
				c-0.8-1.5-0.9-7.9-1-12.6c0,3.9-0.1,14.6,1,16.6c1.4,2.7,3.6,4.6,7.6,4.7c17.6,0.1,35.3,0.1,52.9,0c4.9,0,7.8-2.8,8.1-7.9
				c0.2-2.3,0.1-4.7,0.1-7.1C260.2,948.1,260.1,949.1,260.1,950.2z"/>
			<path class="st4" d="M407,946.4c0,9.4-2.3,11.7-11.8,11.7c-15.6,0-31.3,0-46.9,0c-8.5,0-11.1-2.5-11.1-11.2c0-9.2,0-20.4,0-32.3
				c0,13.4,0,26.1,0,36.3c0,8.6,2.6,11.1,11.1,11.2c15.6,0,31.3,0,46.9,0c9.5,0,11.8-2.3,11.8-11.7c0-28.4,0-56.7,0-85.1
				C407,892.3,407,919.4,407,946.4z"/>
		</g>
		<g>
			<path class="st2" d="M190.5,792.7c0-5,0.1-10.1,1.2-14.9c3-13,14.8-21.5,30.3-21.8c16.6-0.3,33.3-0.2,49.9-0.2
				c33.9,0,67.7-0.1,101.6,0.1c17.1,0.1,28.7,8,32.1,21.7c1.1,4.4,1.3,9.1,1.3,13.7c0,27.7,0.1,55.3,0.1,83c0-31,0-62-0.1-93
				c0-4.6-0.2-9.3-1.3-13.7c-3.4-13.7-15.1-21.6-32.1-21.7c-33.9-0.2-67.7-0.1-101.6-0.1c-16.6,0-33.3-0.1-49.9,0.2
				c-15.5,0.3-27.3,8.8-30.3,21.8c-1.1,4.8-1.2,9.9-1.2,14.9c-0.1,52.3,0,104.6-0.1,156.9c0,0.8,0,3.1,0,5.9
				C190.5,894.6,190.4,843.7,190.5,792.7z"/>
			<path class="st2" d="M260.2,951.1c0-1.3,0-2.5,0-3.8C260.2,948.5,260.2,949.8,260.2,951.1z"/>
			<path class="st2" d="M337.2,823.8c0,17.9,0,61.8,0,97.7c0-44.3,0-95.4,0-95.9C337.2,825,337.2,824.4,337.2,823.8z"/>
		</g>
		<g>
			
				<image style="overflow:visible;opacity:0.57;" width="207" height="247" xlink:href="2FF07DD3.png"  transform="matrix(1 0 0 1 411 819)">
			</image>
			<g>
				<path class="st0" d="M436.5,1014.6c-2.2,0-4.4-0.5-6.3-1.7c-3.3-2-4.5-5.2-4.5-10.1c0.2-57.3,0.1-114.6,0.1-171.9
					c0-21.2,9.8-31.9,30.9-32.2c27.8-0.5,55.7-0.2,83.6-0.1c11.4,0.1,22.3,2.6,32.2,8.3c15,8.7,22.6,22.5,25.7,38.8
					c4.8,25.7,4.1,51.5-2.9,76.8c-5.9,21.5-20.4,34.5-42.2,37.4c-15.2,2-59.3,2.1-66.9,2.1c0,3.2,0,5.9,0,8.6c0,10.8,0,19.4,0,30.2
					c0,9.1-4.2,13.6-13.2,13.7C464.6,1014.7,443.9,1014.6,436.5,1014.6z M486.5,911.2c0.1,3.9,3.2,6.9,7.1,7
					c6.9,0.2,16.2,0.1,22.7,0c13.5-0.3,20.4-7.6,21.7-20.8c1.2-12,1-24.4-0.4-36.4c-1.3-12-9.8-18.4-22-18.8
					c-6.2-0.2-12.4-0.1-18.6-0.1c-8.5,0-10.8,2.2-10.8,10.6C486.1,868.3,486.3,897.7,486.5,911.2z"/>
			</g>
		</g>
		<g>
			<g>
				<path class="st0" d="M436.5,1014.6c-2.2,0-4.4-0.5-6.3-1.7c-3.3-2-4.5-5.2-4.5-10.1c0.2-57.3,0.1-114.6,0.1-171.9
					c0-21.2,9.8-31.9,30.9-32.2c27.8-0.5,55.7-0.2,83.6-0.1c11.4,0.1,22.3,2.6,32.2,8.3c15,8.7,22.6,22.5,25.7,38.8
					c4.8,25.7,4.1,51.5-2.9,76.8c-5.9,21.5-20.4,34.5-42.2,37.4c-15.2,2-59.3,2.1-66.9,2.1c0,3.2,0,5.9,0,8.6c0,10.8,0,19.4,0,30.2
					c0,9.1-4.2,13.6-13.2,13.7C464.6,1014.7,443.9,1014.6,436.5,1014.6z M486.5,911.2c0.1,3.9,3.2,6.9,7.1,7
					c6.9,0.2,16.2,0.1,22.7,0c13.5-0.3,20.4-7.6,21.7-20.8c1.2-12,1-24.4-0.4-36.4c-1.3-12-9.8-18.4-22-18.8
					c-6.2-0.2-12.4-0.1-18.6-0.1c-8.5,0-10.8,2.2-10.8,10.6C486.1,868.3,486.3,897.7,486.5,911.2z"/>
			</g>
			<defs>
				<filter id="Adobe_OpacityMaskFilter" filterUnits="userSpaceOnUse" x="425.7" y="798.4" width="175.6" height="216.2">
					
						<feColorMatrix  type="matrix" values="-1 0 0 0 1  0 -1 0 0 1  0 0 -1 0 1  0 0 0 1 0" color-interpolation-filters="sRGB" result="source"/>
				</filter>
			</defs>
			<mask maskUnits="userSpaceOnUse" x="425.7" y="798.4" width="175.6" height="216.2" id="SVGID_1_">
				<g class="st5">
					<image style="overflow:visible;" width="181" height="221" xlink:href="2FF07DCA.jpg"  transform="matrix(1 0 0 1 423 796)">
					</image>
				</g>
			</mask>
			<g class="st6">
				<path class="st7" d="M436.5,1014.6c-2.2,0-4.4-0.5-6.3-1.7c-3.3-2-4.5-5.2-4.5-10.1c0.2-57.3,0.1-114.6,0.1-171.9
					c0-21.2,9.8-31.9,30.9-32.2c27.8-0.5,55.7-0.2,83.6-0.1c11.4,0.1,22.3,2.6,32.2,8.3c15,8.7,22.6,22.5,25.7,38.8
					c4.8,25.7,4.1,51.5-2.9,76.8c-5.9,21.5-20.4,34.5-42.2,37.4c-15.2,2-59.3,2.1-66.9,2.1c0,3.2,0,5.9,0,8.6c0,10.8,0,19.4,0,30.2
					c0,9.1-4.2,13.6-13.2,13.7C464.6,1014.7,443.9,1014.6,436.5,1014.6z M486.5,911.2c0.1,3.9,3.2,6.9,7.1,7
					c6.9,0.2,16.2,0.1,22.7,0c13.5-0.3,20.4-7.6,21.7-20.8c1.2-12,1-24.4-0.4-36.4c-1.3-12-9.8-18.4-22-18.8
					c-6.2-0.2-12.4-0.1-18.6-0.1c-8.5,0-10.8,2.2-10.8,10.6C486.1,868.3,486.3,897.7,486.5,911.2z"/>
			</g>
		</g>
		<g>
			
				<image style="overflow:visible;opacity:0.57;" width="207" height="195" xlink:href="2FF07DD5.png"  transform="matrix(1 0 0 1 973 819)">
			</image>
			<g>
				<path class="st0" d="M987.2,888.8c0-19.6-0.1-39.3,0-58.9c0.1-19.9,10.2-30.9,30.1-31.1c38.5-0.5,77-0.5,115.4,0
					c20.3,0.2,30.3,11.1,30.3,31.5c0.1,40.3,0.1,80.6,0,120.9c0,8.6-2.4,10.9-11.2,10.9c-12.4,0-24.9,0-37.3,0
					c-9.5,0-11.8-2.3-11.8-11.6c0-32.5,0-64.9,0-97.4c0-10.9-2.5-13.4-13.5-13.5c-10,0-20-0.1-30.1,0c-9,0.1-11.9,3-11.9,12
					c0,32.7,0,65.3,0,98c0,10.5-2,12.5-12.7,12.5c-12.2,0-24.5,0-36.7,0c-8.3,0-10.8-2.5-10.8-10.7
					C987.2,930.5,987.2,909.7,987.2,888.8z"/>
			</g>
		</g>
		<g>
			
				<image style="overflow:visible;opacity:0.57;" width="190" height="195" xlink:href="2FF07DD6.png"  transform="matrix(1 0 0 1 798 819)">
			</image>
			<g>
				<path class="st0" d="M867.8,961.3c-31.8-2.6-49.5-20.1-53.3-51.8c-2.5-20.6-2.5-41.2,1.1-61.7c4.9-28.7,24.5-47.4,53.5-48.6
					c30.2-1.2,60.5-0.7,90.8-0.7c6,0,8.6,2.9,8.7,9.1c0.2,7.4,0.1,14.8,0,22.3c-0.1,7-2.9,9.7-10,9.7c-16.4,0.1-32.9,0-49.3,0.1
					c-21.8,0.1-32.2,9.2-33.9,31.1c-0.7,9.7-0.5,19.7,1,29.3c2.1,13.6,10.3,20.1,24.2,20.5c18.6,0.4,37.3,0.3,55.9,0.3
					c14.7,0,15.5,0.8,15.5,15.7c0,5.2,0,10.4,0,15.6c-0.1,7.2-2.6,9.9-9.8,9.9C947.1,962.1,884.1,962.6,867.8,961.3z"/>
			</g>
		</g>
		<g>
			
				<image style="overflow:visible;opacity:0.57;" width="148" height="195" xlink:href="2FF07DD4.png"  transform="matrix(1 0 0 1 1420 819)">
			</image>
			<g>
				<path class="st0" d="M1543.4,799c2.3,0,3.6,2.7,2.2,4.6c-8.5,11.3-43.8,57.5-44.9,59c-10.2,13.7-10.1,17.7,0.9,31
					c13.5,16.5,40,50.9,49.5,63.3c1.4,1.9,0.1,4.6-2.2,4.6c-11.5,0.2-37.6,0.5-50.2,0.7c-5.8,0.1-10.1-2-13.4-6.5
					c-14.8-20.4-29.5-41-44.6-61.2c-8-10.8-8.4-21.1-0.7-32c13.5-19.4,26.7-39,40.5-58.2c2.1-2.9,6.9-5.4,10.5-5.5
					C1504.2,798.2,1531.6,798.7,1543.4,799z"/>
			</g>
		</g>
		<g>
			
				<image style="overflow:visible;opacity:0.57;" width="91" height="195" xlink:href="2FF07DF0.png"  transform="matrix(1 0 0 1 1355 819)">
			</image>
			<g>
				<path class="st0" d="M1429.8,880c0,23.4,0,46.9,0,70.3c0,9.3-2.4,11.7-11.7,11.7c-12.8,0-25.6,0-38.5,0
					c-7.5,0-10.3-2.7-10.3-10.1c-0.1-47.7-0.1-95.4,0-143c0-8,2.6-10.4,10.5-10.5c13-0.1,26-0.1,39.1,0c8.5,0,10.9,2.6,10.9,11.3
					C1429.8,833.1,1429.8,856.6,1429.8,880z"/>
			</g>
		</g>
		<g>
			
				<image style="overflow:visible;opacity:0.57;" width="206" height="198" xlink:href="2FF07DF1.png"  transform="matrix(1 0 0 1 1164 816)">
			</image>
			<g>
				<path class="st0" d="M1327.8,897.1c15-0.1,23.9-6.7,25.3-21.6c1.2-12.2,0.9-24.9-1-37c-4.1-25.9-15-36.8-40.6-39.9
					c-29.9-3.5-60.1-3.8-89.9,0.9c-27.7,4.4-39.9,16.2-41.7,43.8c-1.7,25.7-1.3,51.7,1,77.4c2.4,26.3,17.2,39.6,43.7,40.5
					c38.4,1.3,76.9,0.8,115.4,0.9c5.5,0,8.4-3.3,8.4-8.8c0-7,0-14,0-21c0-12.3-1.5-13.8-13.8-13.8c-25.5,0-50.9,0.1-76.4-0.2
					c-13.4-0.2-19.7-7.1-19-20.9C1241.9,897.1,1300.7,897.2,1327.8,897.1z M1254.3,838.4c8.3-0.5,16.8-0.2,25.1,0.1
					c2.9,0.1,5.9,1.1,8.6,2.4c4.6,2.3,6.7,6.2,5.5,11.4c-1.2,5-5.8,6.4-10.4,6.4c-14.8,0.1-28.7,0-43.8,0
					C1237.3,845.3,1241.8,839.2,1254.3,838.4z"/>
			</g>
		</g>
		<g>
			
				<image style="overflow:visible;opacity:0.57;" width="220" height="197" xlink:href="2FF07DF2.png"  transform="matrix(1 0 0 1 598 817)">
			</image>
			<g>
				
					<radialGradient id="SVGID_00000102541477554970777960000001837966937385804721_" cx="706.9151" cy="879.358" r="98.4626" gradientUnits="userSpaceOnUse">
					<stop  offset="0" style="stop-color:#FEFFFF"/>
					<stop  offset="0.5586" style="stop-color:#FCFDFE"/>
					<stop  offset="0.7598" style="stop-color:#F5F8FA"/>
					<stop  offset="0.9027" style="stop-color:#EAEEF4"/>
					<stop  offset="1" style="stop-color:#DCE2EC"/>
				</radialGradient>
				<path style="fill:url(#SVGID_00000102541477554970777960000001837966937385804721_);" d="M798.6,849.5
					c-6-29.9-21.1-45.3-50.8-50.1c-28.4-4.6-57.1-4.6-85.5,0.7c-24,4.5-39.3,19-45.4,42.6c-6.4,24.7-6.4,49.6-0.2,74.3
					c6,23.9,21.1,38.9,45.5,43.1c14.7,2.5,67.7,3.2,79,2c32.1-3.5,50.2-18.8,56.8-48.1C802.8,892.6,802.9,871,798.6,849.5z
					 M740.9,893.1c0,15.6-12.6,28.2-28.2,28.2h-11.6c-15.6,0-28.2-12.6-28.2-28.2v-27.6c0-15.6,12.6-28.2,28.2-28.2h11
					c15.9,0,28.8,12.9,28.8,28.8V893.1z"/>
			</g>
		</g>
		<g>
			
				<image style="overflow:visible;opacity:0.57;" width="205" height="195" xlink:href="EDC22E6F.png"  transform="matrix(1 0 0 1 1541 819)">
			</image>
			<g>
				<path class="st9" d="M1729.5,809.1c-0.1-8.2-2.6-10.7-11.7-10.7c-15.6,0-31.1,0-46.7,0l0,0c-4.5,0-74.5,0-105,0
					c-8.4,0-10.8,2.5-10.8,10.7c0,7.8-0.1,15.6,0,23.4c0.1,5.5,2.8,8.6,8.5,8.7c7.4,0.1,39.3,0,48.5,0c0,3,0,5.1,0,7.3
					c0,33.9,0,67.7,0,101.6c0,9.9,2.1,11.9,12.1,11.9c11.8,0,23.6,0,35.5,0c10.8,0,12.7-1.9,12.7-12.5c0-33.5,0-66.9,0-100.4
					c0-2.4,0-4.7,0-7.9l0,0c13.2,0,40.7,0,47.7,0c6.1-0.1,9.1-3.2,9.1-8.7C1729.6,824.8,1729.6,816.9,1729.5,809.1z"/>
			</g>
		</g>
		<path class="st10" d="M972.7,102.9c4,1.3,5.1,3.2,5.1,7.2c-0.1,204.7-0.1,409.4-0.1,614.1c0,8.7-2.3,11-11,11.1
			c-2.2,0-4.4,0.1-6.6,0c-5-0.2-7.6-3.1-8.1-8c-0.2-1.8-0.1-3.6-0.1-5.4c0-197.3,0-394.6,0.1-591.8c0-6.1-1.7-8.6-7.5-10.4
			C908.3,108.4,830,83.5,830,83.5s-0.3,233-0.4,346.5c0,4.2,1.1,6.5,5.2,8.1c7.8,3.1,15.4,6.9,23.1,10.1c3.1,1.3,4.5,2.9,4.5,6.6
			c-0.1,90.2-0.1,180.4-0.1,270.7c0,7.1-2.7,9.6-9.8,9.8c-2,0-4,0-6,0c-7.1-0.2-9.6-2.6-9.8-9.9c-0.1-3.2,0-6.4,0-9.6
			c0-80-0.1-160,0.1-240c0-5.9-1.5-8.8-7.2-11c-19.8-7.6-65.6-26-65.6-26s0,191.9,0,283.7c0,11.5-1.3,12.8-12.7,12.8
			c-44.9,0-89.8,0-134.7,0c-10.3,0-12.3-2-12.3-12.3c0-51.1,0.1-102.3-0.1-153.4c0-4.9,1.5-7,6.1-8.5c11-3.6,21.9-7.8,32.9-11.5
			c3.4-1.1,4.7-2.8,4.6-6.4c-0.2-10.8-0.1-21.6-0.1-33.4c-14.4,5-28.4,9.9-43,15c-0.1-2.7-0.3-4.6-0.3-6.6c0-20,0.2-40.1-0.1-60.1
			c-0.1-4.9,1.3-7.4,6.1-9.1c30.8-10.7,61.5-21.9,92.3-32.6c5.2-1.8,7.1-4.1,6.9-9.8c-0.5-14.2-0.2-28.5-0.1-42.7
			c0-3.5-0.9-5.4-4.4-6.6c-53.6-17.9-107.1-35.9-160.7-53.8c-0.4-0.1-0.8,0-2.3,0c0,2.6,0,5.3,0,7.9c0,136.9,0,273.9,0,410.8
			c0,11.3-1.7,13-12.7,13c-30.9,0-61.8,0-92.6,0c-9.2,0-11.5-2.2-11.5-11.2c0-110.1,0-220.1-0.1-330.2c0-3.8,1.2-5.7,4.8-7
			c11.5-4.2,22.8-8.7,34.1-13.4c1.8-0.7,4.1-3,4.1-4.7c0.4-12,0.2-24,0.2-37c-14.3,5.6-28.1,10.9-43.1,16.7c0-9-0.2-17.1,0.2-25.2
			c0-1.1,2.3-2.6,3.7-3.2c36.6-14.7,73.2-29.4,109.9-43.9c2.1-0.8,5.1-0.6,7.4,0.2c37,12.5,73.9,25.2,110.9,37.8
			c2.1,0.7,4.1,1.3,7.1,2.3c0-11.2,0-21.7,0-32.3c0-15,0-15,14.1-19.9c6.8-2.4,13.7-4.6,20.4-7.2c1.5-0.6,3.6-2.5,3.7-3.8
			c0.3-12,0.2-24,0.2-37c-12.8,4.7-25.1,9.3-38.3,14.2c0-12.9-0.1-24.8,0.2-36.7c0-1.2,2.4-2.9,4.1-3.6c9.8-4,19.8-7.7,29.6-11.7
			c1.7-0.7,4.2-2.2,4.2-3.4c0.3-12.3,0.2-24.7,0.2-37.7c-12.9,5-25.1,9.7-38.3,14.8c0-10.1,0-19,0.3-28.3c0.1-1.6,3.4-3.5,5.6-4.4
			c31.9-12.9,63.9-25.7,95.9-38.6c15.6-6.3,46-18.9,57.2-23.6c2.8-1.2,6-1.4,9-0.4C853.4,63.5,938.1,91.5,972.7,102.9z"/>
		<path class="st10" d="M1331.3,435.3c0,0,14.2-6,20.8-8.2c2.8-0.9,6.4-1.3,9.1-0.4c43,14.3,85.8,28.8,128.8,43.2
			c4,1.3,5.1,3.2,5.1,7.3c-0.1,82.2-0.1,164.4-0.1,246.6c0,9.4-2.2,11.5-11.8,11.6c-12.7,0.1-14-1.3-14-14.1
			c0-52.3-0.1-104.7,0.1-157c0-4.8-1.1-7.1-6-8.3c-9.3-2.2-18.5-5.3-27.8-7.7c-3.6-0.9-5.3-2.4-5.2-6.5c0.3-12.4,0.1-24.8,0.1-38.2
			c12.9,3.7,25.3,7.2,38.7,11c0-7.7,0.3-14.6-0.3-21.4c-0.1-1.6-3.4-3.4-5.6-4.1c-31.2-10.3-62.4-20.4-93.7-30.5
			c-4-1.3-7.9-2.5-12.9-4.1c0,3.8,0,6.7,0,9.6c0,85.6,0,171.2,0,256.8c0,13.5-1.1,14.6-14.8,14.6c-28.1,0-56.1,0-84.2,0
			c-10.2,0-12.2-2-12.2-12.4c0-82.4,0-164.8-0.1-247.2c0-4.5,1.3-6.7,5.6-8.3c16.5-6.3,32.7-13.2,49.1-19.6c3.8-1.5,5.7-3.2,5.6-7.7
			c-0.3-19.2-0.2-38.5,0-57.7c0-4.1-1.1-6-5.2-7.2c-9.2-2.6-18.3-5.9-27.5-8.7c-3.6-1.1-5.2-2.6-5-6.7c0.3-9,0.1-18,0.1-27.9
			c12.6,4,24.6,7.9,37.5,12c0-8.8,0.2-16.8-0.2-24.7c-0.1-1.4-2.6-3.1-4.4-3.8c-9.5-3.3-19-6.3-28.6-9.2c-3.2-1-4.4-2.5-4.4-5.9
			c0.2-9.2,0.1-18.4,0.1-28.4c12.6,4,24.6,7.9,37.5,12c0-9,0.1-17.2-0.1-25.3c0-1.3-1.6-3.2-2.9-3.6
			c-38.8-12.8-77.6-25.5-117.6-38.5c0,3.2,0,5.7,0,8.1c0,165.8,0,331.6,0,497.4c0,11.9-1.4,13.3-13.5,13.3
			c-15.7,0-16.2-0.5-16.2-16.1c0-46.7-0.1-93.4,0.1-140.1c0-5.2-1.2-7.6-6.4-9.3c-26.3-8.4-52.5-17.3-79.7-26.4
			c-0.2,3-0.4,121.3-0.4,178.1c0,12.8-1.1,13.9-13.6,13.9c-14.8,0-29.7,0-44.5,0c-7.8,0-10.5-2.6-10.5-10.5c0-49.5,0-99-0.1-148.6
			c0-3.9,1.3-5.7,4.8-7c10.3-3.9,20.4-8.4,30.8-12c4.9-1.7,6.1-4.3,6.1-9.2c-0.1-95.4-0.1-190.9-0.1-286.3c0-6.8,0.1-13.6,0-20.4
			c-0.1-2.9,0.6-4.6,3.8-5.7c45.2-15.2,90.2-30.7,135.4-45.9c2.8-0.9,6.4-0.7,9.2,0.2c45.5,15,90.8,30.3,136.3,45.3
			c4.4,1.5,5.2,3.7,5.2,7.8C1331.2,304.3,1331.3,435.3,1331.3,435.3z"/>
	</g>
</g>
</svg>
