<?xml version="1.0" encoding="utf-8"?>
<!-- Generator: Adobe Illustrator 26.1.0, SVG Export Plug-In . SVG Version: 6.00 Build 0)  -->
<svg version="1.1" xmlns="http://www.w3.org/2000/svg" xmlns:xlink="http://www.w3.org/1999/xlink" x="0px" y="0px"
	 viewBox="0 0 1920 1080" style="enable-background:new 0 0 1920 1080;" xml:space="preserve">
<style type="text/css">
	.st0{fill:#F1F4F9;}
	.st1{fill:#DCE2EC;}
	.st2{fill:#FEFFFF;}
	.st3{fill:#E5E8EE;}
	.st4{fill:#EDF0F5;}
	.st5{filter:url(#Adobe_OpacityMaskFilter);}
	.st6{opacity:0.64;mask:url(#SVGID_1_);}
	.st7{fill:#FFFFFF;}
	.st8{filter:url(#Adobe_OpacityMaskFilter_00000170273257041426765860000015091488512273169853_);}
	.st9{opacity:0.64;mask:url(#SVGID_00000049919748939267672870000004127421907260493480_);}
	.st10{fill:#F1EFF9;}
	.st11{filter:url(#Adobe_OpacityMaskFilter_00000087412604179534134770000011482747822615192706_);}
	.st12{opacity:0.64;mask:url(#SVGID_00000150067186736305097530000011722734361220419002_);}
	.st13{filter:url(#Adobe_OpacityMaskFilter_00000087391854983041805790000015901174603592790426_);}
	.st14{opacity:0.64;mask:url(#SVGID_00000124855030387571971440000016414749433431841922_);}
	.st15{filter:url(#Adobe_OpacityMaskFilter_00000060021312662585127160000007196418921896502455_);}
	.st16{opacity:0.64;mask:url(#SVGID_00000132065117980421735800000016634172841159420090_);}
	.st17{filter:url(#Adobe_OpacityMaskFilter_00000132809185859254569800000005835158419897180599_);}
	.st18{opacity:0.64;mask:url(#SVGID_00000066484808555566925130000015635485333664745113_);}
	.st19{filter:url(#Adobe_OpacityMaskFilter_00000090289032959801523100000003047972455699020421_);}
	.st20{opacity:0.64;mask:url(#SVGID_00000168825743099998505340000003853590833748815234_);}
	.st21{filter:url(#Adobe_OpacityMaskFilter_00000016077332550034421140000014901572965588765348_);}
	.st22{opacity:0.64;mask:url(#SVGID_00000119116713867512138960000007962777849638137017_);}
	.st23{filter:url(#Adobe_OpacityMaskFilter_00000129172364353178607300000015679802658513629629_);}
	.st24{opacity:0.64;mask:url(#SVGID_00000081641879304397819520000005689883948094461569_);}
	.st25{fill:none;stroke:#F1F4F9;stroke-width:15;stroke-linejoin:round;stroke-miterlimit:10;}
	.st26{filter:url(#Adobe_OpacityMaskFilter_00000090292591780300237150000004990123636434825369_);}
	.st27{opacity:0.64;mask:url(#SVGID_00000027596218802045419030000007558301679914310042_);}
	.st28{filter:url(#Adobe_OpacityMaskFilter_00000163070632159063833770000005680591447888319679_);}
	.st29{opacity:0.64;mask:url(#SVGID_00000021823475280446610910000012879585212523833759_);}
	.st30{filter:url(#Adobe_OpacityMaskFilter_00000126306167417500356300000016093784768854434188_);}
	.st31{opacity:0.64;mask:url(#SVGID_00000002372576093307745320000017224442570635253693_);}
	.st32{filter:url(#Adobe_OpacityMaskFilter_00000025406935154473301590000016557638702677895825_);}
	.st33{opacity:0.64;mask:url(#SVGID_00000021081524375606856030000003315115365895678651_);}
	.st34{filter:url(#Adobe_OpacityMaskFilter_00000023979329010135982410000001712834366212407178_);}
	.st35{opacity:0.64;mask:url(#SVGID_00000149380821035734201740000007323815459381022385_);}
	.st36{filter:url(#Adobe_OpacityMaskFilter_00000013884888467559230270000001463083877200407707_);}
	.st37{opacity:0.64;mask:url(#SVGID_00000168108016649421578230000015112966217764629650_);}
	.st38{filter:url(#Adobe_OpacityMaskFilter_00000132089268080932218660000011137003652830443448_);}
	.st39{opacity:0.64;mask:url(#SVGID_00000176753408931968525000000017804785773588971665_);}
	.st40{filter:url(#Adobe_OpacityMaskFilter_00000053539761413849354890000016204558381686727859_);}
	.st41{opacity:0.64;mask:url(#SVGID_00000181805183795837473420000007239216080357296565_);}
	.st42{filter:url(#Adobe_OpacityMaskFilter_00000132792828925768225590000011926403590140644267_);}
	.st43{opacity:0.64;mask:url(#SVGID_00000048491302716506345680000015870176369367594649_);}
</style>
<g id="Layer_1">
</g>
<g id="Layer_2">
</g>
<g id="Layer_3">
</g>
<g id="Layer_4">
</g>
<g id="Layer_5">
	<g>
		<rect class="st4" width="1920" height="1080"/>
		<g>
			
				<image style="overflow:visible;" width="241" height="241" xlink:href="E9FED212.png"  transform="matrix(1 0 0 1 178.12 762.2)">
			</image>
			<g>
				<g>
					<path class="st0" d="M190.4,939.7c0-52.3,0-104.6,0.1-156.9c0-5,0.1-10.1,1.2-14.9c3-13,14.8-21.5,30.3-21.8
						c16.6-0.3,33.3-0.2,49.9-0.2c33.9,0,67.7-0.1,101.6,0.1c17.1,0.1,28.7,8,32.1,21.7c1.1,4.4,1.3,9.1,1.3,13.7
						c0.1,56.3,0.1,112.6,0,168.9c0,9.4-2.3,11.7-11.8,11.7c-15.6,0-31.3,0-46.9,0c-8.5,0-11.1-2.5-11.1-11.2
						c0-44.5,0-134.7,0-135.3c0.1-15.9-2.2-18.2-17.9-18.2c-14.6,0-29.3,0-43.9,0c-11.9,0-15.2,3-15.2,14.8
						c-0.1,44.9-0.1,89.8-0.1,134.7c0,2.4,0.1,4.8-0.1,7.2c-0.3,5-3.3,7.8-8.1,7.9c-17.6,0.1-35.3,0.1-52.9,0c-4,0-6.2-1.9-7.6-4.7
						C190.3,955.1,190.4,941.9,190.4,939.7z"/>
				</g>
				<defs>
					<filter id="Adobe_OpacityMaskFilter" filterUnits="userSpaceOnUse" x="190.4" y="745.8" width="216.6" height="216.3">
						<feFlood  style="flood-color:white;flood-opacity:1" result="back"/>
						<feBlend  in="SourceGraphic" in2="back" mode="normal"/>
					</filter>
				</defs>
				<mask maskUnits="userSpaceOnUse" x="190.4" y="745.8" width="216.6" height="216.3" id="SVGID_1_">
					<g class="st5">
						
							<image style="overflow:visible;" width="221" height="221" xlink:href="E9FED216.jpg"  transform="matrix(1 0 0 1 188.12 743.2)">
						</image>
					</g>
				</mask>
				<g class="st6">
					<path class="st7" d="M190.4,939.7c0-52.3,0-104.6,0.1-156.9c0-5,0.1-10.1,1.2-14.9c3-13,14.8-21.5,30.3-21.8
						c16.6-0.3,33.3-0.2,49.9-0.2c33.9,0,67.7-0.1,101.6,0.1c17.1,0.1,28.7,8,32.1,21.7c1.1,4.4,1.3,9.1,1.3,13.7
						c0.1,56.3,0.1,112.6,0,168.9c0,9.4-2.3,11.7-11.8,11.7c-15.6,0-31.3,0-46.9,0c-8.5,0-11.1-2.5-11.1-11.2
						c0-44.5,0-134.7,0-135.3c0.1-15.9-2.2-18.2-17.9-18.2c-14.6,0-29.3,0-43.9,0c-11.9,0-15.2,3-15.2,14.8
						c-0.1,44.9-0.1,89.8-0.1,134.7c0,2.4,0.1,4.8-0.1,7.2c-0.3,5-3.3,7.8-8.1,7.9c-17.6,0.1-35.3,0.1-52.9,0c-4,0-6.2-1.9-7.6-4.7
						C190.3,955.1,190.4,941.9,190.4,939.7z"/>
				</g>
			</g>
		</g>
		<g>
			
				<image style="overflow:visible;" width="201" height="241" xlink:href="E9FED216.png"  transform="matrix(1 0 0 1 413.12 815.2)">
			</image>
			<g>
				<g>
					<path class="st0" d="M436.5,1014.6c-2.2,0-4.4-0.5-6.3-1.7c-3.3-2-4.5-5.2-4.5-10.1c0.2-57.3,0.1-114.6,0.1-171.9
						c0-21.2,9.8-31.9,30.9-32.2c27.8-0.5,55.7-0.2,83.6-0.1c11.4,0.1,22.3,2.6,32.2,8.3c15,8.7,22.6,22.5,25.7,38.8
						c4.8,25.7,4.1,51.5-2.9,76.8c-5.9,21.5-20.4,34.5-42.2,37.4c-15.2,2-59.3,2.1-66.9,2.1c0,3.2,0,5.9,0,8.6c0,10.8,0,19.4,0,30.2
						c0,9.1-4.2,13.6-13.2,13.7C464.6,1014.7,443.9,1014.6,436.5,1014.6z M486.5,911.2c0.1,3.9,3.2,6.9,7.1,7
						c6.9,0.2,16.2,0.1,22.7,0c13.5-0.3,20.4-7.6,21.7-20.8c1.2-12,1-24.4-0.4-36.4c-1.3-12-9.8-18.4-22-18.8
						c-6.2-0.2-12.4-0.1-18.6-0.1c-8.5,0-10.8,2.2-10.8,10.6C486.1,868.3,486.3,897.7,486.5,911.2z"/>
				</g>
				<defs>
					
						<filter id="Adobe_OpacityMaskFilter_00000016077678796203566110000007406290751758644926_" filterUnits="userSpaceOnUse" x="425.7" y="798.4" width="175.6" height="216.2">
						<feFlood  style="flood-color:white;flood-opacity:1" result="back"/>
						<feBlend  in="SourceGraphic" in2="back" mode="normal"/>
					</filter>
				</defs>
				
					<mask maskUnits="userSpaceOnUse" x="425.7" y="798.4" width="175.6" height="216.2" id="SVGID_00000142137412074043019110000001408689724741028502_">
					<g style="filter:url(#Adobe_OpacityMaskFilter_00000016077678796203566110000007406290751758644926_);">
						
							<image style="overflow:visible;" width="181" height="221" xlink:href="E9FED212.jpg"  transform="matrix(1 0 0 1 423.12 796.2)">
						</image>
					</g>
				</mask>
				<g style="opacity:0.64;mask:url(#SVGID_00000142137412074043019110000001408689724741028502_);">
					<path class="st7" d="M436.5,1014.6c-2.2,0-4.4-0.5-6.3-1.7c-3.3-2-4.5-5.2-4.5-10.1c0.2-57.3,0.1-114.6,0.1-171.9
						c0-21.2,9.8-31.9,30.9-32.2c27.8-0.5,55.7-0.2,83.6-0.1c11.4,0.1,22.3,2.6,32.2,8.3c15,8.7,22.6,22.5,25.7,38.8
						c4.8,25.7,4.1,51.5-2.9,76.8c-5.9,21.5-20.4,34.5-42.2,37.4c-15.2,2-59.3,2.1-66.9,2.1c0,3.2,0,5.9,0,8.6c0,10.8,0,19.4,0,30.2
						c0,9.1-4.2,13.6-13.2,13.7C464.6,1014.7,443.9,1014.6,436.5,1014.6z M486.5,911.2c0.1,3.9,3.2,6.9,7.1,7
						c6.9,0.2,16.2,0.1,22.7,0c13.5-0.3,20.4-7.6,21.7-20.8c1.2-12,1-24.4-0.4-36.4c-1.3-12-9.8-18.4-22-18.8
						c-6.2-0.2-12.4-0.1-18.6-0.1c-8.5,0-10.8,2.2-10.8,10.6C486.1,868.3,486.3,897.7,486.5,911.2z"/>
				</g>
			</g>
		</g>
		<g>
			
				<image style="overflow:visible;" width="201" height="188" xlink:href="E9FED211.png"  transform="matrix(1 0 0 1 975.12 815.2)">
			</image>
			<g>
				<g>
					<path class="st0" d="M987.2,888.8c0-19.6-0.1-39.3,0-58.9c0.1-19.9,10.2-30.9,30.1-31.1c38.5-0.5,77-0.5,115.4,0
						c20.3,0.2,30.3,11.1,30.3,31.5c0.1,40.3,0.1,80.6,0,120.9c0,8.6-2.4,10.9-11.2,10.9c-12.4,0-24.9,0-37.3,0
						c-9.5,0-11.8-2.3-11.8-11.6c0-32.5,0-64.9,0-97.4c0-10.9-2.5-13.4-13.5-13.5c-10,0-20-0.1-30.1,0c-9,0.1-11.9,3-11.9,12
						c0,32.7,0,65.3,0,98c0,10.5-2,12.5-12.7,12.5c-12.2,0-24.5,0-36.7,0c-8.3,0-10.8-2.5-10.8-10.7
						C987.2,930.5,987.2,909.7,987.2,888.8z"/>
				</g>
				<defs>
					
						<filter id="Adobe_OpacityMaskFilter_00000172431948700164233480000009068187896799210900_" filterUnits="userSpaceOnUse" x="987.2" y="798.4" width="176" height="163.7">
						<feFlood  style="flood-color:white;flood-opacity:1" result="back"/>
						<feBlend  in="SourceGraphic" in2="back" mode="normal"/>
					</filter>
				</defs>
				
					<mask maskUnits="userSpaceOnUse" x="987.2" y="798.4" width="176" height="163.7" id="SVGID_00000022558174895289525500000007988984059842218627_">
					<g style="filter:url(#Adobe_OpacityMaskFilter_00000172431948700164233480000009068187896799210900_);">
						
							<image style="overflow:visible;" width="181" height="168" xlink:href="E9FED21E.jpg"  transform="matrix(1 0 0 1 985.12 796.2)">
						</image>
					</g>
				</mask>
				<g style="opacity:0.64;mask:url(#SVGID_00000022558174895289525500000007988984059842218627_);">
					<path class="st7" d="M987.2,888.8c0-19.6-0.1-39.3,0-58.9c0.1-19.9,10.2-30.9,30.1-31.1c38.5-0.5,77-0.5,115.4,0
						c20.3,0.2,30.3,11.1,30.3,31.5c0.1,40.3,0.1,80.6,0,120.9c0,8.6-2.4,10.9-11.2,10.9c-12.4,0-24.9,0-37.3,0
						c-9.5,0-11.8-2.3-11.8-11.6c0-32.5,0-64.9,0-97.4c0-10.9-2.5-13.4-13.5-13.5c-10,0-20-0.1-30.1,0c-9,0.1-11.9,3-11.9,12
						c0,32.7,0,65.3,0,98c0,10.5-2,12.5-12.7,12.5c-12.2,0-24.5,0-36.7,0c-8.3,0-10.8-2.5-10.8-10.7
						C987.2,930.5,987.2,909.7,987.2,888.8z"/>
				</g>
			</g>
		</g>
		<g>
			
				<image style="overflow:visible;" width="184" height="189" xlink:href="E9FED21E.png"  transform="matrix(1 0 0 1 800.12 815.2)">
			</image>
			<g>
				<g>
					<path class="st0" d="M867.8,961.3c-31.8-2.6-49.5-20.1-53.3-51.8c-2.5-20.6-2.5-41.2,1.1-61.7c4.9-28.7,24.5-47.4,53.5-48.6
						c30.2-1.2,60.5-0.7,90.8-0.7c6,0,8.6,2.9,8.7,9.1c0.2,7.4,0.1,14.8,0,22.3c-0.1,7-2.9,9.7-10,9.7c-16.4,0.1-32.9,0-49.3,0.1
						c-21.8,0.1-32.2,9.2-33.9,31.1c-0.7,9.7-0.5,19.7,1,29.3c2.1,13.6,10.3,20.1,24.2,20.5c18.6,0.4,37.3,0.3,55.9,0.3
						c14.7,0,15.5,0.8,15.5,15.7c0,5.2,0,10.4,0,15.6c-0.1,7.2-2.6,9.9-9.8,9.9C947.1,962.1,884.1,962.6,867.8,961.3z"/>
				</g>
				<defs>
					
						<filter id="Adobe_OpacityMaskFilter_00000163033095955725146170000001796688845999669122_" filterUnits="userSpaceOnUse" x="812.7" y="798.4" width="159.2" height="163.8">
						<feFlood  style="flood-color:white;flood-opacity:1" result="back"/>
						<feBlend  in="SourceGraphic" in2="back" mode="normal"/>
					</filter>
				</defs>
				
					<mask maskUnits="userSpaceOnUse" x="812.7" y="798.4" width="159.2" height="163.8" id="SVGID_00000041978296584617946240000009642828455116451519_">
					<g style="filter:url(#Adobe_OpacityMaskFilter_00000163033095955725146170000001796688845999669122_);">
						
							<image style="overflow:visible;" width="164" height="169" xlink:href="E9FED213.jpg"  transform="matrix(1 0 0 1 810.12 796.2)">
						</image>
					</g>
				</mask>
				<g style="opacity:0.64;mask:url(#SVGID_00000041978296584617946240000009642828455116451519_);">
					<path class="st7" d="M867.8,961.3c-31.8-2.6-49.5-20.1-53.3-51.8c-2.5-20.6-2.5-41.2,1.1-61.7c4.9-28.7,24.5-47.4,53.5-48.6
						c30.2-1.2,60.5-0.7,90.8-0.7c6,0,8.6,2.9,8.7,9.1c0.2,7.4,0.1,14.8,0,22.3c-0.1,7-2.9,9.7-10,9.7c-16.4,0.1-32.9,0-49.3,0.1
						c-21.8,0.1-32.2,9.2-33.9,31.1c-0.7,9.7-0.5,19.7,1,29.3c2.1,13.6,10.3,20.1,24.2,20.5c18.6,0.4,37.3,0.3,55.9,0.3
						c14.7,0,15.5,0.8,15.5,15.7c0,5.2,0,10.4,0,15.6c-0.1,7.2-2.6,9.9-9.8,9.9C947.1,962.1,884.1,962.6,867.8,961.3z"/>
				</g>
			</g>
		</g>
		<g>
			
				<image style="overflow:visible;" width="142" height="188" xlink:href="E9FED210.png"  transform="matrix(1 0 0 1 1422.12 815.2)">
			</image>
			<g>
				<g>
					<path class="st0" d="M1543.4,799c2.3,0,3.6,2.7,2.2,4.6c-8.5,11.3-43.8,57.5-44.9,59c-10.2,13.7-10.1,17.7,0.9,31
						c13.5,16.5,40,50.9,49.5,63.3c1.4,1.9,0.1,4.6-2.2,4.6c-11.5,0.2-37.6,0.5-50.2,0.7c-5.8,0.1-10.1-2-13.4-6.5
						c-14.8-20.4-29.5-41-44.6-61.2c-8-10.8-8.4-21.1-0.7-32c13.5-19.4,26.7-39,40.5-58.2c2.1-2.9,6.9-5.4,10.5-5.5
						C1504.2,798.2,1531.6,798.7,1543.4,799z"/>
				</g>
				<defs>
					
						<filter id="Adobe_OpacityMaskFilter_00000116224240986657947650000004201282939162129341_" filterUnits="userSpaceOnUse" x="1434.5" y="798.5" width="117.2" height="163.7">
						<feFlood  style="flood-color:white;flood-opacity:1" result="back"/>
						<feBlend  in="SourceGraphic" in2="back" mode="normal"/>
					</filter>
				</defs>
				
					<mask maskUnits="userSpaceOnUse" x="1434.5" y="798.5" width="117.2" height="163.7" id="SVGID_00000011749930985211553110000016002134079648642224_">
					<g style="filter:url(#Adobe_OpacityMaskFilter_00000116224240986657947650000004201282939162129341_);">
						
							<image style="overflow:visible;" width="122" height="168" xlink:href="D1D45CE5.jpg"  transform="matrix(1 0 0 1 1432.12 796.2)">
						</image>
					</g>
				</mask>
				<g style="opacity:0.64;mask:url(#SVGID_00000011749930985211553110000016002134079648642224_);">
					<path class="st7" d="M1543.4,799c2.3,0,3.6,2.7,2.2,4.6c-8.5,11.3-43.8,57.5-44.9,59c-10.2,13.7-10.1,17.7,0.9,31
						c13.5,16.5,40,50.9,49.5,63.3c1.4,1.9,0.1,4.6-2.2,4.6c-11.5,0.2-37.6,0.5-50.2,0.7c-5.8,0.1-10.1-2-13.4-6.5
						c-14.8-20.4-29.5-41-44.6-61.2c-8-10.8-8.4-21.1-0.7-32c13.5-19.4,26.7-39,40.5-58.2c2.1-2.9,6.9-5.4,10.5-5.5
						C1504.2,798.2,1531.6,798.7,1543.4,799z"/>
				</g>
			</g>
		</g>
		<g>
			
				<image style="overflow:visible;" width="85" height="188" xlink:href="D1D45CFB.png"  transform="matrix(1 0 0 1 1357.12 815.2)">
			</image>
			<g>
				<g>
					<path class="st0" d="M1429.8,880c0,23.4,0,46.9,0,70.3c0,9.3-2.4,11.7-11.7,11.7c-12.8,0-25.6,0-38.5,0
						c-7.5,0-10.3-2.7-10.3-10.1c-0.1-47.7-0.1-95.4,0-143c0-8,2.6-10.4,10.5-10.5c13-0.1,26-0.1,39.1,0c8.5,0,10.9,2.6,10.9,11.3
						C1429.8,833.1,1429.8,856.6,1429.8,880z"/>
				</g>
				<defs>
					
						<filter id="Adobe_OpacityMaskFilter_00000084498105888932640280000015235029209672815491_" filterUnits="userSpaceOnUse" x="1369.3" y="798.4" width="60.5" height="163.7">
						<feFlood  style="flood-color:white;flood-opacity:1" result="back"/>
						<feBlend  in="SourceGraphic" in2="back" mode="normal"/>
					</filter>
				</defs>
				
					<mask maskUnits="userSpaceOnUse" x="1369.3" y="798.4" width="60.5" height="163.7" id="SVGID_00000149372353096560383650000017102295447524470686_">
					<g style="filter:url(#Adobe_OpacityMaskFilter_00000084498105888932640280000015235029209672815491_);">
						
							<image style="overflow:visible;" width="65" height="168" xlink:href="D1D45CFD.jpg"  transform="matrix(1 0 0 1 1367.12 796.2)">
						</image>
					</g>
				</mask>
				<g style="opacity:0.64;mask:url(#SVGID_00000149372353096560383650000017102295447524470686_);">
					<path class="st7" d="M1429.8,880c0,23.4,0,46.9,0,70.3c0,9.3-2.4,11.7-11.7,11.7c-12.8,0-25.6,0-38.5,0
						c-7.5,0-10.3-2.7-10.3-10.1c-0.1-47.7-0.1-95.4,0-143c0-8,2.6-10.4,10.5-10.5c13-0.1,26-0.1,39.1,0c8.5,0,10.9,2.6,10.9,11.3
						C1429.8,833.1,1429.8,856.6,1429.8,880z"/>
				</g>
			</g>
		</g>
		<g>
			
				<image style="overflow:visible;" width="200" height="191" xlink:href="D1D45CFF.png"  transform="matrix(1 0 0 1 1166.12 812.2)">
			</image>
			<g>
				<g>
					<path class="st0" d="M1327.8,897.1c15-0.1,23.9-6.7,25.3-21.6c1.2-12.2,0.9-24.9-1-37c-4.1-25.9-15-36.8-40.6-39.9
						c-29.9-3.5-60.1-3.8-89.9,0.9c-27.7,4.4-39.9,16.2-41.7,43.8c-1.7,25.7-1.3,51.7,1,77.4c2.4,26.3,17.2,39.6,43.7,40.5
						c38.4,1.3,76.9,0.8,115.4,0.9c5.5,0,8.4-3.3,8.4-8.8c0-7,0-14,0-21c0-12.3-1.5-13.8-13.8-13.8c-25.5,0-50.9,0.1-76.4-0.2
						c-13.4-0.2-19.7-7.1-19-20.9C1241.9,897.1,1300.7,897.2,1327.8,897.1z M1254.3,838.4c8.3-0.5,16.8-0.2,25.1,0.1
						c2.9,0.1,5.9,1.1,8.6,2.4c4.6,2.3,6.7,6.2,5.5,11.4c-1.2,5-5.8,6.4-10.4,6.4c-14.8,0.1-28.7,0-43.8,0
						C1237.3,845.3,1241.8,839.2,1254.3,838.4z"/>
				</g>
				<defs>
					
						<filter id="Adobe_OpacityMaskFilter_00000150798757894281480500000006093872325859733377_" filterUnits="userSpaceOnUse" x="1178.7" y="795.9" width="175" height="166.1">
						<feFlood  style="flood-color:white;flood-opacity:1" result="back"/>
						<feBlend  in="SourceGraphic" in2="back" mode="normal"/>
					</filter>
				</defs>
				
					<mask maskUnits="userSpaceOnUse" x="1178.7" y="795.9" width="175" height="166.1" id="SVGID_00000117636551310070405860000005103995943780400540_">
					<g style="filter:url(#Adobe_OpacityMaskFilter_00000150798757894281480500000006093872325859733377_);">
						
							<image style="overflow:visible;" width="180" height="171" xlink:href="D1D45CFC.jpg"  transform="matrix(1 0 0 1 1176.12 793.2)">
						</image>
					</g>
				</mask>
				<g style="opacity:0.64;mask:url(#SVGID_00000117636551310070405860000005103995943780400540_);">
					<path class="st7" d="M1327.8,897.1c15-0.1,23.9-6.7,25.3-21.6c1.2-12.2,0.9-24.9-1-37c-4.1-25.9-15-36.8-40.6-39.9
						c-29.9-3.5-60.1-3.8-89.9,0.9c-27.7,4.4-39.9,16.2-41.7,43.8c-1.7,25.7-1.3,51.7,1,77.4c2.4,26.3,17.2,39.6,43.7,40.5
						c38.4,1.3,76.9,0.8,115.4,0.9c5.5,0,8.4-3.3,8.4-8.8c0-7,0-14,0-21c0-12.3-1.5-13.8-13.8-13.8c-25.5,0-50.9,0.1-76.4-0.2
						c-13.4-0.2-19.7-7.1-19-20.9C1241.9,897.1,1300.7,897.2,1327.8,897.1z M1254.3,838.4c8.3-0.5,16.8-0.2,25.1,0.1
						c2.9,0.1,5.9,1.1,8.6,2.4c4.6,2.3,6.7,6.2,5.5,11.4c-1.2,5-5.8,6.4-10.4,6.4c-14.8,0.1-28.7,0-43.8,0
						C1237.3,845.3,1241.8,839.2,1254.3,838.4z"/>
				</g>
			</g>
		</g>
		<g>
			
				<image style="overflow:visible;" width="215" height="192" xlink:href="D1D45CE4.png"  transform="matrix(1 0 0 1 599.12 812.2)">
			</image>
			<g>
				<g>
					<path class="st0" d="M798.6,849.5c-6-29.9-21.1-45.3-50.8-50.1c-28.4-4.6-57.1-4.6-85.5,0.7c-24,4.5-39.3,19-45.4,42.6
						c-6.4,24.7-6.4,49.6-0.2,74.3c6,23.9,21.1,38.9,45.5,43.1c14.7,2.5,67.7,3.2,79,2c32.1-3.5,50.2-18.8,56.8-48.1
						C802.8,892.6,802.9,871,798.6,849.5z M740.9,893.1c0,15.6-12.6,28.2-28.2,28.2h-11.6c-15.6,0-28.2-12.6-28.2-28.2v-27.6
						c0-15.6,12.6-28.2,28.2-28.2h11c15.9,0,28.8,12.9,28.8,28.8V893.1z"/>
				</g>
				<defs>
					
						<filter id="Adobe_OpacityMaskFilter_00000044894675553011557630000008970995218857953982_" filterUnits="userSpaceOnUse" x="612.1" y="796" width="189.7" height="166.7">
						<feFlood  style="flood-color:white;flood-opacity:1" result="back"/>
						<feBlend  in="SourceGraphic" in2="back" mode="normal"/>
					</filter>
				</defs>
				
					<mask maskUnits="userSpaceOnUse" x="612.1" y="796" width="189.7" height="166.7" id="SVGID_00000148622766312640774500000010386485770014875541_">
					<g style="filter:url(#Adobe_OpacityMaskFilter_00000044894675553011557630000008970995218857953982_);">
						
							<image style="overflow:visible;" width="195" height="172" xlink:href="D1D45CE4.jpg"  transform="matrix(1 0 0 1 609.12 793.2)">
						</image>
					</g>
				</mask>
				<g style="opacity:0.64;mask:url(#SVGID_00000148622766312640774500000010386485770014875541_);">
					<path class="st7" d="M798.6,849.5c-6-29.9-21.1-45.3-50.8-50.1c-28.4-4.6-57.1-4.6-85.5,0.7c-24,4.5-39.3,19-45.4,42.6
						c-6.4,24.7-6.4,49.6-0.2,74.3c6,23.9,21.1,38.9,45.5,43.1c14.7,2.5,67.7,3.2,79,2c32.1-3.5,50.2-18.8,56.8-48.1
						C802.8,892.6,802.9,871,798.6,849.5z M740.9,893.1c0,15.6-12.6,28.2-28.2,28.2h-11.6c-15.6,0-28.2-12.6-28.2-28.2v-27.6
						c0-15.6,12.6-28.2,28.2-28.2h11c15.9,0,28.8,12.9,28.8,28.8V893.1z"/>
				</g>
			</g>
		</g>
		<g>
			
				<image style="overflow:visible;" width="199" height="188" xlink:href="D1D45CE7.png"  transform="matrix(1 0 0 1 1543.12 815.2)">
			</image>
			<g>
				<g>
					<path class="st10" d="M1729.5,809.1c-0.1-8.2-2.6-10.7-11.7-10.7c-15.6,0-31.1,0-46.7,0l0,0c-4.5,0-74.5,0-105,0
						c-8.4,0-10.8,2.5-10.8,10.7c0,7.8-0.1,15.6,0,23.4c0.1,5.5,2.8,8.6,8.5,8.7c7.4,0.1,39.3,0,48.5,0c0,3,0,5.1,0,7.3
						c0,33.9,0,67.7,0,101.6c0,9.9,2.1,11.9,12.1,11.9c11.8,0,23.6,0,35.5,0c10.8,0,12.7-1.9,12.7-12.5c0-33.5,0-66.9,0-100.4
						c0-2.4,0-4.7,0-7.9l0,0c13.2,0,40.7,0,47.7,0c6.1-0.1,9.1-3.2,9.1-8.7C1729.6,824.8,1729.6,816.9,1729.5,809.1z"/>
				</g>
				<defs>
					
						<filter id="Adobe_OpacityMaskFilter_00000158749342782514542040000010004095802399044745_" filterUnits="userSpaceOnUse" x="1555.3" y="798.4" width="174.3" height="163.7">
						<feFlood  style="flood-color:white;flood-opacity:1" result="back"/>
						<feBlend  in="SourceGraphic" in2="back" mode="normal"/>
					</filter>
				</defs>
				
					<mask maskUnits="userSpaceOnUse" x="1555.3" y="798.4" width="174.3" height="163.7" id="SVGID_00000031204721755409419390000005598376389299680409_">
					<g style="filter:url(#Adobe_OpacityMaskFilter_00000158749342782514542040000010004095802399044745_);">
						
							<image style="overflow:visible;" width="179" height="168" xlink:href="D1D45CE3.jpg"  transform="matrix(1 0 0 1 1553.12 796.2)">
						</image>
					</g>
				</mask>
				<g style="opacity:0.64;mask:url(#SVGID_00000031204721755409419390000005598376389299680409_);">
					<path class="st7" d="M1729.5,809.1c-0.1-8.2-2.6-10.7-11.7-10.7c-15.6,0-31.1,0-46.7,0l0,0c-4.5,0-74.5,0-105,0
						c-8.4,0-10.8,2.5-10.8,10.7c0,7.8-0.1,15.6,0,23.4c0.1,5.5,2.8,8.6,8.5,8.7c7.4,0.1,39.3,0,48.5,0c0,3,0,5.1,0,7.3
						c0,33.9,0,67.7,0,101.6c0,9.9,2.1,11.9,12.1,11.9c11.8,0,23.6,0,35.5,0c10.8,0,12.7-1.9,12.7-12.5c0-33.5,0-66.9,0-100.4
						c0-2.4,0-4.7,0-7.9l0,0c13.2,0,40.7,0,47.7,0c6.1-0.1,9.1-3.2,9.1-8.7C1729.6,824.8,1729.6,816.9,1729.5,809.1z"/>
				</g>
			</g>
		</g>
		<g>
			
				<image style="overflow:visible;" width="1110" height="719" xlink:href="D1D45CEB.png"  transform="matrix(1 0 0 1 405.12 35.2)">
			</image>
			<g>
				<g>
					<path class="st25" d="M972.7,72.9c4,1.3,5.1,3.2,5.1,7.2c-0.1,204.7-0.1,409.4-0.1,614.1c0,8.7-2.3,11-11,11.1
						c-2.2,0-4.4,0.1-6.6,0c-5-0.2-7.6-3.1-8.1-8c-0.2-1.8-0.1-3.6-0.1-5.4c0-197.3,0-394.6,0.1-591.8c0-6.1-1.7-8.6-7.5-10.4
						C908.3,78.4,830,53.5,830,53.5s-0.3,233-0.4,346.5c0,4.2,1.1,6.5,5.2,8.1c7.8,3.1,15.4,6.9,23.1,10.1c3.1,1.3,4.5,2.9,4.5,6.6
						c-0.1,90.2-0.1,180.4-0.1,270.7c0,7.1-2.7,9.6-9.8,9.8c-2,0-4,0-6,0c-7.1-0.2-9.6-2.6-9.8-9.9c-0.1-3.2,0-6.4,0-9.6
						c0-80-0.1-160,0.1-240c0-5.9-1.5-8.8-7.2-11c-19.8-7.6-65.6-26-65.6-26s0,191.9,0,283.7c0,11.5-1.3,12.8-12.7,12.8
						c-44.9,0-89.8,0-134.7,0c-10.3,0-12.3-2-12.3-12.3c0-51.1,0.1-102.3-0.1-153.4c0-4.9,1.5-7,6.1-8.5c11-3.6,21.9-7.8,32.9-11.5
						c3.4-1.1,4.7-2.8,4.6-6.4c-0.2-10.8-0.1-21.6-0.1-33.4c-14.4,5-28.4,9.9-43,15c-0.1-2.7-0.3-4.6-0.3-6.6
						c0-20,0.2-40.1-0.1-60.1c-0.1-4.9,1.3-7.4,6.1-9.1c30.8-10.7,61.5-21.9,92.3-32.6c5.2-1.8,7.1-4.1,6.9-9.8
						c-0.5-14.2-0.2-28.5-0.1-42.7c0-3.5-0.9-5.4-4.4-6.6c-53.6-17.9-107.1-35.9-160.7-53.8c-0.4-0.1-0.8,0-2.3,0c0,2.6,0,5.3,0,7.9
						c0,136.9,0,273.9,0,410.8c0,11.3-1.7,13-12.7,13c-30.9,0-61.8,0-92.6,0c-9.2,0-11.5-2.2-11.5-11.2c0-110.1,0-220.1-0.1-330.2
						c0-3.8,1.2-5.7,4.8-7c11.5-4.2,22.8-8.7,34.1-13.4c1.8-0.7,4.1-3,4.1-4.7c0.4-12,0.2-24,0.2-37c-14.3,5.6-28.1,10.9-43.1,16.7
						c0-9-0.2-17.1,0.2-25.2c0-1.1,2.3-2.6,3.7-3.2c36.6-14.7,73.2-29.4,109.9-43.9c2.1-0.8,5.1-0.6,7.4,0.2
						c37,12.5,73.9,25.2,110.9,37.8c2.1,0.7,4.1,1.3,7.1,2.3c0-11.2,0-21.7,0-32.3c0-15,0-15,14.1-19.9c6.8-2.4,13.7-4.6,20.4-7.2
						c1.5-0.6,3.6-2.5,3.7-3.8c0.3-12,0.2-24,0.2-37c-12.8,4.7-25.1,9.3-38.3,14.2c0-12.9-0.1-24.8,0.2-36.7c0-1.2,2.4-2.9,4.1-3.6
						c9.8-4,19.8-7.7,29.6-11.7c1.7-0.7,4.2-2.2,4.2-3.4c0.3-12.3,0.2-24.7,0.2-37.7c-12.9,5-25.1,9.7-38.3,14.8
						c0-10.1,0-19,0.3-28.3c0.1-1.6,3.4-3.5,5.6-4.4c31.9-12.9,63.9-25.7,95.9-38.6c15.6-6.3,46-18.9,57.2-23.6c2.8-1.2,6-1.4,9-0.4
						C853.4,33.5,938.1,61.5,972.7,72.9z"/>
					<path class="st25" d="M1331.3,405.3c0,0,14.2-6,20.8-8.2c2.8-0.9,6.4-1.3,9.1-0.4c43,14.3,85.8,28.8,128.8,43.2
						c4,1.3,5.1,3.2,5.1,7.3c-0.1,82.2-0.1,164.4-0.1,246.6c0,9.4-2.2,11.5-11.8,11.6c-12.7,0.1-14-1.3-14-14.1
						c0-52.3-0.1-104.7,0.1-157c0-4.8-1.1-7.1-6-8.3c-9.3-2.2-18.5-5.3-27.8-7.7c-3.6-0.9-5.3-2.4-5.2-6.5
						c0.3-12.4,0.1-24.8,0.1-38.2c12.9,3.7,25.3,7.2,38.7,11c0-7.7,0.3-14.6-0.3-21.4c-0.1-1.6-3.4-3.4-5.6-4.1
						c-31.2-10.3-62.4-20.4-93.7-30.5c-4-1.3-7.9-2.5-12.9-4.1c0,3.8,0,6.7,0,9.6c0,85.6,0,171.2,0,256.8c0,13.5-1.1,14.6-14.8,14.6
						c-28.1,0-56.1,0-84.2,0c-10.2,0-12.2-2-12.2-12.4c0-82.4,0-164.8-0.1-247.2c0-4.5,1.3-6.7,5.6-8.3
						c16.5-6.3,32.7-13.2,49.1-19.6c3.8-1.5,5.7-3.2,5.6-7.7c-0.3-19.2-0.2-38.5,0-57.7c0-4.1-1.1-6-5.2-7.2
						c-9.2-2.6-18.3-5.9-27.5-8.7c-3.6-1.1-5.2-2.6-5-6.7c0.3-9,0.1-18,0.1-27.9c12.6,4,24.6,7.9,37.5,12c0-8.8,0.2-16.8-0.2-24.7
						c-0.1-1.4-2.6-3.1-4.4-3.8c-9.5-3.3-19-6.3-28.6-9.2c-3.2-1-4.4-2.5-4.4-5.9c0.2-9.2,0.1-18.4,0.1-28.4
						c12.6,4,24.6,7.9,37.5,12c0-9,0.1-17.2-0.1-25.3c0-1.3-1.6-3.2-2.9-3.6c-38.8-12.8-77.6-25.5-117.6-38.5c0,3.2,0,5.7,0,8.1
						c0,165.8,0,331.6,0,497.4c0,11.9-1.4,13.3-13.5,13.3c-15.7,0-16.2-0.5-16.2-16.1c0-46.7-0.1-93.4,0.1-140.1
						c0-5.2-1.2-7.6-6.4-9.3c-26.3-8.4-52.5-17.3-79.7-26.4c-0.2,3-0.4,121.3-0.4,178.1c0,12.8-1.1,13.9-13.6,13.9
						c-14.8,0-29.7,0-44.5,0c-7.8,0-10.5-2.6-10.5-10.5c0-49.5,0-99-0.1-148.6c0-3.9,1.3-5.7,4.8-7c10.3-3.9,20.4-8.4,30.8-12
						c4.9-1.7,6.1-4.3,6.1-9.2c-0.1-95.4-0.1-190.9-0.1-286.3c0-6.8,0.1-13.6,0-20.4c-0.1-2.9,0.6-4.6,3.8-5.7
						c45.2-15.2,90.2-30.7,135.4-45.9c2.8-0.9,6.4-0.7,9.2,0.2c45.5,15,90.8,30.3,136.3,45.3c4.4,1.5,5.2,3.7,5.2,7.8
						C1331.2,274.3,1331.3,405.3,1331.3,405.3z"/>
				</g>
			</g>
		</g>
	</g>
</g>
</svg>
