<?xml version="1.0" encoding="utf-8"?><svg viewBox="0 0 100 100" xmlns="http://www.w3.org/2000/svg" xmlns:xlink="http://www.w3.org/1999/xlink"><style>:root>svg{display:none}:root>svg:target{display:block}</style><svg viewBox="0 0 14 8" id="icon-arrow" xmlns="http://www.w3.org/2000/svg"><path d="M13 1L7 7 1 1"/></svg><svg viewBox="0 0 45 25" id="icon-arrow-group" xmlns="http://www.w3.org/2000/svg"><path d="M30 2.24L32.24 0l12.5 12.5L32.292 25l-2.24-2.24L40.314 12.5 30.001 2.24zm-15 0L17.24 0l12.5 12.5L17.292 25l-2.24-2.24L25.314 12.5 15.001 2.24zm-15 0L2.24 0l12.5 12.5L2.292 25l-2.24-2.24L10.314 12.5.001 2.24z"/></svg><svg viewBox="0 0 15 25" id="icon-arrow2" xmlns="http://www.w3.org/2000/svg"><path d="M0 2.24L2.24 0l12.5 12.5L2.292 25l-2.24-2.24L10.314 12.5.001 2.24z"/></svg><svg viewBox="0 0 50 50" id="icon-arrows-hero" xmlns="http://www.w3.org/2000/svg"><path d="M25 16.314a1.15 1.15 0 01-.854-.38L4.64 0H1.16C.153 0-.374 1.21.307 1.96l23.84 20.709a1.149 1.149 0 001.706 0l23.84-20.71C50.374 1.21 49.848 0 48.84 0h-3.48L25.854 15.934a1.157 1.157 0 01-.854.38z"/><path d="M25 29.798c-.312 0-.624-.126-.854-.38L4.64 13.485H1.16c-1.007 0-1.534 1.21-.853 1.96l23.84 20.709a1.149 1.149 0 001.706 0l23.84-20.709c.681-.75.155-1.96-.853-1.96h-3.48L25.854 29.42a1.156 1.156 0 01-.854.38z"/><path d="M25 43.265c-.312 0-.624-.126-.854-.38L4.64 26.951H1.16c-1.007 0-1.534 1.21-.853 1.96l23.84 20.709a1.149 1.149 0 001.706 0l23.84-20.71c.681-.75.155-1.959-.853-1.959h-3.48L25.854 42.885a1.156 1.156 0 01-.854.38z"/></svg><svg viewBox="0 0 50 24" id="icon-arrows-hero-item" xmlns="http://www.w3.org/2000/svg"><path d="M25 16.798c-.312 0-.624-.126-.854-.38L4.64.485H1.16c-1.007 0-1.534 1.21-.853 1.96l23.84 20.709a1.149 1.149 0 001.706 0l23.84-20.709c.681-.75.155-1.96-.853-1.96h-3.48L25.854 16.42a1.156 1.156 0 01-.854.38z"/></svg><svg viewBox="0 0 24 24" id="icon-close" xmlns="http://www.w3.org/2000/svg"><path d="M18.53 6.53a.75.75 0 00-1.06-1.06L12 10.94 6.53 5.47a.75.75 0 00-1.06 1.06L10.94 12l-5.47 5.47a.75.75 0 101.06 1.06L12 13.06l5.47 5.47a.75.75 0 101.06-1.06L13.06 12l5.47-5.47z"/></svg><svg viewBox="0 0 100 100" id="icon-face" xmlns="http://www.w3.org/2000/svg"><path d="M50 100C22.43 100 0 77.57 0 50S22.43 0 50 0s50 22.43 50 50-22.43 50-50 50zm0-96.97C24.1 3.03 3.03 24.1 3.03 50S24.1 96.97 50 96.97 96.97 75.9 96.97 50 75.9 3.03 50 3.03z"/><path d="M35.46 42.59a6.44 6.44 0 10.001-12.878 6.44 6.44 0 000 12.879zm30.682 0a6.44 6.44 0 100-12.878 6.44 6.44 0 000 12.879zM31.291 72.479a1.516 1.516 0 01-1.288-2.31c4.33-7.011 11.834-11.2 20.07-11.2 8.118 0 15.564 4.098 19.915 10.955a1.515 1.515 0 01-2.558 1.621A20.452 20.452 0 0050.076 62c-7.176 0-13.715 3.648-17.491 9.764-.288.46-.785.715-1.294.715zM32.662 44.093A.179.179 0 0032.5 44a.175.175 0 00-.162.093c-1.387 2.393-2.084 3.943-2.084 4.66a2.234 2.234 0 001.121 1.946c.345.2.721.301 1.125.301a2.228 2.228 0 001.942-1.118c.202-.346.304-.721.304-1.128 0-.718-.692-2.27-2.084-4.661zm1.452 5.6a1.88 1.88 0 01-.683.675 1.813 1.813 0 01-.931.252c-.338 0-.651-.084-.939-.252a1.853 1.853 0 01-.928-1.614c0-.19.065-.462.194-.82.13-.364.299-.754.503-1.17.413-.843.797-1.553 1.17-2.191.372.638.753 1.35 1.166 2.19.205.419.374.808.504 1.17.128.36.196.63.196.82 0 .34-.083.653-.252.94z"/><path d="M33.213 47.447a.19.19 0 00-.02.268c.016.019.071.083.172.249.051.083.092.173.128.269.07.19.139.45.093.69-.068.354-.313.664-.756.92a.18.18 0 00-.069.253c.039.065.09.1.162.1a.256.256 0 00.097-.021c.549-.314.861-.707.942-1.186.133-.79-.456-1.494-.48-1.522a.189.189 0 00-.269-.02zm5.449 3.646A.179.179 0 0038.5 51a.175.175 0 00-.162.093c-1.387 2.393-2.084 3.943-2.084 4.66a2.234 2.234 0 001.121 1.946c.345.2.721.301 1.125.301a2.228 2.228 0 001.942-1.118c.202-.346.304-.721.304-1.128 0-.718-.692-2.27-2.084-4.661zm1.452 5.6a1.88 1.88 0 01-.683.675 1.813 1.813 0 01-.931.252c-.338 0-.651-.084-.939-.252a1.853 1.853 0 01-.928-1.614c0-.19.065-.462.194-.82.13-.364.299-.754.503-1.17.413-.843.797-1.553 1.17-2.191.372.638.753 1.35 1.166 2.19.205.419.374.808.504 1.17.128.36.196.63.196.82 0 .34-.083.653-.252.94z"/><path d="M39.213 54.447a.19.19 0 00-.02.268c.016.019.071.083.172.249.051.083.092.173.128.269.07.19.139.45.093.69-.068.354-.313.664-.756.92a.18.18 0 00-.069.253c.039.065.09.1.162.1a.256.256 0 00.097-.021c.549-.314.861-.707.942-1.186.133-.79-.456-1.494-.48-1.522a.189.189 0 00-.269-.02zm-7.551 3.646A.179.179 0 0031.5 58a.175.175 0 00-.162.093c-1.387 2.393-2.084 3.943-2.084 4.66a2.234 2.234 0 001.121 1.946c.345.2.721.301 1.125.301a2.228 2.228 0 001.942-1.118c.202-.346.304-.721.304-1.128 0-.718-.692-2.27-2.084-4.661zm1.452 5.6a1.88 1.88 0 01-.683.675 1.813 1.813 0 01-.931.252c-.338 0-.651-.084-.939-.252a1.853 1.853 0 01-.928-1.614c0-.19.065-.462.194-.82.13-.364.299-.754.503-1.17.413-.843.797-1.553 1.17-2.191.372.638.753 1.35 1.166 2.19.205.419.374.808.504 1.17.128.36.196.63.196.82 0 .34-.083.653-.252.94z"/><path d="M32.213 61.447a.19.19 0 00-.02.268c.016.019.071.083.172.249.051.083.092.173.128.269.07.19.139.45.093.69-.068.354-.313.664-.756.92a.18.18 0 00-.069.253c.039.065.09.1.163.1a.256.256 0 00.096-.021c.549-.314.861-.707.942-1.186.133-.79-.456-1.494-.48-1.522a.189.189 0 00-.269-.02z"/></svg><svg viewBox="0 0 36 36" id="icon-form" xmlns="http://www.w3.org/2000/svg"><path d="M10.482 4.846a3.428 3.428 0 013.462-3.461 3.428 3.428 0 013.461 3.461V8.17c.831-.83 1.385-2.077 1.385-3.323C18.79 2.216 16.575 0 13.944 0c-2.63 0-4.846 2.215-4.846 4.846 0 1.385.553 2.492 1.384 3.323V4.846z"/><path d="M30.559 12.462c-1.108 0-2.077.969-2.077 2.077V18h-1.385v-4.846c0-1.108-.969-2.077-2.077-2.077-1.107 0-2.076.97-2.076 2.077v3.461h-1.385V11.77c0-1.107-.97-2.077-2.077-2.077-1.108 0-2.077.97-2.077 2.077V18H16.02V4.846c0-1.107-.969-2.077-2.077-2.077-1.107 0-2.076.97-2.076 2.077v14.262c-2.908-3.046-6.647-6.37-8.17-4.846-1.523 1.523 2.354 5.677 7.754 14.815C13.943 33.231 16.99 36 22.251 36c5.677 0 10.385-4.708 10.385-10.385V14.54c0-1.108-.97-2.077-2.077-2.077z"/></svg><svg viewBox="0 0 65 44" id="icon-logo" xmlns="http://www.w3.org/2000/svg"><path d="M24.199 0l-9.882 4.164v38.693c0 .353.27.513.599.513h8.696c.33 0 .587-.16.587-.513V1.764l7.302 2.509v38.693c0 .295.221.532.497.532h.598c.276 0 .497-.237.497-.532V3.106L24.199 0z"/><path d="M6.417 15.837v27.719H18l.89-24.466L7.5 15.144l-1.083.693z"/><path d="M7.009 14.025L0 17.13v25.862c0 .327.245.59.545.59h6.027c.299 0 .544-.263.544-.59l-.101-27.145L17.13 19.49v23.571c0 .282.263.244.526.244h.659c.263 0 .502.038.502-.244V18.336L7.01 14.025zM19.888 24.11v19.472h5.518V26.426l-5.518-2.316z"/><path d="M20.236 22.423l-9.44 2.932v17.784c0 .244.186.443.414.443h8.613c.227 0 .413-.199.413-.443V24.553l4.393 1.854v16.68c0 .277.21.495.46.495h.647c.257 0 .46-.225.46-.494V25.29l-5.96-2.868zM45.47 8.488l-8.6 3.125v31.456c0 .282.245.449.556.449h7.493c.306 0 .557-.167.557-.45V10.343l7.182 2.49.114 30.327c0 .23.203.23.46.23h.551c.252 0 .461.007.461-.23V11.6L45.47 8.489z"/><path d="M39.412 31.334l4.98 2.034V43.5H39l.412-12.166z"/><path d="M39.412 31.334l-4.124 1.739v10.342c0 .135.056.085.212.085h3.555c.156 0 .35.05.35-.085l-.011-11.029M55.716 23.661l-6.697 2.894v16.623c0 .224.18.41.4.41h5.902c.221 0 .401-.18.401-.41V25.554l6.727 2.348v15.224c0 .25.198.456.545.456h.55c.15 0 .45-.205.45-.456l.017-16.443-8.295-3.022z"/></svg><svg viewBox="0 0 24 24" id="icon-mail" xmlns="http://www.w3.org/2000/svg"><path d="M21.666 2.69l-9.624.024-9.623-.047h-.005C1.12 2.667.094 3.88.094 5.4v12.72c0 1.52 1.026 2.733 2.32 2.733H21.68c1.293 0 2.32-1.214 2.32-2.733V5.4c0-1.52-1.017-2.71-2.334-2.71zm-.755 1.875l-8.597 7.861-.033.028-.028.033a.384.384 0 01-.576-.01l-.029-.032-8.217-7.917 8.611.056 8.869-.019zm.769 14.414H2.414c-.164 0-.445-.31-.445-.858V5.7l8.325 8.043a2.26 2.26 0 001.65.75h.028a2.24 2.24 0 001.631-.707l8.531-7.81v12.145c-.009.549-.29.858-.454.858z"/></svg><svg viewBox="0 0 24 24" id="icon-phone" xmlns="http://www.w3.org/2000/svg"><path d="M17.588 15.697a2.251 2.251 0 00-3.188 0l-1.087 1.088a19.96 19.96 0 01-6.098-6.098L8.303 9.6a2.25 2.25 0 000-3.187L6.18 4.298a2.198 2.198 0 00-1.582-.66A2.25 2.25 0 003 4.298L1.98 5.31A4.777 4.777 0 00.75 9.248c.24 2.812 2.085 6.195 4.928 9.045 2.842 2.85 6.262 4.687 9.075 4.957.21.011.42.011.63 0a4.553 4.553 0 003.307-1.23L19.703 21a2.25 2.25 0 00.66-1.598 2.199 2.199 0 00-.66-1.582l-2.115-2.123zm1.057 4.245l-1.02 1.013a3.428 3.428 0 01-2.745.75c-2.437-.21-5.542-1.935-8.107-4.5-2.565-2.565-4.29-5.647-4.523-8.085A3.397 3.397 0 013 6.375l1.058-1.02a.75.75 0 01.532-.217.75.75 0 01.533.217L7.245 7.5a.75.75 0 010 1.058l-1.5 1.5a.75.75 0 00-.12.907 20.614 20.614 0 003.248 4.185 20.612 20.612 0 004.185 3.248.75.75 0 00.907-.12l1.5-1.5a.75.75 0 011.058 0l2.122 2.122a.75.75 0 01.218.533.75.75 0 01-.218.51zm1.305-15.9A11.19 11.19 0 0012 .75a.75.75 0 000 1.5 9.75 9.75 0 019.75 9.832.75.75 0 001.5 0 11.185 11.185 0 00-3.3-8.04z"/><path d="M15.682 8.332a4.5 4.5 0 011.328 3.233.75.75 0 101.5 0 6 6 0 00-6-6.075.75.75 0 000 1.5 4.5 4.5 0 013.172 1.342z"/></svg><svg viewBox="0 0 60 86" id="icon-question" xmlns="http://www.w3.org/2000/svg"><path d="M26.465 58.48c0-3.2.52-6 1.56-8.4 1.12-2.48 2.44-4.56 3.96-6.24 1.6-1.68 3.68-3.68 6.24-6 3.2-2.8 5.56-5.2 7.08-7.2 1.52-2.08 2.28-4.56 2.28-7.44 0-3.92-1.52-7.04-4.56-9.36-3.04-2.4-7.24-3.6-12.6-3.6-9.36 0-16.52 3.16-21.48 9.48l-8.76-6.24c3.36-4.32 7.64-7.64 12.84-9.96C18.305 1.2 24.386.04 31.265.04c8.72 0 15.64 1.92 20.76 5.76 5.12 3.76 7.68 8.96 7.68 15.6 0 3.28-.56 6.2-1.68 8.76-1.04 2.48-2.32 4.56-3.84 6.24-1.52 1.68-3.56 3.68-6.12 6-3.28 2.96-5.72 5.56-7.32 7.8-1.52 2.24-2.28 5-2.28 8.28h-12zm6.12 27.24c-2.24 0-4.12-.72-5.64-2.16-1.44-1.52-2.16-3.36-2.16-5.52 0-2.16.72-3.96 2.16-5.4 1.52-1.52 3.4-2.28 5.64-2.28 2.24 0 4.08.76 5.52 2.28 1.44 1.44 2.16 3.24 2.16 5.4s-.76 4-2.28 5.52c-1.44 1.44-3.24 2.16-5.4 2.16z"/></svg><svg viewBox="0 0 50 50" id="icon-scroll" xmlns="http://www.w3.org/2000/svg"><path d="M25 43.265c-.312 0-.624-.126-.854-.38L4.64 26.951H1.16c-1.007 0-1.534 1.21-.853 1.96l23.84 20.709a1.149 1.149 0 001.706 0l23.84-20.71c.681-.75.155-1.959-.853-1.959h-3.48L25.854 42.885a1.156 1.156 0 01-.854.38z"/><path d="M25 29.798c-.312 0-.624-.126-.854-.38L4.64 13.485H1.16c-1.007 0-1.534 1.21-.853 1.96l23.84 20.709a1.149 1.149 0 001.706 0l23.84-20.709c.681-.75.155-1.96-.853-1.96h-3.48L25.854 29.42a1.156 1.156 0 01-.854.38z"/><path d="M25 16.314a1.15 1.15 0 01-.854-.38L4.64 0H1.16C.153 0-.374 1.21.307 1.96l23.84 20.709a1.149 1.149 0 001.706 0l23.84-20.71C50.374 1.21 49.848 0 48.84 0h-3.48L25.854 15.934a1.157 1.157 0 01-.854.38z"/></svg><svg viewBox="0 0 100 100" id="icon-thumb-up" xmlns="http://www.w3.org/2000/svg"><g clip-path="url(#na)" stroke-width="5"><path clip-rule="evenodd" d="M29.688 37.288H6.093c-4.375 0-4.532 3.56-4.532 8.136V86.61c0 4.407.157 8.136 4.532 8.136h23.593c4.375 0 4.532-3.56 4.532-8.136V45.424c0-4.407-.157-8.136-4.532-8.136z"/><path d="M33.906 88.644h2.188c5.937-.17 9.843 9.661 14.375 9.661H85.78c4.375 0 5.313-7.119 5.156-10.17 0 0 5.47-2.711 2.97-13.559.312-.17 3.124-3.05 3.124-8.644 0-5.593-2.969-8.305-2.969-8.305s2.97-3.56 2.97-8.813c0-5.255-4.22-8.136-8.594-8.136h-12.97c-11.25 0-10.312-6.61-10.312-6.61s-1.25-17.119-5.312-25.085c-5-9.83-15-6.61-11.25 6.271 2.812 9.492-9.844 23.73-14.532 28.475"/></g><defs><clipPath id="na"><path d="M0 0h100v100H0z"/></clipPath></defs></svg><svg viewBox="0 0 7 7" id="icon-waterdrop" xmlns="http://www.w3.org/2000/svg"><path d="M3.662.093A.178.178 0 003.5 0a.175.175 0 00-.162.093C1.95 2.486 1.254 4.036 1.254 4.753A2.233 2.233 0 002.375 6.7c.345.2.721.3 1.125.3a2.227 2.227 0 001.942-1.118c.202-.346.304-.721.304-1.128 0-.718-.692-2.27-2.084-4.661zm1.452 5.6a1.891 1.891 0 01-.683.676 1.812 1.812 0 01-.931.251 1.84 1.84 0 01-.939-.251 1.854 1.854 0 01-.928-1.615c0-.19.065-.462.194-.82.13-.364.299-.754.503-1.17.413-.843.797-1.553 1.17-2.191.372.638.753 1.35 1.166 2.19.205.419.374.808.504 1.17.129.36.196.63.196.82 0 .34-.083.653-.252.94z"/><path d="M4.213 3.447a.19.19 0 00-.02.268c.016.019.071.083.172.249.051.083.092.173.128.269.07.19.139.45.093.69-.068.354-.313.664-.756.92a.18.18 0 00-.069.253c.039.065.09.1.163.1a.255.255 0 00.096-.021c.549-.314.861-.707.942-1.186.133-.79-.456-1.494-.48-1.522a.189.189 0 00-.269-.02z"/></svg><svg viewBox="0 0 14 14" id="icon-zoom-in" xmlns="http://www.w3.org/2000/svg"><path d="M14 8H8v6H6V8H0V6h6V0h2v6h6v2z"/></svg><svg viewBox="0 0 14 2" id="icon-zoom-out" xmlns="http://www.w3.org/2000/svg"><path d="M14 2H0V0h14v2z"/></svg></svg>