<?xml version="1.0" encoding="utf-8"?><svg viewBox="0 0 729 164" xmlns="http://www.w3.org/2000/svg" xmlns:xlink="http://www.w3.org/1999/xlink"><style>:root>svg{display:none}:root>svg:target{display:block}</style><svg viewBox="0 0 91 156" id="LittleWeb_svg--icon-L" xmlns="http://www.w3.org/2000/svg"><path d="M.6.2h27.1v87.2c0 24.2 22 40.8 49.3 40.8h13.1v27.1H75.2C33.9 155.3.6 125.6.6 88.7V.2z"/></svg><svg viewBox="0 0 230 156" id="LittleWeb_svg--icon-W" xmlns="http://www.w3.org/2000/svg"><path d="M.1 0h26v91.4c0 20.2 16.4 37.9 37.9 37.9 21.1 0 37.9-16.8 37.9-37.9V0h26v91.4c0 20.2 16.2 37.9 37.7 37.9 21.1 0 37.9-16.8 37.9-37.9V0h26v91.4c0 35.9-29 64-63.9 64-20.7 0-39-9.6-50.7-25.2-11.9 15.7-30.2 25.2-50.9 25.2-35.4 0-63.9-28.5-63.9-64V0z"/></svg><svg viewBox="0 0 28 156" id="LittleWeb_svg--icon-_l" xmlns="http://www.w3.org/2000/svg"><path d="M.6 155.4V0h27.3v155.4H.6z"/></svg><svg viewBox="0 0 120 159" id="LittleWeb_svg--icon-b" xmlns="http://www.w3.org/2000/svg"><path d="M27.5.3v99.5c0 20.4 14 34.4 32.6 34.4 18.9 0 32.6-17.3 32.6-34.4 0-16.9-13.1-34.4-32.6-34.4-4.7 0-9.1.9-13.1 2.4-1.8-4.2-8-19.5-9.1-22.4 6.9-2.7 14.2-4 22.2-4 34.4 0 59.9 26.9 59.9 58.4 0 32.9-27.3 58.6-59.9 58.6C27 158.4.4 132.4.4 99.8V.3h27.1z"/></svg><svg viewBox="0 0 120 118" id="LittleWeb_svg--icon-e" xmlns="http://www.w3.org/2000/svg"><path d="M60.1.4C64.8.4 69 .8 73 1.7l2.2.4c.7.2 1.6.4 2.2.7C102 9.9 120 32.3 120 59c0 1.6-.2 3.1-.2 4.7-.4 4.4-1.3 8.7-2.7 12.7-10-4.9-21.1-7.3-32.9-7.3-11.8 0-22.9 2.4-33.3 7.1v-26c12.4-3.6 23.8-4.7 33.1-4.7 2 0 3.8.2 5.8.2-4.2-9.5-14.9-18.6-29.7-18.6-18 0-32.6 14.4-32.6 32 0 17.8 15.1 31.7 32.6 31.7 9.1 0 16.9-3.1 23.3-9.5 4.7 5.1 12.7 13.8 18.6 20.2-10.4 9.8-25.1 16-42 16C26.3 117.5.3 90.9.3 59.1.3 26.3 27 .4 60.1.4z"/></svg><svg viewBox="0 0 34 164" id="LittleWeb_svg--icon-i" xmlns="http://www.w3.org/2000/svg"><path d="M30.9 52.4v111H3.8v-111h27.1zM15.3 18.6l3.6-3.5"/></svg><svg viewBox="0 0 57 135" id="LittleWeb_svg--icon-t" xmlns="http://www.w3.org/2000/svg"><path d="M.8.9h27.1v35.7h16v26.6h-16v22.9c0 11.8 9.8 21.5 21.5 21.5h6.7v26.6h-6.7C22.5 134.2.8 112 .8 85.4V.9z"/></svg><svg stroke-width="2" viewBox="0 0 729 96" id="icon-title" xmlns="http://www.w3.org/2000/svg"><path d="M16.96 28.04c-.16 2.304-.896 4.128-2.208 5.472-1.312 1.312-2.928 1.968-4.848 1.968S6.176 35.32 4.48 35v-6.48h2.16c.608 0 1.104-.208 1.488-.624.416-.416.64-.928.672-1.536L10.24 1.4h26.64V35h-8.64V8.12H18.16l-1.2 19.92zm48.246-17.52c0-1.92-.96-2.88-2.88-2.88h-8.16c-1.92 0-2.88.96-2.88 2.88v15.36c0 1.92.96 2.88 2.88 2.88h8.16c1.92 0 2.88-.96 2.88-2.88V10.52zm8.64 15.36c0 3.36-.768 5.808-2.304 7.344-1.504 1.504-3.936 2.256-7.296 2.256h-12c-3.36 0-5.808-.752-7.344-2.256-1.504-1.536-2.256-3.984-2.256-7.344V10.52c0-3.36.752-5.792 2.256-7.296C46.438 1.688 48.886.92 52.246.92h12c3.36 0 5.792.768 7.296 2.304 1.536 1.504 2.304 3.936 2.304 7.296v15.36zM117.549 23c0 3.36-.768 5.808-2.304 7.344-1.504 1.504-3.936 2.256-7.296 2.256h-5.76v3.36h-8.64V32.6h-5.76c-3.36 0-5.808-.752-7.344-2.256-1.504-1.536-2.256-3.984-2.256-7.344v-9.6c0-3.36.752-5.792 2.256-7.296C81.98 4.568 84.429 3.8 87.789 3.8h5.76V.44h8.64V3.8h5.76c3.36 0 5.792.768 7.296 2.304 1.536 1.504 2.304 3.936 2.304 7.296V23zm-8.64-9.6c0-1.92-.96-2.88-2.88-2.88h-4.32v15.36h4.32c1.92 0 2.88-.96 2.88-2.88v-9.6zM86.829 23c0 1.92.96 2.88 2.88 2.88h4.32V10.52h-4.32c-1.92 0-2.88.96-2.88 2.88V23zm51.376 12h-8.64V8.12h-10.08V1.4h28.8v6.72h-10.08V35zm59.037 0h-8.64V8.12h-12V35h-8.64V1.4h29.28V35zm33.382 0h-26.64V1.4h26.64v6.72h-18v6.48h14.16v6.72h-14.16v6.96h18V35zm4.789-33.6h20.16c3.36 0 5.792.768 7.296 2.304 1.536 1.504 2.304 3.936 2.304 7.296v4.8c0 3.36-.768 5.808-2.304 7.344-1.504 1.504-3.936 2.256-7.296 2.256h-11.52V35h-8.64V1.4zm21.12 9.6c0-1.92-.96-2.88-2.88-2.88h-9.6v10.56h9.6c1.92 0 2.88-.96 2.88-2.88V11zm40.558 24h-26.64V1.4h26.64v6.72h-18v6.48h14.16v6.72h-14.16v6.96h18V35zm13.429 0h-8.64V1.4h26.16v6.72h-17.52V35zm43.451-24.48c0-1.92-.96-2.88-2.88-2.88h-8.16c-1.92 0-2.88.96-2.88 2.88v15.36c0 1.92.96 2.88 2.88 2.88h8.16c1.92 0 2.88-.96 2.88-2.88V10.52zm8.64 15.36c0 3.36-.768 5.808-2.304 7.344-1.504 1.504-3.936 2.256-7.296 2.256h-12c-3.36 0-5.808-.752-7.344-2.256-1.504-1.536-2.256-3.984-2.256-7.344V10.52c0-3.36.752-5.792 2.256-7.296 1.536-1.536 3.984-2.304 7.344-2.304h12c3.36 0 5.792.768 7.296 2.304 1.536 1.504 2.304 3.936 2.304 7.296v15.36zm5.783-24.48h20.16c3.36 0 5.792.768 7.296 2.304 1.536 1.504 2.304 3.936 2.304 7.296v4.8c0 3.36-.768 5.808-2.304 7.344-1.504 1.504-3.936 2.256-7.296 2.256h-11.52V35h-8.64V1.4zm21.12 9.6c0-1.92-.96-2.88-2.88-2.88h-9.6v10.56h9.6c1.92 0 2.88-.96 2.88-2.88V11zm35.518-.48c0-1.92-.96-2.88-2.88-2.88h-8.16c-1.92 0-2.88.96-2.88 2.88v15.36c0 1.92.96 2.88 2.88 2.88h8.16c1.92 0 2.88-.96 2.88-2.88V10.52zm8.64 15.36c0 3.36-.768 5.808-2.304 7.344-1.504 1.504-3.936 2.256-7.296 2.256h-12c-3.36 0-5.808-.752-7.344-2.256-1.504-1.536-2.256-3.984-2.256-7.344V10.52c0-3.36.752-5.792 2.256-7.296 1.536-1.536 3.984-2.304 7.344-2.304h12c3.36 0 5.792.768 7.296 2.304 1.536 1.504 2.304 3.936 2.304 7.296v15.36zm9.645-24.48h25.2v26.88h3.6v12.96h-8.16l-.48-6.24h-18.72l-.48 6.24h-8.16V28.28h3.12a10.45 10.45 0 002.064-3.552c.48-1.344.752-2.56.816-3.648l1.2-19.68zm16.56 26.88V8.12h-8.88l-.72 12c-.096 1.952-.576 3.92-1.44 5.904a13.631 13.631 0 01-1.2 2.256h12.24zM501.41.92c.8 0 2.24.16 4.32.48v6.48h-1.92c-.48 0-.912.16-1.296.48-.384.288-.672.608-.864.96l-4.56 8.64L506.45 35h-9.12l-7.44-13.68h-4.32V35h-8.64V1.4h8.64v13.2h4.32l4.8-9.12c.704-1.344 1.568-2.432 2.592-3.264 1.056-.864 2.432-1.296 4.128-1.296zM539.56 35h-8.64V14.36L519.401 35h-9.121V1.4h8.64v20.64L530.44 1.4h9.12V35zM36.16 95h-8.64V74.36L16 95H6.88V61.4h8.64v20.64L27.04 61.4h9.12V95zm50.894-18.72l-6.72 12h-6.72l-6.72-12V95h-8.64V61.4h9.12l9.6 17.76 9.6-17.76h9.12V95h-8.64V76.28zM129.072 95h-26.64V61.4h26.64v6.72h-18v6.48h14.16v6.72h-14.16v6.96h18V95zm13.429-20.64h11.52c3.36 0 5.792.768 7.296 2.304 1.536 1.504 2.304 3.936 2.304 7.296v1.44c0 3.36-.768 5.808-2.304 7.344-1.504 1.504-3.936 2.256-7.296 2.256h-20.16V61.4h26.64v6.72h-18v6.24zm12.48 9.6c0-1.92-.96-2.88-2.88-2.88h-9.6v7.2h9.6c1.92 0 2.88-.96 2.88-2.88v-1.44zM195.539 95h-26.64V61.4h26.64v6.72h-18v6.48h14.16v6.72h-14.16v6.96h18V95zm14.869-6.96c-.16 2.304-.896 4.128-2.208 5.472-1.312 1.312-2.928 1.968-4.848 1.968s-3.728-.16-5.424-.48v-6.48h2.16c.608 0 1.104-.208 1.488-.624.416-.416.64-.928.672-1.536l1.44-24.96h26.64V95h-8.64V68.12h-10.08l-1.2 19.92zm35.286-15.12h11.52c3.36 0 5.792.768 7.296 2.304 1.536 1.504 2.304 3.936 2.304 7.296v2.88c0 3.36-.768 5.808-2.304 7.344-1.504 1.504-3.936 2.256-7.296 2.256h-20.16V61.4h8.64v11.52zm12.48 9.6c0-1.92-.96-2.88-2.88-2.88h-9.6v8.64h9.6c1.92 0 2.88-.96 2.88-2.88v-2.88zm29.268-21.12h20.16c3.36 0 5.792.768 7.296 2.304 1.536 1.504 2.304 3.936 2.304 7.296v4.8c0 3.36-.768 5.808-2.304 7.344-1.504 1.504-3.936 2.256-7.296 2.256h-11.52V95h-8.64V61.4zm21.12 9.6c0-1.92-.96-2.88-2.88-2.88h-9.6v10.56h9.6c1.92 0 2.88-.96 2.88-2.88V71zm21.045 24.48c-1.6 0-3.248-.16-4.944-.48v-6.48h4.32c.928 0 1.568-.368 1.92-1.104.16-.32.24-.656.24-1.008 0-.384-.08-.72-.24-1.008l-13.2-24h9.6l8.64 17.04 7.2-17.04h9.6l-12.24 26.4c-1.12 2.528-2.464 4.416-4.032 5.664-1.728 1.344-4.016 2.016-6.864 2.016zm45.477-11.52c-3.84.32-7.472.48-10.896.48-3.392 0-5.824-.736-7.296-2.208-1.472-1.472-2.208-3.776-2.208-6.912V61.4h8.64v13.92c0 .736.208 1.328.624 1.776.448.416 1.04.624 1.776.624 2.624 0 5.744-.16 9.36-.48V61.4h8.64V95h-8.64V83.96zM419.727 95h-8.64V81.32h-12V95h-8.64V61.4h8.64v13.2h12V61.4h8.64V95zm28.343-24.48c0-1.92-.96-2.88-2.88-2.88h-8.16c-1.92 0-2.88.96-2.88 2.88v15.36c0 1.92.96 2.88 2.88 2.88h8.16c1.92 0 2.88-.96 2.88-2.88V70.52zm8.64 15.36c0 3.36-.768 5.808-2.304 7.344-1.504 1.504-3.936 2.256-7.296 2.256h-12c-3.36 0-5.808-.752-7.344-2.256-1.504-1.536-2.256-3.984-2.256-7.344V70.52c0-3.36.752-5.792 2.256-7.296 1.536-1.536 3.984-2.304 7.344-2.304h12c3.36 0 5.792.768 7.296 2.304 1.536 1.504 2.304 3.936 2.304 7.296v15.36zM483.132 95V74.36L471.612 95h-9.12V61.4h8.64v20.64l11.52-20.64h9.12V95h-8.64zm-8.64-36c-4.16 0-6.24-2.08-6.24-6.24v-1.44h6.24v1.2c0 .48.16.88.48 1.2.32.32.72.48 1.2.48h1.44c.48 0 .88-.16 1.2-.48.32-.32.48-.72.48-1.2v-1.2h6.24v1.44c0 4.16-2.08 6.24-6.24 6.24h-4.8zm39.373 2.4h20.16c3.36 0 5.792.768 7.296 2.304 1.536 1.504 2.304 3.936 2.304 7.296v4.8c0 3.36-.768 5.808-2.304 7.344-1.504 1.504-3.936 2.256-7.296 2.256h-11.52V95h-8.64V61.4zm21.12 9.6c0-1.92-.96-2.88-2.88-2.88h-9.6v10.56h9.6c1.92 0 2.88-.96 2.88-2.88V71zm17.059 24h-9.36l12.72-33.6h9.6l12.72 33.6h-9.36l-2.16-6h-12l-2.16 6zm4.32-12.24h7.68l-3.84-11.28-3.84 11.28zm33.358-8.4h11.52c3.36 0 5.792.768 7.296 2.304 1.536 1.504 2.304 3.936 2.304 7.296v1.44c0 3.36-.768 5.808-2.304 7.344-1.504 1.504-3.936 2.256-7.296 2.256h-20.16V61.4h26.64v6.72h-18v6.24zm12.48 9.6c0-1.92-.96-2.88-2.88-2.88h-9.6v7.2h9.6c1.92 0 2.88-.96 2.88-2.88v-1.44zm35.518-13.44c0-1.92-.96-2.88-2.88-2.88h-8.16c-1.92 0-2.88.96-2.88 2.88v15.36c0 1.92.96 2.88 2.88 2.88h8.16c1.92 0 2.88-.96 2.88-2.88V70.52zm8.64 15.36c0 3.36-.768 5.808-2.304 7.344-1.504 1.504-3.936 2.256-7.296 2.256h-12c-3.36 0-5.807-.752-7.343-2.256-1.504-1.536-2.257-3.984-2.257-7.344V70.52c0-3.36.753-5.792 2.257-7.296 1.536-1.536 3.983-2.304 7.343-2.304h12c3.36 0 5.792.768 7.296 2.304 1.536 1.504 2.304 3.936 2.304 7.296v15.36zM668.463 95h-8.64V68.12h-10.08V61.4h28.8v6.72h-10.08V95zm23.046-22.08h11.04c3.36 0 5.792.768 7.296 2.304 1.536 1.504 2.304 3.936 2.304 7.296v2.88c0 3.36-.768 5.808-2.304 7.344-1.504 1.504-3.936 2.256-7.296 2.256h-19.68V61.4h8.64v11.52zM724.629 95h-8.64V61.4h8.64V95zm-21.12-12.48c0-1.92-.96-2.88-2.88-2.88h-9.12v8.64h9.12c1.92 0 2.88-.96 2.88-2.88v-2.88z"/></svg></svg>