<?xml version="1.0" encoding="utf-8"?><svg viewBox="0 0 50 50" xmlns="http://www.w3.org/2000/svg" xmlns:xlink="http://www.w3.org/1999/xlink"><style>:root>svg{display:none}:root>svg:target{display:block}</style><svg viewBox="0 0 50 50" id="icon-scroll" xmlns="http://www.w3.org/2000/svg"><path d="M25 43.265c-.312 0-.624-.126-.854-.38L4.64 26.951H1.16c-1.007 0-1.534 1.21-.853 1.96l23.84 20.709a1.149 1.149 0 001.706 0l23.84-20.71c.681-.75.155-1.959-.853-1.959h-3.48L25.854 42.885a1.156 1.156 0 01-.854.38z"/><path d="M25 29.798c-.312 0-.624-.126-.854-.38L4.64 13.485H1.16c-1.007 0-1.534 1.21-.853 1.96l23.84 20.709a1.149 1.149 0 001.706 0l23.84-20.709c.681-.75.155-1.96-.853-1.96h-3.48L25.854 29.42a1.156 1.156 0 01-.854.38z"/><path d="M25 16.314a1.15 1.15 0 01-.854-.38L4.64 0H1.16C.153 0-.374 1.21.307 1.96l23.84 20.709a1.149 1.149 0 001.706 0l23.84-20.71C50.374 1.21 49.848 0 48.84 0h-3.48L25.854 15.934a1.157 1.157 0 01-.854.38z"/></svg></svg>