<?xml version="1.0" encoding="utf-8"?><svg viewBox="0 0 93 61" xmlns="http://www.w3.org/2000/svg" xmlns:xlink="http://www.w3.org/1999/xlink"><style>:root>svg{display:none}:root>svg:target{display:block}</style><svg viewBox="0 0 93 61" id="icon-logo" xmlns="http://www.w3.org/2000/svg"><path d="M0 56.19c0-3.355 0-6.71.006-10.066 0-.32.006-.648.072-.956.18-.834.886-1.38 1.813-1.398.994-.02 1.994-.013 2.987-.013 2.03 0 4.052-.007 6.081.006 1.024.007 1.718.513 1.921 1.392.066.283.078.584.078.88.006 3.611.006 7.223 0 10.836 0 .602-.138.75-.706.75H9.445c-.509 0-.665-.16-.665-.718v-8.68c.006-1.021-.131-1.169-1.07-1.169H5.081c-.713 0-.91.193-.91.95-.006 2.88-.006 5.761-.006 8.642 0 .154.006.308-.006.462-.018.32-.198.5-.485.507-1.053.006-2.113.006-3.166 0-.24 0-.371-.122-.455-.302-.06-.135-.054-.982-.054-1.123zm14.73 4.806a.665.665 0 01-.377-.11c-.197-.127-.269-.333-.269-.647.012-3.676.006-7.352.006-11.029 0-1.36.587-2.046 1.85-2.066 1.663-.032 3.333-.012 5.003-.006.682.007 1.335.167 1.927.533.898.558 1.353 1.443 1.538 2.489.288 1.649.246 3.304-.173 4.927-.353 1.38-1.221 2.214-2.526 2.4-.91.128-3.55.134-4.004.134v2.49c0 .584-.251.872-.79.879-.503.012-1.742.012-2.185.006zm2.993-6.627c.006.25.192.442.425.449.413.013.97.006 1.359 0 .808-.02 1.22-.488 1.298-1.335.072-.77.06-1.565-.024-2.335-.077-.77-.586-1.18-1.316-1.206-.371-.013-.742-.007-1.114-.007-.508 0-.646.142-.646.68-.006.995.006 2.881.018 3.754zm18.679-3.966c-.359-1.918-1.263-2.906-3.04-3.214a13.86 13.86 0 00-5.118.045c-1.436.289-2.352 1.22-2.717 2.733a10.184 10.184 0 00-.012 4.767c.36 1.533 1.263 2.496 2.723 2.765.88.16 4.052.206 4.729.128 1.921-.224 3.004-1.206 3.4-3.085a10.58 10.58 0 00.035-4.139zm-3.453 2.804c0 1.001-.754 1.81-1.688 1.81h-.694c-.934 0-1.688-.809-1.688-1.81v-1.77c0-1.002.754-1.81 1.688-1.81h.658c.952 0 1.724.828 1.724 1.848v1.732zm7.594 4.369c-1.903-.167-2.962-1.29-3.19-3.323-.15-1.322-.15-2.643.066-3.959.293-1.841 1.466-3.04 3.202-3.118 1.808-.077 3.621-.045 5.435-.045.359 0 .514.186.52.584.012.475.006.95 0 1.43-.006.45-.173.623-.598.623-.982.007-1.97 0-2.95.007-1.306.006-1.928.59-2.03 1.995a8.97 8.97 0 00.06 1.88c.126.872.617 1.29 1.448 1.315 1.114.026 2.233.02 3.346.02.88 0 .928.05.928 1.007v1c-.006.462-.156.636-.587.636-.904.006-4.674.038-5.65-.052zm7.147-4.651c0-1.258-.006-2.521 0-3.779.006-1.277.61-1.982 1.801-1.995 2.305-.032 4.609-.032 6.907 0 1.215.013 1.814.712 1.814 2.02.006 2.586.006 5.172 0 7.757 0 .552-.144.7-.67.7h-2.233c-.569 0-.706-.148-.706-.745v-6.248c0-.7-.15-.86-.808-.867-.599 0-1.197-.006-1.802 0-.539.007-.712.193-.712.77v6.288c0 .673-.12.802-.76.802h-2.197c-.497 0-.646-.16-.646-.687.012-1.34.012-2.675.012-4.016zm20.385.532c.898-.006 1.43-.43 1.514-1.385.072-.783.054-1.598-.06-2.374-.245-1.662-.897-2.361-2.43-2.56-1.79-.225-3.597-.244-5.38.058-1.658.282-2.389 1.039-2.496 2.81a34.387 34.387 0 00.06 4.965c.143 1.688 1.03 2.541 2.615 2.599 2.298.083 4.603.051 6.907.058.33 0 .503-.212.503-.565v-1.347c0-.79-.09-.886-.826-.886-1.526 0-3.047.007-4.573-.012-.802-.013-1.179-.456-1.137-1.341.162-.013 3.68-.013 5.303-.02zm-4.4-3.766a14.646 14.646 0 011.503.007c.174.006.353.07.515.154.275.147.4.398.329.731-.072.32-.347.41-.623.41-.885.007-1.717 0-2.621 0-.12-.859.15-1.25.898-1.302zm10.507-1.841c0-.558-.144-.719-.652-.725a142.62 142.62 0 00-2.34 0c-.473 0-.629.16-.629.674-.006 3.06-.006 6.12 0 9.174 0 .475.168.648.617.648.766.006 1.532 0 2.304 0 .556 0 .7-.16.7-.75V47.85zm7.26 9.444c-.569-.796-2.155-3.003-2.963-4.061-.652-.86-.658-1.11-.053-1.99.065-.089 2.178-3.06 2.687-3.784.084-.122.006-.29-.132-.296-.706-.012-2.346-.044-3.136-.019a.9.9 0 00-.629.353c-.825 1.232-1.616 2.49-2.424 3.734-.454.706-.436 1.36.042 2.053.904 1.296 1.778 2.618 2.67 3.927a.873.873 0 00.802.416c.754-.012 2.31-.032 3.004-.044.138.006.216-.167.132-.29zm10.676-9.482c-.006-.526-.155-.687-.7-.687h-9.08c-.502 0-.646.16-.646.687 0 .5-.006 1 0 1.501.006.353.168.552.509.558.443.007 2.352 0 2.903 0v6.987c0 .635.125.763.724.763h2.125c.646 0 .76-.122.76-.802v-6.948h2.855c.365-.006.544-.205.544-.558.012-.494.012-.994.006-1.501zM38.982 0l-9.881 4.164v38.693c0 .353.269.513.598.513h8.697c.329 0 .586-.16.586-.513V1.764l7.302 2.509v38.693c0 .295.222.532.497.532h.598c.276 0 .497-.237.497-.532V3.106L38.982 0z"/><path d="M20.476 15.59v28.114h12.473V18.843l-11.39-3.946-1.083.693z"/><path d="M21.792 14.025l-7.009 3.105v25.862c0 .327.246.59.545.59h6.027c.3 0 .545-.263.545-.59l-.102-27.145 10.115 3.644v23.571c0 .282.263.244.527.244h.658c.263 0 .503.038.503-.244V18.336l-11.81-4.311zM34.67 24.11v19.472h5.52V26.426l-5.52-2.316z"/><path d="M35.019 22.423l-9.439 2.932v17.784c0 .244.186.443.413.443h8.613c.227 0 .413-.199.413-.443V24.553l4.393 1.854v16.68c0 .277.21.495.46.495h.647c.258 0 .461-.225.461-.494V25.29l-5.961-2.868zM60.253 8.488l-8.6 3.125v31.456c0 .282.245.449.556.449h7.493c.306 0 .557-.167.557-.45V10.343l7.182 2.49.114 30.327c0 .23.203.23.46.23h.552c.25 0 .46.007.46-.23V11.6l-8.774-3.111z"/><path d="M54.196 31.334l4.98 2.034v10.361h-5.65l.67-12.395z"/><path d="M54.195 31.334l-4.124 1.739v10.342c0 .135.126.244.282.244h3.555c.155 0 .281-.11.281-.244l-.012-11.029M70.5 23.661l-6.698 2.894v16.623c0 .224.18.41.4.41h5.902c.222 0 .401-.18.401-.41V25.554l6.728 2.348v15.224c0 .25.197.456.544.456h.55c.15 0 .45-.205.45-.456l.018-16.443-8.296-3.022zM28.778 7.898l2.406-1.033v2.573l-2.406 1v-2.54zm0 5.004l2.406-1.033v2.573l-2.406 1v-2.54zm-11.51 9.04l-2.664 1.059V20.46l2.664-1.155v2.637zm8.068 9.803l2.574-.95v2.432l-2.574.956v-2.438zM65.36 15.5v2.111l2.298.79v-2.13l-2.299-.77zm0 3.85v2.11l2.298.79v-2.13l-2.299-.77z"/><path d="M75.08 30.391v2.76l2.351.705v-2.727l-2.352-.738z"/></svg><svg viewBox="0 0 50 50" id="icon-scroll" xmlns="http://www.w3.org/2000/svg"><path d="M25 43.265c-.312 0-.624-.126-.854-.38L4.64 26.951H1.16c-1.007 0-1.534 1.21-.853 1.96l23.84 20.709a1.149 1.149 0 001.706 0l23.84-20.71c.681-.75.155-1.959-.853-1.959h-3.48L25.854 42.885a1.156 1.156 0 01-.854.38z"/><path d="M25 29.798c-.312 0-.624-.126-.854-.38L4.64 13.485H1.16c-1.007 0-1.534 1.21-.853 1.96l23.84 20.709a1.149 1.149 0 001.706 0l23.84-20.709c.681-.75.155-1.96-.853-1.96h-3.48L25.854 29.42a1.156 1.156 0 01-.854.38z"/><path d="M25 16.314a1.15 1.15 0 01-.854-.38L4.64 0H1.16C.153 0-.374 1.21.307 1.96l23.84 20.709a1.149 1.149 0 001.706 0l23.84-20.71C50.374 1.21 49.848 0 48.84 0h-3.48L25.854 15.934a1.157 1.157 0 01-.854.38z"/></svg></svg>